<?xml version="1.0" standalone="no"?>
<!DOCTYPE svg PUBLIC "-//W3C//DTD SVG 20010904//EN"
 "http://www.w3.org/TR/2001/REC-SVG-20010904/DTD/svg10.dtd">
<svg version="1.0" xmlns="http://www.w3.org/2000/svg"
 width="512.000000pt" height="512.000000pt" viewBox="0 0 512.000000 512.000000"
 preserveAspectRatio="xMidYMid meet">

<g transform="translate(0.000000,512.000000) scale(0.100000,-0.100000)"
fill="#ffffff" stroke="none">
<path d="M1632 4833 c-62 -30 -77 -64 -80 -191 -4 -128 11 -112 -127 -132
-218 -32 -431 -127 -577 -257 -199 -176 -312 -407 -354 -723 -20 -154 -20
-2106 0 -2260 42 -316 155 -547 354 -723 152 -135 360 -225 605 -261 156 -24
2058 -24 2214 0 462 68 771 317 902 727 67 210 64 155 68 1312 3 723 1 1084
-7 1160 -57 571 -384 934 -919 1021 -53 9 -106 18 -118 20 -22 4 -23 9 -23
105 0 115 -14 156 -63 191 -47 34 -132 36 -177 6 -58 -38 -80 -96 -80 -205 l0
-93 -689 0 -689 0 -4 103 c-4 116 -20 156 -78 194 -40 28 -109 30 -158 6z
m1620 -726 c4 -115 13 -137 74 -183 67 -52 170 -31 221 46 20 29 23 46 23 131
l0 99 39 0 c52 0 212 -42 285 -74 186 -83 317 -241 380 -458 23 -80 46 -227
46 -295 l0 -33 -1760 0 -1760 0 0 33 c0 68 23 216 47 297 80 276 256 441 546
510 45 11 99 20 120 20 l37 0 0 -99 c0 -85 3 -102 23 -131 31 -47 81 -74 138
-74 54 0 86 18 126 70 25 34 28 46 31 140 l4 104 688 0 688 0 4 -103z m1068
-1892 c0 -506 -4 -842 -11 -902 -45 -407 -266 -644 -660 -708 -140 -22 -2038
-22 -2178 0 -392 64 -610 296 -660 700 -7 59 -11 372 -11 903 l0 812 1760 0
1760 0 0 -805z"/>
<path d="M1725 2431 c-104 -47 -153 -174 -106 -276 71 -158 296 -167 380 -15
45 80 26 194 -41 257 -56 53 -159 68 -233 34z"/>
<path d="M2466 2430 c-54 -27 -64 -38 -93 -94 -21 -41 -24 -60 -21 -112 5 -82
39 -134 110 -170 106 -54 232 -16 285 86 35 66 29 162 -12 221 -59 83 -178
114 -269 69z"/>
<path d="M3230 2439 c-81 -33 -133 -110 -133 -200 -1 -181 213 -276 350 -156
146 129 53 368 -142 366 -27 0 -61 -5 -75 -10z"/>
<path d="M3238 1695 c-61 -20 -122 -87 -138 -154 -22 -94 23 -191 111 -235 88
-44 176 -30 245 39 156 156 -6 417 -218 350z"/>
<path d="M1731 1689 c-48 -19 -84 -54 -107 -103 -52 -112 -10 -231 100 -282
67 -31 119 -30 185 2 87 44 133 141 111 234 -14 56 -64 120 -114 144 -37 18
-136 21 -175 5z"/>
<path d="M2465 1681 c-134 -62 -156 -248 -42 -348 136 -119 347 -20 347 162 0
56 -26 119 -61 152 -58 53 -169 69 -244 34z"/>
</g>
</svg>
