<?xml version="1.0" encoding="UTF-8"?>
<svg version="1.1" xmlns="http://www.w3.org/2000/svg" width="205" height="256">
<path d="M0 0 C0.680625 -0.01675781 1.36125 -0.03351562 2.0625 -0.05078125 C4.67636108 0.4393177 5.39225324 1.19573047 7 3.3125 C7.46069336 6.10546875 7.46069336 6.10546875 7.58984375 9.5 C7.64954346 10.7473291 7.70924316 11.9946582 7.77075195 13.27978516 C7.79738922 13.93843567 7.82402649 14.59708618 7.85147095 15.2756958 C8.75210961 36.59901093 10.94460995 62.12472662 27.53125 77.6875 C28.3459375 78.22375 29.160625 78.76 30 79.3125 C34.08886639 77.94954454 34.39739059 76.25010862 36.3125 72.4375 C39.66565322 65.71330053 41.93306686 58.7609688 43.95825195 51.53564453 C44.18343506 50.75560059 44.40861816 49.97555664 44.640625 49.171875 C44.83172852 48.47545898 45.02283203 47.77904297 45.21972656 47.06152344 C46 45.3125 46 45.3125 49 43.3125 C51.6875 42.75 51.6875 42.75 55 43.3125 C57.9799766 45.32429855 60.44700348 47.79235454 63 50.3125 C63.70125 50.95316406 64.4025 51.59382813 65.125 52.25390625 C90.00309064 75.66596655 103.25746068 110.05240066 105.12890625 143.625 C105.78028115 169.33259593 97.7730597 192.91266423 81 212.3125 C79.70703003 213.4094519 79.70703003 213.4094519 78.38793945 214.52856445 C75.33137033 218.09200967 75.38618528 219.98082619 75.3984375 224.625 C75.39043121 225.31634033 75.38242493 226.00768066 75.37417603 226.7199707 C75.35119372 228.91808442 75.36053206 231.11433828 75.375 233.3125 C75.3788575 235.51031255 75.3753322 237.70730772 75.35440063 239.9050293 C75.33682896 241.89884841 75.3442603 243.89284149 75.35302734 245.88671875 C74.97337703 249.57084956 74.23998717 251.39848212 72 254.3125 C68.86469771 256.40270153 68.1816823 256.5599595 64.62036133 256.53955078 C63.73967484 256.53939972 62.85898834 256.53924866 61.95161438 256.53909302 C61.00465195 256.52877045 60.05768951 256.51844788 59.08203125 256.5078125 C58.10965012 256.5049826 57.13726898 256.50215271 56.13542175 256.49923706 C53.02765634 256.48803599 49.92017841 256.46293148 46.8125 256.4375 C44.70638437 256.42747011 42.60026422 256.41834427 40.49414062 256.41015625 C35.3293162 256.38809688 30.16470685 256.35356746 25 256.3125 C24.67 255.3225 24.34 254.3325 24 253.3125 C22.37419034 253.42648665 20.74932843 253.55405659 19.125 253.6875 C18.22007813 253.75710937 17.31515625 253.82671875 16.3828125 253.8984375 C13.82058097 254.10818132 13.82058097 254.10818132 12 256.3125 C8.98381042 256.57992554 8.98381042 256.57992554 5.05932617 256.60302734 C4.34530136 256.60974457 3.63127655 256.61646179 2.89561462 256.62338257 C0.52799575 256.64242661 -1.83934049 256.64629027 -4.20703125 256.6484375 C-5.85129412 256.65486223 -7.49555584 256.66159034 -9.13981628 256.66860962 C-12.59071502 256.68059927 -16.04151354 256.68428884 -19.49243164 256.68310547 C-23.91114072 256.68290246 -28.32920528 256.71017742 -32.74776173 256.74464989 C-36.1458785 256.76690908 -39.54384011 256.77094328 -42.94202232 256.76988602 C-44.57069808 256.77224451 -46.19937795 256.78108205 -47.82798195 256.79655075 C-50.10949103 256.81618691 -52.38961026 256.81038279 -54.67114258 256.79833984 C-56.61734245 256.8026149 -56.61734245 256.8026149 -58.6028595 256.80697632 C-62.57674177 256.22855141 -64.21911798 255.1630064 -67 252.3125 C-68.17831672 248.77754983 -68.09330958 245.99490614 -68.0703125 242.265625 C-68.07890057 240.84894607 -68.08937792 239.43227756 -68.1015625 238.015625 C-68.1182139 235.79217309 -68.12509804 233.57105206 -68.09960938 231.34765625 C-67.76833012 222.78260468 -67.76833012 222.78260468 -70.4777832 214.90991211 C-72.22675026 213.18613354 -74.01782087 211.75601977 -76 210.3125 C-92.6611485 190.74850167 -99.75358912 164.84590958 -97.859375 139.42529297 C-95.72730423 113.16811463 -87.58605468 79.39733675 -68 60.3125 C-66.0104838 59.61516957 -64.01086196 58.94564978 -62 58.3125 C-59.7486961 55.4463486 -59.7486961 55.4463486 -59.67578125 51.98046875 C-58.84666214 47.48022107 -57.35800654 45.87715048 -54.1875 42.625 C-53.69830078 42.11735107 -53.20910156 41.60970215 -52.70507812 41.08666992 C-51.67149364 40.01975989 -50.63080497 38.95969104 -49.58349609 37.90625 C-48.0355374 36.34826752 -46.51035445 34.77073459 -44.98828125 33.1875 C-12.87789349 0.07316985 -12.87789349 0.07316985 0 0 Z " fill="#040202" transform="translate(99,-0.3125)"/>
<path d="M0 0 C0.06993164 0.7842334 0.13986328 1.5684668 0.21191406 2.37646484 C3.44129655 43.64749926 3.44129655 43.64749926 26 77 C29.57653039 78.7882652 33.25060095 78.10201932 37 77 C46.93202784 69.95003381 49.74490713 54.03961285 53 43 C70.22565388 50.73909593 83.2776662 77.02865158 89.875 93.796875 C91.25816794 97.73506149 92.5387141 101.69330654 93.75 105.6875 C93.96108398 106.37642334 94.17216797 107.06534668 94.38964844 107.77514648 C97.20010669 117.4583058 97.20845579 127.15976642 97.25 137.1875 C97.2809375 139.02538086 97.2809375 139.02538086 97.3125 140.90039062 C97.39570654 160.63074105 91.47934973 178.71576786 79 194 C78.01 194.66 77.02 195.32 76 196 C73 190.25 73 190.25 73 188 C69.68455701 186.89485234 66.79589889 186.67892369 63.3125 186.4375 C62.13300781 186.35371094 60.95351562 186.26992187 59.73828125 186.18359375 C58.83464844 186.12300781 57.93101562 186.06242188 57 186 C56.98582031 185.175 56.97164062 184.35 56.95703125 183.5 C56.14311962 163.79013987 48.56077342 147.68709803 35.4921875 133.01171875 C32.60971623 130.68495903 30.65014848 130.28037372 27 130 C24.28659072 133.20322242 23.06935064 136.26274969 21.8125 140.25 C21.46832031 141.32765625 21.12414062 142.4053125 20.76953125 143.515625 C20.51558594 144.33546875 20.26164062 145.1553125 20 146 C18.68 146 17.36 146 16 146 C9.7297551 138.58971057 8.56420307 129.44985227 7.9375 120.0625 C7.80900138 118.19863382 7.67267417 116.3352856 7.52734375 114.47265625 C7.47312256 113.66062744 7.41890137 112.84859863 7.36303711 112.01196289 C7.15723307 109.77702827 7.15723307 109.77702827 5 108 C-2.47124266 108.35777782 -7.50324481 113.44277535 -13 118 C-13.51433594 118.42635742 -14.02867188 118.85271484 -14.55859375 119.29199219 C-31.07179147 133.21055897 -44.83299628 152.52913926 -46.97460938 174.54492188 C-47.04486328 175.37572266 -47.11511719 176.20652344 -47.1875 177.0625 C-47.26935547 177.92810547 -47.35121094 178.79371094 -47.43554688 179.68554688 C-47.63315552 181.78949774 -47.81795005 183.89464582 -48 186 C-49.33804688 186.03867187 -49.33804688 186.03867187 -50.703125 186.078125 C-51.87359375 186.13484375 -53.0440625 186.1915625 -54.25 186.25 C-55.41015625 186.29640625 -56.5703125 186.3428125 -57.765625 186.390625 C-61.51723696 187.09745044 -62.68513824 188.02998868 -65 191 C-66.25436187 193.63222962 -66.25436187 193.63222962 -67 196 C-80.36853254 183.8467886 -86.98113977 165.87499208 -88.28515625 148.11669922 C-88.38094754 144.77102341 -88.4224854 141.44190465 -88.39111328 138.09594727 C-88.37503197 136.06653411 -88.39106912 134.03911917 -88.41015625 132.00976562 C-88.45193229 106.13399728 -78.62010075 80.80320322 -63.5546875 59.98046875 C-61.67432375 56.3756508 -62.16428486 54.87321825 -63 51 C-60.875 47.625 -60.875 47.625 -58 45 C-57.21625 45.020625 -56.4325 45.04125 -55.625 45.0625 C-52.35490011 44.98464048 -51.89173153 44.26167186 -49.625 42 C-47.29291205 39.50346995 -45.08243409 36.91880213 -42.875 34.3125 C-35.18008254 25.43506738 -12.31459412 0 0 0 Z " fill="#FC636E" transform="translate(98,9)"/>
<path d="M0 0 C1.05169876 -0.00281982 2.10339752 -0.00563965 3.18696594 -0.00854492 C4.93247993 -0.00550858 4.93247993 -0.00550858 6.71325684 -0.00241089 C7.93099289 -0.00416321 9.14872894 -0.00591553 10.40336609 -0.00772095 C13.75246237 -0.01137916 17.10149723 -0.01050602 20.45059013 -0.00734186 C23.94818075 -0.0048179 27.44576866 -0.0071559 30.94335938 -0.00872803 C36.81799798 -0.01054962 42.69262404 -0.00814369 48.56726074 -0.00338745 C55.36838172 0.00205515 62.16947272 0.00029249 68.97059298 -0.00521386 C74.79988249 -0.00974529 80.62916295 -0.01039539 86.45845366 -0.00777519 C89.94441946 -0.00621258 93.43037115 -0.0060182 96.91633606 -0.00931168 C100.80047784 -0.01272471 104.68458579 -0.00800016 108.56872559 -0.00241089 C109.73240158 -0.00443512 110.89607758 -0.00645935 112.09501648 -0.00854492 C113.67256462 -0.00431519 113.67256462 -0.00431519 115.28198242 0 C116.66134098 0.00056554 116.66134098 0.00056554 118.06856537 0.0011425 C120.14099121 0.12698364 120.14099121 0.12698364 121.14099121 1.12698364 C121.24411158 2.49757957 121.27948074 3.87338023 121.28625488 5.24783325 C121.29263474 6.12221542 121.29901459 6.9965976 121.30558777 7.8974762 C121.30670059 8.84848709 121.30781342 9.79949799 121.30895996 10.77932739 C121.31395256 12.23502892 121.31395256 12.23502892 121.31904602 13.72013855 C121.32411951 15.77721684 121.32645422 17.8343034 121.32629395 19.89138794 C121.32847947 23.04753108 121.34662813 26.20332435 121.36560059 29.35940552 C121.36853454 31.35354494 121.37051932 33.34768603 121.37145996 35.34182739 C121.37864548 36.29081406 121.38583099 37.23980072 121.39323425 38.21754456 C121.39015762 39.09507889 121.38708099 39.97261322 121.38391113 40.8767395 C121.38533615 41.65093735 121.38676117 42.42513519 121.38822937 43.22279358 C121.14099121 45.12698364 121.14099121 45.12698364 119.14099121 47.12698364 C116.13212397 47.37304379 113.2088137 47.50079146 110.19567871 47.54104614 C109.31066681 47.56041229 108.42565491 47.57977844 107.51382446 47.59973145 C104.68131205 47.65961087 101.84875918 47.70594577 99.01599121 47.75198364 C97.09800453 47.79015575 95.18003514 47.82920702 93.26208496 47.86917114 C88.55519373 47.96531919 83.84822225 48.04931907 79.14099121 48.12698364 C78.81099121 49.11698364 78.48099121 50.10698364 78.14099121 51.12698364 C76.51680376 51.20789335 74.89147376 51.2661336 73.26599121 51.31448364 C72.36106934 51.34928833 71.45614746 51.38409302 70.52380371 51.41995239 C69.34431152 51.27493286 69.34431152 51.27493286 68.14099121 51.12698364 C67.48099121 50.13698364 66.82099121 49.14698364 66.14099121 48.12698364 C63.1242028 47.66126164 63.1242028 47.66126164 59.51989746 47.72634888 C58.84006805 47.71936981 58.16023865 47.71239075 57.45980835 47.7052002 C55.20757776 47.68516775 52.95580311 47.68572346 50.70349121 47.68557739 C49.14171096 47.67381233 47.57994199 47.66045025 46.01818848 47.64555359 C41.90243395 47.60930339 37.78677936 47.58914656 33.67089844 47.57400513 C27.08232636 47.54920857 20.49397522 47.50965035 13.90560913 47.45210457 C11.59998473 47.43573004 9.2945671 47.43199364 6.9888916 47.42909241 C5.57995238 47.41931899 4.17101644 47.40905619 2.76208496 47.39822388 C1.52901611 47.39394882 0.29594727 47.38967377 -0.9744873 47.38526917 C-3.85900879 47.12698364 -3.85900879 47.12698364 -5.85900879 45.12698364 C-6.10624695 43.22279358 -6.10624695 43.22279358 -6.10192871 40.8767395 C-6.10500534 39.99920517 -6.10808197 39.12167084 -6.11125183 38.21754456 C-6.10406631 37.26855789 -6.0968808 36.31957123 -6.08947754 35.34182739 C-6.08901932 34.37040298 -6.0885611 33.39897858 -6.08808899 32.39811707 C-6.08506502 30.34280172 -6.07717445 28.28748869 -6.06481934 26.23220825 C-6.04656382 23.07400459 -6.0443096 19.91609392 -6.04455566 16.75784302 C-6.03964061 14.76500192 -6.03381234 12.77216283 -6.02697754 10.77932739 C-6.02586472 9.8283165 -6.02475189 8.8773056 -6.02360535 7.8974762 C-6.01722549 7.02309402 -6.01084564 6.14871185 -6.00427246 5.24783325 C-6.00046066 4.474431 -5.99664886 3.70102875 -5.99272156 2.90419006 C-5.71189502 -0.82833846 -3.15738011 0.00129453 0 0 Z " fill="#ECE3E0" transform="translate(44.8590087890625,201.87301635742188)"/>
<path d="M0 0 C0.14695312 1.64935547 0.14695312 1.64935547 0.296875 3.33203125 C1.49039314 15.57947027 3.25786684 26.65840628 12 36 C14.88861709 37.44430855 16.79647701 37.37688506 20 37 C25.26793491 33.23718935 26.95012089 27.89769689 29 22 C40.15673035 29.89134586 46.69558931 44.80201152 49 58 C49 61.63 49 65.26 49 69 C18.97 69 -11.06 69 -42 69 C-42 45.38347137 -31.62083535 27.64814511 -15.4375 11.1875 C-14.90745361 10.64778564 -14.37740723 10.10807129 -13.83129883 9.55200195 C-4.19619728 0 -4.19619728 0 0 0 Z " fill="#FDCF5A" transform="translate(99,126)"/>
<path d="M0 0 C17.22565388 7.73909593 30.2776662 34.02865158 36.875 50.796875 C38.25816794 54.73506149 39.5387141 58.69330654 40.75 62.6875 C40.96108398 63.37642334 41.17216797 64.06534668 41.38964844 64.77514648 C44.20010669 74.4583058 44.20845579 84.15976642 44.25 94.1875 C44.270625 95.41275391 44.29125 96.63800781 44.3125 97.90039062 C44.39570654 117.63074105 38.47934973 135.71576786 26 151 C24.515 151.99 24.515 151.99 23 153 C19.93523516 147.72860447 19.93523516 147.72860447 20.203125 144.71484375 C20.99844596 142.00529441 22.09006376 139.60624483 23.37475586 137.09594727 C35.7764471 112.68324551 35.45992952 81.70645905 27.06152344 55.95703125 C21.61514101 40.7853238 13.81507165 23.73045896 2.1875 12.203125 C1 11 1 11 1 9 C0.01 8.67 -0.98 8.34 -2 8 C-1.34 5.36 -0.68 2.72 0 0 Z " fill="#E85467" transform="translate(151,52)"/>
<path d="M0 0 C11.15673035 7.89134586 17.69558931 22.80201152 20 36 C20 39.63 20 43.26 20 47 C-10.03 47 -40.06 47 -71 47 C-71 44.03 -71 41.06 -71 38 C-70.67 38 -70.34 38 -70 38 C-70 40.64 -70 43.28 -70 46 C-43.93 46 -17.86 46 9 46 C6.15582988 27.26667583 6.15582988 27.26667583 -1.76953125 10.3515625 C-3 8 -3 8 -2.63671875 5.76171875 C-2.32347656 5.07722656 -2.01023437 4.39273438 -1.6875 3.6875 C-1.38199219 2.99011719 -1.07648438 2.29273438 -0.76171875 1.57421875 C-0.51035156 1.05472656 -0.25898437 0.53523437 0 0 Z " fill="#E3AF3E" transform="translate(128,148)"/>
<path d="M0 0 C2.4375 0.0625 2.4375 0.0625 5 1 C8.37898584 5.60599188 10.16381342 11.14224778 12.1875 16.4375 C12.73954102 17.8306543 12.73954102 17.8306543 13.30273438 19.25195312 C16.63406989 27.93567557 16.63406989 27.93567557 16 33 C15 34 15 34 12.4375 34.0625 C11.633125 34.041875 10.82875 34.02125 10 34 C9.34 32.02 8.68 30.04 8 28 C4.04 28 0.08 28 -4 28 C-4.66 29.98 -5.32 31.96 -6 34 C-7.66611905 34.042721 -9.33382885 34.04063832 -11 34 C-11.33 33.67 -11.66 33.34 -12 33 C-11.65352943 25.81707359 -9.23333549 19.74566263 -6.5625 13.125 C-6.15451172 12.08085937 -5.74652344 11.03671875 -5.32617188 9.9609375 C-2.27449483 2.27449483 -2.27449483 2.27449483 0 0 Z " fill="#080808" transform="translate(117,208)"/>
<path d="M0 0 C2.125 0.375 2.125 0.375 4 1 C4.66 3.31 5.32 5.62 6 8 C6.45890625 7.50628906 6.9178125 7.01257813 7.390625 6.50390625 C8.00421875 5.86324219 8.6178125 5.22257813 9.25 4.5625 C9.85328125 3.92441406 10.4565625 3.28632813 11.078125 2.62890625 C13.12078548 0.89762694 14.35487869 0.28595906 17 0 C18.8125 1.1875 18.8125 1.1875 20 3 C19.81324034 6.10154434 18.90674508 7.09628371 16.71484375 9.359375 C15.79832031 10.14828125 14.88179687 10.9371875 13.9375 11.75 C13.01839844 12.54921875 12.09929688 13.3484375 11.15234375 14.171875 C10.44207031 14.77515625 9.73179688 15.3784375 9 16 C11.99739015 19.59261656 14.9834251 23.02463516 18.4375 26.1875 C19.283125 27.115625 20.12875 28.04375 21 29 C20.66015625 31.17578125 20.66015625 31.17578125 20 33 C17.765625 33.7109375 17.765625 33.7109375 15 34 C12.796875 32.6015625 12.796875 32.6015625 10.75 30.625 C10.06421875 29.97789062 9.3784375 29.33078125 8.671875 28.6640625 C7.78047085 27.77682379 6.88932387 26.88932387 6 26 C5.7834375 27.7015625 5.7834375 27.7015625 5.5625 29.4375 C5 33 5 33 4 34 C1.5 34.125 1.5 34.125 -1 34 C-3.47487711 31.52512289 -2.17337232 25.4591888 -2.18554688 21.99023438 C-2.18546631 21.26408936 -2.18538574 20.53794434 -2.18530273 19.78979492 C-2.18748751 17.57516218 -2.20563531 15.36102877 -2.22460938 13.14648438 C-2.22754356 11.74479338 -2.22952819 10.3431 -2.23046875 8.94140625 C-2.23457764 7.65951416 -2.23868652 6.37762207 -2.24291992 5.05688477 C-2 2 -2 2 0 0 Z " fill="#060606" transform="translate(51,208)"/>
<path d="M0 0 C1.9569579 0.96125221 3.84621489 1.97429092 5.71875 3.08984375 C5.38875 4.73984375 5.05875 6.38984375 4.71875 8.08984375 C3.06260343 8.47203142 1.39417976 8.80379477 -0.28125 9.08984375 C-0.61125 8.75984375 -0.94125 8.42984375 -1.28125 8.08984375 C-4.33477933 7.65627975 -7.23158653 7.62066476 -10.28125 8.08984375 C-13.3951876 10.67213346 -14.16631448 12.15120366 -14.65625 16.15234375 C-14.29075778 19.01536615 -13.89122354 20.71725116 -12.28125 23.08984375 C-8.79256349 25.41563476 -7.38406481 25.50849832 -3.28125 25.08984375 C-2.600625 24.57421875 -1.92 24.05859375 -1.21875 23.52734375 C0.71875 22.08984375 0.71875 22.08984375 3.46875 22.40234375 C4.21125 22.62921875 4.95375 22.85609375 5.71875 23.08984375 C6.04875 24.73984375 6.37875 26.38984375 6.71875 28.08984375 C1.24543065 32.55492006 -1.49484557 33.44455452 -8.51953125 33.37109375 C-13.66927556 32.8466502 -16.29497397 30.20940033 -19.59375 26.46484375 C-23.23894031 21.3345759 -22.8365219 16.23002438 -22.28125 10.08984375 C-18.45236037 1.31530503 -9.09954289 -3.63046831 0 0 Z " fill="#090909" transform="translate(95.28125,208.91015625)"/>
<path d="M0 0 C4.55555556 0.55555556 4.55555556 0.55555556 6 2 C6.08737645 3.85369611 6.10698153 5.71067541 6.09765625 7.56640625 C6.09443359 8.69111328 6.09121094 9.81582031 6.08789062 10.97460938 C6.07951172 12.15861328 6.07113281 13.34261719 6.0625 14.5625 C6.05798828 15.75037109 6.05347656 16.93824219 6.04882812 18.16210938 C6.03699675 21.10812226 6.02051287 24.05403681 6 27 C7.670625 26.9690625 7.670625 26.9690625 9.375 26.9375 C13 27 13 27 15 28 C15.042721 29.66611905 15.04063832 31.33382885 15 33 C13.06658053 34.93341947 9.62520879 34.17449133 7.0625 34.1875 C5.79535156 34.20167969 4.52820313 34.21585938 3.22265625 34.23046875 C0 34 0 34 -2 32 C-2.25878906 29.05078125 -2.25878906 29.05078125 -2.265625 25.3125 C-2.26753845 24.65419189 -2.2694519 23.99588379 -2.27142334 23.31762695 C-2.2727845 21.9256146 -2.26909283 20.53358953 -2.26074219 19.14160156 C-2.250041 17.00817411 -2.26063906 14.87558869 -2.2734375 12.7421875 C-2.27211589 11.39062314 -2.26955347 10.0390593 -2.265625 8.6875 C-2.26336914 7.45386719 -2.26111328 6.22023437 -2.25878906 4.94921875 C-2 2 -2 2 0 0 Z " fill="#0D0C0C" transform="translate(141,208)"/>
<path d="M0 0 C0.66 0 1.32 0 2 0 C2.33 1.98 2.66 3.96 3 6 C1.68 6 0.36 6 -1 6 C-0.67 4.02 -0.34 2.04 0 0 Z " fill="#D0C9C5" transform="translate(118,222)"/>
</svg>
