<?xml version="1.0" encoding="UTF-8"?>
<svg version="1.1" xmlns="http://www.w3.org/2000/svg" width="512" height="512">
<path d="M0 0 C0.82123254 -0.00257984 1.64246507 -0.00515967 2.48858345 -0.00781769 C17.28528989 0.18631729 29.28271703 6.8317224 39.93771362 16.80091858 C49.87742198 27.42554801 53.5682696 40.12706042 56.01046753 54.12245178 C56.26192655 55.51762898 56.5143532 56.91263205 56.7676487 58.307477 C57.31731456 61.34534536 57.86036015 64.38429973 58.39859772 67.42421341 C59.28674006 72.4366514 60.19370722 77.44559226 61.10244751 82.45433044 C65.13858005 104.73269249 69.09728892 127.02506264 73.05386925 149.31766796 C75.0472313 160.54712533 77.04755118 171.77525181 79.06515503 183.00038147 C80.8433767 192.89369295 82.60874098 202.78919794 84.35883391 212.68752557 C85.27968734 217.89344552 86.20644173 223.09813877 87.14866257 228.30023766 C88.03299583 233.18408606 88.89977479 238.07074812 89.75404358 242.95994186 C90.06703047 244.7341477 90.38598062 246.50731569 90.71191788 248.27918816 C94.38666082 268.30073278 96.61007488 289.01790411 85.01193237 306.87904358 C72.85169623 323.59936828 58.06591046 329.6037129 38.19943237 333.03529358 C36.97804565 333.25572327 35.75665894 333.47615295 34.4982605 333.70326233 C25.63986813 335.28529358 25.63986813 335.28529358 23.26193237 335.28529358 C23.27192513 336.70444565 23.27192513 336.70444565 23.28211975 338.15226746 C23.34327617 347.12471678 23.38806927 356.09712311 23.41736889 365.06973457 C23.43293913 369.68122762 23.45401686 374.29255067 23.48825073 378.90394592 C23.52115579 383.36491918 23.53885012 387.82573027 23.5465641 392.28681564 C23.55205231 393.97783328 23.56276706 395.66884335 23.57912254 397.3597908 C23.76020143 416.88031122 20.8079405 434.46161964 6.64865112 449.10169983 C-6.40710453 461.04632734 -19.60870624 464.59528223 -36.9379425 464.55271912 C-38.38338928 464.55645918 -39.82883403 464.56106212 -41.2742756 464.56644976 C-45.23307859 464.57865129 -49.19179689 464.57842266 -53.15061438 464.57606101 C-57.42548582 464.57565212 -61.70033037 464.58669893 -65.97518921 464.59617615 C-74.34586199 464.61277182 -82.7165066 464.61828506 -91.08719447 464.6194009 C-97.89372344 464.62035212 -104.70024314 464.62446608 -111.50676918 464.63080215 C-130.81712755 464.64841115 -150.12746371 464.65764163 -169.43783017 464.65614121 C-170.47832699 464.65606129 -171.51882381 464.65598138 -172.59085083 464.65589905 C-173.63262257 464.65581729 -174.6743943 464.65573553 -175.74773488 464.65565129 C-192.62581614 464.65483863 -209.50380812 464.67397215 -226.38186356 464.70217578 C-243.72448627 464.73092632 -261.06706547 464.74471486 -278.40971261 464.74298823 C-288.14129013 464.74232505 -297.87277405 464.74778578 -307.60433006 464.76934433 C-315.89101225 464.78758475 -324.17755841 464.79188005 -332.46425202 464.77832548 C-336.68869422 464.77181007 -340.9128757 464.77162671 -345.13729286 464.78903198 C-349.01198167 464.80483148 -352.8862045 464.80182971 -356.76088241 464.78446372 C-358.15521472 464.78140884 -359.5495824 464.78496861 -360.94387295 464.79618387 C-378.26475591 464.92617068 -391.79210264 459.57902612 -404.41384888 447.76966858 C-414.5774128 436.90575824 -418.88820161 424.26694819 -418.88523865 409.69813538 C-418.88891534 408.72706659 -418.89259202 407.75599781 -418.89638013 406.7555027 C-418.90740139 403.49850055 -418.9112582 400.24153032 -418.91506958 396.98451233 C-418.92133548 394.65021666 -418.92798239 392.315922 -418.9349823 389.98162842 C-418.95601267 382.31202386 -418.96638477 374.64241912 -418.97634888 366.97279358 C-418.98039702 364.33039845 -418.98451396 361.68800343 -418.98869896 359.04560852 C-419.00570888 348.05141025 -419.02020087 337.05721295 -419.0274477 326.06300354 C-419.02935741 323.21213276 -419.03127777 320.36126199 -419.03323364 317.51039124 C-419.03371738 316.80187185 -419.03420112 316.09335246 -419.03469952 315.36336279 C-419.04299172 303.89756174 -419.06831593 292.43186529 -419.10081432 280.96610987 C-419.13395027 269.17872738 -419.1519024 257.39139791 -419.15509194 245.60396862 C-419.15725114 238.99218144 -419.16636075 232.38052929 -419.19155312 225.76878357 C-419.21488833 219.54383251 -419.21904496 213.31915504 -419.20879173 207.09417152 C-419.20829757 204.81623739 -419.21458252 202.53828955 -419.22834778 200.26039696 C-419.34017951 180.64832262 -416.87922773 165.45257229 -403.09744263 150.46888733 C-392.09406047 140.28529358 -392.09406047 140.28529358 -386.73806763 140.28529358 C-386.95463013 139.08775452 -387.17119263 137.89021545 -387.39431763 136.65638733 C-391.1473178 115.09333117 -390.97435363 97.43430553 -377.99588013 78.78138733 C-363.95439125 61.45551586 -342.81591502 58.6931901 -322.20291138 55.12904358 C-319.86510718 54.71822032 -317.52743978 54.30661798 -315.18989563 53.89431763 C-309.40031385 52.87507958 -303.60943534 51.86343777 -297.81791109 50.85531205 C-290.1775019 49.525108 -282.53855493 48.18658152 -274.89968872 46.84754944 C-274.1766046 46.72080003 -273.45352047 46.59405062 -272.7085247 46.46346033 C-269.7059492 45.93712184 -266.70337478 45.41077722 -263.7008214 44.88431257 C-259.77181242 44.19545952 -255.84271741 43.50710312 -251.91345978 42.81966972 C-225.21732171 38.14894812 -198.53573977 33.39927556 -171.85837466 28.62257326 C-156.80018881 25.92689743 -141.739752 23.24383533 -126.67922115 20.56129646 C-115.12814051 18.50332031 -103.57823299 16.4391178 -92.03076172 14.36097717 C-82.06619488 12.5677176 -72.09956993 10.78646471 -62.13024968 9.01981443 C-56.97642779 8.10608161 -51.82378804 7.18667285 -46.67372704 6.25195503 C-41.89550213 5.3848411 -37.11462374 4.53420295 -32.33131611 3.69559574 C-30.60522654 3.39012174 -28.88013103 3.07895568 -27.15627754 2.76110554 C-18.07326039 1.08990383 -9.24916953 0.02900915 0 0 Z M-24.30496216 34.13319397 C-26.05865137 34.44201226 -27.81250016 34.74992552 -29.56649303 35.05701447 C-34.33543089 35.89460357 -39.10203616 36.7448412 -43.86833405 37.59730649 C-48.96195197 38.50598947 -54.05767052 39.40274333 -59.15315247 40.30090332 C-68.99352581 42.0373019 -78.83198178 43.78433024 -88.66979963 45.53514284 C-99.98722903 47.54885524 -111.3065183 49.55201109 -122.62597907 51.55426812 C-137.37916667 54.16402254 -152.13196302 56.77596862 -166.88356018 59.3946991 C-167.9981866 59.59256535 -169.11281301 59.79043161 -170.26121598 59.99429381 C-171.37027368 60.1911721 -172.47933138 60.3880504 -173.62199688 60.5908947 C-196.65130501 64.67895601 -219.68426824 68.74548842 -242.72183228 72.78675652 C-247.41156582 73.60951093 -252.10109696 74.4334141 -256.79055786 75.25772095 C-257.53808012 75.38911596 -258.28560238 75.52051098 -259.05577683 75.65588766 C-262.71214803 76.29861755 -266.36849832 76.94146623 -270.02483749 77.58437824 C-276.94210747 78.80052905 -283.85966899 80.01497157 -290.77792358 81.22550964 C-297.1353223 82.33796683 -303.49161669 83.45658957 -309.84717751 84.5795002 C-312.11856973 84.97979448 -314.39032499 85.37803558 -316.66248131 85.77396965 C-319.71838639 86.30671428 -322.77290065 86.84682764 -325.82717896 87.3888092 C-327.12838275 87.61287241 -327.12838275 87.61287241 -328.45587349 87.84146214 C-339.2359821 89.77493096 -348.39301607 91.86419302 -355.08572388 101.15638733 C-360.16584316 109.6232528 -359.0274207 117.98388168 -357.23806763 127.28529358 C-357.09498169 128.06002014 -356.95189575 128.8347467 -356.80447388 129.63294983 C-356.45534433 131.51824937 -356.09761447 133.40195297 -355.73806763 135.28529358 C-355.03974262 135.28627039 -354.34141762 135.2872472 -353.62193125 135.28825361 C-312.21967244 135.34654468 -270.81746657 135.4203559 -229.41527252 135.51427986 C-224.44238611 135.52554782 -219.46949942 135.53668631 -214.49661255 135.54774475 C-213.50661386 135.54994843 -212.51661517 135.55215212 -211.49661652 135.55442258 C-195.47353682 135.58978043 -179.45045716 135.61465311 -163.42735293 135.6356406 C-146.98219816 135.65741469 -130.53709394 135.69048041 -114.09198219 135.73399514 C-103.94713222 135.76048412 -93.80234523 135.77819977 -83.6574624 135.78463962 C-76.69767174 135.78990192 -69.73796028 135.80614718 -62.77821209 135.83095924 C-58.76475767 135.84494537 -54.75144493 135.85415586 -50.73796463 135.85030174 C-47.05801023 135.84687518 -43.37835772 135.85734959 -39.69846509 135.87852909 C-37.74813607 135.88623709 -35.79776594 135.87938148 -33.84743613 135.87187654 C-17.81511467 136.00053551 -3.95110863 141.18491897 7.71505737 152.37904358 C19.2695192 165.56388959 22.37539374 180.76035975 22.46725464 197.82020569 C22.47715424 198.96239563 22.48705383 200.10458557 22.49725342 201.28138733 C22.52874065 205.0417832 22.55357525 208.80219168 22.57833862 212.56263733 C22.59891918 215.17580486 22.61991594 217.78896914 22.64131165 220.40213013 C22.69109421 226.56779222 22.73608618 232.73347947 22.77933401 238.89919049 C22.8288303 245.92222349 22.8837022 252.94521133 22.9390136 259.96820056 C23.05261183 274.40718876 23.15949854 288.84622192 23.26193237 303.28529358 C24.85043439 303.13194114 26.43878423 302.97701187 28.02706909 302.82142639 C29.35386185 302.69226837 29.35386185 302.69226837 30.7074585 302.5605011 C39.29223823 301.63561556 48.7606184 300.43966969 55.26193237 294.28529358 C61.76782803 286.16364802 63.02882955 279.55994662 62.26193237 269.28529358 C61.42695481 262.19775899 60.09123081 255.17839134 58.83712769 248.15589905 C58.46831846 246.04393789 58.10045501 243.93181138 57.73345947 241.8195343 C56.73938931 236.11542458 55.73144739 230.41384918 54.72035313 224.71273565 C53.66107184 218.72933655 52.61284843 212.74399877 51.56289673 206.75895691 C49.79859546 196.71245825 48.02512656 186.66761006 46.24630737 176.62367249 C44.19324157 165.03049439 42.15532946 153.43472905 40.12537694 141.83748329 C38.16755886 130.65471481 36.19841902 119.47396749 34.2243576 108.29405594 C33.38653833 103.54779429 32.55276053 98.80084931 31.72229767 94.05329514 C30.7431788 88.45868365 29.75415246 82.86591063 28.75761795 77.27437592 C28.39461067 75.2284259 28.03496287 73.18187637 27.67901993 71.13468552 C25.11117124 52.05953661 25.11117124 52.05953661 15.26193237 36.28529358 C3.08179596 27.85116597 -10.70546355 31.67760012 -24.30496216 34.13319397 Z M-381.61306763 173.59779358 C-382.1467395 174.13017639 -382.68041138 174.6625592 -383.23025513 175.21107483 C-390.037673 184.57568335 -387.73806763 190.76381931 -387.73806763 203.28529358 C-262.33806763 203.28529358 -136.93806763 203.28529358 -7.73806763 203.28529358 C-7.42057697 186.13412701 -7.42057697 186.13412701 -15.73806763 172.28529358 C-21.54392833 167.82102618 -26.21438929 166.16378342 -33.53064251 166.1510725 C-34.72089431 166.14661466 -35.9111461 166.14215681 -37.13746613 166.13756388 C-39.10100052 166.13784043 -39.10100052 166.13784043 -41.10420227 166.13812256 C-42.50779822 166.1348228 -43.91139321 166.131097 -45.314987 166.12698108 C-49.1765122 166.11696578 -53.03802185 166.11324505 -56.89955819 166.11059177 C-61.06262314 166.10668736 -65.22567581 166.09710917 -69.38873291 166.08837891 C-79.44429347 166.06861913 -89.49985503 166.05854924 -99.55543014 166.04965112 C-104.29068551 166.04526772 -109.02593975 166.03990107 -113.76119423 166.03466225 C-129.50176734 166.01765102 -145.24233975 166.00315652 -160.98292065 165.99591351 C-165.06739999 165.99400361 -169.15187932 165.99208328 -173.23635864 165.99012756 C-174.25153548 165.98964382 -175.26671232 165.98916008 -176.31265209 165.98866168 C-192.76042908 165.98036012 -209.20813338 165.95502059 -225.65587863 165.92254689 C-242.54182549 165.88947974 -259.42773539 165.87146509 -276.3137148 165.86826926 C-285.79483855 165.86610393 -295.27585627 165.85735176 -304.75694847 165.83180809 C-312.83083657 165.81010587 -320.90459287 165.80204835 -328.97850683 165.81177487 C-333.09711959 165.81632087 -337.21546038 165.81441606 -341.33403587 165.79501343 C-345.10751474 165.77739024 -348.88052307 165.77837229 -352.65400688 165.79391072 C-354.65934317 165.79741082 -356.66468436 165.78125424 -358.66995209 165.76430625 C-367.41163905 165.82664487 -375.30011905 167.01787952 -381.61306763 173.59779358 Z M-387.73806763 234.28529358 C-387.73806763 246.49529358 -387.73806763 258.70529358 -387.73806763 271.28529358 C-262.33806763 271.28529358 -136.93806763 271.28529358 -7.73806763 271.28529358 C-7.73806763 259.07529358 -7.73806763 246.86529358 -7.73806763 234.28529358 C-133.13806763 234.28529358 -258.53806763 234.28529358 -387.73806763 234.28529358 Z M-387.73806763 302.28529358 C-398.04935349 369.18246976 -398.04935349 369.18246976 -381.36306763 426.03529358 C-375.71905732 430.8730167 -371.4909276 433.40553634 -364.04009914 433.42230797 C-362.8454883 433.42738251 -361.65087747 433.43245705 -360.4200663 433.43768537 C-359.10103075 433.43818313 -357.78199521 433.43868088 -356.42298889 433.43919373 C-355.01271889 433.44320819 -353.60245005 433.44764639 -352.1921826 433.45247328 C-348.30752779 433.46444666 -344.42288541 433.47008901 -340.53821576 433.47465444 C-336.35193575 433.48060771 -332.16567062 433.49221832 -327.97940063 433.50294495 C-317.86409469 433.52747644 -307.74878382 433.54209781 -297.63345727 433.55500501 C-294.77655869 433.5587166 -291.9196606 433.56268986 -289.0627625 433.56675768 C-271.32346502 433.59199537 -253.58416678 433.61404948 -235.84485531 433.62648582 C-231.73512202 433.62941555 -227.62538875 433.63237721 -223.51565552 433.63539124 C-221.98346363 433.63651031 -221.98346363 433.63651031 -220.42031837 433.63765199 C-203.87613769 433.65030348 -187.33206454 433.68352319 -170.78793412 433.72519307 C-153.80370375 433.76762081 -136.81952841 433.79118189 -119.83524519 433.79640639 C-110.29871473 433.7998197 -100.76235225 433.81156538 -91.22587395 433.84450912 C-83.10329782 433.87252241 -74.9809241 433.88350339 -66.85830342 433.87231366 C-62.71521176 433.86713014 -58.57254391 433.86999351 -54.42951393 433.89477921 C-50.63242122 433.91730527 -46.8360559 433.91650649 -43.03895015 433.89757533 C-41.02335588 433.89346128 -39.00775696 433.91389629 -36.99227279 433.93536222 C-28.45740169 433.860968 -21.04815274 432.64918646 -14.83066124 426.35407484 C11.8364596 394.65558317 -7.73806763 343.70907549 -7.73806763 302.28529358 C-133.13806763 302.28529358 -258.53806763 302.28529358 -387.73806763 302.28529358 Z " fill="#ffffff" transform="translate(418.7380676269531,23.714706420898438)"/>
<path d="M0 0 C1.113395 -0.00788544 1.113395 -0.00788544 2.24928284 -0.01593018 C4.68789089 -0.02906782 7.12583914 -0.02041461 9.56445312 -0.01025391 C11.26786422 -0.01227644 12.97127447 -0.01518938 14.67468262 -0.01895142 C18.23877229 -0.02336631 21.80263589 -0.0169707 25.36669922 -0.00292969 C29.92635852 0.01416179 34.48548799 0.00431611 39.04512787 -0.01364708 C42.560811 -0.02450754 46.07636931 -0.02102822 49.59205627 -0.0132637 C51.27291426 -0.01126794 52.95378372 -0.01369897 54.6346283 -0.02070236 C56.98719129 -0.02835428 59.33890613 -0.0166612 61.69140625 0 C62.38041519 -0.00607269 63.06942413 -0.01214539 63.77931213 -0.0184021 C68.35069375 0.04132524 71.45748335 1.00244094 75.34570312 3.38818359 C79.82273236 8.34921598 80.64530029 11.31369104 80.56054688 17.84912109 C80.1508765 22.69068008 78.35061419 25.45864085 74.84570312 28.70068359 C70.58259589 31.57828098 67.19824703 31.52755941 62.15551758 31.56518555 C61.06222893 31.57504234 61.06222893 31.57504234 59.94685364 31.58509827 C57.53422945 31.60481049 55.12166754 31.61649085 52.70898438 31.62646484 C51.88324606 31.63054037 51.05750774 31.6346159 50.20674706 31.63881493 C45.83387885 31.6596695 41.46104193 31.67397235 37.08813477 31.68334961 C32.58347479 31.69439665 28.07931115 31.72877829 23.57482624 31.76852131 C20.10112119 31.79473946 16.6275333 31.80304617 13.15373802 31.80663109 C11.49403733 31.81148574 9.83434148 31.82306764 8.17473793 31.84166908 C-8.10895154 32.01279877 -8.10895154 32.01279877 -14.65429688 27.38818359 C-18.2179025 23.24027626 -19.37383531 19.11852785 -19.10351562 13.66552734 C-18.30929795 9.63918903 -16.51056896 6.3241656 -13.65429688 3.38818359 C-9.06480522 0.62104028 -5.25802956 -0.0463425 0 0 Z " fill="#ffffff" transform="translate(79.654296875,396.61181640625)"/>
</svg>
