<?xml version="1.0" encoding="UTF-8"?>
<svg version="1.1" xmlns="http://www.w3.org/2000/svg" width="252" height="222">
<path d="M0 0 C7.26015334 5.77166104 13.47606032 12.76987285 18.25048828 20.73193359 C18.25048828 21.39193359 18.25048828 22.05193359 18.25048828 22.73193359 C18.91048828 22.73193359 19.57048828 22.73193359 20.25048828 22.73193359 C20.51474609 21.99716797 20.77900391 21.26240234 21.05126953 20.50537109 C26.89173642 6.9981024 40.30212687 -2.37786237 53.31298828 -8.08056641 C69.31166389 -14.3000004 87.29993778 -14.312264 103.18798828 -7.67431641 C119.89747996 -0.20131698 132.32933633 12.37517961 139.18798828 29.48193359 C148.34972635 54.56999052 144.05545497 83.80623461 133.25048828 107.73193359 C125.76214196 123.76623959 116.12305838 137.44183908 103.81689453 150.11425781 C102.23780756 151.74502936 100.68161768 153.39567997 99.12548828 155.04833984 C82.77201997 172.17298419 62.69318701 183.1302753 41.81689453 193.84130859 C38.39096748 195.60358073 35.00327844 197.40827289 31.65283203 199.31005859 C30.97349609 199.69154053 30.29416016 200.07302246 29.59423828 200.46606445 C27.8259712 201.4663764 26.06709521 202.48323987 24.30908203 203.50146484 C20.60045555 204.99344102 19.10484607 204.66189422 15.25048828 203.73193359 C12.95742291 202.72969507 10.70226462 201.63841239 8.48095703 200.48583984 C7.53014252 199.99586266 7.53014252 199.99586266 6.56011963 199.49598694 C4.51450555 198.43794033 2.47594634 197.36714373 0.43798828 196.29443359 C-0.97140532 195.55853585 -2.38082927 194.82269624 -3.7902832 194.08691406 C-23.82137649 183.590104 -42.44149678 172.53832423 -58.74951172 156.73193359 C-59.28463379 156.22259277 -59.81975586 155.71325195 -60.37109375 155.18847656 C-72.17924752 143.93485893 -81.59085959 131.8923528 -89.74951172 117.73193359 C-90.21744141 116.93400391 -90.68537109 116.13607422 -91.16748047 115.31396484 C-92.82247836 112.30333728 -93.78356977 110.26550978 -93.56201172 106.79443359 C-92.74951172 104.73193359 -92.74951172 104.73193359 -91.74951172 103.73193359 C-90.32300114 103.62529248 -88.89138213 103.58574811 -87.4609375 103.57421875 C-86.54974152 103.5639566 -85.63854553 103.55369446 -84.69973755 103.54312134 C-83.70811615 103.53582001 -82.71649475 103.52851868 -81.69482422 103.52099609 C-79.61538924 103.49292888 -77.53596226 103.46426443 -75.45654297 103.43505859 C-72.16243702 103.39375319 -68.86848048 103.35688541 -65.57421875 103.33056641 C-62.4057697 103.30302706 -59.23800974 103.25715418 -56.06982422 103.20849609 C-55.08225128 103.20524323 -54.09467834 103.20199036 -53.07717896 103.19863892 C-52.15967865 103.18207245 -51.24217834 103.16550598 -50.296875 103.1484375 C-49.48936798 103.14035065 -48.68186096 103.13226379 -47.84988403 103.12393188 C-45.26190128 102.64092951 -44.50610032 101.619019 -42.74951172 99.73193359 C-40.24951172 99.73193359 -40.24951172 99.73193359 -37.74951172 100.73193359 C-34.98818898 104.75202489 -33.03736834 109.20991172 -30.99169922 113.62255859 C-30.64317902 114.36777771 -30.29465881 115.11299683 -29.93557739 115.88079834 C-28.82932463 118.24665628 -27.72657076 120.61411955 -26.62451172 122.98193359 C-25.51511835 125.363937 -24.40492552 127.74554961 -23.29202271 130.12591553 C-22.6010163 131.60397897 -21.91205425 133.08300017 -21.22531128 134.56304932 C-19.83794543 137.8756473 -19.83794543 137.8756473 -17.74951172 140.73193359 C-17.55572433 140.0267157 -17.36193695 139.3214978 -17.16227722 138.59490967 C-15.33244767 131.94201893 -13.49420067 125.29150581 -11.64652538 118.64355087 C-10.69696252 115.2258673 -9.75065098 111.80735295 -8.81176758 108.38671875 C-7.73167912 104.45219198 -6.63746415 100.52171626 -5.54248047 96.59130859 C-5.20798386 95.36514832 -4.87348724 94.13898804 -4.52885437 92.87567139 C-4.20874893 91.73479065 -3.88864349 90.59390991 -3.55883789 89.41845703 C-3.28126144 88.4147406 -3.003685 87.41102417 -2.71769714 86.37689209 C-1.74078497 83.70809324 -0.57240335 81.89350005 1.25048828 79.73193359 C4.56245307 80.01843574 5.92788701 80.38909068 8.24267578 82.84912109 C8.86400391 83.75919922 9.48533203 84.66927734 10.12548828 85.60693359 C11.10462756 87.01214185 12.0850497 88.41651413 13.07763672 89.81225586 C14.25048828 91.73193359 14.25048828 91.73193359 15.39990234 94.5402832 C17.0271497 98.00307676 18.36426792 100.19409688 21.25048828 102.73193359 C27.29480359 104.57492654 34.02096936 103.81772937 40.25048828 103.54443359 C42.84239013 103.45728041 45.43175751 103.38674002 48.02490234 103.35148621 C49.63183277 103.32713067 51.23869648 103.27233197 52.84326172 103.18183899 C57.36660317 103.08411362 59.70137368 103.69845876 63.17236328 106.69555664 C63.71989258 107.23705856 64.26742187 107.77856049 64.83154297 108.33647156 C66.64327849 110.1182232 67.71920951 110.71757471 70.27392578 110.78662109 C74.2486061 110.48290798 76.61187606 110.23036264 79.81298828 107.73193359 C81.78811375 103.60993262 82.02296045 100.22040344 81.25048828 95.73193359 C80.01595119 92.5844884 80.01595119 92.5844884 77.25048828 90.73193359 C74.18706635 89.74954592 71.45524657 89.43705132 68.25048828 89.73193359 C65.23201508 91.29706785 63.08783211 92.59783359 61.06079102 95.34326172 C58.21372174 97.5272307 55.10875846 97.19971318 51.66064453 97.20068359 C50.91971054 97.20829712 50.17877655 97.21591064 49.41539001 97.22375488 C47.84947069 97.23455212 46.28347938 97.23741047 44.7175293 97.23291016 C42.32429588 97.23193819 39.93427386 97.27354686 37.54150391 97.31787109 C36.01872413 97.32307865 34.49593321 97.32576628 32.97314453 97.32568359 C32.25949234 97.34207886 31.54584015 97.35847412 30.81056213 97.37536621 C27.21098645 97.32542653 25.59779186 97.06711371 22.97045898 94.53149414 C22.40286865 93.60763916 21.83527832 92.68378418 21.25048828 91.73193359 C20.7079541 90.86995361 20.16541992 90.00797363 19.60644531 89.11987305 C18.81536377 87.74641724 18.81536377 87.74641724 18.00830078 86.34521484 C17.41662109 85.32363281 16.82494141 84.30205078 16.21533203 83.24951172 C15.60818359 82.19183594 15.00103516 81.13416016 14.37548828 80.04443359 C13.17036286 77.95684536 11.96463944 75.86960222 10.75830078 73.78271484 C9.8847998 72.26991943 9.8847998 72.26991943 8.99365234 70.7265625 C6.45674552 66.36834134 3.86161767 62.04599955 1.25048828 57.73193359 C-1.18241461 63.95525521 -3.14628292 70.23636704 -4.99951172 76.65380859 C-5.61378112 78.75155679 -6.22837398 80.8492103 -6.84326172 82.94677734 C-7.80130784 86.22650828 -8.75674601 89.5069325 -9.70654297 92.7890625 C-10.63008393 95.97537382 -11.5640076 99.15849246 -12.49951172 102.34130859 C-12.92151855 103.81479767 -12.92151855 103.81479767 -13.35205078 105.3180542 C-13.62243164 106.23290588 -13.8928125 107.14775757 -14.17138672 108.09033203 C-14.40438477 108.8922699 -14.63738281 109.69420776 -14.87744141 110.52044678 C-15.83616167 112.95166957 -17.09904371 114.71808946 -18.74951172 116.73193359 C-20.93701172 116.73193359 -20.93701172 116.73193359 -23.74951172 115.73193359 C-28.23378505 109.28195141 -31.59898971 102.26738048 -35.06201172 95.23193359 C-35.61179687 94.12333984 -36.16158203 93.01474609 -36.72802734 91.87255859 C-38.07221059 89.160815 -39.41259948 86.44726717 -40.74951172 83.73193359 C-42.74828889 85.46241613 -43.73638 86.69944459 -44.73876953 89.17944336 C-46.33068912 92.69594636 -47.62469107 94.40700475 -50.74951172 96.73193359 C-57.3826351 98.38701072 -64.41150309 97.95604196 -71.19335938 97.76098633 C-74.50438318 97.66929869 -77.808441 97.65844033 -81.12060547 97.65966797 C-83.22092654 97.63510158 -85.3212002 97.60596397 -87.42138672 97.57177734 C-88.9073233 97.56343117 -88.9073233 97.56343117 -90.42327881 97.55491638 C-92.96680502 97.46654719 -95.27814459 97.33923408 -97.74951172 96.73193359 C-107.72202852 85.55059128 -105.60001412 61.53673635 -104.97705078 47.83154297 C-103.89550221 33.09834484 -97.39414078 19.7665868 -87.74951172 8.73193359 C-87.24033203 8.12865234 -86.73115234 7.52537109 -86.20654297 6.90380859 C-64.41302682 -16.98834244 -25.44030699 -18.43942988 0 0 Z " fill="#FB4F5A" transform="translate(106.74951171875,14.26806640625)"/>
<path d="M0 0 C7.26015334 5.77166104 13.47606032 12.76987285 18.25048828 20.73193359 C18.25048828 21.39193359 18.25048828 22.05193359 18.25048828 22.73193359 C18.91048828 22.73193359 19.57048828 22.73193359 20.25048828 22.73193359 C20.51474609 21.99716797 20.77900391 21.26240234 21.05126953 20.50537109 C26.89173642 6.9981024 40.30212687 -2.37786237 53.31298828 -8.08056641 C69.31166389 -14.3000004 87.29993778 -14.312264 103.18798828 -7.67431641 C119.89747996 -0.20131698 132.32933633 12.37517961 139.18798828 29.48193359 C148.34972635 54.56999052 144.05545497 83.80623461 133.25048828 107.73193359 C125.76214196 123.76623959 116.12305838 137.44183908 103.81689453 150.11425781 C102.23780756 151.74502936 100.68161768 153.39567997 99.12548828 155.04833984 C82.77201997 172.17298419 62.69318701 183.1302753 41.81689453 193.84130859 C38.39096748 195.60358073 35.00327844 197.40827289 31.65283203 199.31005859 C30.97349609 199.69154053 30.29416016 200.07302246 29.59423828 200.46606445 C27.8259712 201.4663764 26.06709521 202.48323987 24.30908203 203.50146484 C20.60045555 204.99344102 19.10484607 204.66189422 15.25048828 203.73193359 C12.95742291 202.72969507 10.70226462 201.63841239 8.48095703 200.48583984 C7.53014252 199.99586266 7.53014252 199.99586266 6.56011963 199.49598694 C4.51450555 198.43794033 2.47594634 197.36714373 0.43798828 196.29443359 C-0.97140532 195.55853585 -2.38082927 194.82269624 -3.7902832 194.08691406 C-23.82137649 183.590104 -42.44149678 172.53832423 -58.74951172 156.73193359 C-59.28463379 156.22259277 -59.81975586 155.71325195 -60.37109375 155.18847656 C-72.17924752 143.93485893 -81.59085959 131.8923528 -89.74951172 117.73193359 C-90.21744141 116.93400391 -90.68537109 116.13607422 -91.16748047 115.31396484 C-92.82247836 112.30333728 -93.78356977 110.26550978 -93.56201172 106.79443359 C-92.74951172 104.73193359 -92.74951172 104.73193359 -91.74951172 103.73193359 C-90.32300114 103.62529248 -88.89138213 103.58574811 -87.4609375 103.57421875 C-86.54974152 103.5639566 -85.63854553 103.55369446 -84.69973755 103.54312134 C-83.70811615 103.53582001 -82.71649475 103.52851868 -81.69482422 103.52099609 C-79.61538924 103.49292888 -77.53596226 103.46426443 -75.45654297 103.43505859 C-72.16243702 103.39375319 -68.86848048 103.35688541 -65.57421875 103.33056641 C-62.4057697 103.30302706 -59.23800974 103.25715418 -56.06982422 103.20849609 C-55.08225128 103.20524323 -54.09467834 103.20199036 -53.07717896 103.19863892 C-52.15967865 103.18207245 -51.24217834 103.16550598 -50.296875 103.1484375 C-49.48936798 103.14035065 -48.68186096 103.13226379 -47.84988403 103.12393188 C-45.26190128 102.64092951 -44.50610032 101.619019 -42.74951172 99.73193359 C-40.24951172 99.73193359 -40.24951172 99.73193359 -37.74951172 100.73193359 C-34.98818898 104.75202489 -33.03736834 109.20991172 -30.99169922 113.62255859 C-30.64317902 114.36777771 -30.29465881 115.11299683 -29.93557739 115.88079834 C-28.82932463 118.24665628 -27.72657076 120.61411955 -26.62451172 122.98193359 C-25.51511835 125.363937 -24.40492552 127.74554961 -23.29202271 130.12591553 C-22.6010163 131.60397897 -21.91205425 133.08300017 -21.22531128 134.56304932 C-19.83794543 137.8756473 -19.83794543 137.8756473 -17.74951172 140.73193359 C-17.55572433 140.0267157 -17.36193695 139.3214978 -17.16227722 138.59490967 C-15.33244767 131.94201893 -13.49420067 125.29150581 -11.64652538 118.64355087 C-10.69696252 115.2258673 -9.75065098 111.80735295 -8.81176758 108.38671875 C-7.73167912 104.45219198 -6.63746415 100.52171626 -5.54248047 96.59130859 C-5.20798386 95.36514832 -4.87348724 94.13898804 -4.52885437 92.87567139 C-4.20874893 91.73479065 -3.88864349 90.59390991 -3.55883789 89.41845703 C-3.28126144 88.4147406 -3.003685 87.41102417 -2.71769714 86.37689209 C-1.74078497 83.70809324 -0.57240335 81.89350005 1.25048828 79.73193359 C4.56245307 80.01843574 5.92788701 80.38909068 8.24267578 82.84912109 C8.86400391 83.75919922 9.48533203 84.66927734 10.12548828 85.60693359 C11.10462756 87.01214185 12.0850497 88.41651413 13.07763672 89.81225586 C14.25048828 91.73193359 14.25048828 91.73193359 15.39990234 94.5402832 C17.0271497 98.00307676 18.36426792 100.19409688 21.25048828 102.73193359 C27.29480359 104.57492654 34.02096936 103.81772937 40.25048828 103.54443359 C42.84239013 103.45728041 45.43175751 103.38674002 48.02490234 103.35148621 C49.63183277 103.32713067 51.23869648 103.27233197 52.84326172 103.18183899 C57.36660317 103.08411362 59.70137368 103.69845876 63.17236328 106.69555664 C63.71989258 107.23705856 64.26742187 107.77856049 64.83154297 108.33647156 C66.64327849 110.1182232 67.71920951 110.71757471 70.27392578 110.78662109 C74.2486061 110.48290798 76.61187606 110.23036264 79.81298828 107.73193359 C81.78811375 103.60993262 82.02296045 100.22040344 81.25048828 95.73193359 C80.01595119 92.5844884 80.01595119 92.5844884 77.25048828 90.73193359 C74.18706635 89.74954592 71.45524657 89.43705132 68.25048828 89.73193359 C65.23201508 91.29706785 63.08783211 92.59783359 61.06079102 95.34326172 C58.21372174 97.5272307 55.10875846 97.19971318 51.66064453 97.20068359 C50.91971054 97.20829712 50.17877655 97.21591064 49.41539001 97.22375488 C47.84947069 97.23455212 46.28347938 97.23741047 44.7175293 97.23291016 C42.32429588 97.23193819 39.93427386 97.27354686 37.54150391 97.31787109 C36.01872413 97.32307865 34.49593321 97.32576628 32.97314453 97.32568359 C32.25949234 97.34207886 31.54584015 97.35847412 30.81056213 97.37536621 C27.21098645 97.32542653 25.59779186 97.06711371 22.97045898 94.53149414 C22.40286865 93.60763916 21.83527832 92.68378418 21.25048828 91.73193359 C20.7079541 90.86995361 20.16541992 90.00797363 19.60644531 89.11987305 C18.81536377 87.74641724 18.81536377 87.74641724 18.00830078 86.34521484 C17.41662109 85.32363281 16.82494141 84.30205078 16.21533203 83.24951172 C15.60818359 82.19183594 15.00103516 81.13416016 14.37548828 80.04443359 C13.17036286 77.95684536 11.96463944 75.86960222 10.75830078 73.78271484 C9.8847998 72.26991943 9.8847998 72.26991943 8.99365234 70.7265625 C6.45674552 66.36834134 3.86161767 62.04599955 1.25048828 57.73193359 C-1.18241461 63.95525521 -3.14628292 70.23636704 -4.99951172 76.65380859 C-5.61378112 78.75155679 -6.22837398 80.8492103 -6.84326172 82.94677734 C-7.80130784 86.22650828 -8.75674601 89.5069325 -9.70654297 92.7890625 C-10.63008393 95.97537382 -11.5640076 99.15849246 -12.49951172 102.34130859 C-12.92151855 103.81479767 -12.92151855 103.81479767 -13.35205078 105.3180542 C-13.62243164 106.23290588 -13.8928125 107.14775757 -14.17138672 108.09033203 C-14.40438477 108.8922699 -14.63738281 109.69420776 -14.87744141 110.52044678 C-15.83616167 112.95166957 -17.09904371 114.71808946 -18.74951172 116.73193359 C-20.93701172 116.73193359 -20.93701172 116.73193359 -23.74951172 115.73193359 C-28.23378505 109.28195141 -31.59898971 102.26738048 -35.06201172 95.23193359 C-35.61179687 94.12333984 -36.16158203 93.01474609 -36.72802734 91.87255859 C-38.07221059 89.160815 -39.41259948 86.44726717 -40.74951172 83.73193359 C-42.74828889 85.46241613 -43.73638 86.69944459 -44.73876953 89.17944336 C-46.33068912 92.69594636 -47.62469107 94.40700475 -50.74951172 96.73193359 C-57.3826351 98.38701072 -64.41150309 97.95604196 -71.19335938 97.76098633 C-74.50438318 97.66929869 -77.808441 97.65844033 -81.12060547 97.65966797 C-83.22092654 97.63510158 -85.3212002 97.60596397 -87.42138672 97.57177734 C-88.9073233 97.56343117 -88.9073233 97.56343117 -90.42327881 97.55491638 C-92.96680502 97.46654719 -95.27814459 97.33923408 -97.74951172 96.73193359 C-107.72202852 85.55059128 -105.60001412 61.53673635 -104.97705078 47.83154297 C-103.89550221 33.09834484 -97.39414078 19.7665868 -87.74951172 8.73193359 C-87.24033203 8.12865234 -86.73115234 7.52537109 -86.20654297 6.90380859 C-64.41302682 -16.98834244 -25.44030699 -18.43942988 0 0 Z M-82.74951172 15.73193359 C-95.48388797 31.45476242 -98.5166961 49.81701848 -96.46679688 69.43798828 C-95.55163718 78.86127792 -95.55163718 78.86127792 -92.74951172 87.73193359 C-87.52173597 88.13059079 -82.30292599 88.41895376 -77.06347656 88.61083984 C-75.28717013 88.69083331 -73.51190255 88.79970204 -71.73925781 88.93896484 C-63.08992794 89.65962985 -63.08992794 89.65962985 -54.74951172 87.73193359 C-49.88378659 83.46767116 -47.29003758 77.56106792 -44.74951172 71.73193359 C-44.41951172 71.07193359 -44.08951172 70.41193359 -43.74951172 69.73193359 C-40.68701172 69.10693359 -40.68701172 69.10693359 -37.74951172 68.73193359 C-37.47695557 69.44075684 -37.20439941 70.14958008 -36.92358398 70.87988281 C-35.72703451 73.78653512 -34.38347947 76.560382 -32.96435547 79.36474609 C-32.43390625 80.41791016 -31.90345703 81.47107422 -31.35693359 82.55615234 C-30.80585937 83.64541016 -30.25478516 84.73466797 -29.68701172 85.85693359 C-28.590105 88.02526721 -27.49496842 90.19449747 -26.40185547 92.36474609 C-25.67470337 93.80164795 -25.67470337 93.80164795 -24.93286133 95.26757812 C-23.74951172 97.73193359 -23.74951172 97.73193359 -22.74951172 100.73193359 C-22.08951172 100.73193359 -21.42951172 100.73193359 -20.74951172 100.73193359 C-20.53037109 99.86955078 -20.31123047 99.00716797 -20.08544922 98.11865234 C-18.17157779 90.75102532 -16.08112775 83.47866965 -13.74951172 76.23193359 C-11.49539897 69.22227008 -9.47581443 62.19464739 -7.62841797 55.06787109 C-6.4479526 50.58734922 -5.12368805 46.15636497 -3.74951172 41.73193359 C-1.76951172 41.40193359 0.21048828 41.07193359 2.25048828 40.73193359 C2.64880859 41.79577271 2.64880859 41.79577271 3.05517578 42.88110352 C4.30220252 45.85527248 5.76468321 48.551826 7.37548828 51.34521484 C7.99327148 52.42174316 8.61105469 53.49827148 9.24755859 54.60742188 C10.6007948 56.92956464 11.96179158 59.24425418 13.33935547 61.55175781 C14.03429559 62.71952998 14.72863471 63.88766003 15.42236328 65.05615234 C15.76378357 65.63055054 16.10520386 66.20494873 16.45697021 66.79675293 C18.40185972 70.11974305 20.06028315 73.43943134 21.51611328 77.00146484 C24.2212162 83.2992558 24.2212162 83.2992558 29.25048828 87.73193359 C37.61582733 89.77774458 50.56294786 90.91424788 58.34228516 86.56152344 C60.14763858 85.10769738 60.14763858 85.10769738 62.25048828 82.73193359 C67.03142371 80.34146588 74.51740854 80.86786715 79.52392578 82.45068359 C84.6412775 85.22165134 87.9894157 89.45930476 90.25048828 94.73193359 C91.23592637 101.46958009 90.27475715 107.19394891 86.25048828 112.73193359 C81.68543018 117.52345672 77.59225637 118.91683588 71.06298828 119.16943359 C65.14583395 119.1562109 62.03193548 118.04401797 57.64111328 114.14208984 C57.18220703 113.67673828 56.72330078 113.21138672 56.25048828 112.73193359 C55.05057838 111.30367373 55.05057838 111.30367373 51.55688477 111.6184082 C49.91177536 111.61856736 48.26666097 111.62426371 46.62158203 111.63427734 C45.75735123 111.63569229 44.89312042 111.63710724 44.00270081 111.63856506 C41.23109536 111.64418121 38.45956948 111.6567364 35.68798828 111.66943359 C33.81364049 111.67444652 31.93929143 111.67900978 30.06494141 111.68310547 C25.46009285 111.69415588 20.85530407 111.7114313 16.25048828 111.73193359 C15.96512207 110.97565674 15.67975586 110.21937988 15.38574219 109.44018555 C13.91838737 105.93967651 11.81761023 102.99182951 9.62548828 99.91943359 C9.20525391 99.32195312 8.78501953 98.72447266 8.35205078 98.10888672 C7.322691 96.64672794 6.28720598 95.1888846 5.25048828 93.73193359 C3.40509927 96.50001711 2.76383062 98.07367529 1.98876953 101.21240234 C1.76044434 102.11724365 1.53211914 103.02208496 1.296875 103.9543457 C1.05469238 104.93282471 0.81250977 105.91130371 0.56298828 106.91943359 C-1.58396341 115.38975552 -3.88781957 123.79260738 -6.37451172 132.16943359 C-9.08088129 141.3052795 -11.55413237 150.45952391 -13.74951172 159.73193359 C-15.72951172 159.73193359 -17.70951172 159.73193359 -19.74951172 159.73193359 C-19.99121094 158.93827393 -20.23291016 158.14461426 -20.48193359 157.3269043 C-22.07029292 152.82216797 -24.02686985 148.54517364 -26.03076172 144.21240234 C-26.65198914 142.86363762 -26.65198914 142.86363762 -27.2857666 141.48762512 C-28.15822574 139.59668399 -29.03240487 137.7065356 -29.90820312 135.81713867 C-31.2515921 132.91493923 -32.58472472 130.00816916 -33.91748047 127.10107422 C-34.76711879 125.26289592 -35.61735814 123.42499529 -36.46826172 121.58740234 C-36.86726685 120.714561 -37.26627197 119.84171967 -37.67736816 118.94242859 C-38.05115601 118.14101944 -38.42494385 117.33961029 -38.81005859 116.51391602 C-39.13711792 115.80587326 -39.46417725 115.09783051 -39.80114746 114.36833191 C-40.6544355 112.55046436 -40.6544355 112.55046436 -42.74951172 111.73193359 C-45.66880966 111.71527222 -48.55987789 111.75947753 -51.47607422 111.85302734 C-52.770298 111.88844383 -52.770298 111.88844383 -54.09066772 111.92457581 C-56.85211378 112.00127657 -59.6132839 112.08527321 -62.37451172 112.16943359 C-64.24428979 112.22264787 -66.11408141 112.2753883 -67.98388672 112.32763672 C-72.57260381 112.45690038 -77.16108649 112.59270864 -81.74951172 112.73193359 C-70.66264668 141.40124108 -40.53579662 164.45114116 -14.33837891 178.35205078 C-11.73591411 179.73918121 -9.14407757 181.14512312 -6.55392456 182.55508423 C-4.01075928 183.93864858 -1.46480968 185.31702936 1.08184814 186.69415283 C2.35411763 187.38231564 3.62589291 188.07139296 4.89715576 188.76141357 C6.6947462 189.73544043 8.49554652 190.7032521 10.29736328 191.66943359 C11.34762695 192.23533203 12.39789063 192.80123047 13.47998047 193.38427734 C16.74301644 195.04185982 16.74301644 195.04185982 20.25048828 195.73193359 C22.96206663 194.76992061 22.96206663 194.76992061 25.80908203 193.18896484 C27.45626221 192.32899902 27.45626221 192.32899902 29.13671875 191.45166016 C30.32087254 190.81665825 31.50462024 190.18089859 32.68798828 189.54443359 C33.90533081 188.89907076 35.1229442 188.25421861 36.34082031 187.60986328 C39.98904211 185.67188123 43.62103578 183.70478312 47.25048828 181.73193359 C48.27770996 181.17618652 49.30493164 180.62043945 50.36328125 180.04785156 C65.51680674 171.79745623 78.69639275 162.64571205 91.25048828 150.73193359 C91.72341309 150.28624023 92.19633789 149.84054688 92.68359375 149.38134766 C116.98013326 126.34193466 134.08386008 96.04390767 135.46923828 62.09521484 C135.97652642 42.90440894 131.44083357 27.15103729 118.25048828 12.73193359 C109.31137329 3.32529167 96.16879906 -3.02615108 83.13720703 -3.70166016 C81.40429092 -3.72500906 79.67094281 -3.72586503 77.93798828 -3.70556641 C77.02299561 -3.69799316 76.10800293 -3.69041992 75.1652832 -3.68261719 C58.56191388 -3.28112366 45.63595718 3.90561321 34.25048828 15.73193359 C29.04513177 21.89936961 22.25048828 31.35087228 22.25048828 39.73193359 C20.27048828 39.73193359 18.29048828 39.73193359 16.25048828 39.73193359 C16.08226563 38.89275391 16.08226563 38.89275391 15.91064453 38.03662109 C12.58098281 24.50034925 3.5855838 12.94787725 -7.74951172 5.10693359 C-32.8590611 -9.96560079 -62.69041942 -5.57469636 -82.74951172 15.73193359 Z " fill="#040101" transform="translate(106.74951171875,14.26806640625)"/>
<path d="M0 0 C2.09954939 2.5961906 3.3776045 5.56796267 4.75578308 8.58467102 C5.07262054 9.26461121 5.38945801 9.94455139 5.71589661 10.64509583 C6.72755267 12.82006776 7.73001134 14.99913992 8.73234558 17.17842102 C9.3984203 18.61359173 10.06508137 20.04849046 10.73234558 21.48310852 C12.32743427 24.9168937 13.91148586 28.35561801 15.49101257 31.79658508 C16.30481328 33.56431113 17.12623001 35.32852536 17.94816589 37.09248352 C18.40546082 38.0799054 18.86275574 39.06732727 19.33390808 40.08467102 C19.72916687 40.93351868 20.12442566 41.78236633 20.53166199 42.65693665 C21.35734558 44.67842102 21.35734558 44.67842102 21.35734558 46.67842102 C23.33734558 46.67842102 25.31734558 46.67842102 27.35734558 46.67842102 C27.62289246 45.5930304 27.88843933 44.50763977 28.16203308 43.38935852 C28.5186764 41.94401455 28.87545439 40.4987038 29.23234558 39.05342102 C29.40636902 38.34056946 29.58039246 37.6277179 29.75968933 36.89326477 C30.78588896 32.75045887 31.94525288 28.71115424 33.35734558 24.67842102 C36.67965376 25.26343616 38.23292009 26.2581387 40.60734558 28.61592102 C58.31789762 44.59142822 82.17632473 53.63094119 105.35734558 57.67842102 C102.99056549 60.30914707 100.52316706 61.83426831 97.41203308 63.49873352 C96.4250946 64.03039124 95.43815613 64.56204895 94.42131042 65.1098175 C93.36895203 65.66870667 92.31659363 66.22759583 91.23234558 66.80342102 C89.05522034 67.96349863 86.87813727 69.12365538 84.70109558 70.28388977 C83.62601746 70.85542786 82.55093933 71.42696594 81.44328308 72.01582336 C78.67273372 73.50850067 75.93265995 75.04168242 73.20109558 76.60420227 C72.43813171 77.03265442 71.67516785 77.46110657 70.88908386 77.90254211 C69.48801437 78.69078248 68.09510309 79.49376869 66.71232605 80.31367493 C63.77041676 81.94200162 61.92238012 82.76747109 58.55656433 82.23701477 C57.50082214 81.72267883 56.44507996 81.2083429 55.35734558 80.67842102 C54.60356628 80.31192444 53.84978699 79.94542786 53.07316589 79.56782532 C50.29099272 78.18694806 47.54189602 76.75288358 44.79484558 75.30342102 C43.28205017 74.50702209 43.28205017 74.50702209 41.73869324 73.6945343 C22.20463536 63.34651582 4.47652267 52.97544534 -11.64265442 37.67842102 C-12.11557922 37.23272766 -12.58850403 36.7870343 -13.07575989 36.32783508 C-23.83982237 26.12071563 -33.45835531 14.7386204 -40.64265442 1.67842102 C-40.64265442 1.01842102 -40.64265442 0.35842102 -40.64265442 -0.32157898 C-35.1439224 -0.53857919 -29.64497905 -0.7354489 -24.14485168 -0.91362 C-22.27356159 -0.97708382 -20.40245018 -1.04606413 -18.53157043 -1.12065125 C-15.84361618 -1.22685787 -13.15564545 -1.31326528 -10.46687317 -1.39579773 C-9.21048286 -1.45183418 -9.21048286 -1.45183418 -7.92871094 -1.50900269 C-2.06467215 -1.66110856 -2.06467215 -1.66110856 0 0 Z " fill="#E83546" transform="translate(65.64265441894531,127.32157897949219)"/>
<path d="M0 0 C1.86785156 0.01740234 1.86785156 0.01740234 3.7734375 0.03515625 C3.50789063 1.123125 3.24234375 2.21109375 2.96875 3.33203125 C2.61176103 4.8163538 2.25500281 6.30073187 1.8984375 7.78515625 C1.72441406 8.49542969 1.55039062 9.20570312 1.37109375 9.9375 C-1.24394297 20.88191295 -2.58115435 31.39512988 -2.5390625 42.66015625 C-2.54502441 43.88637695 -2.55098633 45.11259766 -2.55712891 46.37597656 C-2.52044815 52.5758392 -2.26783843 58.35211244 -0.64086914 64.35205078 C1.34305882 73.30262846 0.4775389 77.91136614 -4.26766968 85.64282227 C-6.92876436 89.35276599 -9.06854541 91.42229187 -13.61767578 92.32324219 C-18.72347846 92.80621389 -23.75256676 92.43574439 -28.8515625 92.03515625 C-30.63639838 91.95477868 -32.42158342 91.88179529 -34.20703125 91.81640625 C-38.55558484 91.64115072 -42.88719158 91.3660659 -47.2265625 91.03515625 C-52.64321573 68.68720328 -54.47295143 46.55145958 -42.2265625 26.03515625 C-34.02362885 13.60289231 -22.25671682 4.66064849 -7.8515625 0.59765625 C-5.09033293 0.16918959 -2.75885577 -0.02570363 0 0 Z " fill="#E83546" transform="translate(61.2265625,10.96484375)"/>
<path d="M0 0 C8.46770672 6.19449686 14.14492959 14.46603877 17.453125 24.390625 C17.98588685 31.39849237 17.94824381 37.20695325 14.453125 43.390625 C12.13939009 45.70435991 11.54917571 45.75692973 8.390625 45.890625 C-1.72536263 45.46540705 -9.01696932 36.39665332 -15.72290039 29.60571289 C-17.23201203 28.08051316 -18.75651188 26.57203316 -20.28320312 25.06445312 C-34.55880542 10.82464204 -34.55880542 10.82464204 -35.234375 2.578125 C-34.99165617 -0.81401859 -34.67930353 -1.46223218 -32.296875 -4.109375 C-21.53231291 -9.98095432 -9.73473166 -6.15139485 0 0 Z " fill="#FE98A3" transform="translate(212.546875,28.609375)"/>
</svg>
