<svg xmlns="http://www.w3.org/2000/svg" xmlns:bx="https://boxy-svg.com" version="1.1" viewBox="115 115 300 300"><defs><bx:grid x="0" y="0" width="36.877" height="48.354"/><bx:export><bx:file format="svg"/></bx:export></defs><rect style="stroke: rgb(0, 0, 0); stroke-width: 0px; fill: rgb(192, 231, 86);" x="115" y="115" width="300" height="300" rx="80" ry="80"/><path d="M 298.33 189.233 C 299.645 190.376 301 191.469 302.35 192.57 C 306.381 195.858 310.389 199.171 314.346 202.548 C 315.983 203.941 317.652 205.287 319.335 206.623 C 320.59 207.639 321.815 208.686 323.041 209.735 C 324.912 211.337 326.816 212.882 328.761 214.393 C 331.184 216.275 333.506 218.255 335.809 220.281 C 337.278 221.571 338.765 222.818 340.307 224.021 C 348.564 230.603 353.497 239.696 354.756 250.177 C 354.959 252.738 354.909 255.314 354.911 257.882 C 354.913 258.551 354.915 259.22 354.917 259.889 C 354.923 261.7 354.925 263.51 354.927 265.321 C 354.929 266.456 354.93 267.591 354.932 268.726 C 354.938 272.285 354.942 275.845 354.944 279.405 C 354.946 283.496 354.952 287.587 354.965 291.679 C 354.974 294.852 354.978 298.026 354.979 301.2 C 354.979 303.09 354.982 304.98 354.989 306.869 C 354.996 308.652 354.997 310.434 354.993 312.215 C 354.993 312.863 354.995 313.511 354.999 314.159 C 355.071 325.99 351.633 336.386 343.272 344.987 C 334.105 353.737 323.643 355.052 311.55 354.988 C 309.996 354.982 308.442 354.988 306.888 354.997 C 305.885 354.996 304.882 354.994 303.879 354.992 C 303.422 354.994 302.966 354.997 302.494 355 C 296.856 354.948 292.171 353.603 287.969 349.728 C 283.11 344.573 282.512 338.968 282.505 332.178 C 282.503 331.051 282.496 329.925 282.488 328.799 C 282.465 325.6 282.452 322.4 282.441 319.2 C 282.435 317.237 282.422 315.273 282.405 313.309 C 282.401 312.566 282.398 311.822 282.398 311.079 C 282.398 303.997 281.508 298.408 276.511 293.088 C 273.244 289.929 269.602 288.362 265.053 288.133 C 259.754 288.328 255.874 290.567 252.326 294.316 C 248.067 299.315 247.666 304.642 247.66 310.951 C 247.658 312.076 247.651 313.2 247.642 314.325 C 247.619 317.519 247.606 320.714 247.596 323.909 C 247.589 325.87 247.576 327.832 247.56 329.793 C 247.555 330.534 247.553 331.276 247.553 332.018 C 247.553 338.687 246.996 344.338 242.285 349.473 C 237.574 353.937 232.534 354.956 226.245 354.95 C 225.755 354.952 225.264 354.954 224.759 354.956 C 223.725 354.959 222.69 354.959 221.656 354.957 C 220.095 354.956 218.534 354.965 216.975 354.976 C 209.651 354.996 202.833 354.784 196.149 351.456 C 195.569 351.177 195.569 351.177 194.976 350.893 C 185.943 346.281 180.062 338.167 176.836 328.726 C 175.334 323.7 175.093 318.912 175.09 313.702 C 175.088 313.034 175.085 312.365 175.083 311.696 C 175.078 309.884 175.075 308.074 175.073 306.262 C 175.072 305.128 175.07 303.993 175.068 302.858 C 175.062 299.299 175.059 295.739 175.057 292.18 C 175.055 288.088 175.047 283.997 175.035 279.906 C 175.026 276.731 175.022 273.558 175.022 270.384 C 175.021 268.494 175.019 266.604 175.011 264.714 C 175.004 262.933 175.004 261.151 175.007 259.369 C 175.008 258.721 175.006 258.073 175.001 257.425 C 174.928 245.461 178.456 235.124 186.86 226.389 C 188.473 224.816 190.2 223.4 191.953 221.989 C 193.308 220.889 194.638 219.761 195.965 218.628 C 197.874 216.999 199.811 215.414 201.777 213.853 C 203.068 212.808 204.331 211.735 205.595 210.657 C 207.515 209.017 209.462 207.421 211.439 205.851 C 212.694 204.834 213.92 203.788 215.145 202.738 C 217.016 201.136 218.921 199.592 220.865 198.081 C 223.289 196.197 225.611 194.215 227.918 192.19 C 229.669 190.657 231.442 189.164 233.272 187.726 C 234.093 187.079 234.903 186.424 235.709 185.76 C 255.891 169.268 279.582 172.766 298.33 189.233 Z" fill="#000000" style=""/></svg>