<?xml version="1.0" encoding="UTF-8"?>
<svg version="1.1" xmlns="http://www.w3.org/2000/svg" width="500" height="500">
<path d="M0 0 C17.46456657 -0.43288848 32.74575698 1.04779445 48.87988281 8.05761719 C50.49056641 8.75564453 50.49056641 8.75564453 52.13378906 9.46777344 C63.38420242 14.73361228 72.56790085 22.67698138 81.87280273 30.7487793 C85.7198189 34.08478428 89.64191015 37.27353126 93.68847656 40.36621094 C103.85524341 48.21328767 113.61985596 56.62880122 123.32519531 65.03808594 C131.32636798 71.9627168 139.52213658 78.56967738 147.87988281 85.05761719 C155.14579095 90.72480502 162.11580669 96.68821295 169.05957031 102.74121094 C172.61741977 105.83879177 176.21027911 108.89265481 179.81738281 111.93261719 C180.88129619 112.83222517 181.94510268 113.73195958 183.00878906 114.63183594 C184.74250277 116.09664711 186.47873562 117.55849407 188.21972656 119.01464844 C197.34236953 126.77152144 203.40640592 135.4894817 208.87988281 146.05761719 C209.37875 147.01539063 209.87761719 147.97316406 210.39160156 148.95996094 C219.28958231 168.0117936 217.32971926 190.59935311 217.28285933 211.10384679 C217.27516134 215.53696417 217.2823359 219.97006469 217.28701782 224.40318298 C217.29244574 231.84084469 217.28536172 239.27841646 217.27099609 246.71606445 C217.25466932 255.26684049 217.25997034 263.81740184 217.27647531 272.36817271 C217.29016818 279.76327422 217.29197221 287.1583118 217.2841593 294.55342191 C217.2795261 298.94680919 217.278736 303.34009615 217.28876877 307.73347664 C217.29755116 311.86649114 217.29121533 315.99923364 217.274086 320.13221931 C217.27018066 321.63241122 217.27115021 323.13262676 217.27787399 324.63280869 C217.31084982 332.74994219 216.83497118 340.58367394 215.52359009 348.60374451 C215.34535173 349.69640486 215.34535173 349.69640486 215.16351259 350.81113917 C212.09508611 368.02645085 202.75996175 381.61182021 190.87988281 394.05761719 C190.07164062 394.97800781 190.07164062 394.97800781 189.24707031 395.91699219 C177.44901653 408.84149331 159.05132483 416.71754033 141.87988281 418.05761719 C137.57128142 418.21548658 133.26533006 418.244984 128.95410156 418.26074219 C127.73012161 418.26644226 126.50614166 418.27214233 125.24507141 418.27801514 C122.66574965 418.28742313 120.0864161 418.29398232 117.50708008 418.29785156 C113.59011633 418.30756084 109.67367696 418.33862698 105.75683594 418.37011719 C103.2392609 418.37664825 100.72168214 418.38189832 98.20410156 418.38574219 C97.04746506 418.39808899 95.89082855 418.41043579 94.69914246 418.42315674 C80.76340759 418.38552041 70.62332957 415.32548217 60.39941406 405.72949219 C50.75044447 395.71848948 48.74223772 385.51172716 48.72216797 371.96435547 C48.71708725 371.19896454 48.71200653 370.43357361 48.70677185 369.64498901 C48.69614484 367.99725578 48.68749522 366.34950881 48.68065262 364.70175552 C48.66875236 362.08551027 48.64927347 359.46942199 48.62753296 356.85324097 C48.56628063 349.41962973 48.51193137 341.98603906 48.47851562 334.55224609 C48.45747068 329.9911565 48.42209727 325.43036198 48.37775803 320.86944199 C48.36368465 319.14168664 48.35489536 317.4138792 48.35170364 315.68606949 C48.31779211 299.0904825 45.58407463 286.51804916 33.97753906 274.06542969 C26.7258836 267.12436655 17.97412172 264.01055735 8.00488281 263.62011719 C-2.75679554 263.95167082 -11.31419977 267.75028132 -19.12011719 275.05761719 C-19.673125 275.569375 -20.22613281 276.08113281 -20.79589844 276.60839844 C-28.97244054 285.12298879 -32.25218613 296.40531144 -32.29370117 307.90209961 C-32.30373169 309.06415924 -32.30373169 309.06415924 -32.31396484 310.24969482 C-32.32797656 311.92694236 -32.33988284 313.60420853 -32.34991264 315.2814846 C-32.36640048 317.94369108 -32.3896435 320.6057608 -32.41481018 323.26789856 C-32.48535529 330.83551134 -32.54551281 338.40318075 -32.59692383 345.97094727 C-32.62888736 350.60632498 -32.67020783 355.24154547 -32.71711922 359.87679482 C-32.73303796 361.63525858 -32.74540568 363.39375849 -32.75402641 365.15227318 C-32.83655942 381.753274 -33.80199241 394.13974755 -45.56542969 406.65527344 C-56.60059919 417.03238238 -67.47375328 418.37456517 -82.10839844 418.32324219 C-83.32859177 418.32515564 -84.5487851 418.32706909 -85.80595398 418.32904053 C-88.37511401 418.33039515 -90.94428105 418.32674948 -93.51342773 418.31835938 C-97.41047844 418.30767787 -101.30706529 418.31826542 -105.20410156 418.33105469 C-107.71386819 418.32973242 -110.22363453 418.32716865 -112.73339844 418.32324219 C-113.8817366 418.32729065 -115.03007477 418.33133911 -116.21321106 418.33551025 C-140.28347479 418.19854538 -159.22184808 409.93241648 -176.12011719 393.05761719 C-176.92449219 392.26484375 -177.72886719 391.47207031 -178.55761719 390.65527344 C-196.85509539 371.56363386 -201.45399292 348.42205319 -201.37890625 322.72753906 C-201.38162403 321.14229676 -201.38518934 319.55705572 -201.38952637 317.97181702 C-201.3985591 313.70941314 -201.39514419 309.44710727 -201.3887682 305.18470192 C-201.38366052 300.69763575 -201.38841277 296.21057728 -201.39154053 291.72351074 C-201.3951664 284.19212354 -201.39041744 276.66077573 -201.38085938 269.12939453 C-201.3699775 260.45542033 -201.37350406 251.78154019 -201.38451219 243.10756826 C-201.39362453 235.62431843 -201.39485113 228.14109671 -201.38963485 220.65784311 C-201.38653676 216.20416634 -201.38604571 211.75053359 -201.39270782 207.29685974 C-201.39853845 203.10734653 -201.39438129 198.91795312 -201.38291931 194.72845268 C-201.38030299 193.20239395 -201.38098508 191.67632492 -201.38544464 190.15027046 C-201.44590297 167.33628623 -197.00348262 143.8002137 -180.72167969 126.51074219 C-179.86316406 125.70121094 -179.00464844 124.89167969 -178.12011719 124.05761719 C-176.77046875 122.78144531 -176.77046875 122.78144531 -175.39355469 121.47949219 C-169.76498719 116.29089358 -164.06065824 111.29909193 -158.09277344 106.49902344 C-154.5774486 103.61193011 -151.16444542 100.61957362 -147.74511719 97.62011719 C-143.10733034 93.56300586 -138.41155077 89.64762163 -133.49511719 85.93261719 C-127.90423161 81.70519513 -122.55485536 77.25711549 -117.22949219 72.70214844 C-114.43768543 70.31640705 -111.60000444 67.99271087 -108.74511719 65.68261719 C-104.30023162 62.07236078 -99.98692883 58.33243448 -95.68261719 54.55761719 C-90.36844764 49.90521719 -84.91312994 45.60082786 -79.20996094 41.42871094 C-75.5669877 38.63315499 -72.12982607 35.65108742 -68.68261719 32.62011719 C-48.82881755 15.28938371 -27.22404121 0.73985188 0 0 Z " fill="#020202" transform="translate(242.1201171875,40.9423828125)"/>
<path d="M0 0 C0.66 0.33 1.32 0.66 2 1 C0.74054645 2.67528263 -0.53293682 4.34002614 -1.8125 6 C-2.87404297 7.3921875 -2.87404297 7.3921875 -3.95703125 8.8125 C-4.63121094 9.534375 -5.30539063 10.25625 -6 11 C-6.99 11 -7.98 11 -9 11 C-10.65503095 12.0772721 -10.65503095 12.0772721 -12.1875 13.5 C-13.115625 14.325 -14.04375 15.15 -15 16 C-15.66 15.67 -16.32 15.34 -17 15 C-5.47835991 4.44191344 -5.47835991 4.44191344 0 0 Z " fill="#B8B8B8" transform="translate(108,127)"/>
<path d="M0 0 C0.66 0.33 1.32 0.66 2 1 C-0.31 3.97 -2.62 6.94 -5 10 C-6.32 9.34 -7.64 8.68 -9 8 C-6.03 5.36 -3.06 2.72 0 0 Z " fill="#838383" transform="translate(159,85)"/>
<path d="M0 0 C-1.38188453 3.21043882 -2.92421903 5.04936365 -5.625 7.25 C-6.57246094 8.03117188 -6.57246094 8.03117188 -7.5390625 8.828125 C-8.02117188 9.21484375 -8.50328125 9.6015625 -9 10 C-9 7 -9 7 -7.5390625 5.17578125 C-6.90742187 4.56089844 -6.27578125 3.94601563 -5.625 3.3125 C-4.68527344 2.37857422 -4.68527344 2.37857422 -3.7265625 1.42578125 C-2 0 -2 0 0 0 Z " fill="#767676" transform="translate(72,159)"/>
<path d="M0 0 C0.66 0.33 1.32 0.66 2 1 C-0.64 4.3 -3.28 7.6 -6 11 C-6.33 10.01 -6.66 9.02 -7 8 C-5.56640625 5.95703125 -5.56640625 5.95703125 -3.5625 3.8125 C-2.90378906 3.09707031 -2.24507813 2.38164062 -1.56640625 1.64453125 C-1.04949219 1.10183594 -0.53257813 0.55914062 0 0 Z " fill="#646464" transform="translate(108,127)"/>
</svg>
