<?xml version="1.0" encoding="UTF-8"?>
<svg version="1.1" xmlns="http://www.w3.org/2000/svg" width="500" height="500">
<path d="M0 0 C0.99430782 -0.00297112 1.98861565 -0.00594224 3.01305401 -0.0090034 C6.34286854 -0.01767066 9.67264702 -0.01919701 13.00247192 -0.02069092 C15.39115984 -0.02532063 17.77984701 -0.0303455 20.16853333 -0.03573608 C26.65871347 -0.04885072 33.14888673 -0.05534087 39.63907766 -0.05974674 C43.69799651 -0.06251473 47.75691299 -0.06675321 51.81583023 -0.07125092 C63.07084694 -0.0834428 74.32586176 -0.09374065 85.58088493 -0.09712601 C86.66062849 -0.09745536 86.66062849 -0.09745536 87.76218504 -0.09779136 C88.84441451 -0.09811878 88.84441451 -0.09811878 89.94850719 -0.09845281 C91.41034309 -0.09889626 92.87217899 -0.09934282 94.33401489 -0.09979248 C95.05912554 -0.10001391 95.78423618 -0.10023534 96.53131987 -0.10046348 C108.26013697 -0.10440488 119.98889169 -0.1218391 131.71768473 -0.145152 C143.78196679 -0.16893645 155.84621767 -0.18133116 167.91052353 -0.18249393 C174.6749506 -0.18340698 181.43929648 -0.18906495 188.20370102 -0.20731354 C194.57473888 -0.22386711 200.9456234 -0.22591443 207.31667519 -0.21717453 C209.6449468 -0.21640794 211.9732269 -0.22069646 214.30147743 -0.23063278 C226.9575209 -0.28144244 238.74428768 0.18956279 251.08499146 3.14044189 C252.40242517 3.43481103 253.72018855 3.72770844 255.03826714 4.01917648 C272.48698328 7.99803608 290.096871 17.88484016 303.08499146 30.14044189 C303.08499146 30.80044189 303.08499146 31.46044189 303.08499146 32.14044189 C304.07499146 32.47044189 305.06499146 32.80044189 306.08499146 33.14044189 C306.08499146 33.80044189 306.08499146 34.46044189 306.08499146 35.14044189 C306.74499146 35.14044189 307.40499146 35.14044189 308.08499146 35.14044189 C309.30252075 36.41876221 309.30252075 36.41876221 310.65921021 38.21856689 C311.15856079 38.87864746 311.65791138 39.53872803 312.1723938 40.21881104 C312.70042603 40.93544922 313.22845825 41.6520874 313.77249146 42.39044189 C314.31341431 43.1219043 314.85433716 43.8533667 315.41165161 44.60699463 C334.35323551 70.54601601 338.39801596 97.47859291 338.35964966 128.88018799 C338.36400444 131.24887756 338.36919012 133.61756572 338.37513733 135.98625183 C338.38845539 142.38094522 338.3891141 148.77557925 338.38657403 155.17028379 C338.38577064 159.17415075 338.38792525 163.17800856 338.39156151 167.18187332 C338.3921567 167.84934546 338.39275189 168.51681761 338.39336511 169.20451618 C338.39457703 170.56106674 338.39579116 171.9176173 338.39700749 173.27416785 C338.40784967 185.95677329 338.40573621 198.63935206 338.39962264 211.32195897 C338.39445517 222.88787 338.40571039 234.45369677 338.42472086 246.01959114 C338.444159 257.93839683 338.45234491 269.85716278 338.44859761 281.77598441 C338.44669476 288.45031301 338.44935317 295.12458029 338.46331215 301.7989006 C338.47595521 308.07814422 338.47388539 314.35722 338.46090126 320.63646126 C338.45855009 322.9288406 338.46121721 325.22123199 338.46952438 327.51359749 C338.5129103 340.42598993 337.90888097 352.51061409 335.08499146 365.14044189 C334.86761493 366.13712202 334.86761493 366.13712202 334.64584696 367.1539371 C330.08970552 387.94743065 318.75768184 405.02910605 304.08499146 420.14044189 C303.26514771 420.98993408 302.44530396 421.83942627 301.60061646 422.71466064 C286.85931026 436.92949162 267.99280874 445.99934991 248.08499146 450.14044189 C247.23338597 450.32191363 246.38178049 450.50338537 245.50436878 450.69035625 C234.16982071 452.75996537 222.76204314 452.42889463 211.28103638 452.4151001 C208.88146304 452.41945313 206.48189108 452.42463825 204.08232117 452.43058777 C198.26672368 452.44254371 192.45117997 452.44513688 186.63557168 452.44278751 C181.90298591 452.44099658 177.17041408 452.44277048 172.43782997 452.44701195 C171.76147204 452.44760714 171.08511411 452.44820233 170.38826049 452.44881555 C169.01375013 452.45002744 167.63923977 452.45124157 166.26472942 452.45245793 C153.40523593 452.46330772 140.54576874 452.46118319 127.68627379 452.45507308 C115.95466409 452.44990661 104.22313748 452.46115681 92.49154421 452.4801713 C80.40895497 452.49960264 68.32640493 452.50779642 56.24379998 452.50404805 C49.47501247 452.50214396 42.70629564 452.50454562 35.93752098 452.51876259 C29.56884318 452.53139591 23.20033094 452.52934489 16.8316555 452.5163517 C14.50499412 452.51399831 12.17832089 452.51667576 9.85167313 452.52497482 C-2.79674533 452.56681031 -14.58144828 452.08698696 -26.91500854 449.14044189 C-28.23247445 448.84612498 -29.55026279 448.55324788 -30.86835957 448.26176929 C-51.6548012 443.52133864 -72.63196418 430.78664005 -85.91500854 414.14044189 C-86.68586792 413.20587158 -87.45672729 412.27130127 -88.25094604 411.30841064 C-102.25234371 394.02249915 -109.26268707 376.00501504 -112.91500854 354.14044189 C-113.08917455 353.44805923 -113.26334055 352.75567657 -113.44278431 352.04231262 C-114.13668921 347.77818939 -114.05584526 343.56290881 -114.04872131 339.24957275 C-114.05098687 338.24583555 -114.05325243 337.24209835 -114.05558664 336.20794487 C-114.0619229 332.84038014 -114.06109749 329.47285569 -114.06027222 326.10528564 C-114.06326404 323.69217375 -114.06666662 321.27906233 -114.07044983 318.86595154 C-114.07837499 312.98744439 -114.08150454 307.10894671 -114.08206221 301.23043531 C-114.08253781 296.44805569 -114.0845948 291.66567936 -114.08776283 286.88330078 C-114.09657036 273.31032395 -114.10118236 259.73735502 -114.10043236 246.16437531 C-114.1003924 245.43282982 -114.10035245 244.70128433 -114.10031128 243.9475708 C-114.1002704 243.2151265 -114.10022952 242.48268219 -114.1001874 241.7280426 C-114.09978149 229.87428636 -114.10933677 218.02056196 -114.12344965 206.16681492 C-114.13784192 193.98166788 -114.14471818 181.79653633 -114.14385587 169.61138058 C-114.14352475 162.77607313 -114.14623387 155.94079903 -114.15703392 149.10549927 C-114.16713649 142.67049404 -114.16677445 136.23554086 -114.15951729 129.80053139 C-114.15847483 127.44520273 -114.16081412 125.08986965 -114.16687775 122.73454857 C-114.20144941 108.36916652 -113.93334093 94.70548304 -109.79000854 80.82794189 C-109.57973022 80.12137451 -109.3694519 79.41480713 -109.15280151 78.68682861 C-104.22825825 63.01529623 -95.17937992 47.07808604 -83.91500854 35.14044189 C-83.25500854 35.14044189 -82.59500854 35.14044189 -81.91500854 35.14044189 C-81.58500854 34.15044189 -81.25500854 33.16044189 -80.91500854 32.14044189 C-80.25500854 32.14044189 -79.59500854 32.14044189 -78.91500854 32.14044189 C-78.91500854 31.48044189 -78.91500854 30.82044189 -78.91500854 30.14044189 C-61.574029 13.18040689 -39.38982001 4.95413245 -15.91500854 1.14044189 C-15.0561096 0.96641468 -14.19721066 0.79238747 -13.31228447 0.6130867 C-8.8576645 -0.00666072 -4.49213196 -0.00420844 0 0 Z " fill="#C0E656" transform="translate(137.91500854492188,23.85955810546875)"/>
<path d="M0 0 C1.39489954 1.18153828 2.78944834 2.36351428 4.17822266 3.55224609 C6.75295149 5.73464995 9.36938349 7.86574069 11.98046875 10.00439453 C17.86564049 14.82580846 23.71453419 19.68444133 29.5 24.625 C33.81038242 28.30433388 38.20801431 31.84142933 42.6875 35.3125 C48.47767732 39.79984689 54.02437885 44.52174765 59.52514648 49.3581543 C63.67082049 52.99173179 67.91030277 56.4230103 72.37109375 59.66796875 C72.84675781 60.08691406 73.32242187 60.50585938 73.8125 60.9375 C73.8125 61.5975 73.8125 62.2575 73.8125 62.9375 C74.4725 62.9375 75.1325 62.9375 75.8125 62.9375 C87.09459529 76.28096044 90.97993835 90.87672686 90.94189453 108.14208984 C90.94452301 109.62667442 90.94452301 109.62667442 90.94720459 111.14125061 C90.95158431 114.39366439 90.94869834 117.64602322 90.9453125 120.8984375 C90.94598676 123.17233287 90.94695781 125.44622817 90.94821167 127.72012329 C90.94968348 132.47943815 90.94755108 137.23873421 90.94287109 141.99804688 C90.93718065 148.07940867 90.94045178 154.16072625 90.94644356 160.24208641 C90.95006865 164.9365573 90.94890152 169.63101783 90.94631577 174.32548904 C90.94565155 176.56683991 90.94645715 178.80819173 90.94879532 181.04954147 C90.95135317 184.1910931 90.94743706 187.33257464 90.94189453 190.47412109 C90.94391876 191.38872604 90.94594299 192.30333099 90.94802856 193.24565125 C90.89051852 210.96562573 86.53680172 227.95938405 74.0625 241.25 C59.20377568 255.04533399 41.98580136 257.31223845 22.50292969 257.30810547 C20.18351265 257.31250757 17.8659613 257.34904583 15.546875 257.38671875 C4.80624843 257.46822477 -4.48638417 256.31705588 -12.65234375 248.7109375 C-18.02699922 242.50204798 -20.28387449 236.00032737 -20.34521484 227.86279297 C-20.35547699 226.87761688 -20.36573914 225.8924408 -20.37631226 224.87741089 C-20.38361359 223.82216217 -20.39091492 222.76691345 -20.3984375 221.6796875 C-20.42651772 219.42186789 -20.45518226 217.16405549 -20.484375 214.90625 C-20.5255078 211.36491184 -20.5624163 207.82370649 -20.58886719 204.28222656 C-20.61667778 200.85193428 -20.66255814 197.42224351 -20.7109375 193.9921875 C-20.7158168 192.4275325 -20.7158168 192.4275325 -20.72079468 190.83126831 C-20.89718286 180.14042861 -22.88917803 170.12253399 -30.1875 161.9375 C-35.87495942 157.42852316 -42.63979005 155.44775643 -49.81640625 155.6171875 C-55.90304737 156.43943556 -61.92777742 159.55945179 -66.1875 163.9375 C-69.99897501 169.79547722 -72.29082885 174.74084528 -72.34521484 181.77514648 C-72.36060806 183.21330971 -72.36060806 183.21330971 -72.37631226 184.68052673 C-72.38361359 185.71278885 -72.39091492 186.74505096 -72.3984375 187.80859375 C-72.42653063 190.01498106 -72.45519522 192.22136116 -72.484375 194.42773438 C-72.52541952 197.88988857 -72.56232299 201.35191165 -72.58886719 204.81420898 C-72.86839776 238.39884351 -72.86839776 238.39884351 -82.6796875 249.6484375 C-91.19570081 258.00146491 -103.49501365 257.41839542 -114.62915039 257.32861328 C-116.98578406 257.31259662 -119.34068533 257.32849906 -121.69726562 257.34765625 C-139.66657377 257.37380148 -154.47682193 254.09320703 -167.90625 241.34375 C-179.78950843 228.80935412 -185.52090058 213.57918026 -185.44628906 196.51513672 C-185.4497937 195.51379196 -185.45329834 194.5124472 -185.45690918 193.48075867 C-185.4656615 190.19282961 -185.45989759 186.9051185 -185.453125 183.6171875 C-185.45447415 181.31185872 -185.45641676 179.00653021 -185.45892334 176.70120239 C-185.46186636 171.87466721 -185.45760573 167.04820622 -185.44824219 162.22167969 C-185.43688676 156.07241289 -185.44338761 149.92332147 -185.45538712 143.7740612 C-185.46266086 139.01246859 -185.46029197 134.25091659 -185.45513153 129.48932266 C-185.45380823 127.22419336 -185.45539584 124.95906022 -185.46009064 122.69393539 C-185.49965859 98.22582448 -183.9566564 77.06820672 -165.97265625 58.671875 C-164.09397246 57.01315227 -162.17423482 55.46378984 -160.1875 53.9375 C-159.06043531 52.9607106 -157.93525869 51.98173586 -156.8125 51 C-154.1875 48.9375 -154.1875 48.9375 -152.1875 48.9375 C-152.1875 48.2775 -152.1875 47.6175 -152.1875 46.9375 C-150.81640625 45.703125 -150.81640625 45.703125 -148.75 44.1875 C-143.99905555 40.59989898 -139.39864691 36.85645298 -134.8125 33.0625 C-133.69959595 32.14319702 -133.69959595 32.14319702 -132.56420898 31.20532227 C-131.10380264 29.99894152 -129.64359196 28.79232387 -128.18359375 27.58544922 C-124.71887292 24.72502045 -121.24059385 21.8813823 -117.7578125 19.04296875 C-115.89059053 17.51343586 -114.03237101 15.97289229 -112.1796875 14.42578125 C-111.19226563 13.60464844 -110.20484375 12.78351563 -109.1875 11.9375 C-107.8571875 10.82375 -107.8571875 10.82375 -106.5 9.6875 C-104.1875 7.9375 -104.1875 7.9375 -101.1875 6.9375 C-101.1875 6.2775 -101.1875 5.6175 -101.1875 4.9375 C-99.26515494 3.2622275 -97.34718897 1.71591413 -95.3125 0.1875 C-94.71969238 -0.26133545 -94.12688477 -0.7101709 -93.51611328 -1.17260742 C-64.06828194 -23.1771881 -29.14492711 -23.65830679 0 0 Z " fill="#000100" transform="translate(297.1875,122.0625)"/>
<path d="M0 0 C-12.24507846 7.70733058 -24.7882716 13.04377061 -39 16 C-39.85160548 16.18147174 -40.70321096 16.36294348 -41.58062267 16.54991436 C-52.91517074 18.61952347 -64.32294831 18.28845274 -75.80395508 18.2746582 C-78.20352842 18.27901124 -80.60310037 18.28419635 -83.00267029 18.29014587 C-88.81826778 18.30210182 -94.63381148 18.30469498 -100.44941977 18.30234561 C-105.18200554 18.30055469 -109.91457737 18.30232859 -114.64716148 18.30657005 C-115.32351941 18.30716524 -115.99987734 18.30776043 -116.69673097 18.30837366 C-118.07124133 18.30958555 -119.44575168 18.31079968 -120.82026204 18.31201603 C-133.67975552 18.32286582 -146.53922272 18.32074129 -159.39871766 18.31463119 C-171.13032737 18.30946472 -182.86185397 18.32071491 -194.59344725 18.33972941 C-206.67603649 18.35916075 -218.75858652 18.36735453 -230.84119147 18.36360615 C-237.60997898 18.36170207 -244.37869581 18.36410373 -251.14747047 18.37832069 C-257.51614827 18.39095401 -263.88466051 18.38890299 -270.25333595 18.37590981 C-272.57999733 18.37355642 -274.90667056 18.37623386 -277.23331833 18.38453293 C-289.87127022 18.4263338 -301.68121051 17.98279725 -314 15 C-314.67259184 14.84080696 -315.34518369 14.68161391 -316.03815711 14.51759684 C-324.49251413 12.5132631 -332.243628 9.9346253 -340 6 C-337.56712842 5.13111729 -336.45520694 4.79788812 -334.046875 5.8671875 C-333.37140625 6.24101562 -332.6959375 6.61484375 -332 7 C-330.42841122 7.42151885 -328.84370918 7.7968834 -327.25 8.125 C-326.05117188 8.37636719 -326.05117188 8.37636719 -324.828125 8.6328125 C-324.22484375 8.75398438 -323.6215625 8.87515625 -323 9 C-323 9.66 -323 10.32 -323 11 C-321.02 11 -319.04 11 -317 11 C-317 11.66 -317 12.32 -317 13 C-314.03 13 -311.06 13 -308 13 C-308 13.66 -308 14.32 -308 15 C-219.89 15 -131.78 15 -41 15 C-41 14.34 -41 13.68 -41 13 C-39.4176994 12.66179834 -37.83410625 12.32964061 -36.25 12 C-34.92742187 11.7215625 -34.92742187 11.7215625 -33.578125 11.4375 C-31 11 -31 11 -27 11 C-27 10.34 -27 9.68 -27 9 C-25.35 9 -23.7 9 -22 9 C-22 8.34 -22 7.68 -22 7 C-20.02 7 -18.04 7 -16 7 C-16 6.34 -16 5.68 -16 5 C-14.68 5 -13.36 5 -12 5 C-11.67 4.01 -11.34 3.02 -11 2 C-9.2578125 1.015625 -9.2578125 1.015625 -7.125 0.25 C-6.07699219 -0.14445312 -6.07699219 -0.14445312 -5.0078125 -0.546875 C-3 -1 -3 -1 0 0 Z " fill="#CFE681" transform="translate(425,458)"/>
<path d="M0 0 C0.33 0 0.66 0 1 0 C5.39407821 15.37927373 5.29403099 30.88373538 5.2746582 46.73974609 C5.27901298 49.10843566 5.28419867 51.47712383 5.29014587 53.84580994 C5.30346393 60.24050333 5.30412265 66.63513736 5.30158257 73.0298419 C5.30077919 77.03370886 5.3029338 81.03756667 5.30657005 85.04143143 C5.30716524 85.70890357 5.30776043 86.37637571 5.30837366 87.06407429 C5.30958557 88.42062484 5.31079971 89.7771754 5.31201603 91.13372596 C5.32285822 103.8163314 5.32074475 116.49891016 5.31463119 129.18151708 C5.30946371 140.74742811 5.32071893 152.31325487 5.33972941 163.87914924 C5.35916754 175.79795494 5.36735345 187.71672089 5.36360615 199.63554251 C5.36170331 206.30987111 5.36436172 212.9841384 5.37832069 219.65845871 C5.39096376 225.93770232 5.38889394 232.21677811 5.37590981 238.49601936 C5.37355863 240.7883987 5.37622576 243.0807901 5.38453293 245.37315559 C5.4278563 258.26693145 4.79904448 270.39622448 2 283 C1.78883199 283.99846136 1.57766397 284.99692272 1.36009693 286.02564049 C0.92915598 288.0220663 0.46980559 290.01236099 0 292 C-0.33 292 -0.66 292 -1 292 C-0.67 287.38 -0.34 282.76 0 278 C0.66 278 1.32 278 2 278 C1.89541294 244.29161096 1.78564042 210.58324337 1.66888306 176.87489436 C1.65511297 172.89812306 1.64138595 168.92135162 1.62768555 164.94458008 C1.62495724 164.15285409 1.62222894 163.36112811 1.61941796 162.54541043 C1.57530559 149.71462346 1.53468482 136.88382767 1.49534739 124.05302527 C1.45492622 110.89400286 1.41076917 97.73499685 1.36312145 84.5759986 C1.33382287 76.45182495 1.3074617 68.32765255 1.28482103 60.20345757 C1.26716813 53.98085566 1.24432534 47.7582828 1.21950912 41.53570557 C1.21012984 38.97784302 1.20245774 36.41997359 1.19658089 33.8621006 C1.18833463 30.38176187 1.17406205 26.90149955 1.15821838 23.42118835 C1.15724028 22.39882558 1.15626217 21.37646281 1.15525442 20.32311934 C1.14977998 19.39404637 1.14430554 18.4649734 1.1386652 17.5077467 C1.13600716 16.70387876 1.13334911 15.90001082 1.13061053 15.07178324 C1.07624882 12.80222595 1.07624882 12.80222595 0 10 C-0.06802967 8.27204648 -0.08495645 6.54164635 -0.0625 4.8125 C-0.05347656 3.91144531 -0.04445313 3.01039062 -0.03515625 2.08203125 C-0.02355469 1.39496094 -0.01195312 0.70789063 0 0 Z " fill="#CEE87F" transform="translate(471,106)"/>
<path d="M0 0 C0.33 0 0.66 0 1 0 C1.02688151 1.64574566 1.04634123 3.29161413 1.0625 4.9375 C1.07410156 5.85402344 1.08570313 6.77054687 1.09765625 7.71484375 C1 10 1 10 0 11 C-0.16105246 13.58654167 -0.25733844 16.14839257 -0.31173706 18.73799133 C-0.33220069 19.55298721 -0.35266432 20.36798309 -0.37374806 21.20767581 C-0.43994101 23.94604628 -0.49767043 26.68450952 -0.55419922 29.4230957 C-0.57516151 30.37700907 -0.59612381 31.33092244 -0.61772132 32.31374228 C-1.11378474 55.15621491 -1.14780039 77.99704873 -1.1343255 100.84393096 C-1.13173219 106.64850259 -1.13415743 112.45307293 -1.13571167 118.25764465 C-1.13750966 127.96123547 -1.13518629 137.66481857 -1.13037109 147.3684082 C-1.1248913 158.53944545 -1.12672741 169.71046454 -1.1321975 180.88150138 C-1.13674739 190.5674655 -1.13737124 200.2534242 -1.13475883 209.93938905 C-1.13321168 215.68489366 -1.13295979 221.43038974 -1.13629532 227.17589378 C-1.13920301 232.55506616 -1.1371456 237.93421514 -1.13140106 243.31338501 C-1.13009072 245.27240777 -1.13043782 247.23143254 -1.13266373 249.19045448 C-1.14432701 260.5051939 -0.87175819 271.71550036 0 283 C-6.90947336 272.63578996 -4.28130212 254.95953871 -4.25878906 243.05664062 C-4.26150269 240.64234817 -4.26506571 238.22805655 -4.26940918 235.81376648 C-4.27755036 229.96307614 -4.27640277 224.11244357 -4.2705839 218.26175153 C-4.26604835 213.50244373 -4.26546265 208.74315029 -4.26763153 203.98384094 C-4.267938 203.30384148 -4.26824446 202.62384202 -4.26856022 201.92323652 C-4.26919973 200.54139196 -4.26984816 199.15954741 -4.2705054 197.77770287 C-4.27619461 184.8510556 -4.269673 171.92443681 -4.25890467 158.99779421 C-4.24997044 147.93064414 -4.25152288 136.86353604 -4.26074219 125.79638672 C-4.2714698 112.91277613 -4.27564542 100.02919043 -4.26951766 87.145576 C-4.26888063 85.76910369 -4.26825189 84.39263138 -4.26763153 83.01615906 C-4.26732298 82.33908792 -4.26701443 81.66201678 -4.26669653 80.96442834 C-4.26497705 76.21645785 -4.26786849 71.46850329 -4.27259064 66.72053528 C-4.27838979 60.31824189 -4.27432026 53.91602736 -4.26280212 47.51374245 C-4.26016926 45.17130985 -4.260897 42.82887055 -4.26532745 40.48644066 C-4.31208241 13.24425312 -4.31208241 13.24425312 0 0 Z " fill="#D5EC93" transform="translate(28,106)"/>
<path d="M0 0 C32.85888967 -0.04578798 65.71777107 -0.08102457 98.57668537 -0.10213066 C102.45688535 -0.10463204 106.33708527 -0.10722069 110.21728516 -0.10986328 C111.37599127 -0.11065021 111.37599127 -0.11065021 112.55810559 -0.11145304 C125.06220627 -0.12015321 137.56628854 -0.13592106 150.0703783 -0.15430559 C162.9028366 -0.17301542 175.73528527 -0.18411902 188.56775665 -0.18817699 C196.48465627 -0.1909198 204.40150385 -0.19957962 212.31838745 -0.21583293 C218.3913238 -0.22766477 224.46421548 -0.2289086 230.53716469 -0.22621536 C233.02682122 -0.22676571 235.51647971 -0.23074565 238.0061245 -0.23841095 C241.4059295 -0.24836533 244.80551209 -0.2459669 248.20532227 -0.24050903 C249.68200158 -0.24924756 249.68200158 -0.24924756 251.1885128 -0.25816262 C256.80281738 -0.2338123 261.61107264 0.40379217 267 2 C267 2.33 267 2.66 267 3 C263.7 3 260.4 3 257 3 C257 2.34 257 1.68 257 1 C172.19 1 87.38 1 0 1 C0 0.67 0 0.34 0 0 Z " fill="#C2E361" transform="translate(127,26)"/>
<path d="M0 0 C0.33 0 0.66 0 1 0 C1.04676823 15.52514586 1.08201247 31.05028643 1.10362434 46.57548618 C1.11392686 53.78447897 1.12796755 60.99342793 1.15087891 68.20239258 C1.17084422 74.487404 1.18372389 80.77238366 1.18817699 87.05742592 C1.19077906 90.38378878 1.19793044 93.71003991 1.21146011 97.03637886 C1.22598054 100.75420642 1.22797768 104.47184591 1.22705078 108.18969727 C1.23424133 109.28661896 1.24143188 110.38354065 1.24884033 111.51370239 C1.22944154 118.70585649 0.57610651 124.61409551 -3 131 C-3.66 131 -4.32 131 -5 131 C-4.79503906 130.32195312 -4.59007812 129.64390625 -4.37890625 128.9453125 C-4.10949219 128.01460937 -3.84007812 127.08390625 -3.5625 126.125 C-3.16224609 124.76761719 -3.16224609 124.76761719 -2.75390625 123.3828125 C-0.94848274 115.28179302 -0.84261796 107.03520634 -0.79467773 98.76708984 C-0.77982834 97.1555603 -0.77982834 97.1555603 -0.76467896 95.51147461 C-0.73333625 91.99465058 -0.70841528 88.47781308 -0.68359375 84.9609375 C-0.66300065 82.50899931 -0.64200359 80.05706449 -0.62062073 77.60513306 C-0.56564325 71.17729428 -0.51612749 64.74942476 -0.46777344 58.3215332 C-0.41737992 51.75208833 -0.36178737 45.18268764 -0.30664062 38.61328125 C-0.19935692 25.74222556 -0.09767002 12.87113205 0 0 Z " fill="#BEDC6D" transform="translate(388,213)"/>
<path d="M0 0 C-15.43439556 9.71475922 -33.38841955 17.58334804 -52 17 C-52.66 16.34 -53.32 15.68 -54 15 C-49.71 15 -45.42 15 -41 15 C-41 14.34 -41 13.68 -41 13 C-39.4176994 12.66179834 -37.83410625 12.32964061 -36.25 12 C-35.36828125 11.814375 -34.4865625 11.62875 -33.578125 11.4375 C-31 11 -31 11 -27 11 C-27 10.34 -27 9.68 -27 9 C-25.35 9 -23.7 9 -22 9 C-22 8.34 -22 7.68 -22 7 C-20.02 7 -18.04 7 -16 7 C-16 6.34 -16 5.68 -16 5 C-14.68 5 -13.36 5 -12 5 C-11.67 4.01 -11.34 3.02 -11 2 C-9.2578125 1.015625 -9.2578125 1.015625 -7.125 0.25 C-6.42632812 -0.01296875 -5.72765625 -0.2759375 -5.0078125 -0.546875 C-3 -1 -3 -1 0 0 Z " fill="#CBE580" transform="translate(425,458)"/>
<path d="M0 0 C7.75 0.75 7.75 0.75 10 3 C12.32275177 3.40047444 14.65739357 3.7397104 17 4 C17 4.66 17 5.32 17 6 C18.98 6 20.96 6 23 6 C23 6.66 23 7.32 23 8 C25.97 8 28.94 8 32 8 C32 8.66 32 9.32 32 10 C35.96 10 39.92 10 44 10 C42 12 42 12 39.59375 12.15234375 C25.74727507 11.19078299 12.33613833 7.38544605 0 1 C0 0.67 0 0.34 0 0 Z " fill="#C9E27B" transform="translate(85,463)"/>
<path d="M0 0 C0.33 0 0.66 0 1 0 C1.02688151 1.64574566 1.04634123 3.29161413 1.0625 4.9375 C1.07410156 5.85402344 1.08570313 6.77054687 1.09765625 7.71484375 C1 10 1 10 0 11 C-0.12185143 12.34983748 -0.17766831 13.70574701 -0.20532227 15.06079102 C-0.22526749 15.92160782 -0.24521271 16.78242462 -0.26576233 17.66932678 C-0.28247482 18.60473801 -0.29918732 19.54014923 -0.31640625 20.50390625 C-0.33718735 21.45692123 -0.35796844 22.40993622 -0.37937927 23.39183044 C-0.44498177 26.4486441 -0.50380918 29.50554656 -0.5625 32.5625 C-0.60567506 34.62956663 -0.64928901 36.69662414 -0.69335938 38.76367188 C-0.80067401 43.84235595 -0.90191091 48.9211297 -1 54 C-1.33 54 -1.66 54 -2 54 C-2.19391835 48.62930488 -2.37235775 43.25838785 -2.53710938 37.88671875 C-2.5951377 36.06333989 -2.65723094 34.24008531 -2.72363281 32.41699219 C-3.40285975 13.62504689 -3.40285975 13.62504689 -1 5 C-0.65668124 3.33536157 -0.32104612 1.66907707 0 0 Z " fill="#C5E369" transform="translate(28,106)"/>
<path d="M0 0 C1.73945539 3.47891077 0.87610989 7.30308174 0 11 C-1.9375 13.1875 -1.9375 13.1875 -4 15 C-5.26784124 18.13350717 -5.26784124 18.13350717 -6 21 C-6.66 21 -7.32 21 -8 21 C-8.33 21.99 -8.66 22.98 -9 24 C-8.46238346 18.31022497 -6.87323044 13.80035794 -4.5 8.625 C-4.17902344 7.90183594 -3.85804687 7.17867188 -3.52734375 6.43359375 C-1.16477997 1.16477997 -1.16477997 1.16477997 0 0 Z " fill="#D1E88A" transform="translate(38,82)"/>
<path d="M0 0 C5.57040307 0.545405 10.03879225 2.01937987 15.125 4.3125 C15.81464844 4.60833984 16.50429688 4.90417969 17.21484375 5.20898438 C21.30054617 7.01747407 24.6153687 9.01704673 28 12 C26.35 12 24.7 12 23 12 C23 11.34 23 10.68 23 10 C22.28199219 9.87625 21.56398438 9.7525 20.82421875 9.625 C17.98783262 8.99730736 15.49596334 8.10423908 12.8125 7 C11.95269531 6.649375 11.09289062 6.29875 10.20703125 5.9375 C8.78600684 5.33387901 7.38091815 4.69045908 6 4 C6 3.34 6 2.68 6 2 C4.02 2 2.04 2 0 2 C0 1.34 0 0.68 0 0 Z " fill="#CFE68A" transform="translate(394,29)"/>
<path d="M0 0 C3.94638742 1.14006748 6.14401884 2.14401884 9 5 C10.546875 5.4640625 10.546875 5.4640625 12.125 5.9375 C13.07375 6.288125 14.0225 6.63875 15 7 C15.6875 9.0625 15.6875 9.0625 16 11 C16.99 11.33 17.98 11.66 19 12 C19.33 13.65 19.66 15.3 20 17 C12.86835266 11.86987766 6.15840461 6.27496747 0 0 Z " fill="#B0CF5D" transform="translate(309,132)"/>
<path d="M0 0 C0.66 0 1.32 0 2 0 C2 0.66 2 1.32 2 2 C1.34 2 0.68 2 0 2 C0 1.34 0 0.68 0 0 Z M-5 1 C-2.525 1.495 -2.525 1.495 0 2 C0 3.98 0 5.96 0 8 C1.32 8.33 2.64 8.66 4 9 C4 9.99 4 10.98 4 12 C4.66 12 5.32 12 6 12 C6.33 13.98 6.66 15.96 7 18 C2.18964027 13.6269457 -1.59926143 8.53722562 -5 3 C-5 2.34 -5 1.68 -5 1 Z " fill="#CBE878" transform="translate(45,419)"/>
<path d="M0 0 C0.33 0 0.66 0 1 0 C1.05454409 2.35448675 1.0939279 4.70767875 1.125 7.0625 C1.14820313 8.37347656 1.17140625 9.68445313 1.1953125 11.03515625 C0.92754005 16.47093702 -0.33773259 21.24595106 -3 26 C-3.66 26 -4.32 26 -5 26 C-4.80664062 25.37996094 -4.61328125 24.75992187 -4.4140625 24.12109375 C-2.06513822 16.13242554 -0.94669182 8.25292512 0 0 Z " fill="#ABC75F" transform="translate(388,318)"/>
<path d="M0 0 C-0.99 0.495 -0.99 0.495 -2 1 C-2.99 0.67 -3.98 0.34 -5 0 C-5.33 0.66 -5.66 1.32 -6 2 C-6.33 1.01 -6.66 0.02 -7 -1 C-8.43534841 -1.2226746 -9.87345525 -1.42761906 -11.3125 -1.625 C-12.11300781 -1.74101562 -12.91351563 -1.85703125 -13.73828125 -1.9765625 C-16.28723215 -2.21533407 -16.28723215 -2.21533407 -19 0 C-21.26171875 0.4140625 -21.26171875 0.4140625 -23.6875 0.625 C-24.49574219 0.69976562 -25.30398437 0.77453125 -26.13671875 0.8515625 C-27.05904297 0.92503906 -27.05904297 0.92503906 -28 1 C-20.09796547 -7.43345791 -9.20325439 -4.30381834 0 0 Z " fill="#B1CD61" transform="translate(264,281)"/>
<path d="M0 0 C1.32 0.33 2.64 0.66 4 1 C0.0299782 5.21814817 -4.30840284 8.61227103 -9 12 C-9.58984375 10.109375 -9.58984375 10.109375 -10 8 C-8.5625 6.25 -8.5625 6.25 -7 5 C-6.34 5.33 -5.68 5.66 -5 6 C-4.67 5.34 -4.34 4.68 -4 4 C-3.34 4.33 -2.68 4.66 -2 5 C-2.33 3.68 -2.66 2.36 -3 1 C-2.01 1.33 -1.02 1.66 0 2 C0 1.34 0 0.68 0 0 Z " fill="#CFE987" transform="translate(438,443)"/>
<path d="M0 0 C0.66 0.33 1.32 0.66 2 1 C1.27683594 2.01320312 1.27683594 2.01320312 0.5390625 3.046875 C-0.09257813 3.93890625 -0.72421875 4.8309375 -1.375 5.75 C-2.31472656 7.07257813 -2.31472656 7.07257813 -3.2734375 8.421875 C-4.71480941 10.57414979 -5.91498093 12.65460523 -7 15 C-7.33 15 -7.66 15 -8 15 C-7.67 11.7 -7.34 8.4 -7 5 C-6.01 4.67 -5.02 4.34 -4 4 C-4 3.34 -4 2.68 -4 2 C-2.68 2 -1.36 2 0 2 C0 1.34 0 0.68 0 0 Z " fill="#B4D459" transform="translate(125,186)"/>
<path d="M0 0 C-1.91575126 1.12655813 -3.83263719 2.25118687 -5.75 3.375 C-6.81734375 4.00148438 -7.8846875 4.62796875 -8.984375 5.2734375 C-15.49321267 9 -15.49321267 9 -19 9 C-19 8.34 -19 7.68 -19 7 C-18.01 7 -17.02 7 -16 7 C-16 6.34 -16 5.68 -16 5 C-14.68 5 -13.36 5 -12 5 C-11.67 4.01 -11.34 3.02 -11 2 C-9.2578125 1.015625 -9.2578125 1.015625 -7.125 0.25 C-6.42632812 -0.01296875 -5.72765625 -0.2759375 -5.0078125 -0.546875 C-3 -1 -3 -1 0 0 Z " fill="#D3E992" transform="translate(425,458)"/>
<path d="M0 0 C2 2 2 2 2.08203125 4.6171875 C1.44362604 12.33356356 0.13252405 19.55628397 -2 27 C-2.33 27 -2.66 27 -3 27 C-2.67 22.38 -2.34 17.76 -2 13 C-1.34 13 -0.68 13 0 13 C0 8.71 0 4.42 0 0 Z " fill="#CDE588" transform="translate(473,371)"/>
<path d="M0 0 C3.26309597 2.72931793 4.90051326 6.32166572 6.75 10.0625 C7.07871094 10.69994141 7.40742188 11.33738281 7.74609375 11.99414062 C8.56378581 13.63124982 9.28949826 15.31360322 10 17 C9.67 17.66 9.34 18.32 9 19 C8.59007812 18.28972656 8.18015625 17.57945313 7.7578125 16.84765625 C7.21898437 15.92855469 6.68015625 15.00945312 6.125 14.0625 C5.32449219 12.68771484 5.32449219 12.68771484 4.5078125 11.28515625 C3.20287437 8.89299704 3.20287437 8.89299704 1 8 C0.40644386 5.35139573 0.25790731 2.70802678 0 0 Z " fill="#D1E887" transform="translate(458,77)"/>
<path d="M0 0 C0.33 0.66 0.66 1.32 1 2 C1.99 2.33 2.98 2.66 4 3 C4.73046875 4.7421875 4.73046875 4.7421875 5.1875 6.875 C5.34605469 7.57367188 5.50460938 8.27234375 5.66796875 8.9921875 C6 11 6 11 6 14 C6.66 14.33 7.32 14.66 8 15 C7.67 16.32 7.34 17.64 7 19 C5.8265684 16.39869373 4.66107492 13.79431492 3.5 11.1875 C2.99919922 10.08051758 2.99919922 10.08051758 2.48828125 8.95117188 C2.17246094 8.23896484 1.85664063 7.52675781 1.53125 6.79296875 C1.23798828 6.1383667 0.94472656 5.48376465 0.64257812 4.80932617 C0 3 0 3 0 0 Z " fill="#DAEB9D" transform="translate(30,398)"/>
<path d="M0 0 C0.33 0 0.66 0 1 0 C3.45725425 7.86321361 3.6230776 15.82673527 4 24 C3.34 23.67 2.68 23.34 2 23 C0.15607766 15.45357709 -0.31445877 7.73917964 0 0 Z " fill="#CDE482" transform="translate(471,106)"/>
<path d="M0 0 C6.13472739 2.58304311 10.91529279 6.76944321 16 11 C12.25 12.125 12.25 12.125 10 11 C9.67 10.01 9.34 9.02 9 8 C7.37051936 6.77554716 7.37051936 6.77554716 5.4375 5.8125 C4.303125 5.214375 3.16875 4.61625 2 4 C2 3.34 2 2.68 2 2 C1.34 2 0.68 2 0 2 C0 1.34 0 0.68 0 0 Z " fill="#D0E887" transform="translate(422,41)"/>
<path d="M0 0 C7.75 0.75 7.75 0.75 10 3 C12.32275177 3.40047444 14.65739357 3.7397104 17 4 C17 4.66 17 5.32 17 6 C18.32 6.66 19.64 7.32 21 8 C16.46692139 7.38872122 12.51063826 6.2166879 8.25 4.5625 C7.12078125 4.13066406 5.9915625 3.69882812 4.828125 3.25390625 C2 2 2 2 0 0 Z " fill="#D3E893" transform="translate(85,463)"/>
<path d="M0 0 C0 3.52032428 -0.70351351 4.4385343 -3 7 C-3.66 7 -4.32 7 -5 7 C-5 7.66 -5 8.32 -5 9 C-5.99 9 -6.98 9 -8 9 C-8 9.66 -8 10.32 -8 11 C-9.98 11.99 -9.98 11.99 -12 13 C-12 11.68 -12 10.36 -12 9 C-10.13671875 7.40234375 -10.13671875 7.40234375 -7.6875 5.9375 C-4.7707824 4.16680349 -2.3123694 2.52190449 0 0 Z " fill="#B2CF5B" transform="translate(371,362)"/>
<path d="M0 0 C0.33 0 0.66 0 1 0 C1.38063221 2.3260857 1.71269945 4.66055264 2 7 C1.67 7.33 1.34 7.66 1 8 C0.814375 9.918125 0.814375 9.918125 0.625 11.875 C0.32057833 14.57130618 0.17080321 15.76236075 -1.4375 18 C-3 19 -3 19 -5 19 C-4.80664062 18.46632813 -4.61328125 17.93265625 -4.4140625 17.3828125 C-2.41302552 11.65707301 -1.05915756 5.96866438 0 0 Z " fill="#A8C559" transform="translate(223,349)"/>
<path d="M0 0 C0.33 0.99 0.66 1.98 1 3 C0.195625 3.763125 -0.60875 4.52625 -1.4375 5.3125 C-4.16799024 7.79430898 -4.16799024 7.79430898 -5 11 C-5.66 11 -6.32 11 -7 11 C-7 11.66 -7 12.32 -7 13 C-7.66 13 -8.32 13 -9 13 C-7.36088911 7.1265193 -5.109884 3.40658933 0 0 Z " fill="#B1CE5F" transform="translate(235,282)"/>
<path d="M0 0 C0.66 0 1.32 0 2 0 C1.31113213 3.38891322 0.01283514 6.18011613 -1.5625 9.25 C-2.01753906 10.14203125 -2.47257812 11.0340625 -2.94140625 11.953125 C-3.29074219 12.62859375 -3.64007813 13.3040625 -4 14 C-4.33 14 -4.66 14 -5 14 C-5 11.69 -5 9.38 -5 7 C-4.01 6.67 -3.02 6.34 -2 6 C-1.32843384 4.06381575 -1.32843384 4.06381575 -1 2 C-0.67 1.34 -0.34 0.68 0 0 Z " fill="#CEE886" transform="translate(465,406)"/>
<path d="M0 0 C0.66 0.33 1.32 0.66 2 1 C1 4 1 4 -1 5 C-1.65555119 7.52733235 -1.65555119 7.52733235 -2 10 C-2.99 10 -3.98 10 -5 10 C-5 10.66 -5 11.32 -5 12 C-5.99 12 -6.98 12 -8 12 C-6.59023295 8.96147295 -4.91129772 6.4060405 -2.875 3.75 C-2.06675781 2.69039062 -2.06675781 2.69039062 -1.2421875 1.609375 C-0.83226562 1.07828125 -0.42234375 0.5471875 0 0 Z " fill="#D1E888" transform="translate(54,59)"/>
<path d="M0 0 C0.66 0 1.32 0 2 0 C2.69699552 1.45381897 3.38233866 2.91322953 4.0625 4.375 C4.63677734 5.59316406 4.63677734 5.59316406 5.22265625 6.8359375 C5.47917969 7.55007813 5.73570313 8.26421875 6 9 C5.67 9.66 5.34 10.32 5 11 C4.34 10.67 3.68 10.34 3 10 C3 9.34 3 8.68 3 8 C1.68 7.67 0.36 7.34 -1 7 C-0.67 4.69 -0.34 2.38 0 0 Z " fill="#B2D25E" transform="translate(115,342)"/>
<path d="M0 0 C-5.14285714 6.57142857 -5.14285714 6.57142857 -9 8 C-8.34 6.35 -7.68 4.7 -7 3 C-7.66 2.67 -8.32 2.34 -9 2 C-5.5647952 -0.29013653 -4.014669 -0.17842973 0 0 Z " fill="#BCDD61" transform="translate(173,146)"/>
<path d="M0 0 C0.33 0.66 0.66 1.32 1 2 C0.34 2 -0.32 2 -1 2 C-1.33 3.65 -1.66 5.3 -2 7 C-3.32 7 -4.64 7 -6 7 C-6 7.66 -6 8.32 -6 9 C-7.32 8.67 -8.64 8.34 -10 8 C-6.7 5.36 -3.4 2.72 0 0 Z " fill="#CFE784" transform="translate(71,45)"/>
<path d="M0 0 C1.98 0.66 3.96 1.32 6 2 C4.35 3.98 2.7 5.96 1 8 C-1 5 -1 5 -0.625 2.3125 C-0.41875 1.549375 -0.2125 0.78625 0 0 Z " fill="#C9E678" transform="translate(443,434)"/>
<path d="M0 0 C2.31 0 4.62 0 7 0 C7.66 2.31 8.32 4.62 9 7 C4.58110387 5.64978174 2.65654657 3.73884332 0 0 Z " fill="#B5D460" transform="translate(364,177)"/>
<path d="M0 0 C1.32 0.33 2.64 0.66 4 1 C4 1.99 4 2.98 4 4 C4.66 4 5.32 4 6 4 C6.33 5.98 6.66 7.96 7 10 C3.60582235 6.87378374 1.3937282 4.43458973 0 0 Z " fill="#D0E886" transform="translate(45,427)"/>
<path d="M0 0 C0.16682272 4.92127034 0.24828052 8.50343896 -2 13 C-3.3271261 9.0186217 -3.06915913 5.14954773 -3 1 C-1 0 -1 0 0 0 Z " fill="#BDDE60" transform="translate(117,196)"/>
<path d="M0 0 C0.5625 1.9375 0.5625 1.9375 1 4 C1.66 4.66 2.32 5.32 3 6 C-0.39593478 6 -1.06619881 5.47834052 -3.6875 3.5 C-4.31011719 3.0359375 -4.93273437 2.571875 -5.57421875 2.09375 C-6.04472656 1.7328125 -6.51523437 1.371875 -7 1 C-3.375 -1.125 -3.375 -1.125 0 0 Z " fill="#B2D05B" transform="translate(336,149)"/>
<path d="M0 0 C-4.455 2.97 -4.455 2.97 -9 6 C-9 4.35 -9 2.7 -9 1 C-5.19495213 -0.79682816 -4.29399165 -1.07349791 0 0 Z " fill="#B3D15D" transform="translate(212,116)"/>
<path d="M0 0 C-4.65492322 3.56877447 -9.34849564 3.68175995 -15 4 C-12.60939149 2.40626099 -10.69171821 1.34702924 -8.0625 0.3125 C-7.39347656 0.04050781 -6.72445312 -0.23148438 -6.03515625 -0.51171875 C-3.67169662 -1.0787676 -2.2807201 -0.76024003 0 0 Z " fill="#D5EA97" transform="translate(106,30)"/>
<path d="M0 0 C2.9375 0.75 2.9375 0.75 6 2 C6.6875 4.0625 6.6875 4.0625 7 6 C7.99 6.33 8.98 6.66 10 7 C9.01 7.495 9.01 7.495 8 8 C6.84772177 7.23883449 5.7033614 6.46567307 4.5625 5.6875 C3.92441406 5.25824219 3.28632812 4.82898438 2.62890625 4.38671875 C1 3 1 3 0 0 Z " fill="#D2E989" transform="translate(58,443)"/>
<path d="M0 0 C3 3 6 6 9 9 C6.69 8.67 4.38 8.34 2 8 C1.34 5.36 0.68 2.72 0 0 Z " fill="#AEC862" transform="translate(281,366)"/>
<path d="M0 0 C0.66 0 1.32 0 2 0 C1.30058404 3.14737182 0.23921302 6.02588876 -1 9 C-1.99 9 -2.98 9 -4 9 C-2.80100302 5.9168649 -1.52299523 2.93720508 0 0 Z " fill="#B1CD5F" transform="translate(381,347)"/>
<path d="M0 0 C5.78898419 -0.20674944 10.42932723 0.40837921 16 2 C16 2.33 16 2.66 16 3 C12.7 3 9.4 3 6 3 C6 2.34 6 1.68 6 1 C4.02 1 2.04 1 0 1 C0 0.67 0 0.34 0 0 Z " fill="#CEE487" transform="translate(378,26)"/>
<path d="M0 0 C-1.20703125 1.51953125 -1.20703125 1.51953125 -3 3 C-5.26171875 3.07421875 -5.26171875 3.07421875 -7.6875 2.6875 C-8.89986328 2.50767578 -8.89986328 2.50767578 -10.13671875 2.32421875 C-10.75160156 2.21722656 -11.36648438 2.11023438 -12 2 C-12 1.67 -12 1.34 -12 1 C-10.37681021 0.63762737 -8.7513642 0.28534843 -7.125 -0.0625 C-6.22007812 -0.25972656 -5.31515625 -0.45695312 -4.3828125 -0.66015625 C-2 -1 -2 -1 0 0 Z " fill="#ABC95B" transform="translate(353,376)"/>
<path d="M0 0 C1.2238892 2.44777839 1.016364 3.73390541 0.75 6.4375 C0.68296875 7.21996094 0.6159375 8.00242187 0.546875 8.80859375 C-0.08974532 11.35962232 -1.00971125 12.33607581 -3 14 C-2.88570603 12.22844346 -2.75816963 10.45773771 -2.625 8.6875 C-2.55539063 7.70136719 -2.48578125 6.71523437 -2.4140625 5.69921875 C-2 3 -2 3 0 0 Z " fill="#CAE774" transform="translate(38,82)"/>
<path d="M0 0 C0 0.66 0 1.32 0 2 C-2.75 4.1875 -2.75 4.1875 -6 6 C-8.203125 5.61328125 -8.203125 5.61328125 -10 5 C-8.71186658 4.16121545 -7.41936744 3.32913217 -6.125 2.5 C-5.40570313 2.0359375 -4.68640625 1.571875 -3.9453125 1.09375 C-2 0 -2 0 0 0 Z " fill="#D1E98D" transform="translate(82,39)"/>
<path d="M0 0 C0.99 0.33 1.98 0.66 3 1 C2.75 2.875 2.75 2.875 2 5 C-0.0625 6.25 -0.0625 6.25 -2 7 C-1.125 2.25 -1.125 2.25 0 0 Z " fill="#CAE776" transform="translate(430,448)"/>
<path d="M0 0 C2.33333823 2.12121657 3.9148886 4.01594365 5 7 C4.625 9.25 4.625 9.25 4 11 C1.52214277 7.33708062 0.51035831 4.3890815 0 0 Z " fill="#B0CD61" transform="translate(270,288)"/>
<path d="M0 0 C1.65 0.33 3.3 0.66 5 1 C3.68 2.32 2.36 3.64 1 5 C0.01 4.67 -0.98 4.34 -2 4 C-1.34 2.68 -0.68 1.36 0 0 Z " fill="#B8D85E" transform="translate(187,130)"/>
<path d="M0 0 C0.33 0 0.66 0 1 0 C1 3.3 1 6.6 1 10 C0.01 10.33 -0.98 10.66 -2 11 C-1.40049704 7.31733897 -0.75241109 3.65456815 0 0 Z " fill="#CDE583" transform="translate(28,106)"/>
<path d="M0 0 C3.3 0 6.6 0 10 0 C10.33 1.65 10.66 3.3 11 5 C10.29875 4.71125 9.5975 4.4225 8.875 4.125 C5.94547497 2.97866412 2.99078347 1.97374346 0 1 C0 0.67 0 0.34 0 0 Z " fill="#AAC55D" transform="translate(272,108)"/>
<path d="M0 0 C0.66 0.33 1.32 0.66 2 1 C0.02 3.31 -1.96 5.62 -4 8 C-4.99 7.34 -5.98 6.68 -7 6 C-4.69 4.02 -2.38 2.04 0 0 Z " fill="#162006" transform="translate(188,134)"/>
<path d="M0 0 C1.32 0.66 2.64 1.32 4 2 C2.35 3.65 0.7 5.3 -1 7 C-1.33 6.01 -1.66 5.02 -2 4 C-1.34 4 -0.68 4 0 4 C0 2.68 0 1.36 0 0 Z " fill="#CDE881" transform="translate(451,427)"/>
<path d="M0 0 C2.66666667 1.33333333 5.33333333 2.66666667 8 4 C7.34 4.66 6.68 5.32 6 6 C5.01 5.67 4.02 5.34 3 5 C3 4.34 3 3.68 3 3 C2.01 3 1.02 3 0 3 C0 2.01 0 1.02 0 0 Z " fill="#B4D260" transform="translate(134,368)"/>
<path d="M0 0 C1.64826111 2.96687001 2.44271087 5.65626525 3 9 C2.34 9 1.68 9 1 9 C-1.09230769 4.56923077 -1.09230769 4.56923077 -0.625 1.6875 C-0.41875 1.130625 -0.2125 0.57375 0 0 Z " fill="#B0D45C" transform="translate(225,295)"/>
<path d="M0 0 C-2.31 1.65 -4.62 3.3 -7 5 C-6.67 3.35 -6.34 1.7 -6 0 C-3 -1 -3 -1 0 0 Z " fill="#B6D560" transform="translate(153,164)"/>
<path d="M0 0 C3.77545388 1.09068668 6.47043472 1.9083091 9 5 C8.67 5.66 8.34 6.32 8 7 C6.66382648 6.02471263 5.3311249 5.04466681 4 4.0625 C3.2575 3.51722656 2.515 2.97195312 1.75 2.41015625 C1.1725 1.94480469 0.595 1.47945312 0 1 C0 0.67 0 0.34 0 0 Z " fill="#A9C55B" transform="translate(309,132)"/>
<path d="M0 0 C0 0.66 0 1.32 0 2 C-4.15267176 5.11450382 -4.15267176 5.11450382 -7.3125 4.6875 C-7.869375 4.460625 -8.42625 4.23375 -9 4 C-2.25 0 -2.25 0 0 0 Z " fill="#D8EA9E" transform="translate(91,34)"/>
<path d="M0 0 C0.33 0.66 0.66 1.32 1 2 C1.99 2.33 2.98 2.66 4 3 C4.33 4.65 4.66 6.3 5 8 C4.67 7.34 4.34 6.68 4 6 C3.01 6 2.02 6 1 6 C0.67 4.02 0.34 2.04 0 0 Z " fill="#CEE983" transform="translate(30,398)"/>
</svg>
