<?xml version="1.0" encoding="UTF-8"?>
<svg version="1.1" xmlns="http://www.w3.org/2000/svg" width="511" height="489">
<path d="M0 0 C1.87412819 0.01055923 1.87412819 0.01055923 3.78611755 0.02133179 C5.17311185 0.03431425 6.56010523 0.04739432 7.94709778 0.06056213 C9.40564684 0.07070494 10.86419908 0.08039861 12.32275391 0.0896759 C16.28530358 0.11615671 20.24777929 0.14893627 24.2102716 0.1828258 C28.35024803 0.217169 32.4902641 0.24574846 36.63027954 0.27493286 C44.47130936 0.33108611 52.31228956 0.39244142 60.1532653 0.4556542 C69.07937531 0.52736274 78.00552508 0.59328953 86.93168294 0.65872467 C105.29470176 0.79346861 123.6576579 0.93549285 142.02058411 1.08229065 C142.22210313 5.92948816 141.05834834 8.17591531 138.39558411 12.26979065 C137.65556853 13.42706645 136.915989 14.58462119 136.17683411 15.7424469 C135.46527161 16.84459534 134.75370911 17.94674377 134.02058411 19.08229065 C130.39558662 24.95581252 126.98679194 30.91783616 123.70417786 36.98854065 C118.16801537 47.1617209 112.42376274 57.21228081 106.47077942 67.14723206 C103.76383752 71.69698527 101.34161623 76.3233781 99.02058411 81.08229065 C98.36058411 81.08229065 97.70058411 81.08229065 97.02058411 81.08229065 C96.61452942 82.41066956 96.61452942 82.41066956 96.20027161 83.7658844 C95.09820825 86.86406914 93.84482574 89.34231005 92.14558411 92.14479065 C91.22519348 93.68779846 91.22519348 93.68779846 90.28620911 95.26197815 C89.75930481 96.14514709 89.75930481 96.14514709 89.22175598 97.04615784 C86.73500986 101.26149578 84.32108021 105.51902489 81.89558411 109.76979065 C81.14172424 111.08765564 81.14172424 111.08765564 80.37263489 112.43214417 C79.63762756 113.71882996 79.63762756 113.71882996 78.88777161 115.0315094 C78.40791809 115.87117249 77.92806458 116.71083557 77.43367004 117.57594299 C75.6423636 120.75312889 73.9133765 123.96288808 72.20075989 127.18312073 C70.9623022 129.17607942 69.86645522 130.62831393 68.02058411 132.08229065 C66.13606433 132.05146426 64.24866256 132.00640356 62.37165833 131.83546448 C58.77006875 131.51805966 55.62362854 131.59747733 52.02058411 132.08229065 C48.73674963 134.84141908 47.56516149 138.14919154 46.02058411 142.08229065 C45.10616342 143.80308809 44.16795798 145.51142769 43.20808411 147.20729065 C42.48105286 148.55500549 42.48105286 148.55500549 41.73933411 149.9299469 C39.20829006 154.57211177 36.60482852 159.17295228 34.0037384 163.77613831 C31.95065773 167.39616532 31.95065773 167.39616532 30.02058411 171.08229065 C29.36058411 171.08229065 28.70058411 171.08229065 28.02058411 171.08229065 C27.87620911 171.68041565 27.73183411 172.27854065 27.58308411 172.89479065 C27.13334021 174.64379469 26.5916607 176.36906088 26.02058411 178.08229065 C25.36058411 178.08229065 24.70058411 178.08229065 24.02058411 178.08229065 C23.89836487 178.66027405 23.77614563 179.23825745 23.65022278 179.83375549 C23.00030426 182.15471304 22.12356891 183.96004141 20.94636536 186.05885315 C20.52903137 186.80715393 20.11169739 187.55545471 19.68171692 188.32643127 C19.23666809 189.11211487 18.79161926 189.89779846 18.33308411 190.70729065 C17.87901184 191.51617737 17.42493958 192.32506409 16.95710754 193.15846252 C13.74393994 198.8610907 10.44459212 204.50351898 7.02058411 210.08229065 C3.35552625 216.09105655 -0.13309149 222.15547388 -3.47160339 228.3518219 C-4.95291434 231.03429949 -6.5097411 233.6534021 -8.10441589 236.26979065 C-10.64129373 240.44228709 -12.86138813 244.68330992 -14.97941589 249.08229065 C-15.63941589 249.08229065 -16.29941589 249.08229065 -16.97941589 249.08229065 C-17.09406189 249.64891418 -17.20870789 250.21553772 -17.326828 250.79933167 C-18.05336487 253.34098757 -19.10275211 255.31900321 -20.42082214 257.6096344 C-20.91872253 258.47838196 -21.41662292 259.34712952 -21.92961121 260.24220276 C-22.46167175 261.15880676 -22.9937323 262.07541077 -23.54191589 263.01979065 C-24.08042175 263.95895325 -24.61892761 264.89811584 -25.17375183 265.86573792 C-27.5607703 270.00743558 -29.96889345 274.12293748 -32.55363464 278.14479065 C-32.92609314 278.7262384 -33.29855164 279.30768616 -33.68229675 279.90675354 C-34.65838219 281.41036662 -35.65410284 282.90118273 -36.65129089 284.3908844 C-38.7639915 288.67221004 -38.35726482 292.60428163 -36.97941589 297.08229065 C-36.31941589 297.08229065 -35.65941589 297.08229065 -34.97941589 297.08229065 C-32.61344077 299.97403803 -31.97941589 301.63378639 -31.97941589 305.39479065 C-33.04066136 309.30813332 -34.54721268 311.97734412 -36.82316589 315.28541565 C-38.15199865 317.18765652 -38.15199865 317.18765652 -38.97941589 320.08229065 C-39.63941589 320.08229065 -40.29941589 320.08229065 -40.97941589 320.08229065 C-41.15621887 320.93838928 -41.15621887 320.93838928 -41.33659363 321.81178284 C-42.0312065 324.26521989 -43.01244106 326.19144918 -44.26457214 328.41041565 C-44.71252136 329.2096344 -45.16047058 330.00885315 -45.62199402 330.83229065 C-46.32485535 332.06979065 -46.32485535 332.06979065 -47.04191589 333.33229065 C-47.5143573 334.1727594 -47.98679871 335.01322815 -48.47355652 335.87916565 C-49.63799551 337.94927941 -50.80673039 340.01684079 -51.97941589 342.08229065 C-52.63941589 342.08229065 -53.29941589 342.08229065 -53.97941589 342.08229065 C-54.08769714 342.63529846 -54.19597839 343.18830627 -54.30754089 343.7580719 C-55.10662679 346.52235159 -56.32371158 348.75908682 -57.72941589 351.26979065 C-58.27340027 352.24561096 -58.81738464 353.22143127 -59.37785339 354.2268219 C-59.90636902 355.16912659 -60.43488464 356.11143127 -60.97941589 357.08229065 C-61.38418152 357.82865784 -61.78894714 358.57502502 -62.20597839 359.3440094 C-64.66910787 363.87650276 -67.31541663 368.26525672 -70.04191589 372.64479065 C-72.9694761 377.35987817 -75.61721185 382.06260705 -77.97941589 387.08229065 C-78.63941589 387.08229065 -79.29941589 387.08229065 -79.97941589 387.08229065 C-80.10316589 387.6649469 -80.22691589 388.24760315 -80.35441589 388.84791565 C-80.98770036 391.1119076 -81.80844874 392.79936156 -82.97941589 394.83229065 C-83.42800964 395.61990784 -83.87660339 396.40752502 -84.33879089 397.2190094 C-84.88019714 398.16389221 -85.42160339 399.10877502 -85.97941589 400.08229065 C-87.01959748 401.92667701 -88.05609558 403.77310655 -89.092453 405.61964417 C-90.2469145 407.67595899 -91.4039466 409.73081018 -92.56144714 411.78541565 C-94.20856124 414.71033574 -95.85135706 417.63762648 -97.49113464 420.56666565 C-97.8975116 421.29168274 -98.30388855 422.01669983 -98.72257996 422.76368713 C-99.50281907 424.15590038 -100.28215574 425.54861987 -101.06047058 426.94190979 C-102.6210035 429.72405405 -104.20888283 432.42649105 -105.97941589 435.08229065 C-107.77629089 434.9221344 -107.77629089 434.9221344 -109.97941589 434.08229065 C-111.68254089 431.6486969 -111.68254089 431.6486969 -113.22941589 428.64479065 C-114.01058777 427.16172424 -114.01058777 427.16172424 -114.80754089 425.6486969 C-115.97941589 423.08229065 -115.97941589 423.08229065 -115.97941589 421.08229065 C-116.63941589 421.08229065 -117.29941589 421.08229065 -117.97941589 421.08229065 C-118.22433777 420.55764221 -118.46925964 420.03299377 -118.72160339 419.4924469 C-122.57374591 411.50921361 -127.099733 403.95502068 -131.63127136 396.34645081 C-133.83914541 392.63840592 -136.03663194 388.92427606 -138.22941589 385.20729065 C-138.64965027 384.49548645 -139.06988464 383.78368225 -139.50285339 383.05030823 C-141.80113404 379.14095108 -144.02570483 375.20573252 -146.16691589 371.20729065 C-148.58033309 366.70677746 -151.25374798 362.43280888 -154.07316589 358.17604065 C-156.29427428 354.57129098 -158.28838752 350.86984109 -160.3021698 347.14625549 C-163.25021522 341.7608159 -166.33970013 336.45713566 -169.41691589 331.14479065 C-170.04662292 330.05488831 -170.67632996 328.96498596 -171.32511902 327.84205627 C-171.95224792 326.75731018 -172.57937683 325.67256409 -173.22550964 324.5549469 C-173.84023132 323.48647522 -174.454953 322.41800354 -175.08830261 321.31715393 C-176.38051941 319.1067392 -177.70133461 316.91286078 -179.04631042 314.73414612 C-179.69583679 313.67211975 -180.34536316 312.61009338 -181.01457214 311.5158844 C-181.90414612 310.09167175 -181.90414612 310.09167175 -182.81169128 308.63868713 C-183.97941589 306.08229065 -183.97941589 306.08229065 -183.75285339 303.87916565 C-182.3989063 300.73363199 -180.28249844 298.13940234 -178.25675964 295.3986969 C-176.73178198 292.63321753 -176.52679642 291.19709136 -176.97941589 288.08229065 C-178.18273446 285.71235789 -178.18273446 285.71235789 -179.85441589 283.51979065 C-184.97941589 276.37697664 -184.97941589 276.37697664 -184.97941589 272.08229065 C-185.63941589 272.08229065 -186.29941589 272.08229065 -186.97941589 272.08229065 C-190.97941589 265.45729065 -190.97941589 265.45729065 -190.97941589 262.08229065 C-191.63941589 262.08229065 -192.29941589 262.08229065 -192.97941589 262.08229065 C-193.26172058 261.47127502 -193.54402527 260.8602594 -193.83488464 260.23072815 C-200.23429524 246.90644217 -207.93181166 234.05249111 -216.11198425 221.74732971 C-216.97941589 220.08229065 -216.97941589 220.08229065 -216.97941589 217.08229065 C-217.63941589 217.08229065 -218.29941589 217.08229065 -218.97941589 217.08229065 C-219.82632996 215.34785706 -219.82632996 215.34785706 -220.69035339 213.5783844 C-222.82006735 209.3217612 -225.16577063 205.23025014 -227.60441589 201.14479065 C-228.48723866 199.65391131 -229.37005084 198.16302571 -230.25285339 196.6721344 C-231.1616551 195.14215532 -232.07050934 193.61220744 -232.97941589 192.08229065 C-237.92114866 183.74829049 -242.83973562 175.42622726 -247.42082214 166.88697815 C-249.72348047 162.74334739 -252.19342006 158.70425083 -254.65007019 154.65065002 C-257.46577591 149.98670766 -260.12850387 145.25856409 -262.69035339 140.44947815 C-263.62250973 138.73770014 -264.61522027 137.05843666 -265.64347839 135.40260315 C-266.97941589 133.08229065 -266.97941589 133.08229065 -266.97941589 131.08229065 C-268.13699402 131.18670471 -269.29457214 131.29111877 -270.48722839 131.3986969 C-282.411191 132.16798481 -282.411191 132.16798481 -286.16300964 129.5705719 C-287.73775919 127.15714554 -288.8449878 124.73170579 -289.97941589 122.08229065 C-291.16756958 119.96666365 -292.37795633 117.86344385 -293.60441589 115.76979065 C-294.28255995 114.56986867 -294.95958847 113.36931575 -295.63566589 112.16822815 C-298.37080671 107.35773926 -301.24233965 102.63044195 -304.10441589 97.89479065 C-307.70265221 91.93374018 -311.20574859 85.95795602 -314.47550964 79.80885315 C-316.83240949 75.53582434 -319.3722833 71.3737441 -321.90983582 67.20606995 C-326.97941589 58.85728194 -326.97941589 58.85728194 -326.97941589 55.08229065 C-327.63941589 55.08229065 -328.29941589 55.08229065 -328.97941589 55.08229065 C-332.50444369 50.16739475 -335.22376639 44.69154045 -337.86222839 39.26197815 C-340.34667062 34.41470975 -343.21138974 29.77110644 -345.97941589 25.08229065 C-347.18844359 22.9993602 -348.39679137 20.91603493 -349.60441589 18.83229065 C-351.98481642 14.72704008 -354.45789815 10.72155782 -357.13175964 6.80104065 C-357.97941589 5.08229065 -357.97941589 5.08229065 -357.97941589 1.08229065 C-307.81941589 1.08229065 -257.65941589 1.08229065 -205.97941589 1.08229065 C-205.64941589 2.73229065 -205.31941589 4.38229065 -204.97941589 6.08229065 C-204.31941589 6.08229065 -203.65941589 6.08229065 -202.97941589 6.08229065 C-201.51878739 8.72967981 -200.97941589 9.97677399 -200.97941589 13.08229065 C-199.93140808 13.07068909 -198.88340027 13.05908752 -197.80363464 13.0471344 C-196.42473018 13.0377541 -195.04582378 13.02865415 -193.66691589 13.01979065 C-192.97662292 13.01141174 -192.28632996 13.00303284 -191.57511902 12.99440002 C-188.43111339 12.97921159 -185.9852157 13.08035738 -182.97941589 14.08229065 C-181.88175964 16.55885315 -181.88175964 16.55885315 -180.91691589 19.70729065 C-180.58047058 20.79654846 -180.24402527 21.88580627 -179.89738464 23.0080719 C-179.59445496 24.02256409 -179.29152527 25.03705627 -178.97941589 26.08229065 C-178.63330261 27.12449768 -178.63330261 27.12449768 -178.28019714 28.1877594 C-176.94327777 32.33126129 -176.13526159 35.78477782 -176.97941589 40.08229065 C-179.70035625 42.83217718 -182.77893799 44.92719498 -185.97941589 47.08229065 C-189.53669283 49.63660701 -189.53669283 49.63660701 -191.97941589 53.08229065 C-192.63941589 53.08229065 -193.29941589 53.08229065 -193.97941589 53.08229065 C-193.97941589 53.74229065 -193.97941589 54.40229065 -193.97941589 55.08229065 C-194.63941589 55.08229065 -195.29941589 55.08229065 -195.97941589 55.08229065 C-195.97941589 55.74229065 -195.97941589 56.40229065 -195.97941589 57.08229065 C-196.63941589 57.08229065 -197.29941589 57.08229065 -197.97941589 57.08229065 C-198.22691589 57.63916565 -198.47441589 58.19604065 -198.72941589 58.76979065 C-199.97941589 61.08229065 -199.97941589 61.08229065 -201.85441589 63.33229065 C-204.63186999 66.74379265 -204.63186999 66.74379265 -207.97941589 74.08229065 C-219.85941589 74.57729065 -219.85941589 74.57729065 -231.97941589 75.08229065 C-228.78050923 80.16901287 -228.78050923 80.16901287 -225.57756042 85.25318909 C-224.97597107 86.21273499 -224.97597107 86.21273499 -224.36222839 87.19166565 C-223.74952087 88.1657135 -223.74952087 88.1657135 -223.12443542 89.15943909 C-219.51463324 95.22144377 -219.04617312 99.97374625 -220.62004089 106.90260315 C-221.13179217 108.74390431 -221.66519615 110.57940018 -222.22550964 112.4065094 C-230.18848019 140.66886599 -221.95468618 173.26896752 -208.04582214 198.27027893 C-201.35416748 209.64057676 -189.10177404 226.02111158 -176.97941589 232.08229065 C-176.97941589 232.74229065 -176.97941589 233.40229065 -176.97941589 234.08229065 C-174.64727441 235.28857072 -172.48299451 236.24776444 -169.97941589 237.08229065 C-169.97941589 237.74229065 -169.97941589 238.40229065 -169.97941589 239.08229065 C-169.10736511 239.26018127 -169.10736511 239.26018127 -168.21769714 239.44166565 C-165.8688044 240.11394909 -164.23490874 241.04336414 -162.16691589 242.33229065 C-153.36454317 247.33528668 -143.28202992 250.30488539 -133.24894714 251.4299469 C-128.46552507 252.804872 -126.23910679 256.98711466 -123.85441589 261.08229065 C-123.10804871 262.35072815 -123.10804871 262.35072815 -122.34660339 263.64479065 C-118.97941589 269.64800494 -118.97941589 269.64800494 -118.97941589 273.08229065 C-118.31941589 273.08229065 -117.65941589 273.08229065 -116.97941589 273.08229065 C-113.97941589 278.70729065 -113.97941589 278.70729065 -113.97941589 282.08229065 C-113.31941589 282.08229065 -112.65941589 282.08229065 -111.97941589 282.08229065 C-110.65941589 284.72229065 -109.33941589 287.36229065 -107.97941589 290.08229065 C-106.39270473 287.41758488 -104.80999625 284.75062996 -103.22941589 282.08229065 C-102.78597839 281.33850159 -102.34254089 280.59471252 -101.88566589 279.8283844 C-99.03280904 275.00370001 -96.43107098 270.12307681 -93.97941589 265.08229065 C-93.31941589 265.08229065 -92.65941589 265.08229065 -91.97941589 265.08229065 C-91.82086121 264.4790094 -91.66230652 263.87572815 -91.49894714 263.25416565 C-91.26562683 262.4549469 -91.03230652 261.65572815 -90.79191589 260.83229065 C-90.57148621 260.0433844 -90.35105652 259.25447815 -90.12394714 258.44166565 C-88.30345864 254.68884976 -85.84162757 252.77212978 -81.92448425 251.32106018 C-79.47529398 250.58529626 -77.01520754 249.91981199 -74.54191589 249.26979065 C-66.68775825 247.08389953 -59.76882377 244.3233209 -52.63175964 240.40260315 C-49.97941589 239.08229065 -49.97941589 239.08229065 -46.97941589 239.08229065 C-46.97941589 238.42229065 -46.97941589 237.76229065 -46.97941589 237.08229065 C-45.90691589 236.48416565 -44.83441589 235.88604065 -43.72941589 235.26979065 C-41.57487948 234.04671038 -39.64877144 232.83207323 -37.66691589 231.33229065 C-35.97941589 230.08229065 -35.97941589 230.08229065 -33.97941589 230.08229065 C-33.97941589 229.42229065 -33.97941589 228.76229065 -33.97941589 228.08229065 C-32.47550964 226.63697815 -32.47550964 226.63697815 -30.41691589 224.95729065 C-26.66184976 221.78916203 -23.52675932 218.38798829 -20.42472839 214.5861969 C-19.94777527 214.08990784 -19.47082214 213.59361877 -18.97941589 213.08229065 C-18.31941589 213.08229065 -17.65941589 213.08229065 -16.97941589 213.08229065 C-16.73449402 212.5511969 -16.48957214 212.02010315 -16.23722839 211.47291565 C-14.96936433 209.06318644 -13.5233158 206.82914637 -12.00968933 204.56788635 C-0.03305702 186.57509702 8.10542822 167.27204584 8.22370911 145.3518219 C8.22940918 144.52075424 8.23510925 143.68968658 8.24098206 142.83343506 C8.25039448 141.07940427 8.25695103 139.3253561 8.26081848 137.57130432 C8.27049086 134.92034629 8.30153606 132.27017545 8.33308411 129.61940002 C8.38258384 121.52731305 8.40004939 114.05337451 5.71076965 106.31080627 C4.46218009 102.27927972 4.36284335 98.23566487 5.02058411 94.08229065 C6.64558411 91.14479065 6.64558411 91.14479065 9.02058411 88.08229065 C10.10873164 86.18006766 11.16940961 84.26197266 12.20808411 82.33229065 C12.71726379 81.3886969 13.22644348 80.44510315 13.75105286 79.47291565 C14.52375515 78.01785779 15.2837989 76.55586107 16.02058411 75.08229065 C15.38032288 75.09912903 14.74006165 75.11596741 14.08039856 75.13331604 C11.16328651 75.18376135 8.25052758 75.16493621 5.33308411 75.14479065 C4.32568176 75.17250549 3.31827942 75.20022034 2.28034973 75.22877502 C-0.71580179 75.17933358 -3.13217391 75.02948915 -5.97941589 74.08229065 C-8.39275036 71.3685411 -9.6082101 68.41349923 -10.97941589 65.08229065 C-12.04179768 63.5728328 -13.13482363 62.08293374 -14.29191589 60.64479065 C-16.97941589 57.29387755 -16.97941589 57.29387755 -16.97941589 55.08229065 C-17.63941589 55.08229065 -18.29941589 55.08229065 -18.97941589 55.08229065 C-18.97941589 54.42229065 -18.97941589 53.76229065 -18.97941589 53.08229065 C-19.63941589 53.08229065 -20.29941589 53.08229065 -20.97941589 53.08229065 C-20.97941589 52.09229065 -20.97941589 51.10229065 -20.97941589 50.08229065 C-21.78379089 49.74197815 -21.78379089 49.74197815 -22.60441589 49.39479065 C-25.80401751 47.62658976 -28.26978812 45.54558862 -30.97941589 43.08229065 C-30.97941589 42.42229065 -30.97941589 41.76229065 -30.97941589 41.08229065 C-31.57754089 40.79354065 -32.17566589 40.50479065 -32.79191589 40.20729065 C-34.97941589 39.08229065 -34.97941589 39.08229065 -37.97941589 37.08229065 C-38.56097367 31.65216397 -37.38784609 27.3044742 -35.60441589 22.26979065 C-35.38269714 21.60270081 -35.16097839 20.93561096 -34.93254089 20.24830627 C-33.92683272 17.31696276 -33.19783119 15.30070595 -30.97941589 13.08229065 C-28.0700601 12.93711321 -25.25946989 12.89598269 -22.35441589 12.95729065 C-21.55261902 12.96631409 -20.75082214 12.97533752 -19.92472839 12.9846344 C-17.94283067 13.00822842 -15.96108609 13.0441 -13.97941589 13.08229065 C-13.85308777 12.3346344 -13.72675964 11.58697815 -13.59660339 10.81666565 C-12.72163386 6.94021836 -11.15656695 4.4120511 -8.97941589 1.08229065 C-5.72821878 -0.00144172 -3.41967309 -0.02606017 0 0 Z " fill="#BDEA4E" transform="translate(363.9794158935547,47.91770935058594)"/>
<path d="M0 0 C2.60881125 -0.00202392 5.21762195 -0.004938 7.82643127 -0.00869751 C13.2686935 -0.01412277 18.7108327 -0.00704344 24.15307617 0.00732422 C30.42900386 0.02370228 36.70463987 0.01831215 42.98056072 0.001845 C49.05038896 -0.01343783 55.12008857 -0.01178644 61.18992805 -0.0030098 C63.760316 -0.00101207 66.33071143 -0.00345201 68.90109062 -0.01044846 C72.48821614 -0.01807623 76.0747814 -0.00644188 79.66186523 0.01025391 C80.71809082 0.00418121 81.77431641 -0.00189148 82.86254883 -0.00814819 C88.66247363 0.0418022 93.00544821 0.44460637 98.06640625 3.3984375 C98.39640625 4.3884375 98.72640625 5.3784375 99.06640625 6.3984375 C99.72640625 6.3984375 100.38640625 6.3984375 101.06640625 6.3984375 C105.6113707 16.02097943 101.93259913 26.7018051 98.72167969 36.21630859 C96.07708227 44.10504015 93.92816868 52.10515532 91.81640625 60.1484375 C91.6441452 60.80368408 91.47188416 61.45893066 91.29440308 62.1340332 C90.50461883 65.13916248 89.71625565 68.14462838 88.93261719 71.15136719 C88.01793871 74.58012247 87.05052603 77.98904992 86.06640625 81.3984375 C87.52378727 82.37902102 88.982343 83.35785882 90.44140625 84.3359375 C91.25351562 84.88121094 92.065625 85.42648438 92.90234375 85.98828125 C94.99359809 87.40937629 94.99359809 87.40937629 97.06640625 88.3984375 C97.06640625 89.0584375 97.06640625 89.7184375 97.06640625 90.3984375 C97.62328125 90.6253125 98.18015625 90.8521875 98.75390625 91.0859375 C101.72800213 92.77393786 103.7864949 94.86520267 106.06640625 97.3984375 C106.06640625 98.0584375 106.06640625 98.7184375 106.06640625 99.3984375 C107.05640625 99.7284375 108.04640625 100.0584375 109.06640625 100.3984375 C114.04955691 105.68860692 121.06640625 113.85028976 121.06640625 121.3984375 C121.72640625 121.3984375 122.38640625 121.3984375 123.06640625 121.3984375 C135.92823419 152.67161305 140.36709543 188.52286878 127.4140625 220.66015625 C123.25814085 230.29463637 117.80043218 238.65027207 111.29101562 246.85351562 C110.12517138 248.32430158 108.99320825 249.82175683 107.86328125 251.3203125 C107.2703125 252.00609375 106.67734375 252.691875 106.06640625 253.3984375 C105.40640625 253.3984375 104.74640625 253.3984375 104.06640625 253.3984375 C104.06640625 254.0584375 104.06640625 254.7184375 104.06640625 255.3984375 C103.40640625 255.3984375 102.74640625 255.3984375 102.06640625 255.3984375 C101.73640625 256.3884375 101.40640625 257.3784375 101.06640625 258.3984375 C100.40640625 258.3984375 99.74640625 258.3984375 99.06640625 258.3984375 C99.06640625 259.0584375 99.06640625 259.7184375 99.06640625 260.3984375 C97.66455078 261.64770508 97.66455078 261.64770508 95.69921875 263.04296875 C94.98362793 263.5527124 94.26803711 264.06245605 93.53076172 264.58764648 C92.75877441 265.12333252 91.98678711 265.65901855 91.19140625 266.2109375 C90.40781738 266.7562915 89.62422852 267.30164551 88.81689453 267.86352539 C65.379571 283.96122774 35.75160529 289.10448452 7.75390625 284.671875 C-7.46938087 281.75508131 -25.11286317 274.83204153 -36.93359375 264.3984375 C-36.93359375 263.7384375 -36.93359375 263.0784375 -36.93359375 262.3984375 C-38.58359375 261.7384375 -40.23359375 261.0784375 -41.93359375 260.3984375 C-41.93359375 259.7384375 -41.93359375 259.0784375 -41.93359375 258.3984375 C-42.53171875 258.1303125 -43.12984375 257.8621875 -43.74609375 257.5859375 C-45.93207229 256.39926344 -47.34691969 255.30244637 -48.93359375 253.3984375 C-48.93359375 252.7384375 -48.93359375 252.0784375 -48.93359375 251.3984375 C-49.59359375 251.3984375 -50.25359375 251.3984375 -50.93359375 251.3984375 C-50.93359375 250.7384375 -50.93359375 250.0784375 -50.93359375 249.3984375 C-51.92359375 249.0684375 -52.91359375 248.7384375 -53.93359375 248.3984375 C-55.58203125 246.39453125 -55.58203125 246.39453125 -57.30859375 243.8359375 C-57.87320313 243.00964844 -58.4378125 242.18335938 -59.01953125 241.33203125 C-59.96699219 239.87990234 -59.96699219 239.87990234 -60.93359375 238.3984375 C-61.32820801 237.79813721 -61.72282227 237.19783691 -62.12939453 236.5793457 C-65.20934371 231.79402381 -67.75718141 226.91275216 -70.05859375 221.7109375 C-70.57788452 220.54062988 -70.57788452 220.54062988 -71.10766602 219.34667969 C-73.92141492 212.80918639 -75.74521124 206.43051915 -76.93359375 199.3984375 C-77.10415283 198.48658691 -77.27471191 197.57473633 -77.45043945 196.63525391 C-79.79495013 180.92857245 -79.0818591 162.72397338 -74.93359375 147.3984375 C-74.71703125 146.51414063 -74.50046875 145.62984375 -74.27734375 144.71875 C-70.05139809 128.97207151 -61.85172659 114.47650688 -50.93359375 102.3984375 C-50.27359375 102.3984375 -49.61359375 102.3984375 -48.93359375 102.3984375 C-48.66546875 101.7590625 -48.39734375 101.1196875 -48.12109375 100.4609375 C-46.93359375 98.3984375 -46.93359375 98.3984375 -43.93359375 97.3984375 C-43.93359375 96.7384375 -43.93359375 96.0784375 -43.93359375 95.3984375 C-43.27359375 95.3984375 -42.61359375 95.3984375 -41.93359375 95.3984375 C-41.43859375 93.9134375 -41.43859375 93.9134375 -40.93359375 92.3984375 C-38.37109375 91.2109375 -38.37109375 91.2109375 -35.93359375 90.3984375 C-35.93359375 89.7384375 -35.93359375 89.0784375 -35.93359375 88.3984375 C-34.94359375 88.3984375 -33.95359375 88.3984375 -32.93359375 88.3984375 C-32.93359375 87.7384375 -32.93359375 87.0784375 -32.93359375 86.3984375 C-30.95359375 85.9034375 -30.95359375 85.9034375 -28.93359375 85.3984375 C-32.06399668 70.99349393 -36.00150594 56.88288333 -40.73828125 42.92578125 C-49.67924791 16.54116394 -49.67924791 16.54116394 -45.93359375 8.3984375 C-35.6224501 -3.50481687 -14.30156752 -0.03917699 0 0 Z M-18.93359375 27.3984375 C-21.70790517 34.9754484 -17.69037995 45.15835031 -14.75 52.34765625 C-12.91934879 56.94618202 -11.4828904 61.69928405 -9.93359375 66.3984375 C-8.94359375 69.3684375 -7.95359375 72.3384375 -6.93359375 75.3984375 C16.49640625 75.3984375 39.92640625 75.3984375 64.06640625 75.3984375 C66.37640625 67.4784375 68.68640625 59.5584375 71.06640625 51.3984375 C74.00390625 42.2734375 74.00390625 42.2734375 75.21875 38.640625 C76.42601144 34.02298908 76.9786501 31.00490418 74.56628418 26.75671387 C71.13778439 23.52241593 68.16619499 23.70831355 63.68945312 23.78320312 C62.42537376 23.77487961 62.42537376 23.77487961 61.13575745 23.76638794 C58.35164429 23.75458233 55.56915544 23.77887531 52.78515625 23.8046875 C50.84989496 23.80639843 48.91463135 23.80633311 46.97937012 23.80456543 C42.9240094 23.80621919 38.86920114 23.82492754 34.81396484 23.85644531 C29.61506198 23.89612305 24.41688289 23.90049092 19.21785736 23.89298248 C15.221836 23.88991332 11.22597745 23.90203141 7.22999573 23.91911316 C5.31304445 23.92614581 3.39607471 23.92926737 1.47911072 23.92842102 C-1.19981244 23.93021824 -3.87786752 23.95159328 -6.55664062 23.97851562 C-7.34948959 23.97558502 -8.14233856 23.97265442 -8.95921326 23.96963501 C-13.188931 24.03524001 -15.95036001 24.24553666 -18.93359375 27.3984375 Z M-25.93359375 106.3984375 C-27.97356565 107.76167493 -27.97356565 107.76167493 -29.93359375 109.3984375 C-29.93359375 110.0584375 -29.93359375 110.7184375 -29.93359375 111.3984375 C-30.59359375 111.3984375 -31.25359375 111.3984375 -31.93359375 111.3984375 C-31.93359375 112.0584375 -31.93359375 112.7184375 -31.93359375 113.3984375 C-32.59359375 113.3984375 -33.25359375 113.3984375 -33.93359375 113.3984375 C-33.93359375 114.0584375 -33.93359375 114.7184375 -33.93359375 115.3984375 C-34.59359375 115.3984375 -35.25359375 115.3984375 -35.93359375 115.3984375 C-37.48331658 116.81242331 -37.48331658 116.81242331 -38.99609375 118.6484375 C-39.52332031 119.25171875 -40.05054688 119.855 -40.59375 120.4765625 C-41.98806198 122.47656685 -42.50682433 124.01695876 -42.93359375 126.3984375 C-43.59359375 126.3984375 -44.25359375 126.3984375 -44.93359375 126.3984375 C-57.51088556 151.62551271 -63.73306251 178.49808443 -54.62109375 206.1484375 C-52.50364859 212.16874754 -49.97474697 217.79631315 -46.93359375 223.3984375 C-46.26234915 224.72947202 -45.59422047 226.06210126 -44.93359375 227.3984375 C-44.27359375 227.3984375 -43.61359375 227.3984375 -42.93359375 227.3984375 C-42.93359375 228.3884375 -42.93359375 229.3784375 -42.93359375 230.3984375 C-42.27359375 230.3984375 -41.61359375 230.3984375 -40.93359375 230.3984375 C-40.54300781 231.26082031 -40.54300781 231.26082031 -40.14453125 232.140625 C-38.84341123 234.56658427 -37.3648332 236.44902276 -35.55859375 238.5234375 C-34.97335938 239.20664063 -34.388125 239.88984375 -33.78515625 240.59375 C-31.92687614 242.40498505 -30.30533105 243.38496385 -27.93359375 244.3984375 C-27.93359375 245.0584375 -27.93359375 245.7184375 -27.93359375 246.3984375 C-20.35178103 253.25517042 -11.33232687 257.6394353 -1.93359375 261.3984375 C-0.8765625 261.83542969 0.18046875 262.27242187 1.26953125 262.72265625 C18.84312856 268.65686861 44.18200338 268.10501142 61.06640625 260.3984375 C61.72640625 259.7384375 62.38640625 259.0784375 63.06640625 258.3984375 C62.52508057 258.46627441 61.98375488 258.53411133 61.42602539 258.60400391 C33.19778526 261.80880564 8.2146664 260.46757132 -14.99609375 242.6484375 C-16.31238259 241.56971092 -17.62551077 240.48710011 -18.93359375 239.3984375 C-20.23296875 238.439375 -20.23296875 238.439375 -21.55859375 237.4609375 C-36.1345187 224.80289741 -46.62327893 203.78313388 -48.25341797 184.64331055 C-48.4076113 180.53544862 -48.45714149 176.44581022 -48.43359375 172.3359375 C-48.43382538 171.61353882 -48.43405701 170.89114014 -48.43429565 170.14685059 C-48.40812405 158.24617804 -46.78695129 147.66792907 -42.93359375 136.3984375 C-42.56649302 134.73888155 -42.21617811 133.07445509 -41.93359375 131.3984375 C-41.27359375 131.3984375 -40.61359375 131.3984375 -39.93359375 131.3984375 C-39.54171875 130.4084375 -39.14984375 129.4184375 -38.74609375 128.3984375 C-37.17811189 124.69709571 -35.14617151 121.43738169 -32.921875 118.09765625 C-31.76600755 116.43791475 -31.76600755 116.43791475 -31.93359375 114.3984375 C-31.27359375 114.3984375 -30.61359375 114.3984375 -29.93359375 114.3984375 C-28.21923195 112.43916687 -26.54954207 110.43963538 -24.93359375 108.3984375 C-25.42859375 107.4084375 -25.42859375 107.4084375 -25.93359375 106.3984375 Z " fill="#BDEA4E" transform="translate(227.93359375,6.6015625)"/>
<path d="M0 0 C2.60881125 -0.00202392 5.21762195 -0.004938 7.82643127 -0.00869751 C13.2686935 -0.01412277 18.7108327 -0.00704344 24.15307617 0.00732422 C30.42900386 0.02370228 36.70463987 0.01831215 42.98056072 0.001845 C49.05038896 -0.01343783 55.12008857 -0.01178644 61.18992805 -0.0030098 C63.760316 -0.00101207 66.33071143 -0.00345201 68.90109062 -0.01044846 C72.48821614 -0.01807623 76.0747814 -0.00644188 79.66186523 0.01025391 C80.71809082 0.00418121 81.77431641 -0.00189148 82.86254883 -0.00814819 C88.66247363 0.0418022 93.00544821 0.44460637 98.06640625 3.3984375 C98.39640625 4.3884375 98.72640625 5.3784375 99.06640625 6.3984375 C99.72640625 6.3984375 100.38640625 6.3984375 101.06640625 6.3984375 C101.06640625 7.0584375 101.06640625 7.7184375 101.06640625 8.3984375 C100.07640625 8.3984375 99.08640625 8.3984375 98.06640625 8.3984375 C97.73640625 7.7384375 97.40640625 7.0784375 97.06640625 6.3984375 C94.5390739 5.74288631 94.5390739 5.74288631 92.06640625 5.3984375 C92.06640625 4.4084375 92.06640625 3.4184375 92.06640625 2.3984375 C76.19403515 2.48224494 60.32177477 2.57734379 44.44955635 2.68596458 C37.08016164 2.73613209 29.7107783 2.78257441 22.34130859 2.8203125 C15.91967929 2.8532062 9.49813707 2.89302268 3.07660377 2.94122756 C-0.32500416 2.96651883 -3.72655414 2.98829217 -7.12823105 3.00178146 C-10.92139043 3.01856125 -14.71426724 3.04757612 -18.50732422 3.07958984 C-19.64092377 3.08175003 -20.77452332 3.08391022 -21.94247437 3.08613586 C-23.48638855 3.10288109 -23.48638855 3.10288109 -25.06149292 3.1199646 C-26.40823247 3.12826074 -26.40823247 3.12826074 -27.78217888 3.13672447 C-30.14613282 3.199947 -30.14613282 3.199947 -31.93359375 5.3984375 C-34.2109375 6.03125 -34.2109375 6.03125 -36.87109375 6.5234375 C-37.74636719 6.69101563 -38.62164062 6.85859375 -39.5234375 7.03125 C-41.93359375 7.3984375 -41.93359375 7.3984375 -44.93359375 7.3984375 C-35.35386332 -3.57351299 -13.13187261 -0.03597279 0 0 Z " fill="#DFEF9B" transform="translate(227.93359375,6.6015625)"/>
<path d="M0 0 C50.16 0 100.32 0 152 0 C152.33 1.65 152.66 3.3 153 5 C153.66 5 154.32 5 155 5 C156.4606285 7.64738916 157 8.89448334 157 12 C161.95 12 166.9 12 172 12 C172 12.33 172 12.66 172 13 C164.08 13.495 164.08 13.495 156 14 C155.01 10.535 155.01 10.535 154 7 C153.34 7 152.68 7 152 7 C151.7525 6.360625 151.505 5.72125 151.25 5.0625 C150.220686 2.8782108 150.220686 2.8782108 148.29124069 2.37860966 C145.52336071 1.92123907 142.89703763 1.8772833 140.09014893 1.87974548 C138.88142624 1.87837082 137.67270355 1.87699615 136.42735291 1.87557983 C135.09121679 1.87911871 133.75508093 1.88275351 132.41894531 1.88647461 C131.00950625 1.88675674 129.60006703 1.88659825 128.19062805 1.8860321 C124.36659383 1.88574512 120.54259096 1.89162587 116.71856403 1.89860606 C112.72137422 1.90485606 108.72418369 1.9054447 104.72698975 1.90663147 C97.15872381 1.90973992 89.59047232 1.91794678 82.02221274 1.92798096 C73.40559909 1.93915717 64.78898476 1.94465635 56.17236567 1.94967639 C38.44823559 1.96012978 20.72411896 1.97771983 3 2 C3.33 3.98 3.66 5.96 4 8 C2 6.25 2 6.25 0 4 C0 2.68 0 1.36 0 0 Z " fill="#C0DD76" transform="translate(6,49)"/>
<path d="M0 0 C1.87412819 0.00849724 1.87412819 0.00849724 3.78611755 0.01716614 C5.1731132 0.03368776 6.56010655 0.05040264 7.94709778 0.06729126 C9.40564388 0.07771608 10.86419656 0.08725155 12.32275391 0.09596252 C16.28537152 0.12215643 20.24778176 0.16082231 24.2102716 0.20168638 C28.35021922 0.24227312 32.49024665 0.27144707 36.63027954 0.30181885 C44.47135675 0.36108273 52.31230757 0.43064716 60.1532653 0.50388968 C69.07934272 0.58676846 78.00550018 0.65819878 86.93168294 0.72865558 C105.29476844 0.87385756 123.65770364 1.03347528 142.02058411 1.20254517 C142.24343493 6.07675919 140.76213736 8.89278474 138.14558411 12.89004517 C137.78077942 13.47076782 137.41597473 14.05149048 137.04011536 14.64981079 C135.51097231 17.05473577 134.04118402 19.18194525 132.02058411 21.20254517 C131.69058411 19.88254517 131.36058411 18.56254517 131.02058411 17.20254517 C131.68058411 17.20254517 132.34058411 17.20254517 133.02058411 17.20254517 C133.02058411 16.54254517 133.02058411 15.88254517 133.02058411 15.20254517 C133.68058411 15.20254517 134.34058411 15.20254517 135.02058411 15.20254517 C135.02058411 13.88254517 135.02058411 12.56254517 135.02058411 11.20254517 C135.68058411 11.20254517 136.34058411 11.20254517 137.02058411 11.20254517 C137.02058411 9.88254517 137.02058411 8.56254517 137.02058411 7.20254517 C137.68058411 7.20254517 138.34058411 7.20254517 139.02058411 7.20254517 C139.02058411 5.88254517 139.02058411 4.56254517 139.02058411 3.20254517 C65.76058411 2.70754517 65.76058411 2.70754517 -8.97941589 2.20254517 C-5.47450231 -0.13406389 -4.13888455 -0.03504559 0 0 Z " fill="#C2DD78" transform="translate(363.9794158935547,47.797454833984375)"/>
<path d="M0 0 C28.71 0 57.42 0 87 0 C87.495 0.99 87.495 0.99 88 2 C43.945 2.495 43.945 2.495 -1 3 C-0.67 2.01 -0.34 1.02 0 0 Z " fill="#CCE781" transform="translate(212,29)"/>
<path d="M0 0 C0.33 0 0.66 0 1 0 C1.08167446 1.41569064 1.13949698 2.83276805 1.1875 4.25 C1.23970703 5.43335937 1.23970703 5.43335937 1.29296875 6.640625 C0.91291468 9.70132708 0.20091244 10.83296398 -2 13 C-5.05619812 13.48101807 -5.05619812 13.48101807 -8.8581543 13.45410156 C-9.55109589 13.45468567 -10.24403748 13.45526978 -10.95797729 13.45587158 C-13.24723499 13.45308592 -15.53518871 13.42197404 -17.82421875 13.390625 C-19.41176136 13.38316425 -20.99931318 13.37747053 -22.58686829 13.37347412 C-26.76446986 13.35820449 -30.94151479 13.31891182 -35.11889648 13.2746582 C-39.38192209 13.23373381 -43.64503769 13.2154692 -47.90820312 13.1953125 C-56.27239082 13.15241832 -64.63612616 13.08415157 -73 13 C-73 12.34 -73 11.68 -73 11 C-49.57 11 -26.14 11 -2 11 C-1.67 8.69 -1.34 6.38 -1 4 C-0.69096017 2.66082739 -0.37057089 1.32346746 0 0 Z " fill="#D6EF93" transform="translate(294,71)"/>
<path d="M0 0 C0.66 0 1.32 0 2 0 C2.80897097 2.85180661 3.13412819 5.40534142 3.16113281 8.36621094 C3.17074036 9.22100037 3.1803479 10.07578979 3.19024658 10.95648193 C3.19449646 11.87318665 3.19874634 12.78989136 3.203125 13.734375 C3.20882507 14.6863678 3.21452515 15.6383606 3.22039795 16.61920166 C3.22983655 18.63316745 3.2363774 20.6471486 3.24023438 22.66113281 C3.24992061 25.72488754 3.28094702 28.78796566 3.3125 31.8515625 C3.31903257 33.81249604 3.32428204 35.77343435 3.328125 37.734375 C3.3404718 38.64298279 3.3528186 39.55159058 3.36553955 40.48773193 C3.3452038 46.36531096 2.3468939 50.60672839 0 56 C-1.14609364 59.31093719 -2.21201607 62.58540298 -3 66 C-3.66 66 -4.32 66 -5 66 C-4.40281875 61.98665985 -3.52169397 58.12321975 -2.50189209 54.19821167 C0.37630738 42.70990297 0.4660247 31.65649783 0.25 19.875 C0.22986854 17.93361254 0.21162972 15.99220451 0.1953125 14.05078125 C0.15192545 9.36666422 0.08328056 4.68357053 0 0 Z " fill="#C9E879" transform="translate(372,160)"/>
<path d="M0 0 C0.66 0 1.32 0 2 0 C1.53898332 3.2929763 1.07789181 6.57563523 0.47753906 9.84643555 C-1.96254548 25.96022496 -0.52688537 43.17470089 3 59 C3.35302631 61.33043515 3.69220656 63.66316052 4 66 C3.01 65.67 2.02 65.34 1 65 C0.96261719 64.2265625 0.92523438 63.453125 0.88671875 62.65625 C0.82097656 61.6146875 0.75523437 60.573125 0.6875 59.5 C0.60048828 57.96859375 0.60048828 57.96859375 0.51171875 56.40625 C0.11824753 52.87429881 0.11824753 52.87429881 -1.50708008 49.30834961 C-3.1541404 45.01004028 -3.4370809 41.22869701 -3.3984375 36.66015625 C-3.40130768 35.89376328 -3.40417786 35.1273703 -3.40713501 34.3377533 C-3.40916226 32.72849787 -3.4037269 31.11921704 -3.39111328 29.51000977 C-3.3750616 27.07185705 -3.39099535 24.63536719 -3.41015625 22.19726562 C-3.4192219 14.32132982 -3.21195351 7.3331108 0 0 Z " fill="#C9E779" transform="translate(140,156)"/>
<path d="M0 0 C0.66 0 1.32 0 2 0 C1.32706624 5.05719914 -0.82612554 9.3842027 -2.875 14 C-6.13587944 21.55245933 -8.68546032 28.84078818 -10 37 C-10.12890625 37.763125 -10.2578125 38.52625 -10.390625 39.3125 C-11.59405728 48.43324989 -11.08686206 57.81934815 -11 67 C-13.53872353 62.51191075 -13.34193577 58.61579382 -13.3125 53.5625 C-13.31121094 52.64831299 -13.30992187 51.73412598 -13.30859375 50.79223633 C-13.17122151 40.7254272 -11.68636377 30.90738713 -10 21 C-9.34 21 -8.68 21 -8 21 C-8.33 18.03 -8.66 15.06 -9 12 C-7.68 12 -6.36 12 -5 12 C-4.67 10.35 -4.34 8.7 -4 7 C-3.34 7 -2.68 7 -2 7 C-1.34 4.69 -0.68 2.38 0 0 Z " fill="#CCE87A" transform="translate(181,132)"/>
<path d="M0 0 C0.33 0 0.66 0 1 0 C0.9278125 0.93457031 0.855625 1.86914062 0.78125 2.83203125 C0.22632481 10.6857642 -0.10692013 18.50046299 -0.125 26.375 C-0.12951172 27.20104736 -0.13402344 28.02709473 -0.13867188 28.87817383 C-0.23829156 33.07263237 -0.23829156 33.07263237 1 37 C1.40637115 40.26205205 1.76486427 43.52243671 2.07421875 46.79492188 C2.61824908 51.73268865 3.96039755 55.47860487 6 60 C6.1875 63.4375 6.1875 63.4375 6 66 C3.6195836 63.6195836 3.06933211 61.80793385 2 58.625 C1.67 57.66851562 1.34 56.71203125 1 55.7265625 C-1.75853241 45.44671905 -2.31385986 35.48637943 -2.25 24.875 C-2.25773438 23.58207031 -2.26546875 22.28914063 -2.2734375 20.95703125 C-2.25873608 13.73128423 -1.80529862 7.00941115 0 0 Z " fill="#C8E676" transform="translate(152,160)"/>
<path d="M0 0 C0.59425781 0.37511719 1.18851563 0.75023437 1.80078125 1.13671875 C20.71394971 12.81405604 38.10137383 15.68440295 60 16 C60 16.33 60 16.66 60 17 C24.05875639 18.09361522 24.05875639 18.09361522 14 12 C13.67 11.01 13.34 10.02 13 9 C11.15279824 8.37223713 11.15279824 8.37223713 9 8 C7.58546859 7.44101078 6.18853197 6.83550005 4.8125 6.1875 C4.11769531 5.87167969 3.42289063 5.55585938 2.70703125 5.23046875 C1 4 1 4 0.26171875 1.86328125 C0.17535156 1.24839844 0.08898437 0.63351562 0 0 Z " fill="#D3ED8B" transform="translate(205,256)"/>
<path d="M0 0 C1.32 0.33 2.64 0.66 4 1 C-9.90941711 12.05234765 -25.78637835 21.88488031 -44 23 C-42.9375 21.5 -42.9375 21.5 -41 20 C-37.3125 19.8125 -37.3125 19.8125 -34 20 C-34 19.34 -34 18.68 -34 18 C-31.69 18 -29.38 18 -27 18 C-27 17.34 -27 16.68 -27 16 C-25.35 16 -23.7 16 -22 16 C-22 15.34 -22 14.68 -22 14 C-18.99382731 10.99382731 -16.17618402 11.40414684 -12 11 C-12 10.01 -12 9.02 -12 8 C-9 6 -9 6 -5 6 C-5 5.34 -5 4.68 -5 4 C-4.34 4 -3.68 4 -3 4 C-3 3.34 -3 2.68 -3 2 C-2.01 2 -1.02 2 0 2 C0 1.34 0 0.68 0 0 Z " fill="#D0EB84" transform="translate(321,267)"/>
<path d="M0 0 C0.33 0 0.66 0 1 0 C3.19365918 17.45134223 3.64504954 33.66138596 0 51 C-0.33 51 -0.66 51 -1 51 C-1.02691685 48.54159395 -1.04679802 46.08348118 -1.0625 43.625 C-1.07087891 42.92632812 -1.07925781 42.22765625 -1.08789062 41.5078125 C-1.11328125 36.2265625 -1.11328125 36.2265625 0 34 C0.08658569 31.44637396 0.11562516 28.9204558 0.09765625 26.3671875 C0.0962413 25.61535187 0.09482635 24.86351624 0.09336853 24.08889771 C0.08776465 21.6842249 0.07521157 19.27964473 0.0625 16.875 C0.0574855 15.24609509 0.0529225 13.61718873 0.04882812 11.98828125 C0.03779397 7.99215173 0.02052679 3.99609158 0 0 Z " fill="#CBE77E" transform="translate(360,161)"/>
<path d="M0 0 C0.99 0.33 1.98 0.66 3 1 C2.63648438 1.59425781 2.27296875 2.18851563 1.8984375 2.80078125 C-1.32781464 8.11996106 -4.39037709 13.49791976 -7.34375 18.97265625 C-10.47567655 24.69728616 -13.74663447 30.34376806 -17 36 C-17.33 36 -17.66 36 -18 36 C-18.1875 33.6875 -18.1875 33.6875 -18 31 C-17.02246356 29.97803008 -16.0194119 28.98020375 -15 28 C-13.79950593 24.89992799 -13.79950593 24.89992799 -13 22 C-12.34 22 -11.68 22 -11 22 C-10.690625 20.88625 -10.38125 19.7725 -10.0625 18.625 C-9 15 -9 15 -8 13 C-7.34 13 -6.68 13 -6 13 C-5.67 11.68 -5.34 10.36 -5 9 C-4.34 9 -3.68 9 -3 9 C-2.67 7.35 -2.34 5.7 -2 4 C-1.34 4 -0.68 4 0 4 C0 2.68 0 1.36 0 0 Z " fill="#D1EA87" transform="translate(413,179)"/>
<path d="M0 0 C0.66 0 1.32 0 2 0 C0.00603504 5.23936268 -2.69296869 9.91204164 -5.5 14.75 C-5.99886719 15.62527344 -6.49773437 16.50054687 -7.01171875 17.40234375 C-7.49253906 18.23378906 -7.97335937 19.06523437 -8.46875 19.921875 C-8.90638672 20.68081055 -9.34402344 21.43974609 -9.79492188 22.22167969 C-11 24 -11 24 -13 25 C-14.06854557 21.18941949 -14.30162759 19.57048576 -12.41796875 16.0078125 C-11.68191406 15.05648438 -10.94585937 14.10515625 -10.1875 13.125 C-9.09501953 11.67480469 -9.09501953 11.67480469 -7.98046875 10.1953125 C-7.32691406 9.47085937 -6.67335938 8.74640625 -6 8 C-5.34 8 -4.68 8 -4 8 C-3.67 6.68 -3.34 5.36 -3 4 C-2.34 4 -1.68 4 -1 4 C-0.67 2.68 -0.34 1.36 0 0 Z " fill="#C6E868" transform="translate(338,310)"/>
<path d="M0 0 C2.64 0 5.28 0 8 0 C8 0.99 8 1.98 8 3 C6.72125 3.12375 5.4425 3.2475 4.125 3.375 C1.71782441 3.60795248 -0.61618032 3.90616471 -2.96728516 4.48095703 C-11.15231996 6.42747195 -19.27446611 6.22328521 -27.625 6.125 C-29.12108773 6.11494608 -30.61718203 6.10582451 -32.11328125 6.09765625 C-35.74232626 6.07584308 -39.37111985 6.04144741 -43 6 C-43 5.67 -43 5.34 -43 5 C-41.67609253 4.970271 -41.67609253 4.970271 -40.32543945 4.93994141 C-37.03578043 4.86162134 -33.74656036 4.77492145 -30.45727539 4.68261719 C-29.0364627 4.64444851 -27.61555737 4.60957487 -26.19458008 4.578125 C-24.14631145 4.53220935 -22.09867392 4.47426195 -20.05078125 4.4140625 C-18.82012939 4.3826416 -17.58947754 4.3512207 -16.3215332 4.31884766 C-13.12802429 4.01228958 -10.90168062 3.30137541 -8 2 C-5.76171875 1.8046875 -5.76171875 1.8046875 -3.6875 1.875 C-2.470625 1.91625 -1.25375 1.9575 0 2 C0 1.34 0 0.68 0 0 Z " fill="#D0E88E" transform="translate(292,261)"/>
<path d="M0 0 C0.33 0.66 0.66 1.32 1 2 C3.52733235 2.65555119 3.52733235 2.65555119 6 3 C4.03030303 9.81818182 4.03030303 9.81818182 1 12 C0.01 12 -0.98 12 -2 12 C-2.061875 12.61875 -2.12375 13.2375 -2.1875 13.875 C-3 16 -3 16 -5.5625 17.25 C-6.366875 17.4975 -7.17125 17.745 -8 18 C-8 17.34 -8 16.68 -8 16 C-7.34 16 -6.68 16 -6 16 C-5.71125 15.401875 -5.4225 14.80375 -5.125 14.1875 C-4 12 -4 12 -2 9 C-2.33 8.01 -2.66 7.02 -3 6 C-1.5625 2.8125 -1.5625 2.8125 0 0 Z " fill="#C8E96C" transform="translate(204,105)"/>
<path d="M0 0 C0.99 0 1.98 0 3 0 C3 0.99 3 1.98 3 3 C3.66 3 4.32 3 5 3 C5.33 4.65 5.66 6.3 6 8 C11.94 8 17.88 8 24 8 C24.33 9.65 24.66 11.3 25 13 C25.66 13 26.32 13 27 13 C27.33 14.65 27.66 16.3 28 18 C25.12597273 15.4041044 23.75567052 13.78630702 23 10 C21.84242187 10.10441406 20.68484375 10.20882812 19.4921875 10.31640625 C7.35412467 11.08158294 7.35412467 11.08158294 3.53515625 8.03125 C0 2.56861247 0 2.56861247 0 0 Z " fill="#D0EA84" transform="translate(74,169)"/>
<path d="M0 0 C0 0.66 0 1.32 0 2 C-0.99 2 -1.98 2 -3 2 C-3 2.66 -3 3.32 -3 4 C-8.47619048 9 -8.47619048 9 -11 9 C-11.66 11.97 -12.32 14.94 -13 18 C-14.32 17.34 -15.64 16.68 -17 16 C-17.99 16.33 -18.98 16.66 -20 17 C-19.1875 15.0625 -19.1875 15.0625 -18 13 C-17.01 12.67 -16.02 12.34 -15 12 C-15 11.34 -15 10.68 -15 10 C-14.34 10 -13.68 10 -13 10 C-12.67 9.01 -12.34 8.02 -12 7 C-9.4375 5.8125 -9.4375 5.8125 -7 5 C-7 4.34 -7 3.68 -7 3 C-6.01 3 -5.02 3 -4 3 C-4 2.34 -4 1.68 -4 1 C-2 0 -2 0 0 0 Z " fill="#C5E867" transform="translate(199,92)"/>
<path d="M0 0 C7.26 0 14.52 0 22 0 C22.33 1.65 22.66 3.3 23 5 C23.66 5 24.32 5 25 5 C26.4606285 7.64738916 27 8.89448334 27 12 C31.95 12 36.9 12 42 12 C42 12.33 42 12.66 42 13 C34.08 13.495 34.08 13.495 26 14 C25.34 11.69 24.68 9.38 24 7 C23.34 7 22.68 7 22 7 C21.7525 6.360625 21.505 5.72125 21.25 5.0625 C20.21446787 2.85106038 20.21446787 2.85106038 18.16503906 2.39086914 C14.71891089 1.76871632 11.24099777 1.62561914 7.75 1.4375 C7.00492188 1.39431641 6.25984375 1.35113281 5.4921875 1.30664062 C3.661651 1.20103275 1.83084824 1.10005799 0 1 C0 0.67 0 0.34 0 0 Z " fill="#D0E792" transform="translate(136,49)"/>
<path d="M0 0 C0.99 0.495 0.99 0.495 2 1 C2.625 3.5625 2.625 3.5625 3 6 C3.66 6 4.32 6 5 6 C5 8.64 5 11.28 5 14 C5.66 14.33 6.32 14.66 7 15 C10.24272746 18.37243655 10.40256375 21.4765541 11 26 C11.66 26.33 12.32 26.66 13 27 C12.34 27.66 11.68 28.32 11 29 C5.92465898 20.41754131 0 10.27991806 0 0 Z " fill="#D2EC88" transform="translate(180,197)"/>
<path d="M0 0 C0.66 0 1.32 0 2 0 C2 0.66 2 1.32 2 2 C4.33214148 3.20628008 6.49642139 4.1654738 9 5 C9 5.66 9 6.32 9 7 C9.515625 7.0825 10.03125 7.165 10.5625 7.25 C14.04455732 8.32140225 16.87200885 10.13523605 20 12 C18.68 12.33 17.36 12.66 16 13 C16 12.34 16 11.68 16 11 C14.6078125 11.3403125 14.6078125 11.3403125 13.1875 11.6875 C10 12 10 12 8.125 10.6875 C7 9 7 9 7 7 C6.401875 6.896875 5.80375 6.79375 5.1875 6.6875 C2.66578648 5.89496146 1.60314301 5.08408591 0 3 C0 2.01 0 1.02 0 0 Z " fill="#CAE977" transform="translate(185,280)"/>
<path d="M0 0 C0.99 0.495 0.99 0.495 2 1 C2 2.32 2 3.64 2 5 C2.9590625 5.2165625 2.9590625 5.2165625 3.9375 5.4375 C6 6 6 6 7 7 C7.07325168 9.86267567 7.09238205 12.700719 7.0625 15.5625 C7.05798828 16.36880859 7.05347656 17.17511719 7.04882812 18.00585938 C7.03700518 20.00393756 7.01906914 22.00197783 7 24 C5.25041441 21.37562161 4.5251318 19.81796628 3.7109375 16.875 C3.49179688 16.08609375 3.27265625 15.2971875 3.046875 14.484375 C2.82515625 13.66453125 2.6034375 12.8446875 2.375 12 C2.14554688 11.18015625 1.91609375 10.3603125 1.6796875 9.515625 C0 3.39676339 0 3.39676339 0 0 Z " fill="#C3E965" transform="translate(191,58)"/>
<path d="M0 0 C0.66 0 1.32 0 2 0 C2 0.99 2 1.98 2 3 C2.99 3.33 3.98 3.66 5 4 C6 6.33333333 7 8.66666667 8 11 C8.99 11.33 9.98 11.66 11 12 C11.33 11.34 11.66 10.68 12 10 C12 13 12 13 11 15 C11 16.32 11 17.64 11 19 C12.65 19 14.3 19 16 19 C15.67 19.99 15.34 20.98 15 22 C13.203125 21.83984375 13.203125 21.83984375 11 21 C9.296875 18.56640625 9.296875 18.56640625 7.75 15.5625 C7.22921875 14.57378906 6.7084375 13.58507812 6.171875 12.56640625 C5 10 5 10 5 8 C4.34 8 3.68 8 3 8 C2.01 5.36 1.02 2.72 0 0 Z " fill="#CEE97F" transform="translate(243,461)"/>
<path d="M0 0 C1.1540694 3.4622082 0.79627697 4.52684224 -0.25 7.9375 C-0.50265625 8.79214844 -0.7553125 9.64679688 -1.015625 10.52734375 C-2 13 -2 13 -3.47265625 14.89453125 C-5.49510895 17.68251591 -6.23098039 20.4516565 -7.1875 23.75 C-7.53167969 24.92046875 -7.87585938 26.0909375 -8.23046875 27.296875 C-8.48441406 28.18890625 -8.73835937 29.0809375 -9 30 C-9.66 30 -10.32 30 -11 30 C-8.68083447 19.5354726 -5.77996585 9.12360889 0 0 Z " fill="#CBE877" transform="translate(163,129)"/>
<path d="M0 0 C0.66 0 1.32 0 2 0 C2 0.66 2 1.32 2 2 C2.99 2 3.98 2 5 2 C5.99 4.97 6.98 7.94 8 11 C14.93 11 21.86 11 29 11 C29.33 11.66 29.66 12.32 30 13 C22.41 13 14.82 13 7 13 C2 4 2 4 0 0 Z " fill="#C7E76F" transform="translate(351,109)"/>
<path d="M0 0 C3.10640135 0.61421722 6.20962625 1.24322354 9.3125 1.875 C10.19357422 2.04902344 11.07464844 2.22304688 11.98242188 2.40234375 C13.25375977 2.66337891 13.25375977 2.66337891 14.55078125 2.9296875 C15.33106689 3.08679199 16.11135254 3.24389648 16.9152832 3.40576172 C19 4 19 4 22 6 C21.67 6.99 21.34 7.98 21 9 C20.34 9 19.68 9 19 9 C19 8.01 19 7.02 19 6 C18.09636719 6 17.19273437 6 16.26171875 6 C11.84114583 6 7.42057292 6 3 6 C0 2.66666667 0 2.66666667 0 0 Z " fill="#CAEA6C" transform="translate(214,296)"/>
<path d="M0 0 C0.33 0 0.66 0 1 0 C1.25394531 0.97839844 1.50789062 1.95679688 1.76953125 2.96484375 C3.62800556 10.06454166 5.56837361 17.06986479 8 24 C7.34 24 6.68 24 6 24 C6 23.34 6 22.68 6 22 C4.02 22.99 4.02 22.99 2 24 C2 20.04 2 16.08 2 12 C1.34 12 0.68 12 0 12 C0 8.04 0 4.08 0 0 Z " fill="#C9E975" transform="translate(170,200)"/>
<path d="M0 0 C0.66 0 1.32 0 2 0 C1.25 2.9375 1.25 2.9375 0 6 C-2.125 6.875 -2.125 6.875 -4 7 C-4.1546875 8.3921875 -4.1546875 8.3921875 -4.3125 9.8125 C-5.00531495 13.02464205 -5.3879169 14.11930017 -8 16 C-8.66 16 -9.32 16 -10 16 C-10 16.99 -10 17.98 -10 19 C-10.99 19.33 -11.98 19.66 -13 20 C-10.3420737 12.63149144 -5.22040891 5.80045434 0 0 Z " fill="#CAE874" transform="translate(177,109)"/>
<path d="M0 0 C2.66024486 2.66024486 3.08982158 5.0797115 4.125 8.6875 C4.47820312 9.88761719 4.83140625 11.08773437 5.1953125 12.32421875 C6.00119611 16.00546379 6.14460221 19.2451627 6 23 C4.02 23.99 4.02 23.99 2 25 C2 23.68 2 22.36 2 21 C2.66 21 3.32 21 4 21 C4 19.02 4 17.04 4 15 C3.34 15 2.68 15 2 15 C1.66223316 13.2508503 1.32996329 11.50063855 1 9.75 C0.814375 8.77546875 0.62875 7.8009375 0.4375 6.796875 C0 4 0 4 0 0 Z " fill="#CEE985" transform="translate(181,65)"/>
<path d="M0 0 C0.66 0.99 1.32 1.98 2 3 C1.01 4.485 1.01 4.485 0 6 C-0.433125 7.299375 -0.433125 7.299375 -0.875 8.625 C-2 11 -2 11 -4.125 11.8125 C-4.74375 11.874375 -5.3625 11.93625 -6 12 C-6.33 13.98 -6.66 15.96 -7 18 C-7.99 18.33 -8.98 18.66 -10 19 C-8.59478925 15.28429849 -6.91641021 11.85328453 -5 8.375 C-4.484375 7.43398437 -3.96875 6.49296875 -3.4375 5.5234375 C-2.3640955 3.63914591 -1.20291339 1.80437008 0 0 Z " fill="#CFEB86" transform="translate(381,122)"/>
<path d="M0 0 C2.475 0.495 2.475 0.495 5 1 C5.5643982 17.24212598 5.5643982 17.24212598 2 23 C1.34 23.33 0.68 23.66 0 24 C0.56655071 20.9783962 1.25999126 18.02779824 2.0625 15.0625 C3.25126331 10.27142361 3.85919975 6.64679951 1.5 2.125 C0.7575 1.073125 0.7575 1.073125 0 0 Z " fill="#C8E86F" transform="translate(300,31)"/>
<path d="M0 0 C3.28452224 0.56629694 5.01011587 1.28652164 7 4 C7.33 5.175625 7.66 6.35125 8 7.5625 C8.67139937 11.24603436 8.67139937 11.24603436 12 13 C12.1875 16.125 12.1875 16.125 12 19 C8.75073415 16.23097155 6.91724922 12.61429667 4.875 8.9375 C4.51535156 8.30005859 4.15570313 7.66261719 3.78515625 7.00585938 C2.48201721 4.6899812 1.18857356 2.37714712 0 0 Z " fill="#D0EC81" transform="translate(186,364)"/>
<path d="M0 0 C-4.4187522 4.4187522 -9.01417855 5.22894503 -15 6 C-15.99 6 -16.98 6 -18 6 C-13.15006628 0.18007954 -7.24599232 -0.29575479 0 0 Z " fill="#C8E771" transform="translate(201,8)"/>
<path d="M0 0 C0.99 0 1.98 0 3 0 C1.79403835 4.42185938 0.7477942 7.26122731 -3 10 C-5.92336818 10.12914478 -8.38024615 10.0694249 -11.25 9.75 C-11.99507813 9.68425781 -12.74015625 9.61851562 -13.5078125 9.55078125 C-15.34035965 9.38632189 -17.17052655 9.19571111 -19 9 C-19 8.67 -19 8.34 -19 8 C-13.72 8 -8.44 8 -3 8 C-3 7.34 -3 6.68 -3 6 C-2.34 6 -1.68 6 -1 6 C-0.67 4.02 -0.34 2.04 0 0 Z " fill="#D6EB9E" transform="translate(435,170)"/>
<path d="M0 0 C0.33 0 0.66 0 1 0 C1.55984477 4.81285909 -0.3304738 7.80027399 -2.875 11.6875 C-3.23980469 12.26822266 -3.60460937 12.84894531 -3.98046875 13.44726562 C-5.5096118 15.8521906 -6.97940008 17.97940008 -9 20 C-9.33 18.68 -9.66 17.36 -10 16 C-9.34 16 -8.68 16 -8 16 C-8 15.34 -8 14.68 -8 14 C-7.34 14 -6.68 14 -6 14 C-6 12.68 -6 11.36 -6 10 C-5.34 10 -4.68 10 -4 10 C-4 8.68 -4 7.36 -4 6 C-3.34 6 -2.68 6 -2 6 C-2 4.68 -2 3.36 -2 2 C-1.34 2 -0.68 2 0 2 C0 1.34 0 0.68 0 0 Z " fill="#CBE87B" transform="translate(505,49)"/>
<path d="M0 0 C8.58 0 17.16 0 26 0 C26 0.33 26 0.66 26 1 C18.41 1.33 10.82 1.66 3 2 C3.33 3.98 3.66 5.96 4 8 C2 6.25 2 6.25 0 4 C0 2.68 0 1.36 0 0 Z " fill="#BFDD76" transform="translate(6,49)"/>
<path d="M0 0 C-1 1 -1 1 -3.5625 1.0625 C-4.7690625 1.0315625 -4.7690625 1.0315625 -6 1 C-6.268125 1.598125 -6.53625 2.19625 -6.8125 2.8125 C-8 5 -8 5 -9.5 6.4375 C-11.39903312 8.4156595 -12.09899031 10.43558782 -13 13 C-13.66 13 -14.32 13 -15 13 C-13.48504143 7.23576739 -12.37140099 3.2228406 -7 0 C-3.86650268 -1.04449911 -3.01031744 -0.93423645 0 0 Z " fill="#CCE87D" transform="translate(287,300)"/>
<path d="M0 0 C1.65 0 3.3 0 5 0 C5.33 0.99 5.66 1.98 6 3 C6.804375 3.309375 7.60875 3.61875 8.4375 3.9375 C11.52687989 5.21846239 11.60554892 6.11813443 13 9 C15.05000871 9.80528889 15.05000871 9.80528889 17 10 C16.01 10.33 15.02 10.66 14 11 C11.73828125 9.85546875 11.73828125 9.85546875 9.3125 8.1875 C8.50425781 7.64480469 7.69601563 7.10210937 6.86328125 6.54296875 C6.24839844 6.03378906 5.63351563 5.52460938 5 5 C5 4.34 5 3.68 5 3 C2.525 2.01 2.525 2.01 0 1 C0 0.67 0 0.34 0 0 Z " fill="#D0EA88" transform="translate(186,266)"/>
<path d="M0 0 C2.64 0 5.28 0 8 0 C8 0.66 8 1.32 8 2 C8.66 2 9.32 2 10 2 C10 2.66 10 3.32 10 4 C10.99 4.33 11.98 4.66 13 5 C13 5.99 13 6.98 13 8 C7.73691968 6.58795406 4.2437012 4.31008693 0 1 C0 0.67 0 0.34 0 0 Z " fill="#CAEA73" transform="translate(214,250)"/>
<path d="M0 0 C0.66 0 1.32 0 2 0 C3 1 4 2 5 3 C5.66 3 6.32 3 7 3 C7 3.66 7 4.32 7 5 C7.99 5.33 8.98 5.66 10 6 C10.12375 6.804375 10.2475 7.60875 10.375 8.4375 C10.58125 9.283125 10.7875 10.12875 11 11 C11.66 11.33 12.32 11.66 13 12 C12.67 12.66 12.34 13.32 12 14 C7.76014063 9.88862122 3.72154258 5.59026002 0 1 C0 0.67 0 0.34 0 0 Z " fill="#D5EF8F" transform="translate(194,230)"/>
<path d="M0 0 C1.08062462 3.24187386 0.96405231 3.89709861 0.00390625 7.01171875 C-0.33930664 8.14770508 -0.33930664 8.14770508 -0.68945312 9.30664062 C-0.93630859 10.09232422 -1.18316406 10.87800781 -1.4375 11.6875 C-1.68048828 12.48478516 -1.92347656 13.28207031 -2.17382812 14.10351562 C-2.77479738 16.07139534 -3.3863905 18.03602495 -4 20 C-5.68292879 14.95121364 -5.31187125 8.80505805 -3.0390625 3.9453125 C-1.9375 2.3125 -1.9375 2.3125 0 0 Z " fill="#CFEA83" transform="translate(319,63)"/>
<path d="M0 0 C0.99 0.33 1.98 0.66 3 1 C1.52520827 3.50267687 0.04544936 6.00216421 -1.4375 8.5 C-1.85837891 9.21542969 -2.27925781 9.93085938 -2.71289062 10.66796875 C-3.78084102 12.46212541 -4.88734761 14.23321738 -6 16 C-6.33 16 -6.66 16 -7 16 C-7 14.02 -7 12.04 -7 10 C-6.01 10 -5.02 10 -4 10 C-4 8.68 -4 7.36 -4 6 C-3.34 6 -2.68 6 -2 6 C-1.855625 5.38125 -1.71125 4.7625 -1.5625 4.125 C-1 2 -1 2 0 0 Z " fill="#D1EB84" transform="translate(359,273)"/>
<path d="M0 0 C0.66 0.33 1.32 0.66 2 1 C-3.0022779 11.74259681 -3.0022779 11.74259681 -7 15 C-6.5020163 11.26512223 -6.12508244 9.18762365 -4 6 C-3.855625 5.319375 -3.71125 4.63875 -3.5625 3.9375 C-3 2 -3 2 0 0 Z " fill="#CDE97C" transform="translate(350,232)"/>
<path d="M0 0 C4.34052536 4.34052536 6.22632997 11.23557241 8 17 C7.01 17 6.02 17 5 17 C4.34 14.69 3.68 12.38 3 10 C2.34 10 1.68 10 1 10 C0.67 6.7 0.34 3.4 0 0 Z " fill="#D0EA8C" transform="translate(146,227)"/>
<path d="M0 0 C0.66 0.33 1.32 0.66 2 1 C0.23080775 3.28520666 -1.13364678 4.80486025 -4.01171875 5.453125 C-6.00459016 5.66779697 -8.00229938 5.83625405 -10 6 C-10.33 6.33 -10.66 6.66 -11 7 C-13.67058851 7.14115161 -16.32432238 7.04247107 -19 7 C-19 6.67 -19 6.34 -19 6 C-18.04738281 5.73445313 -17.09476562 5.46890625 -16.11328125 5.1953125 C-14.85902344 4.84210938 -13.60476563 4.48890625 -12.3125 4.125 C-11.07113281 3.77695312 -9.82976562 3.42890625 -8.55078125 3.0703125 C-5.07892864 2.09248968 -5.07892864 2.09248968 -2.16796875 0.8046875 C-1.45253906 0.53914063 -0.73710937 0.27359375 0 0 Z " fill="#D4EA8B" transform="translate(294,264)"/>
<path d="M0 0 C2.64 0 5.28 0 8 0 C8 0.99 8 1.98 8 3 C1.93303301 3.77040851 -3.88514973 4.09706112 -10 4 C-8 2 -8 2 -6.0546875 1.8046875 C-4.03645833 1.86979167 -2.01822917 1.93489583 0 2 C0 1.34 0 0.68 0 0 Z " fill="#C9E97C" transform="translate(292,261)"/>
<path d="M0 0 C1 2 1 2 0.07421875 5.1875 C-0.38009848 6.46118703 -0.84270657 7.7319397 -1.3125 9 C-1.53873047 9.64195312 -1.76496094 10.28390625 -1.99804688 10.9453125 C-3.04046079 13.8172079 -3.81462202 15.81462202 -6 18 C-6 15.03 -6 12.06 -6 9 C-5.01 9 -4.02 9 -3 9 C-3 7.02 -3 5.04 -3 3 C-2.34 3 -1.68 3 -1 3 C-0.67 2.01 -0.34 1.02 0 0 Z " fill="#D1EC85" transform="translate(358,214)"/>
<path d="M0 0 C0.66 0 1.32 0 2 0 C1.42415568 2.38564077 0.77772405 4.66682784 0 7 C-0.66 7 -1.32 7 -2 7 C-2.28875 7.969375 -2.5775 8.93875 -2.875 9.9375 C-4 13 -4 13 -6 14 C-6 12.02 -6 10.04 -6 8 C-4.68 7.34 -3.36 6.68 -2 6 C-2 4.68 -2 3.36 -2 2 C-1.34 2 -0.68 2 0 2 C0 1.34 0 0.68 0 0 Z " fill="#C8E871" transform="translate(463,122)"/>
<path d="M0 0 C-1 3 -1 3 -4 4.6875 C-8.30110524 6.40436529 -12.43709444 6.27936157 -17 6 C-13.87247409 4.35471386 -10.6946943 3.08297501 -7.375 1.875 C-6.41335938 1.52179688 -5.45171875 1.16859375 -4.4609375 0.8046875 C-2 0 -2 0 0 0 Z " fill="#D0EB85" transform="translate(304,293)"/>
<path d="M0 0 C0.33 0 0.66 0 1 0 C1.02712066 1.43739513 1.04645067 2.87493863 1.0625 4.3125 C1.07410156 5.11300781 1.08570313 5.91351563 1.09765625 6.73828125 C1 9 1 9 0 12 C0.66 12 1.32 12 2 12 C3.625 14.5 3.625 14.5 5 17 C2.50638429 15.79618552 0.31856917 14.54571278 -2 13 C-2.46271324 8.18778226 -1.74817615 4.47970138 0 0 Z " fill="#CEEA84" transform="translate(328,72)"/>
<path d="M0 0 C0.66 0 1.32 0 2 0 C1.37240135 2.92879371 0.41377341 5.36095629 -1 8 C-1.66 8 -2.32 8 -3 8 C-3.12375 8.598125 -3.2475 9.19625 -3.375 9.8125 C-4 12 -4 12 -6 15 C-6 13.02 -6 11.04 -6 9 C-5.34 9 -4.68 9 -4 9 C-3.67 7.02 -3.34 5.04 -3 3 C-2.01 2.67 -1.02 2.34 0 2 C0 1.34 0 0.68 0 0 Z " fill="#CBE97C" transform="translate(287,427)"/>
<path d="M0 0 C0.66 0 1.32 0 2 0 C2.66 2.31 3.32 4.62 4 7 C5.32 7 6.64 7 8 7 C7.67 8.65 7.34 10.3 7 12 C7.66 12 8.32 12 9 12 C9.33 12.99 9.66 13.98 10 15 C9.01 15 8.02 15 7 15 C5.17578125 12.48046875 5.17578125 12.48046875 3.3125 9.1875 C2.37857422 7.56908203 2.37857422 7.56908203 1.42578125 5.91796875 C0 3 0 3 0 0 Z " fill="#CFEB83" transform="translate(147,265)"/>
<path d="M0 0 C1.0326802 2.78823655 1.04509293 3.8677274 0.0625 6.75 C-0.288125 7.4925 -0.63875 8.235 -1 9 C-1.66 9 -2.32 9 -3 9 C-3.12375 9.763125 -3.2475 10.52625 -3.375 11.3125 C-4 14 -4 14 -6 17 C-6.99 16.67 -7.98 16.34 -9 16 C-8.43410156 15.01257813 -7.86820312 14.02515625 -7.28515625 13.0078125 C-6.54424241 11.71355794 -5.80335855 10.41928621 -5.0625 9.125 C-4.68931641 8.47402344 -4.31613281 7.82304687 -3.93164062 7.15234375 C-1.89866922 3.61253166 -1.89866922 3.61253166 0 0 Z " fill="#D3EC8E" transform="translate(362,235)"/>
<path d="M0 0 C2 0 4 0 6 0 C6.95024979 3.69541586 6.95024979 6.30458414 6 10 C3.38275905 7.63202009 1.67138271 5.10399646 0 2 C0 1.34 0 0.68 0 0 Z " fill="#CBEB77" transform="translate(136,247)"/>
<path d="M0 0 C0.99 0 1.98 0 3 0 C3 0.99 3 1.98 3 3 C3.66 3 4.32 3 5 3 C5.4125 3.94875 5.825 4.8975 6.25 5.875 C7.65955351 9.07852706 7.65955351 9.07852706 10.125 10.0625 C10.74375 10.371875 11.3625 10.68125 12 11 C12.75 13.625 12.75 13.625 13 16 C12.34 15.67 11.68 15.34 11 15 C11 14.34 11 13.68 11 13 C10.34 13 9.68 13 9 13 C9 12.34 9 11.68 9 11 C8.01 10.67 7.02 10.34 6 10 C4.39453125 8.22265625 4.39453125 8.22265625 2.8125 6.0625 C2.28269531 5.35222656 1.75289062 4.64195312 1.20703125 3.91015625 C0 2 0 2 0 0 Z " fill="#D2EA8B" transform="translate(168,245)"/>
<path d="M0 0 C0.99 0 1.98 0 3 0 C5.12111639 2.93693038 6.13334065 5.5333626 7 9 C7.66 9.33 8.32 9.66 9 10 C9.625 13.0625 9.625 13.0625 10 16 C7.37893028 13.61435571 5.6768909 11.04238866 3.875 8 C3.35679687 7.13375 2.83859375 6.2675 2.3046875 5.375 C1 3 1 3 0 0 Z " fill="#D1EB88" transform="translate(126,230)"/>
<path d="M0 0 C0.33 0 0.66 0 1 0 C1.33 6.6 1.66 13.2 2 20 C-1.43209368 16.56790632 -1.59904409 11.70799838 -2 7 C-1.63418867 4.39470956 -0.98449752 2.4612438 0 0 Z " fill="#CEE785" transform="translate(182,15)"/>
<path d="M0 0 C0.33 0 0.66 0 1 0 C1.19324053 4.15467129 1.09242143 7.3382625 -1 11 C-3.125 11.8125 -3.125 11.8125 -5 12 C-5 12.99 -5 13.98 -5 15 C-5.66 15 -6.32 15 -7 15 C-5.63408831 11.45756548 -4.09068516 8.07372071 -2.375 4.6875 C-1.70597656 3.36298828 -1.70597656 3.36298828 -1.0234375 2.01171875 C-0.68570312 1.34785156 -0.34796875 0.68398438 0 0 Z " fill="#D2EC85" transform="translate(270,313)"/>
<path d="M0 0 C0.66 0 1.32 0 2 0 C2.83848804 1.45537568 3.67063934 2.91440373 4.5 4.375 C5.19609375 5.59316406 5.19609375 5.59316406 5.90625 6.8359375 C7 9 7 9 7 11 C7.66 11 8.32 11 9 11 C9.33 12.32 9.66 13.64 10 15 C9.01 15.495 9.01 15.495 8 16 C6.66141476 13.71125827 5.32898986 11.41930344 4 9.125 C3.6184375 8.47402344 3.236875 7.82304687 2.84375 7.15234375 C0 2.2265625 0 2.2265625 0 0 Z " fill="#CDE97D" transform="translate(234,445)"/>
<path d="M0 0 C0.99 0.33 1.98 0.66 3 1 C3.73046875 2.84765625 3.73046875 2.84765625 4.1875 5.0625 C4.34605469 5.79597656 4.50460938 6.52945313 4.66796875 7.28515625 C4.83232422 8.13400391 4.83232422 8.13400391 5 9 C5.66 9 6.32 9 7 9 C7 10.32 7 11.64 7 13 C7.66 13.33 8.32 13.66 9 14 C8.67 14.99 8.34 15.98 8 17 C0 5.85714286 0 5.85714286 0 0 Z " fill="#CBE87C" transform="translate(158,226)"/>
<path d="M0 0 C0.66 0 1.32 0 2 0 C0.83795007 6.54849313 -0.73383385 12.74538144 -3 19 C-3.33 19 -3.66 19 -4 19 C-4.29869796 13.22517271 -3.85877606 10.14579692 -1 5 C-0.30092586 2.26427415 -0.30092586 2.26427415 0 0 Z " fill="#CAE87C" transform="translate(327,32)"/>
<path d="M0 0 C1.875 0.25 1.875 0.25 4 1 C6.02755186 3.93995019 6 5.27704003 6 9 C6.66 9 7.32 9 8 9 C8.33 10.32 8.66 11.64 9 13 C8.01 13.495 8.01 13.495 7 14 C6.01780373 12.23084525 5.03934641 10.45961431 4.0625 8.6875 C3.51722656 7.70136719 2.97195312 6.71523438 2.41015625 5.69921875 C1 3 1 3 0 0 Z " fill="#CDE981" transform="translate(205,396)"/>
<path d="M0 0 C0.33 0.66 0.66 1.32 1 2 C1.66 2.33 2.32 2.66 3 3 C0 7 -3 11 -6 15 C-6.66 14.67 -7.32 14.34 -8 14 C-7.6875 12.0625 -7.6875 12.0625 -7 10 C-6.01 9.67 -5.02 9.34 -4 9 C-3.67 8.34 -3.34 7.68 -3 7 C-2.34 7 -1.68 7 -1 7 C-0.67 4.69 -0.34 2.38 0 0 Z " fill="#D0EA81" transform="translate(340,245)"/>
<path d="M0 0 C0.99 0 1.98 0 3 0 C2.31238981 3.65564909 0.74550455 6.51867272 -1.0625 9.75 C-1.61035156 10.73484375 -2.15820312 11.7196875 -2.72265625 12.734375 C-3.14417969 13.48203125 -3.56570313 14.2296875 -4 15 C-4.33 15 -4.66 15 -5 15 C-5 13.35 -5 11.7 -5 10 C-4.34 9.67 -3.68 9.34 -3 9 C-3 7.68 -3 6.36 -3 5 C-2.01 5 -1.02 5 0 5 C0 3.35 0 1.7 0 0 Z " fill="#D1EC8D" transform="translate(454,136)"/>
<path d="M0 0 C2.64 0.33 5.28 0.66 8 1 C8 1.66 8 2.32 8 3 C9.093125 2.938125 10.18625 2.87625 11.3125 2.8125 C15 3 15 3 16.9375 4.5 C17.288125 4.995 17.63875 5.49 18 6 C11.38914524 5.51030705 6.05022986 3.66557258 0 1 C0 0.67 0 0.34 0 0 Z " fill="#D0EB82" transform="translate(216,284)"/>
<path d="M0 0 C0.66 0 1.32 0 2 0 C0.53967505 5.31027254 -1.98320986 9.46330032 -5 14 C-5.66 12.68 -6.32 11.36 -7 10 C-6.319375 9.38125 -6.319375 9.38125 -5.625 8.75 C-3.94049626 6.93591905 -3.00734029 5.24714373 -2 3 C-1.34 3 -0.68 3 0 3 C0 2.01 0 1.02 0 0 Z " fill="#D0EA88" transform="translate(384,230)"/>
<path d="M0 0 C0.66 0 1.32 0 2 0 C1.37183502 3.94949704 0.1354471 7.19892028 -1.5625 10.8125 C-2.01753906 11.78832031 -2.47257813 12.76414063 -2.94140625 13.76953125 C-3.29074219 14.50558594 -3.64007813 15.24164063 -4 16 C-4.97591583 12.61682513 -4.85856655 10.4342662 -4 7 C-3.34 7 -2.68 7 -2 7 C-1.34 4.69 -0.68 2.38 0 0 Z " fill="#CDE97C" transform="translate(181,132)"/>
<path d="M0 0 C2.31 0 4.62 0 7 0 C7.33 1.65 7.66 3.3 8 5 C8.66 5 9.32 5 10 5 C10 5.99 10 6.98 10 8 C6.05205855 6.32971708 3.18203882 3.8204435 0 1 C0 0.67 0 0.34 0 0 Z " fill="#CEEC81" transform="translate(333,90)"/>
<path d="M0 0 C0.99 0.33 1.98 0.66 3 1 C1.85865673 3.00256574 0.71181367 5.00199797 -0.4375 7 C-1.39462891 8.670625 -1.39462891 8.670625 -2.37109375 10.375 C-2.90863281 11.24125 -3.44617188 12.1075 -4 13 C-4.33 13 -4.66 13 -5 13 C-4.67 10.69 -4.34 8.38 -4 6 C-3.34 6 -2.68 6 -2 6 C-2 5.01 -2 4.02 -2 3 C-1.34 3 -0.68 3 0 3 C0 2.01 0 1.02 0 0 Z " fill="#D0EA82" transform="translate(273,451)"/>
<path d="M0 0 C1.32 0.33 2.64 0.66 4 1 C4 1.66 4 2.32 4 3 C4.66 3 5.32 3 6 3 C6.99 5.64 7.98 8.28 9 11 C8.01 11 7.02 11 6 11 C6 10.01 6 9.02 6 8 C5.34 8 4.68 8 4 8 C2.68 5.36 1.36 2.72 0 0 Z " fill="#CDE783" transform="translate(173,312)"/>
<path d="M0 0 C0.66 0.33 1.32 0.66 2 1 C1.01 2.485 1.01 2.485 0 4 C-0.66 4 -1.32 4 -2 4 C-2.66 5.32 -3.32 6.64 -4 8 C-5.65 8 -7.3 8 -9 8 C-9 7.34 -9 6.68 -9 6 C-7.2421875 5.0234375 -5.484375 4.046875 -3.7265625 3.0703125 C-1.8387386 1.99102726 -1.8387386 1.99102726 0 0 Z " fill="#CCE880" transform="translate(326,279)"/>
<path d="M0 0 C0.33 0 0.66 0 1 0 C1.18104171 5.25020948 0.91684603 9.03875144 -1 14 C-1.34976758 15.32911682 -1.69096017 16.66082739 -2 18 C-2.66 18 -3.32 18 -4 18 C-3.35155914 13.80716882 -2.48783354 9.73500079 -1.4375 5.625 C-1.16808594 4.56539062 -0.89867187 3.50578125 -0.62109375 2.4140625 C-0.31365234 1.21910156 -0.31365234 1.21910156 0 0 Z " fill="#D1EB86" transform="translate(371,208)"/>
<path d="M0 0 C0 0.66 0 1.32 0 2 C-0.99 2 -1.98 2 -3 2 C-3 2.66 -3 3.32 -3 4 C-5.75 6.6875 -5.75 6.6875 -9 9 C-11.375 8.8125 -11.375 8.8125 -13 8 C-9.25 5 -9.25 5 -7 5 C-7 4.34 -7 3.68 -7 3 C-6.01 3 -5.02 3 -4 3 C-4 2.34 -4 1.68 -4 1 C-2 0 -2 0 0 0 Z " fill="#CFEB86" transform="translate(199,92)"/>
<path d="M0 0 C0.66 0 1.32 0 2 0 C2.13277344 0.78246094 2.26554688 1.56492187 2.40234375 2.37109375 C2.57894531 3.38300781 2.75554687 4.39492187 2.9375 5.4375 C3.11152344 6.44683594 3.28554687 7.45617187 3.46484375 8.49609375 C3.74751097 10.9287438 3.74751097 10.9287438 5 12 C5.04080783 13.99958364 5.04254356 16.00045254 5 18 C3.03723564 15.05585347 2.28266038 12.94101364 1.375 9.5625 C0.98441406 8.14130859 0.98441406 8.14130859 0.5859375 6.69140625 C0 4 0 4 0 0 Z " fill="#D5ED8F" transform="translate(193,64)"/>
<path d="M0 0 C1 3 1 3 -0.1796875 5.48046875 C-1.01886719 6.82044922 -1.01886719 6.82044922 -1.875 8.1875 C-2.42929687 9.08855469 -2.98359375 9.98960937 -3.5546875 10.91796875 C-4.03164063 11.60503906 -4.50859375 12.29210937 -5 13 C-5.33 13 -5.66 13 -6 13 C-5.67 10.69 -5.34 8.38 -5 6 C-4.01 6 -3.02 6 -2 6 C-2 4.35 -2 2.7 -2 1 C-1.34 0.67 -0.68 0.34 0 0 Z " fill="#CDE97A" transform="translate(309,390)"/>
<path d="M0 0 C0.95465783 2.16967689 1.14401212 3.56328793 0.3984375 5.82421875 C-0.35870385 7.5684743 -1.17609198 9.28627131 -2 11 C-2.66 11 -3.32 11 -4 11 C-4 11.66 -4 12.32 -4 13 C-4.66 12.67 -5.32 12.34 -6 12 C-4.25807076 7.76960042 -2.46440486 3.8726362 0 0 Z " fill="#CDE780" transform="translate(262,328)"/>
<path d="M0 0 C3.48872415 1.16290805 4.09976864 2.13967609 6.1875 5.0625 C6.71730469 5.79597656 7.24710938 6.52945312 7.79296875 7.28515625 C8.19128906 7.85105469 8.58960938 8.41695313 9 9 C6.1875 8.875 6.1875 8.875 3 8 C1.26090967 5.27542515 0 3.27517534 0 0 Z " fill="#CAE878" transform="translate(168,264)"/>
<path d="M0 0 C0.99 0 1.98 0 3 0 C4.625 2.5 4.625 2.5 6 5 C6.33 5 6.66 5 7 5 C7.33 7.64 7.66 10.28 8 13 C5.27324841 10.59310197 3.88033404 8.07528977 2.3125 4.8125 C1.65701172 3.46091797 1.65701172 3.46091797 0.98828125 2.08203125 C0.66214844 1.39496094 0.33601563 0.70789063 0 0 Z " fill="#CFEA7E" transform="translate(52,131)"/>
<path d="M0 0 C0.66 0 1.32 0 2 0 C2 0.66 2 1.32 2 2 C2.66 2 3.32 2 4 2 C4 3.32 4 4.64 4 6 C4.66 6 5.32 6 6 6 C6.66 8.31 7.32 10.62 8 13 C7.34 13 6.68 13 6 13 C4.4921875 10.91796875 4.4921875 10.91796875 2.875 8.1875 C2.33617187 7.29417969 1.79734375 6.40085937 1.2421875 5.48046875 C0 3 0 3 0 0 Z " fill="#CEEA83" transform="translate(29,90)"/>
<path d="M0 0 C1.55347992 4.14261313 0.88763731 7.76665282 0 12 C-2.05078125 13.2421875 -2.05078125 13.2421875 -4 14 C-3.52372025 12.04096255 -3.04388577 10.08278903 -2.5625 8.125 C-2.29566406 7.03445312 -2.02882813 5.94390625 -1.75390625 4.8203125 C-1 2 -1 2 0 0 Z " fill="#CCE77A" transform="translate(299,56)"/>
<path d="M0 0 C2.375 0.25 2.375 0.25 5 1 C6.3125 3.0625 6.3125 3.0625 7 5 C7.66 5 8.32 5 9 5 C9 5.66 9 6.32 9 7 C8.01 7 7.02 7 6 7 C5.67 6.34 5.34 5.68 5 5 C2.47266765 4.34444881 2.47266765 4.34444881 0 4 C0 2.68 0 1.36 0 0 Z " fill="#CAE97B" transform="translate(320,8)"/>
<path d="M0 0 C0.66 0.33 1.32 0.66 2 1 C1.20890398 2.27118864 0.41709922 3.54193623 -0.375 4.8125 C-0.81585938 5.52019531 -1.25671875 6.22789062 -1.7109375 6.95703125 C-2.78188476 8.65432039 -3.88676239 10.33014358 -5 12 C-4.64989059 3.64989059 -4.64989059 3.64989059 -1.9375 0.9375 C-1.298125 0.628125 -0.65875 0.31875 0 0 Z " fill="#D0E981" transform="translate(329,356)"/>
<path d="M0 0 C2.03833424 1.2739589 4.03852126 2.61061923 6 4 C6 4.66 6 5.32 6 6 C8.475 6.99 8.475 6.99 11 8 C10.01 8.66 9.02 9.32 8 10 C7.38125 9.2884375 7.38125 9.2884375 6.75 8.5625 C4.817815 6.83733482 3.51807725 6.43415125 1 6 C0.67 4.02 0.34 2.04 0 0 Z " fill="#CDEA84" transform="translate(194,247)"/>
<path d="M0 0 C0.66 0 1.32 0 2 0 C2.12117187 0.63808594 2.24234375 1.27617187 2.3671875 1.93359375 C2.53476563 2.75988281 2.70234375 3.58617187 2.875 4.4375 C3.03742188 5.26121094 3.19984375 6.08492187 3.3671875 6.93359375 C3.57601562 7.61550781 3.78484375 8.29742187 4 9 C4.66 9.33 5.32 9.66 6 10 C5.34 10.66 4.68 11.32 4 12 C-0.57142857 4.71428571 -0.57142857 4.71428571 0 0 Z " fill="#C9EA76" transform="translate(187,214)"/>
<path d="M0 0 C0.99 0.33 1.98 0.66 3 1 C3 1.66 3 2.32 3 3 C4.32 3.66 5.64 4.32 7 5 C7 5.66 7 6.32 7 7 C6.34 7 5.68 7 5 7 C4.67 7.66 4.34 8.32 4 9 C0 2.25 0 2.25 0 0 Z " fill="#CBEA7C" transform="translate(111,203)"/>
<path d="M0 0 C1.56393356 3.97376829 0.36145292 6.81377903 -0.9375 10.75 C-1.31777344 11.92046875 -1.69804687 13.0909375 -2.08984375 14.296875 C-2.39019531 15.18890625 -2.69054687 16.0809375 -3 17 C-3.66 17 -4.32 17 -5 17 C-4.54619105 15.10307857 -4.08675008 13.20750405 -3.625 11.3125 C-3.36976563 10.25675781 -3.11453125 9.20101562 -2.8515625 8.11328125 C-2.08094511 5.29593234 -1.14501457 2.68331675 0 0 Z " fill="#D7ED98" transform="translate(157,142)"/>
<path d="M0 0 C0.66 0 1.32 0 2 0 C2 0.66 2 1.32 2 2 C2.99 2 3.98 2 5 2 C5.20496094 2.62648438 5.40992188 3.25296875 5.62109375 3.8984375 C5.89050781 4.71570313 6.15992188 5.53296875 6.4375 6.375 C6.83775391 7.59316406 6.83775391 7.59316406 7.24609375 8.8359375 C7.95179729 11.01031799 7.95179729 11.01031799 9 13 C6 12 6 12 4.90234375 10.29296875 C4.58394531 9.59816406 4.26554687 8.90335938 3.9375 8.1875 C3.45603516 7.15689453 3.45603516 7.15689453 2.96484375 6.10546875 C2.64644531 5.41066406 2.32804687 4.71585937 2 4 C1.33795091 2.66436786 0.67263898 1.33033042 0 0 Z " fill="#D1EC86" transform="translate(351,109)"/>
<path d="M0 0 C2 1.375 2 1.375 4 3 C4 3.66 4 4.32 4 5 C4.99 5.33 5.98 5.66 7 6 C8.1875 8.0625 8.1875 8.0625 9 10 C7.68 9.67 6.36 9.34 5 9 C5 8.34 5 7.68 5 7 C4.360625 6.773125 3.72125 6.54625 3.0625 6.3125 C1 5 1 5 0.25 2.375 C0.1675 1.59125 0.085 0.8075 0 0 Z " fill="#CAE778" transform="translate(330,101)"/>
<path d="M0 0 C2.475 0.99 2.475 0.99 5 2 C5 2.66 5 3.32 5 4 C5.9590625 4.433125 5.9590625 4.433125 6.9375 4.875 C9 6 9 6 10 8 C7.69 7.67 5.38 7.34 3 7 C2.87625 6.360625 2.7525 5.72125 2.625 5.0625 C2.315625 4.0415625 2.315625 4.0415625 2 3 C1.34 2.67 0.68 2.34 0 2 C0 1.34 0 0.68 0 0 Z " fill="#D0E97B" transform="translate(320,93)"/>
<path d="M0 0 C3.28670403 3.28670403 5 7.35868331 5 12 C2.368276 9.54372427 0.18472737 7.44647963 -1 4 C-0.625 1.75 -0.625 1.75 0 0 Z " fill="#D3EA8F" transform="translate(181,350)"/>
<path d="M0 0 C0.99 0.33 1.98 0.66 3 1 C3.33 2.98 3.66 4.96 4 7 C4.99 7.33 5.98 7.66 7 8 C6.67 9.32 6.34 10.64 6 12 C4.99157547 10.56839732 3.99352109 9.12948547 3 7.6875 C2.1646875 6.48673828 2.1646875 6.48673828 1.3125 5.26171875 C0 3 0 3 0 0 Z " fill="#D0EC81" transform="translate(181,324)"/>
<path d="M0 0 C2.38672669 2.96283313 4.7353371 5.94270509 7 9 C6.67 9.66 6.34 10.32 6 11 C3.5625 10 3.5625 10 1 8 C0.23618519 5.27285838 0.14057352 2.85832822 0 0 Z " fill="#D3ED8A" transform="translate(154,244)"/>
<path d="M0 0 C0.91330404 3.03050885 1.06558338 5.47968569 0.75 8.625 C0.68296875 9.40101563 0.6159375 10.17703125 0.546875 10.9765625 C0 13 0 13 -3 15 C-2.5547115 9.72684667 -1.91626837 4.98229776 0 0 Z " fill="#D3E987" transform="translate(183,147)"/>
<path d="M0 0 C0.66 0 1.32 0 2 0 C0.31326082 4.49797113 -1.81673892 8.72886302 -4 13 C-4.33 13 -4.66 13 -5 13 C-5 11.35 -5 9.7 -5 8 C-4.01 7.67 -3.02 7.34 -2 7 C-2 5.35 -2 3.7 -2 2 C-1.34 2 -0.68 2 0 2 C0 1.34 0 0.68 0 0 Z " fill="#D2EA7E" transform="translate(473,105)"/>
<path d="M0 0 C2.475 0.495 2.475 0.495 5 1 C4.67 2.65 4.34 4.3 4 6 C4.99 6.33 5.98 6.66 7 7 C6.34 8.32 5.68 9.64 5 11 C4.16426177 9.35538655 3.33147118 7.70927487 2.5 6.0625 C2.0359375 5.14597656 1.571875 4.22945313 1.09375 3.28515625 C0 1 0 1 0 0 Z " fill="#D3EC85" transform="translate(166,299)"/>
<path d="M0 0 C1.79206547 0.14084796 3.58364917 0.28783701 5.375 0.4375 C6.87160156 0.55931641 6.87160156 0.55931641 8.3984375 0.68359375 C11 1 11 1 13 2 C13 2.66 13 3.32 13 4 C8.28596212 3.52060632 4.33420699 3.03165952 0 1 C0 0.67 0 0.34 0 0 Z " fill="#CFEB85" transform="translate(236,262)"/>
<path d="M0 0 C0.66 0 1.32 0 2 0 C4.21854707 4.62197306 5.38281159 7.76824163 5 13 C2.79970166 10.79970166 2.31417391 9.4218744 1.375 6.5 C0.98441406 5.30890625 0.98441406 5.30890625 0.5859375 4.09375 C0 2 0 2 0 0 Z " fill="#D3EB93" transform="translate(153,213)"/>
<path d="M0 0 C0.33 0 0.66 0 1 0 C1.99 4.62 2.98 9.24 4 14 C2.68 13.34 1.36 12.68 0 12 C0 8.04 0 4.08 0 0 Z " fill="#CEEA87" transform="translate(170,200)"/>
<path d="M0 0 C0.99 0 1.98 0 3 0 C2.34 1.98 1.68 3.96 1 6 C0.34 6 -0.32 6 -1 6 C-1.33 7.32 -1.66 8.64 -2 10 C-2.93423645 6.98968256 -3.04449911 6.13349732 -2 3 C-1.34 3 -0.68 3 0 3 C0 2.01 0 1.02 0 0 Z " fill="#C9E978" transform="translate(389,220)"/>
<path d="M0 0 C0.33 0 0.66 0 1 0 C1.4726477 8.19256018 1.4726477 8.19256018 -0.5 11.5625 C-0.995 12.036875 -1.49 12.51125 -2 13 C-2.66 12.67 -3.32 12.34 -4 12 C-3.79503906 11.46890625 -3.59007812 10.9378125 -3.37890625 10.390625 C-3.10949219 9.68421875 -2.84007812 8.9778125 -2.5625 8.25 C-2.29566406 7.55390625 -2.02882813 6.8578125 -1.75390625 6.140625 C-1.03853307 4.10940997 -0.48634348 2.0964709 0 0 Z " fill="#CDEA7A" transform="translate(294,71)"/>
<path d="M0 0 C4.62 0.99 9.24 1.98 14 3 C14 3.33 14 3.66 14 4 C4.58997722 4.3690205 4.58997722 4.3690205 0 2 C0 1.34 0 0.68 0 0 Z " fill="#D3EB8F" transform="translate(214,296)"/>
<path d="M0 0 C0.66 0 1.32 0 2 0 C0.55049545 3.7910119 -1.15172566 7.3874638 -3 11 C-4.09658936 7.71023192 -3.79953138 6.28696233 -3 3 C-2.34 3 -1.68 3 -1 3 C-0.67 2.01 -0.34 1.02 0 0 Z " fill="#CFEA84" transform="translate(442,159)"/>
<path d="M0 0 C0.33 0 0.66 0 1 0 C0.50769231 6.52307692 0.50769231 6.52307692 -2.0625 8.9375 C-2.701875 9.288125 -3.34125 9.63875 -4 10 C-3.125 5.25 -3.125 5.25 -2 3 C-1.34 3 -0.68 3 0 3 C0 2.01 0 1.02 0 0 Z " fill="#C9E86F" transform="translate(407,189)"/>
<path d="M0 0 C2.94721162 2.74395564 5.19168608 5.38337216 7 9 C6.67 9.66 6.34 10.32 6 11 C5.01 10.34 4.02 9.68 3 9 C3 7.68 3 6.36 3 5 C2.01 4.67 1.02 4.34 0 4 C0 2.68 0 1.36 0 0 Z " fill="#CAEB83" transform="translate(130,122)"/>
<path d="M0 0 C0.66 0 1.32 0 2 0 C1.375 2.8125 1.375 2.8125 0 6 C-3.125 7.875 -3.125 7.875 -6 9 C-4.4722133 5.56247993 -2.49818944 2.81046312 0 0 Z " fill="#D3EB88" transform="translate(177,109)"/>
<path d="M0 0 C0.28875 0.639375 0.5775 1.27875 0.875 1.9375 C1.82823451 4.15206079 1.82823451 4.15206079 4 5 C4 6.32 4 7.64 4 9 C4.66 9.33 5.32 9.66 6 10 C5.01 10 4.02 10 3 10 C-0.22265625 4.82421875 -0.22265625 4.82421875 -1 3 C-0.67 2.01 -0.34 1.02 0 0 Z " fill="#D1ED88" transform="translate(229,434)"/>
<path d="M0 0 C0.99 0 1.98 0 3 0 C1.83857315 4.35535069 0.92300495 6.64619703 -3 9 C-3 8.01 -3 7.02 -3 6 C-2.34 6 -1.68 6 -1 6 C-0.67 4.02 -0.34 2.04 0 0 Z " fill="#D0E981" transform="translate(435,170)"/>
<path d="M0 0 C-1.62339805 1.70884005 -3.29319053 3.37446717 -5 5 C-5.66 5 -6.32 5 -7 5 C-7.33 5.66 -7.66 6.32 -8 7 C-8 5.68 -8 4.36 -8 3 C-7.34 3 -6.68 3 -6 3 C-6 2.01 -6 1.02 -6 0 C-3 -1 -3 -1 0 0 Z " fill="#D5ED87" transform="translate(177,96)"/>
<path d="M0 0 C3 1 3 1 4.25 3.3125 C5.0275526 6.09873015 4.98726527 7.33438378 4 10 C0 3.375 0 3.375 0 0 Z " fill="#D4EB88" transform="translate(218,417)"/>
<path d="M0 0 C1.98 0 3.96 0 6 0 C5.01 0.495 5.01 0.495 4 1 C3.67 1.66 3.34 2.32 3 3 C2 5 2 5 0 6 C0 4.02 0 2.04 0 0 Z " fill="#D2EB89" transform="translate(188,121)"/>
<path d="M0 0 C1.14881789 3.95123728 0.89779343 6.95992957 0 11 C-0.99 11.66 -1.98 12.32 -3 13 C-2.17812739 8.61667943 -1.09845718 4.32059823 0 0 Z " fill="#CFE880" transform="translate(303,42)"/>
<path d="M0 0 C0.66 0 1.32 0 2 0 C0.66511872 3.59391114 -0.96022723 6.75490696 -3 10 C-4.24546405 7.50907189 -3.7767578 6.58919267 -3 4 C-2.34 4 -1.68 4 -1 4 C-0.67 2.68 -0.34 1.36 0 0 Z " fill="#CEEB85" transform="translate(338,310)"/>
<path d="M0 0 C0.99 0 1.98 0 3 0 C4.85776765 3.13498292 5.20140476 5.37471432 5 9 C2.67527795 6.14693203 1.2491742 3.45925163 0 0 Z " fill="#C9E779" transform="translate(160,288)"/>
<path d="M0 0 C0 1.98 0 3.96 0 6 C-2.97 5.505 -2.97 5.505 -6 5 C-5.34 4.67 -4.68 4.34 -4 4 C-4 3.34 -4 2.68 -4 2 C-1 0 -1 0 0 0 Z " fill="#C8E872" transform="translate(334,274)"/>
<path d="M0 0 C2.64 1.98 5.28 3.96 8 6 C6 7 6 7 3.4375 6.375 C1 5 1 5 0.1875 2.375 C0.125625 1.59125 0.06375 0.8075 0 0 Z " fill="#D2EC7B" transform="translate(177,273)"/>
<path d="M0 0 C0.99 0.66 1.98 1.32 3 2 C1.68 4.31 0.36 6.62 -1 9 C-1.33 9 -1.66 9 -2 9 C-2.125 6.625 -2.125 6.625 -2 4 C-1.34 3.34 -0.68 2.68 0 2 C0 1.34 0 0.68 0 0 Z " fill="#D3ED84" transform="translate(366,259)"/>
<path d="M0 0 C0.33 0 0.66 0 1 0 C1.33 2.64 1.66 5.28 2 8 C0.68 8.33 -0.64 8.66 -2 9 C-1.41196203 5.97580475 -0.77321882 2.98241547 0 0 Z " fill="#CEEA7C" transform="translate(186,138)"/>
<path d="M0 0 C0.625 3.0625 0.625 3.0625 1 6 C0.34 6 -0.32 6 -1 6 C-1.2475 5.38125 -1.495 4.7625 -1.75 4.125 C-3.20628639 1.64931313 -4.37812506 1.04874998 -7 0 C-2.25 -1.125 -2.25 -1.125 0 0 Z " fill="#C9E77A" transform="translate(159,50)"/>
<path d="M0 0 C0.99 0 1.98 0 3 0 C2.39816251 2.02045442 1.72693904 4.02111039 1 6 C0.01 6.495 0.01 6.495 -1 7 C-1.04254356 5.00045254 -1.04080783 2.99958364 -1 1 C-0.67 0.67 -0.34 0.34 0 0 Z " fill="#CCE87F" transform="translate(300,403)"/>
<path d="M0 0 C1.485 0.99 1.485 0.99 3 2 C2.01 4.31 1.02 6.62 0 9 C-0.33 9 -0.66 9 -1 9 C-1.125 2.25 -1.125 2.25 0 0 Z " fill="#CCE981" transform="translate(349,288)"/>
<path d="M0 0 C0.99 0.33 1.98 0.66 3 1 C3.185625 2.2065625 3.185625 2.2065625 3.375 3.4375 C3.58125 4.283125 3.7875 5.12875 4 6 C4.66 6.33 5.32 6.66 6 7 C5.67 7.66 5.34 8.32 5 9 C1.7457985 6.16569547 0.4793247 4.31392226 0 0 Z " fill="#CBE87A" transform="translate(201,235)"/>
<path d="M0 0 C0.66 0.99 1.32 1.98 2 3 C1.34 4.32 0.68 5.64 0 7 C-0.66 7 -1.32 7 -2 7 C-2.33 7.66 -2.66 8.32 -3 9 C-2.44271087 5.65626525 -1.64826111 2.96687001 0 0 Z " fill="#D1EB8D" transform="translate(353,52)"/>
<path d="M0 0 C0.99 0.33 1.98 0.66 3 1 C3.33 3.31 3.66 5.62 4 8 C2 6.25 2 6.25 0 4 C0 2.68 0 1.36 0 0 Z " fill="#CFE78A" transform="translate(6,49)"/>
<path d="M0 0 C0.66 0 1.32 0 2 0 C0.25 5.75 0.25 5.75 -2 8 C-2.33 6.35 -2.66 4.7 -3 3 C-2.01 3 -1.02 3 0 3 C0 2.01 0 1.02 0 0 Z " fill="#CBEA79" transform="translate(261,472)"/>
<path d="M0 0 C4.455 0.99 4.455 0.99 9 2 C9 2.99 9 3.98 9 5 C4.89198233 3.81323934 3.10551666 3.10551666 0 0 Z " fill="#D4EC90" transform="translate(202,277)"/>
<path d="M0 0 C1.65 1.65 3.3 3.3 5 5 C3.0625 5.5625 3.0625 5.5625 1 6 C0 5 0 5 -0.0625 2.4375 C-0.041875 1.633125 -0.02125 0.82875 0 0 Z " fill="#CDE97A" transform="translate(187,239)"/>
<path d="M0 0 C0.66 0 1.32 0 2 0 C1.42415568 2.38564077 0.77772405 4.66682784 0 7 C-0.66 7 -1.32 7 -2 7 C-2 5.35 -2 3.7 -2 2 C-1.34 2 -0.68 2 0 2 C0 1.34 0 0.68 0 0 Z " fill="#CDEA86" transform="translate(463,122)"/>
<path d="M0 0 C0.33 1.32 0.66 2.64 1 4 C-0.98 4.99 -2.96 5.98 -5 7 C-5 6.34 -5 5.68 -5 5 C-4.34 5 -3.68 5 -3 5 C-2.5359375 4.0409375 -2.5359375 4.0409375 -2.0625 3.0625 C-1 1 -1 1 0 0 Z " fill="#CDE784" transform="translate(201,116)"/>
<path d="M0 0 C0.99 0.33 1.98 0.66 3 1 C3 1.99 3 2.98 3 4 C3.99 4.33 4.98 4.66 6 5 C5.67 6.32 5.34 7.64 5 9 C4.16396622 7.68921847 3.3312426 6.37632511 2.5 5.0625 C2.0359375 4.33160156 1.571875 3.60070312 1.09375 2.84765625 C0 1 0 1 0 0 Z " fill="#D6EC8E" transform="translate(42,114)"/>
<path d="M0 0 C1.485 0.99 1.485 0.99 3 2 C3.40843923 4.71203652 3.13336867 7.2437142 3 10 C1.11608215 6.73454239 0.50712033 3.71888239 0 0 Z " fill="#CEEB87" transform="translate(186,42)"/>
</svg>
