<?xml version="1.0" encoding="UTF-8"?>
<svg version="1.1" xmlns="http://www.w3.org/2000/svg" width="1024" height="1024">
<path d="M0 0 C337.92 0 675.84 0 1024 0 C1024 337.92 1024 675.84 1024 1024 C686.08 1024 348.16 1024 0 1024 C0 686.08 0 348.16 0 0 Z " fill="#FEFEFE" transform="translate(0,0)"/>
<path d="M0 0 C2.98384627 0.01078351 5.96709895 0.00001952 8.95092773 -0.01269531 C10.87085092 -0.01137462 12.79077374 -0.00881408 14.71069336 -0.00488281 C15.59106766 -0.00893127 16.47144196 -0.01297974 17.37849426 -0.01715088 C26.86636704 0.05419722 34.2679499 2.09607141 41.65991211 8.26074219 C47.42426207 14.48679979 49.15425816 21.06840554 48.97241211 29.45605469 C48.12302824 37.07927491 43.73381046 43.67286452 38.65991211 49.26074219 C32.99465965 53.50968153 27.08583645 54.5036771 20.12084961 54.56933594 C18.64851137 54.59188158 17.17618079 54.6149312 15.70385742 54.63842773 C14.9412561 54.64756195 14.17865479 54.65669617 13.39294434 54.66610718 C-0.3673991 54.85363166 -13.8527668 55.29770175 -27.34008789 58.26074219 C-28.24049805 58.45796875 -29.1409082 58.65519531 -30.06860352 58.85839844 C-76.71287265 69.42055836 -120.38326965 97.10247453 -146.33618164 137.92089844 C-174.58565023 183.36300687 -176.56409818 229.60695315 -176.88269043 281.75689697 C-176.93533782 290.2009898 -177.00059773 298.64497562 -177.07090569 307.08893776 C-177.093305 309.99553584 -177.10983733 312.90212117 -177.12562561 315.8087616 C-177.64872563 393.12130531 -199.43568614 467.80077911 -251.34008789 526.26074219 C-251.80592285 526.7936084 -252.27175781 527.32647461 -252.75170898 527.87548828 C-257.29872241 533.06218976 -261.80500858 538.1173914 -267.21118164 542.42871094 C-268.17930786 543.20589478 -268.17930786 543.20589478 -269.16699219 543.9987793 C-270.41525408 544.98017905 -271.6831297 545.93731072 -272.97216797 546.86450195 C-275.64462306 548.95222765 -277.16444004 550.18278155 -277.72485352 553.62207031 C-277.7301288 555.87109968 -277.61751893 558.03019664 -277.34008789 560.26074219 C-274.50442843 561.86230707 -272.47574788 562.51081434 -269.22510004 562.51144052 C-268.40725505 562.51644755 -267.58941006 562.52145459 -266.74678189 562.52661335 C-265.85197816 562.52193102 -264.95717443 562.51724869 -264.03525543 562.51242447 C-263.07790731 562.51533135 -262.12055919 562.51823823 -261.13420051 562.5212332 C-257.90153801 562.52857671 -254.66906273 562.52156959 -251.43640137 562.51470947 C-249.10528672 562.51701218 -246.77417279 562.52018742 -244.4430604 562.52416396 C-238.69254611 562.53166648 -232.9420871 562.52980948 -227.19157201 562.52406243 C-220.30549432 562.51769689 -213.41943793 562.52290727 -206.5333613 562.52848626 C-193.0407911 562.53903037 -179.54823981 562.53809993 -166.0556678 562.53232843 C-154.24827622 562.52730241 -142.44089158 562.52598154 -130.63349915 562.52837372 C-129.85106867 562.52852649 -129.0686382 562.52867926 -128.26249771 562.52883666 C-125.0865627 562.52945931 -121.91062769 562.53009611 -118.73469269 562.53075619 C-88.92634904 562.53687772 -59.11801746 562.53132165 -29.30967567 562.52056239 C-2.81183135 562.51107079 23.68599374 562.51192003 50.18383789 562.52148438 C79.9367682 562.53218767 109.68968784 562.53644363 139.4426198 562.53025985 C142.61285432 562.52961839 145.78308884 562.52899271 148.95332336 562.52837372 C149.73394769 562.52821556 150.51457202 562.52805741 151.31885163 562.52789446 C163.12042285 562.52561705 174.92198637 562.52828466 186.72355652 562.53333282 C200.13900971 562.53904264 213.55444098 562.5376403 226.96989143 562.52677134 C233.81987808 562.52140506 240.66982908 562.51922378 247.51981544 562.52606964 C253.78295733 562.53200235 260.04602365 562.52879853 266.30915862 562.51811454 C268.58231112 562.51586908 270.85546993 562.51704221 273.12861842 562.52186611 C276.20419793 562.52789529 279.27951419 562.52176308 282.35507965 562.51242447 C283.24988338 562.5171068 284.14468711 562.52178913 285.0666061 562.52661335 C285.8844511 562.52160632 286.70229609 562.51659928 287.54492426 562.51144052 C288.2484378 562.511305 288.95195134 562.51116948 289.67678347 562.51102985 C292.00069801 562.21773211 293.63236777 561.40588809 295.65991211 560.26074219 C296.43345554 556.7010099 296.66665033 553.78951533 295.65991211 550.26074219 C292.93465132 548.0218074 290.11683463 546.61420345 286.96459961 545.03808594 C282.67089715 542.72882516 279.47287272 539.76793539 275.95288086 536.43261719 C273.93745076 534.52362377 271.86787405 532.7688895 269.72241211 531.01074219 C241.45817603 506.07502892 223.88632174 465.58430465 211.57641602 430.84619141 C210.8002941 428.65675851 210.00574748 426.47559834 209.20288086 424.29589844 C199.41193498 396.66367339 195.60337625 367.54152268 195.42163086 338.33886719 C195.41355911 337.07282654 195.40548737 335.80678589 195.39717102 334.50238037 C195.38345555 331.85039593 195.37267848 329.19839476 195.36474609 326.54638672 C195.35361231 323.17550528 195.31905449 319.80527113 195.27957439 316.4346199 C195.24697426 313.17360202 195.2426263 309.91252311 195.23413086 306.65136719 C195.21662277 305.45634583 195.19911469 304.26132446 195.18107605 303.03009033 C195.20331487 294.40020201 196.84213897 287.78930616 201.40991211 280.44824219 C207.85683106 274.18040431 215.07064769 271.29701416 224.03491211 270.82324219 C229.98092486 270.93743173 233.87193569 272.87549324 238.65991211 276.26074219 C239.23741211 276.64488281 239.81491211 277.02902344 240.40991211 277.42480469 C245.37542797 281.07445885 248.11710964 286.00773637 249.11654663 291.99734497 C249.39091857 295.18147357 249.55176067 298.35222123 249.67163086 301.54589844 C249.73018753 302.71978622 249.7887442 303.89367401 249.84907532 305.10313416 C250.03200596 308.84259638 250.19031588 312.58261438 250.34741211 316.32324219 C250.46357512 318.80964916 250.58139818 321.29597916 250.70092773 323.78222656 C250.92798878 328.53527345 251.15001965 333.28850577 251.36767578 338.04199219 C251.88489166 349.17418984 252.54394023 360.14298779 254.47241211 371.13574219 C254.7396106 372.68116699 254.7396106 372.68116699 255.01220703 374.2578125 C257.82737076 390.19345062 261.93445915 405.1141221 267.65991211 420.26074219 C267.94237793 421.00888184 268.22484375 421.75702148 268.51586914 422.52783203 C276.93687685 444.52285449 288.65319318 464.03534111 304.26586914 481.67749023 C305.25522007 482.80112259 306.23436463 483.93377852 307.20629883 485.07250977 C311.97599628 490.63022611 317.0815871 495.79776344 322.28491211 500.94824219 C323.53401367 502.19057617 323.53401367 502.19057617 324.80834961 503.45800781 C329.01498913 507.64280776 329.01498913 507.64280776 333.23730469 511.81176758 C343.76591446 522.20526781 351.41902558 534.88698704 351.92553711 549.94433594 C351.93424291 551.528956 351.92878134 553.11371056 351.90991211 554.69824219 C351.90241943 555.53299072 351.89492676 556.36773926 351.88720703 557.2277832 C351.58788376 574.36278652 345.18634137 588.49887412 333.40991211 600.94824219 C320.01368616 613.75612037 305.52906346 616.88636321 287.57861328 616.71484375 C285.90184049 616.71371286 284.22506572 616.71435384 282.54829407 616.71661377 C278.03663344 616.71775242 273.52540596 616.69438218 269.01384521 616.66631794 C264.28401802 616.64116128 259.55417881 616.63895111 254.82429504 616.63421631 C245.885643 616.62182818 236.94718873 616.58906343 228.00862342 616.54881835 C217.82474686 616.50397041 207.64086041 616.48208097 197.45690954 616.46203661 C176.52446706 616.42032672 155.59220209 616.35005637 134.65991211 616.26074219 C134.60082169 617.00277893 134.54173126 617.74481567 134.48085022 618.50933838 C134.39822433 619.4898114 134.31559845 620.47028442 134.23046875 621.48046875 C134.11089561 622.93383636 134.11089561 622.93383636 133.98890686 624.41656494 C133.51941308 628.47536381 132.43985388 632.16506453 131.09741211 636.01074219 C130.83420166 636.77660645 130.57099121 637.5424707 130.29980469 638.33154297 C119.24904298 669.25319359 94.66361536 693.18640578 65.40209961 707.19824219 C46.82027306 715.61143314 29.68118719 718.4990322 9.50292969 718.61083984 C7.3319216 718.62731992 5.16096596 718.6545033 2.99023438 718.69287109 C-10.41376984 718.92783192 -21.85728361 718.33149494 -34.34008789 713.26074219 C-35.15936768 712.9563623 -35.97864746 712.65198242 -36.82275391 712.33837891 C-51.47760149 706.76371463 -64.59691737 698.59754498 -76.34008789 688.26074219 C-77.24243164 687.50277344 -78.14477539 686.74480469 -79.07446289 685.96386719 C-98.79182373 668.9200468 -110.96450595 645.31302887 -117.34008789 620.26074219 C-117.34008789 619.27074219 -117.34008789 618.28074219 -117.34008789 617.26074219 C-118.55127808 617.26350757 -118.55127808 617.26350757 -119.78693676 617.26632881 C-139.47781701 617.31058995 -159.16868727 617.3436386 -178.85960674 617.36436653 C-188.38217142 617.37465806 -197.9047028 617.3886776 -207.42724609 617.41162109 C-215.73173016 617.43162019 -224.0361901 617.44447404 -232.34069759 617.44891918 C-236.73364394 617.45151556 -241.12652129 617.45757346 -245.51944542 617.4722023 C-249.66360854 617.48588948 -253.80767494 617.48994259 -257.95185852 617.48695755 C-259.46381978 617.48750278 -260.97578466 617.49141335 -262.48772621 617.49915314 C-274.73696776 617.55872363 -286.88483841 616.97882156 -298.34008789 612.26074219 C-299.13930664 611.93460938 -299.93852539 611.60847656 -300.76196289 611.27246094 C-314.55435419 605.04018474 -323.89143908 593.43707277 -329.27368164 579.51074219 C-334.93263998 562.26439297 -335.97881136 544.42961187 -327.66821289 527.94433594 C-320.45236246 515.65221864 -309.83932589 505.85988819 -299.13696289 496.58886719 C-253.01383126 456.58682331 -236.90006896 391.61385507 -232.53714561 333.41201591 C-232.03829376 325.43456293 -232.04250751 317.44529794 -232.03512764 309.4549675 C-232.03136166 306.1685662 -232.01436808 302.88244059 -231.99436951 299.59609985 C-231.93991505 290.27033702 -231.90848651 280.94453675 -231.88378906 271.61865234 C-231.68977485 205.02145314 -223.62583389 143.36003679 -179.34008789 90.26074219 C-178.87666992 89.69581055 -178.41325195 89.13087891 -177.93579102 88.54882812 C-166.99303324 75.22688365 -155.06041408 62.74738298 -141.34008789 52.26074219 C-140.74083496 51.79571289 -140.14158203 51.33068359 -139.52416992 50.8515625 C-108.1375401 26.52047829 -71.48667266 9.45774514 -32.34008789 2.26074219 C-31.03672485 1.99366455 -31.03672485 1.99366455 -29.70703125 1.72119141 C-19.83120995 -0.0904877 -10.01188152 -0.04312249 0 0 Z " fill="#010101" transform="translate(468.340087890625,203.7392578125)"/>
<path d="M0 0 C3.50638071 0.00848533 7.01111423 -0.02029037 10.51733398 -0.05200195 C23.9500032 -0.09509819 36.38316254 0.84221261 49.34350586 4.44604492 C51.05389038 4.91602905 51.05389038 4.91602905 52.79882812 5.39550781 C55.73776309 6.26159547 58.63364232 7.20040821 61.53100586 8.19604492 C62.54146973 8.53893555 63.55193359 8.88182617 64.59301758 9.23510742 C72.5989715 12.02909739 80.14403923 15.35373429 87.55834961 19.45922852 C89.33941202 20.44378189 91.13609391 21.39339651 92.93725586 22.34057617 C111.64689779 32.37361844 128.62671314 47.5208172 141.34350586 64.44604492 C142.23403962 65.59715718 143.12467004 66.74819466 144.01538086 67.89916992 C160.41660621 89.36577284 170.96752924 113.97777307 176.34350586 140.44604492 C176.62061401 141.68608276 176.62061401 141.68608276 176.90332031 142.95117188 C178.49712668 150.61929981 178.60835309 158.07147444 178.53100586 165.88354492 C178.53036133 167.1165332 178.5297168 168.34952148 178.52905273 169.61987305 C178.47792353 180.37404888 177.96177605 190.92167638 175.65600586 201.44604492 C175.39436646 202.64898193 175.39436646 202.64898193 175.12744141 203.8762207 C168.24604436 234.49918068 155.73399189 262.41550238 135.34350586 286.44604492 C134.58424805 287.35741211 133.82499023 288.2687793 133.04272461 289.20776367 C127.70807918 295.39519434 121.75701099 300.41405088 115.34350586 305.44604492 C114.55331055 306.1137793 113.76311523 306.78151367 112.94897461 307.46948242 C78.49609545 336.38019031 32.25074651 346.09896388 -11.65649414 343.44604492 C-55.31487417 339.12514429 -99.41979788 315.40279858 -127.55664062 281.71972656 C-144.07095169 261.23981779 -157.78178423 236.50949389 -162.65649414 210.44604492 C-162.78894531 209.81666016 -162.92139648 209.18727539 -163.05786133 208.53881836 C-169.05048486 179.57222688 -167.51148886 146.60517722 -158.65649414 118.44604492 C-158.44541016 117.77154297 -158.23432617 117.09704102 -158.0168457 116.40209961 C-150.04324697 91.69500092 -135.71631573 69.88474389 -117.65649414 51.44604492 C-116.91012695 50.6494043 -116.16375977 49.85276367 -115.39477539 49.03198242 C-97.42498232 30.23179226 -73.86533244 16.09797133 -49.46899414 7.57104492 C-48.41284912 7.20164795 -47.3567041 6.83225098 -46.26855469 6.45166016 C-43.08146901 5.38058432 -39.88243497 4.39338193 -36.65649414 3.44604492 C-35.66786377 3.14657959 -34.6792334 2.84711426 -33.66064453 2.53857422 C-22.60326601 -0.33377093 -11.35184769 -0.04180143 0 0 Z " fill="#010101" transform="translate(710.656494140625,101.553955078125)"/>
<path d="M0 0 C0.68513672 0.20898926 1.37027344 0.41797852 2.07617188 0.63330078 C33.69537599 10.61713179 58.78680529 33.49865215 73.99316406 62.64306641 C77.43609977 69.53998298 79.88237242 76.59277104 82 84 C82.23332031 84.79019531 82.46664062 85.58039063 82.70703125 86.39453125 C85.32463604 95.94219763 85.15495229 105.68563138 85.125 115.5 C85.12886719 116.76714844 85.13273438 118.03429687 85.13671875 119.33984375 C85.12490398 130.69383414 84.04932581 139.92276004 80.375 150.6875 C80.015271 151.74751221 79.65554199 152.80752441 79.28491211 153.8996582 C68.58616292 184.71007767 47.10251213 209.32833825 17.8125 223.75 C8.92293758 227.82934258 -0.53903224 230.58596789 -10 233 C-10.76771729 233.19650146 -11.53543457 233.39300293 -12.32641602 233.59545898 C-41.38907119 240.23996692 -73.12885056 232.83922968 -98.1875 217.4375 C-103.34562492 213.90096569 -108.21378232 210.02104748 -113 206 C-114.10794922 205.11248047 -114.10794922 205.11248047 -115.23828125 204.20703125 C-137.08741448 186.00588829 -150.44032298 156.76589564 -154 129 C-155.92292058 104.95059959 -152.35007759 81.43518471 -141 60 C-140.67692871 59.38012207 -140.35385742 58.76024414 -140.02099609 58.12158203 C-124.98214532 29.82642448 -98.4495583 9.15432069 -68.00732422 -0.3503418 C-46.95853467 -6.58068985 -21.02405149 -6.52625766 0 0 Z " fill="#A2FB49" transform="translate(751,158)"/>
<path d="M0 0 C46.86 0 93.72 0 142 0 C130.20874985 23.58250031 117.95188449 39.02675499 93.0546875 47.67578125 C73.96881919 53.8729855 55.16029119 51.61981963 36.94140625 43.5390625 C19.23490095 34.27430408 7.36334418 20.55670621 0 2 C0 1.34 0 0.68 0 0 Z " fill="#FDFDFD" transform="translate(407,820)"/>
</svg>
