<?xml version="1.0" encoding="UTF-8"?>
<svg version="1.1" xmlns="http://www.w3.org/2000/svg" width="382" height="417">
<path d="M0 0 C1.30275879 -0.02102783 1.30275879 -0.02102783 2.63183594 -0.04248047 C8.38561775 0.00085624 12.70171384 0.94823628 17.9375 3.375 C22.15845954 7.812419 23.34713345 10.92698202 23.2890625 16.91796875 C22.69868992 21.04401709 20.7251691 24.31589996 17.9375 27.375 C14.67964755 29.38940432 11.96243993 29.68823427 8.16796875 29.8671875 C6.47426147 29.96157104 6.47426147 29.96157104 4.74633789 30.05786133 C2.95377563 30.15296997 2.95377563 30.15296997 1.125 30.25 C-9.10020422 30.90557433 -18.36190919 31.91568707 -28.0625 35.375 C-29.07570312 35.72304687 -30.08890625 36.07109375 -31.1328125 36.4296875 C-43.67795757 41.17915496 -54.59483003 48.9570726 -64.0625 58.375 C-64.74699219 59.0246875 -65.43148437 59.674375 -66.13671875 60.34375 C-85.83795525 80.47074996 -88.8997802 110.46187361 -89.2734375 137.15234375 C-89.28777832 138.13202621 -89.30211914 139.11170868 -89.31689453 140.12107849 C-89.37405125 144.19696408 -89.42847095 148.27273775 -89.46386719 152.34887695 C-89.8223751 190.58250987 -97.12460913 229.14964493 -122.0625 259.375 C-122.5575 259.97538086 -123.0525 260.57576172 -123.5625 261.19433594 C-125.15652304 263.11751692 -126.76202859 265.03018895 -128.375 266.9375 C-128.87878174 267.53393311 -129.38256348 268.13036621 -129.90161133 268.74487305 C-132.40209821 271.64714186 -134.79000439 274.34504135 -138.0625 276.375 C-138.7225 276.375 -139.3825 276.375 -140.0625 276.375 C-140.0625 278.025 -140.0625 279.675 -140.0625 281.375 C-46.0125 281.375 48.0375 281.375 144.9375 281.375 C144.9375 279.725 144.9375 278.075 144.9375 276.375 C144.07769531 276.15457031 143.21789062 275.93414062 142.33203125 275.70703125 C138.37331789 274.15361208 135.66817424 271.94055853 132.625 269.0625 C132.05885986 268.53052002 131.49271973 267.99854004 130.90942383 267.45043945 C125.28801687 262.00118957 120.99880072 256.08429985 116.9375 249.375 C115.94169922 247.7353125 115.94169922 247.7353125 114.92578125 246.0625 C102.68269507 224.94939225 94.93444609 199.98184704 94.69921875 175.52734375 C94.691147 174.71181534 94.68307526 173.89628693 94.67475891 173.05604553 C94.66102406 171.34426943 94.6502553 169.63246717 94.64233398 167.9206543 C94.63076555 166.18001203 94.61023775 164.43940656 94.58081055 162.69897461 C94.53803574 160.16235667 94.52195939 157.62677792 94.51171875 155.08984375 C94.49421066 154.31986557 94.47670258 153.54988739 94.45866394 152.75657654 C94.48085471 147.18577557 95.74472435 143.96195314 98.9375 139.375 C103.04643221 136.41274655 106.80935587 135.84458581 111.7578125 136.01953125 C116.05298144 136.71999787 118.71717307 139.19675331 121.75 142.125 C124.96005793 148.20721502 124.16998141 156.68656747 124.48144531 163.39086914 C125.96741086 194.30233383 132.8799645 222.5930791 154.9375 245.375 C156.15551588 246.76239232 157.36483889 248.15749893 158.5625 249.5625 C160.95041775 252.33429105 163.47099394 254.85784877 166.125 257.375 C172.73439504 263.99720394 174.54508367 269.86077254 174.96484375 279.203125 C174.88376637 288.60810156 171.5276234 296.14796953 165.3046875 303.234375 C158.76084172 309.38254639 150.8263303 310.83883596 142.11303711 310.71557617 C140.8674855 310.71623329 140.8674855 310.71623329 139.59677124 310.71690369 C136.88587908 310.71483429 134.1756262 310.69159192 131.46484375 310.66796875 C129.57198932 310.6623662 127.6791305 310.65809922 125.78627014 310.65510559 C120.82963835 310.64370873 115.87327468 310.61428644 110.91674805 310.58099365 C105.84883245 310.55018102 100.7808731 310.53657643 95.71289062 310.52148438 C85.7876433 310.48941139 75.86259404 310.43827809 65.9375 310.375 C65.85647789 311.27883423 65.85647789 311.27883423 65.77381897 312.20092773 C65.69514084 312.99958252 65.61646271 313.7982373 65.53540039 314.62109375 C65.42344078 315.80336548 65.42344078 315.80336548 65.30921936 317.00952148 C64.71090424 320.81696792 63.15377314 323.98771729 61.375 327.375 C61.01567383 328.06924072 60.65634766 328.76348145 60.28613281 329.47875977 C52.47472985 344.06288788 38.9633407 354.28035427 23.24560547 359.22119141 C15.61623839 361.2677721 8.44785787 361.91934391 0.5625 361.875 C-0.6234375 361.86927979 -1.809375 361.86355957 -3.03125 361.85766602 C-19.56819523 361.52033959 -32.76372382 354.98017892 -44.8671875 343.72265625 C-53.16119962 334.85308101 -61.32465074 322.89500335 -61.0625 310.375 C-62.00416016 310.40529297 -62.94582031 310.43558594 -63.91601562 310.46679688 C-81.99030883 311.0378848 -100.06495148 311.48881698 -118.14892578 311.55224609 C-119.86687923 311.55901858 -121.58482301 311.56920669 -123.30273438 311.58300781 C-151.05341249 311.78945373 -151.05341249 311.78945373 -160.2265625 303.39453125 C-167.54744074 295.66102169 -170.52644815 287.29812898 -170.26171875 276.56640625 C-169.04401342 263.17164758 -160.06407013 254.93424666 -150.40625 246.46875 C-139.59246103 236.80843186 -133.00910106 223.83975524 -128.0625 210.375 C-127.71574219 209.46492187 -127.36898437 208.55484375 -127.01171875 207.6171875 C-125.84579013 204.24094632 -124.90297492 200.84340388 -124.0625 197.375 C-123.88299805 196.64007324 -123.70349609 195.90514648 -123.51855469 195.14794922 C-119.45657761 177.4239284 -119.51479715 159.46610747 -119.38989258 141.37792969 C-119.05778142 99.8840317 -112.08548047 63.64078068 -81.51074219 33.40576172 C-59.52176326 12.35512086 -30.36356294 0.33547956 0 0 Z M-32.0625 310.375 C-25.82082891 322.85834217 -20.3782754 328.61285993 -7.8125 333.6875 C3.25217604 335.71602394 12.98350174 334.71486675 22.59765625 328.71484375 C29.02689325 323.9923122 33.2108594 318.39638577 36.9375 311.375 C36.9375 311.045 36.9375 310.715 36.9375 310.375 C14.1675 310.375 -8.6025 310.375 -32.0625 310.375 Z " fill="#c0c0c0" transform="translate(171.0625,52.625)"/>
<path d="M0 0 C1.6035321 1.37258149 3.18688096 2.76906636 4.75 4.1875 C5.99716797 5.29544922 5.99716797 5.29544922 7.26953125 6.42578125 C22.23307995 20.46991068 33.0520953 41.30109911 34.1328125 61.87890625 C34.90422386 88.05880984 27.39528699 112.4003428 9.1796875 131.78125 C-8.34067234 149.13260315 -29.52990182 156.85863123 -54.125 157.5 C-79.48899774 157.04554987 -102.35674363 145.68786538 -119.875 127.625 C-135.7937336 109.30559562 -141.53914505 86.34393357 -140.42285156 62.5546875 C-138.64071633 38.14849657 -126.22587682 17.03319899 -107.9765625 1.24609375 C-102.72782064 -2.71678155 -97.07132615 -5.79281095 -91.25 -8.8125 C-90.31027344 -9.30878906 -89.37054688 -9.80507812 -88.40234375 -10.31640625 C-61.30012942 -23.68789638 -23.58529031 -18.29893214 0 0 Z " fill="#c0c0c0" transform="translate(346.25,18.8125)"/>
<path d="M0 0 C1.65515625 0.67869141 1.65515625 0.67869141 3.34375 1.37109375 C19.09135003 8.50886463 30.11162699 20.34835976 37 36.3125 C41.47260732 49.95774266 40.91599179 66.89635464 35 80 C34.57589844 80.94746094 34.15179688 81.89492187 33.71484375 82.87109375 C30.21229341 89.90546364 25.52903431 95.46119708 20 101 C19.43539062 101.57621094 18.87078125 102.15242188 18.2890625 102.74609375 C7.13886649 113.21639976 -8.67959475 117.6258908 -23.62304688 117.32763672 C-39.44304399 116.73758994 -53.33523959 110.04340992 -64.44921875 98.76953125 C-77.17418858 84.95329295 -81.82773541 68.57727343 -81.12304688 49.97607422 C-80.29679606 36.70687954 -72.88701934 21.9173309 -63 13 C-45.80867626 -1.54840472 -21.83381865 -9.1741497 0 0 Z " fill="#ffffff" transform="translate(314,32)"/>
</svg>
