<?xml version="1.0" encoding="UTF-8"?>
<svg version="1.1" xmlns="http://www.w3.org/2000/svg" width="512" height="512">
<path d="M0 0 C2.74988627 -0.00067224 5.49976551 -0.00494017 8.24964905 -0.00869751 C13.98410458 -0.01411454 19.71844319 -0.00707215 25.45288086 0.00732422 C32.02459757 0.02363506 38.59603465 0.01835717 45.16774458 0.001845 C50.87117701 -0.01189636 56.57452669 -0.01362841 62.27797037 -0.00583899 C65.65759148 -0.00122997 69.03698006 -0.00157413 72.41660881 -0.01044846 C91.07565555 -0.04870494 109.60928917 0.34795392 127.53515625 6.1484375 C128.35612793 6.40665283 129.17709961 6.66486816 130.02294922 6.9309082 C150.32868773 13.49948609 168.67752568 23.77640166 184.28515625 38.3984375 C184.85717773 38.92808105 185.42919922 39.45772461 186.01855469 40.00341797 C208.12374506 60.65543025 226.7562664 89.68750369 229.5625 120.4375 C230.07775353 136.05998716 225.12915036 151.10699029 214.78515625 162.8984375 C213.30642967 164.41941341 211.80821859 165.92186 210.28515625 167.3984375 C209.72183594 167.97078125 209.15851563 168.543125 208.578125 169.1328125 C197.80001127 179.30777145 183.38404917 182.86212108 169.02217102 182.79284668 C167.22438329 182.80198334 167.22438329 182.80198334 165.39027661 182.81130457 C162.08959631 182.82500076 158.78941728 182.82540798 155.48874676 182.8199296 C151.91870249 182.81724624 148.34872046 182.83181571 144.77870178 182.84402466 C137.79394108 182.86502727 130.80926347 182.86962244 123.82447491 182.86783677 C118.1426236 182.86652632 112.4607981 182.87034769 106.77895164 182.87776184 C105.13884694 182.87986117 103.49874222 182.88195877 101.85863751 182.88405466 C101.04215779 182.88509819 100.22567807 182.88614172 99.38445654 182.88721687 C83.95931691 182.90609902 68.53422488 182.90507551 53.10907849 182.89824754 C39.02274517 182.89267584 24.93659393 182.91348517 10.85030315 182.94660801 C-3.63799049 182.98040973 -18.12619708 182.99550513 -32.61453086 182.99089098 C-40.73873599 182.98865254 -48.86277292 182.99379725 -56.9869442 183.01878357 C-63.90517048 183.03988087 -70.82313639 183.04330592 -77.74137368 183.02448398 C-81.26541452 183.01537691 -84.78897102 183.01402612 -88.31297302 183.03483963 C-110.30094087 183.13970144 -127.10155255 181.41113907 -143.90234375 165.8359375 C-155.74268219 153.44883184 -161.18333125 137.86115664 -160.9921875 120.828125 C-158.59539945 91.18897132 -140.10782461 62.96334362 -119.71484375 42.3984375 C-118.791875 41.46257812 -117.86890625 40.52671875 -116.91796875 39.5625 C-100.52621896 23.75940421 -79.89747865 12.33418763 -58.08984375 5.9609375 C-57.32889404 5.73809082 -56.56794434 5.51524414 -55.78393555 5.28564453 C-37.30199296 0.32217429 -19.02121294 -0.04990276 0 0 Z M-101.58984375 71.2734375 C-113.74442572 85.16178116 -128.26461753 106.12401561 -127.71484375 125.3984375 C-126.03787805 134.54552315 -122.2513516 140.77312326 -114.6640625 146.14453125 C-107.31419302 150.8726036 -99.18595706 150.54595948 -90.74789429 150.53887939 C-89.64050829 150.54185052 -88.53312228 150.54482164 -87.39217913 150.5478828 C-83.67990213 150.55655731 -79.96765743 150.558077 -76.25537109 150.55957031 C-73.59418588 150.56419938 -70.93300358 150.56920377 -68.27182007 150.57461548 C-61.04019699 150.58817723 -53.80857946 150.59422025 -46.57694578 150.59862614 C-42.05774157 150.6013924 -37.53853948 150.60563047 -33.0193367 150.61013031 C-20.49643018 150.62232052 -7.97352535 150.63262009 4.54938698 150.6360054 C5.35034777 150.63622497 6.15130856 150.63644453 6.97654089 150.63667075 C7.77937263 150.63688903 8.58220437 150.63710731 9.40936434 150.6373322 C11.03609316 150.63777566 12.66282197 150.63822222 14.28955078 150.63867188 C15.09645726 150.6388933 15.90336375 150.63911473 16.73472194 150.63934287 C29.80157601 150.64328862 42.86837422 150.66073693 55.93520673 150.6840314 C69.36452421 150.70777796 82.79381371 150.72020877 96.22315252 150.72137332 C103.75763134 150.72228826 111.29203741 150.72799483 118.82649612 150.74619293 C125.24382485 150.76163865 131.66105832 150.76668816 138.07840212 150.75845483 C141.34879286 150.75456396 144.61895315 150.75705297 147.889328 150.76951218 C151.44514999 150.78226093 155.00048579 150.77633846 158.55630493 150.76593018 C160.08524161 150.77801478 160.08524161 150.77801478 161.6450659 150.79034352 C172.21011171 150.71839588 181.70474111 149.29319596 189.44140625 141.640625 C193.9007842 136.21756792 196.5633277 129.4918095 196.28515625 122.3984375 C192.93812658 97.14003919 174.73229544 72.92499189 155.28515625 57.3984375 C127.629626 37.2547017 97.97087762 32.89977232 64.47265625 33 C62.04190992 32.99797148 59.6111642 32.99505364 57.18041992 32.99130249 C52.12119674 32.98691569 47.062134 32.99319139 42.00292969 33.00732422 C35.57876302 33.02441356 29.15497263 33.01455262 22.7308197 32.99660683 C17.72193665 32.98566965 12.71314007 32.98926044 7.70425415 32.9969902 C5.33802239 32.99896488 2.97178229 32.99663135 0.6055603 32.98955154 C-38.94339305 32.89713378 -73.68241529 41.54313657 -101.58984375 71.2734375 Z " fill="#ffffff" transform="translate(221.71484375,281.6015625)"/>
<path d="M0 0 C0.6815918 0.21430664 1.36318359 0.42861328 2.06542969 0.64941406 C16.29351879 5.23201941 28.68612402 12.18713576 40 22 C40.80824219 22.66386719 41.61648438 23.32773438 42.44921875 24.01171875 C62.63859101 41.15842267 75.81374274 66.75985723 79 93 C79.31167763 97.8577634 79.3818035 102.69552175 79.375 107.5625 C79.37445618 108.22163391 79.37391235 108.88076782 79.37335205 109.55987549 C79.33181094 120.54101814 78.38494788 130.5566372 75 141 C74.78569336 141.6815918 74.57138672 142.36318359 74.35058594 143.06542969 C69.76798059 157.29351879 62.81286424 169.68612402 53 181 C52.33613281 181.80824219 51.67226563 182.61648437 50.98828125 183.44921875 C33.83944197 203.6411053 8.24162174 216.80888524 -18 220 C-52.3363262 222.2135639 -82.09907666 214.88265806 -108.4519043 192.14819336 C-128.88571146 173.9963342 -141.02165529 149.9176615 -145 123 C-145.90917754 106.82290998 -146.0331767 90.52853754 -141 75 C-140.67854004 73.9776123 -140.67854004 73.9776123 -140.35058594 72.93457031 C-135.76798059 58.70648121 -128.81286424 46.31387598 -119 35 C-118.33613281 34.19175781 -117.67226562 33.38351563 -116.98828125 32.55078125 C-102.8307809 15.88104424 -83.78741476 5.12294985 -63 -1 C-61.89398438 -1.3403125 -60.78796875 -1.680625 -59.6484375 -2.03125 C-40.85348648 -6.7850081 -18.43058805 -5.97380185 0 0 Z M-89.61328125 51.61962891 C-93.14344975 55.13363818 -96.16044063 58.91650522 -99 63 C-99.54140625 63.77730469 -100.0828125 64.55460937 -100.640625 65.35546875 C-111.7639234 82.57410996 -114.79454928 104.30044078 -111.3828125 124.3359375 C-108.38776164 136.76672381 -102.33794011 149.26128596 -94 159 C-93.52691406 159.62648437 -93.05382812 160.25296875 -92.56640625 160.8984375 C-82.38890195 173.74087434 -64.87274081 183.40395423 -48.90234375 186.5625 C-25.87071348 189.14462471 -4.5255445 185.82503053 14.5 171.9375 C15.67744704 170.97132355 16.84449458 169.99231331 18 169 C18.63808594 168.50371094 19.27617187 168.00742188 19.93359375 167.49609375 C33.78130186 156.29375678 43.71743702 137.66456374 46 120 C47.97148155 95.63041737 42.49093466 73.91523422 26.68359375 54.96484375 C11.32126023 37.99248401 -9.09413018 29.35982979 -31.7421875 28.0546875 C-53.51272322 27.52737349 -74.02583475 36.82485111 -89.61328125 51.61962891 Z " fill="#ffffff" transform="translate(289,52)"/>
</svg>
