<svg xmlns="http://www.w3.org/2000/svg" xmlns:xlink="http://www.w3.org/1999/xlink" xmlns:bx="https://boxy-svg.com" version="1.1" viewBox="58.99 59.24 380 380"><defs><bx:grid x="0" y="0" width="100" height="100"/><bx:export><bx:file format="svg" excluded="true" xlink:href="#object-0"/><bx:file format="png" excluded="true"/><bx:file format="svg" path="Untitled 2.svg" excluded="true"/><bx:file format="svg" path="questions.svg" width="700" height="672.656250000001"/></bx:export></defs><rect style="stroke: rgb(0, 0, 0); stroke-width: 0px; fill: rgb(43, 43, 43);" x="58.993" y="59.238" width="380" height="380" rx="120" ry="120"/><g style="" transform="matrix(0.498051, 0, 0, 0.497429, 121.039833, 128.111298)" id="object-0"><path d="M 403 74 C 403.567 74.465 404.133 74.93 404.717 75.41 C 417.014 85.557 428.247 96.349 438 109 C 438.616 109.777 438.616 109.777 439.244 110.57 C 472.738 152.976 487.071 207.763 481.177 261.23 C 475.242 307.288 455.252 348.642 423 382 C 422.533 382.493 422.065 382.986 421.584 383.494 C 383.851 423.269 328.112 447.15 273.513 449.126 C 269.612 449.206 265.714 449.245 261.813 449.25 C 261.116 449.252 260.42 449.253 259.702 449.255 C 250.364 449.256 241.209 448.851 231.938 447.625 C 230.961 447.496 229.985 447.367 228.979 447.234 C 224.87 446.656 220.828 445.995 216.789 445.039 C 206.894 442.944 201.895 445.481 193.586 450.41 C 167.65 465.618 135.109 469.383 105.688 466.188 C 105.013 466.118 104.338 466.048 103.643 465.976 C 98.374 465.311 93.323 464.047 89.258 460.465 C 86.301 456.478 84.831 454.256 84.688 449.313 C 84.631 448.069 84.631 448.069 84.574 446.801 C 85.5 440.711 90.004 435.447 93.375 430.438 C 100.728 419.225 108.389 404.818 106 391 C 103.69 385.782 100.007 381.912 95.938 378 C 61.905 344.995 41.594 293.296 40.797 246.359 C 40.764 243.49 40.753 240.62 40.75 237.75 C 40.749 237 40.748 236.25 40.747 235.477 C 40.758 222.785 41.557 210.482 44 198 C 44.145 197.251 44.289 196.501 44.438 195.729 C 55.318 141.207 89.092 93.731 134.875 62.875 C 215.509 9.757 327.475 11.552 403 74 Z M 117.438 119.75 C 107.427 131.248 98.939 143.43 92 157 C 91.65 157.682 91.299 158.364 90.938 159.066 C 69.774 200.759 66.708 248.518 81.18 292.922 C 89.342 316.46 102.088 337.513 119.125 355.625 C 131.702 369.006 138.606 381 138.281 399.668 C 137.777 410.971 133.175 421.631 129 432 C 128.67 432.99 128.34 433.98 128 435 C 149.107 435.423 168.234 427.907 186.59 418.139 C 200.044 411.077 210.741 411.719 225.506 414.512 C 266.503 422.054 309.635 416.518 347 398 C 347.707 397.657 348.413 397.315 349.142 396.962 C 391.352 376.365 425.269 338.911 440.88 294.497 C 456.459 247.48 452.233 199.355 430.199 155.208 C 423.051 141.407 413.671 129.232 403 118 C 401.827 116.631 400.659 115.256 399.5 113.875 C 369.462 79.704 321.537 60.737 277 57 C 216.301 53.688 159.073 74.952 117.438 119.75 Z" fill="#ffffff"/><path d="M 297 159 C 308.032 167.673 315.516 179.028 318 193 C 319.622 208.698 316.629 222.282 307 235 C 304.149 238.504 301.181 241.905 298.207 245.305 C 294.894 249.1 291.675 252.964 288.5 256.875 C 288.008 257.469 287.516 258.063 287.009 258.675 C 280.202 267.116 277.799 274.707 277.658 285.488 C 277.447 291.062 276.236 294.422 273 299 C 269.572 301.82 265.85 302.879 261.5 303.5 C 255.768 302.681 251.738 300.883 247.793 296.609 C 244.824 291.859 245.408 286.286 245.5 280.875 C 245.513 279.75 245.526 278.625 245.539 277.466 C 245.729 269.706 246.377 262.978 250 256 C 250.764 254.505 250.764 254.505 251.543 252.98 C 256.078 244.73 261.786 237.703 267.93 230.617 C 268.974 229.412 270.019 228.206 271.063 227 C 271.577 226.406 272.092 225.811 272.623 225.199 C 282.613 213.613 282.613 213.613 285.348 199.117 C 284.694 193.259 281.743 189.743 277.688 185.688 C 270.726 181.316 264.206 180.006 256 181 C 249.614 182.48 244.593 185.195 240.449 190.324 C 238.25 194.385 237.438 198.718 236.482 203.193 C 235.24 208.745 233.658 212.615 229 216 C 224.051 218.64 219.334 218.175 214 217 C 210.107 215.443 207.689 213.168 205.727 209.41 C 202.301 198.048 205.551 186.523 210.75 176.375 C 218.769 162.421 231.254 154.089 246.508 149.613 C 263.913 145.33 282.3 148.762 297 159 Z" fill="#ffffff"/><path d="M 270.328 324.523 C 274.292 327.903 276.72 330.08 277.238 335.488 C 277.397 341.538 277.234 345.296 273 350 C 268.701 353.778 264.829 354.296 259.281 354.215 C 254.571 353.771 251.796 351.882 248.688 348.438 C 245.243 343.462 245.535 338.93 246 333 C 247.802 328.394 251.089 325.873 255 323 C 260.25 321.254 265.649 321.462 270.328 324.523 Z" fill="#ffffff"/></g></svg>