<?xml version="1.0" encoding="utf-8"?>
<svg viewBox="163.61 109.66 167.69 306.57" width="167.69px" height="306.57px" xmlns="http://www.w3.org/2000/svg" xmlns:bx="https://boxy-svg.com"><defs><bx:export><bx:file format="svg" excluded="true"/><bx:file format="svg" path="run.svg"/></bx:export></defs><ellipse style="fill: rgb(195, 235, 87); transform-origin: 245.953px 194.902px;" cx="245.953" cy="194.902" rx="82.046" ry="57.318" transform="matrix(-0.777146, -0.62932, -0.62932, 0.777146, 7.955082, 1.275637)"/><g id="freepik--Character--inject-11" style="" transform="matrix(-0.951796, 0, 0, 0.951796, 494.539398, 12.84695)"><path d="M 278.418 166.925 C 280.028 172.375 281.578 177.925 283.078 183.375 C 284.578 188.825 286.078 194.375 287.618 199.715 L 288.188 201.595 C 288.188 201.595 288.078 201.525 288.098 201.595 C 288.46 202.047 288.936 202.393 289.478 202.595 C 291.642 203.486 293.922 204.062 296.248 204.305 C 298.92 204.641 301.607 204.841 304.298 204.905 C 305.668 204.905 307.058 204.985 308.448 204.985 L 312.588 204.935 L 313.658 211.165 C 307.83 212.887 301.803 213.848 295.728 214.025 C 292.313 214.158 288.899 213.719 285.628 212.725 C 283.426 212.05 281.422 210.849 279.788 209.225 C 278.776 208.184 277.977 206.954 277.438 205.605 L 276.588 203.435 C 274.488 197.895 272.688 192.435 270.948 186.915 C 269.208 181.395 267.618 175.915 266.158 170.285 L 278.418 166.925 Z" style="fill: rgb(206, 122, 99); transform-box: fill-box; transform-origin: 50% 50%;" transform="matrix(0.994522, -0.104528, 0.104528, 0.994522, -0.000001, 0)"/><path d="M 262.101 165.737 C 258.401 173.197 270.241 197.737 270.241 197.737 L 285.441 191.737 C 285.441 191.737 284.841 180.057 281.161 169.937 C 277.281 159.217 266.211 157.447 262.101 165.737 Z" style="fill: rgb(38, 50, 56); transform-box: fill-box; transform-origin: 50% 50%;" transform="matrix(0.994522, -0.104528, 0.104528, 0.994522, 0, 0.000001)"/><path d="M 262.048 167.13 C 265.638 165.94 269.268 167.74 272.308 174.59 C 275.348 181.44 277.138 192.49 277.038 195.59 L 270.568 198.15 C 270.568 198.15 259.498 175.44 262.048 167.13 Z" style="opacity: 0.2; transform-box: fill-box; transform-origin: 50% 50%;" transform="matrix(0.994522, -0.104528, 0.104528, 0.994522, 0, 0.000002)"/><path d="M 312.205 202.832 L 316.775 199.122 C 319.175 197.177 322.721 197.673 324.495 200.202 C 326.84 203.572 324.664 208.216 320.575 208.572 C 318.336 208.726 316.087 208.643 313.865 208.322 L 312.205 202.832 Z" style="fill: rgb(206, 122, 99); transform-box: fill-box; transform-origin: 50% 50%;" transform="matrix(0.994522, -0.104528, 0.104528, 0.994522, -0.000001, 0)"/><path d="M 274.904 163.806 C 274.904 163.806 281.904 191.136 266.344 238.566 L 220.114 232.956 C 220.604 226.596 227.544 198.816 227.114 168.586 C 227.019 162.188 232.289 157.01 238.684 157.216 C 239.884 157.216 241.094 157.316 242.304 157.406 C 248.894 157.82 255.455 158.615 261.954 159.786 C 266.368 160.788 270.698 162.132 274.904 163.806 Z" style="fill: rgb(38, 50, 56); transform-box: fill-box; transform-origin: 50% 50%;" transform="matrix(0.994522, -0.104528, 0.104528, 0.994522, 0.000001, 0.000001)"/><path d="M 232.74 162.376 C 231.282 161.635 229.594 161.488 228.03 161.966 C 225.732 164.112 224.452 167.132 224.51 170.276 C 224.6 175.996 224.42 181.636 224.07 187.046 C 226.325 185.592 228.465 183.967 230.47 182.186 C 238.91 174.726 240.38 167.006 232.74 162.376 Z" style="opacity: 0.2; transform-box: fill-box; transform-origin: 50% 50%;" transform="matrix(0.994522, -0.104528, 0.104528, 0.994522, 0.000002, 0.000001)"/><path d="M 241.985 135.392 C 242.455 141.862 242.285 153.592 237.355 157.282 C 243.095 160.592 245.915 165.422 252.465 166.622 C 257.565 167.562 258.035 162.522 257.005 159.622 C 250.155 157.082 251.005 151.872 252.795 147.112 L 241.985 135.392 Z" style="fill: rgb(206, 122, 99); transform-box: fill-box; transform-origin: 50% 50%;" transform="matrix(0.994522, -0.104528, 0.104528, 0.994522, -0.000001, -0.000001)"/><path d="M 245.787 139.972 L 252.187 146.972 C 251.753 148.08 251.418 149.225 251.187 150.392 C 248.537 149.672 245.187 146.272 245.257 143.392 C 245.225 142.23 245.405 141.071 245.787 139.972 Z" style="opacity: 0.2; transform-box: fill-box; transform-origin: 50% 50%;" transform="matrix(0.994522, -0.104528, 0.104528, 0.994522, 0.000001, 0)"/><path d="M 240.311 125.133 C 239.801 133.753 239.061 138.783 242.851 143.703 C 248.551 151.103 259.601 148.463 262.681 140.163 C 265.451 132.693 265.831 119.843 257.861 115.423 C 250.221 111.131 240.735 116.379 240.311 125.133 Z" style="fill: rgb(206, 122, 99); transform-box: fill-box; transform-origin: 50% 50%;" transform="matrix(0.994522, -0.104528, 0.104528, 0.994522, -0.000001, 0)"/><path d="M 238.874 133.144 C 238.874 133.144 243.154 131.774 242.674 125.814 C 243.934 122.494 258.594 120.224 258.594 120.224 C 258.594 120.224 259.594 121.104 261.734 119.104 C 266.544 114.654 258.534 109.464 250.814 108.994 C 251.173 109.689 251.581 110.357 252.034 110.994 C 252.034 110.994 241.614 109.314 235.394 112.714 C 236.096 112.968 236.837 113.1 237.584 113.104 C 234.681 114.92 231.996 117.064 229.584 119.494 C 234.784 122.434 236.584 122.904 236.584 122.904 L 236.674 128.844 L 238.874 133.144 Z" style="fill: rgb(38, 50, 56); transform-box: fill-box; transform-origin: 50% 50%;" transform="matrix(0.994522, -0.104528, 0.104528, 0.994522, -0.000001, 0.000001)"/><path d="M 236.217 122.89 C 235.767 124.792 235.913 126.785 236.637 128.6 C 236.932 129.188 237.643 129.432 238.237 129.15 C 240.957 127.87 246.707 124.6 253.287 123.29 C 255.974 122.735 258.735 122.63 261.457 122.98 C 262.325 123.087 263.02 122.271 262.777 121.43 C 262.381 119.993 261.731 118.638 260.857 117.43 C 260.63 117.139 260.294 116.951 259.927 116.91 C 253.077 116.13 248.017 116.71 236.927 121.96 C 236.564 122.15 236.304 122.49 236.217 122.89 Z" style="fill: rgb(195, 235, 87); transform-box: fill-box; transform-origin: 50% 50%;" transform="matrix(0.994522, -0.104528, 0.104528, 0.994522, 0, 0)"/><path d="M 235.645 135.432 C 236.577 137.395 238.249 138.909 240.295 139.642 C 243.005 140.642 244.555 138.212 243.955 135.552 C 243.415 133.152 241.345 129.772 238.545 129.972 C 235.745 130.172 234.575 133.012 235.645 135.432 Z" style="fill: rgb(206, 122, 99); transform-box: fill-box; transform-origin: 50% 50%;" transform="matrix(0.994522, -0.104528, 0.104528, 0.994522, 0, 0.000001)"/><path d="M 261.189 242.387 C 261.189 242.387 242.549 302.967 231.509 327.137 C 220.029 352.267 182.009 407.267 182.009 407.267 L 175.179 402.797 C 175.179 402.797 201.179 347.247 211.849 322.317 C 216.299 306.717 235.439 238.207 235.439 238.207 L 261.189 242.387 Z" style="fill: rgb(206, 122, 99); transform-box: fill-box; transform-origin: 50% 50%;" transform="matrix(0.994522, -0.104528, 0.104528, 0.994522, 0.000001, 0.000001)"/><path d="M 194.151 407.631 L 186.061 402.141 C 185.752 401.921 185.33 401.955 185.061 402.221 L 179.321 407.661 C 178.732 408.235 178.824 409.207 179.511 409.661 C 182.371 411.531 183.291 412.431 186.851 414.841 C 189.041 416.321 195.851 422.721 199.511 422.961 C 203.171 423.201 203.511 420.311 201.291 419.531 C 194.811 417.261 195.701 411.671 195.001 408.871 C 194.882 408.366 194.579 407.924 194.151 407.631 Z" style="fill: rgb(38, 50, 56); transform-box: fill-box; transform-origin: 50% 50%;" transform="matrix(0.994522, -0.104528, 0.104528, 0.994522, 0.000001, 0)"/><path d="M 197.907 410.058 C 197.948 410.004 197.985 409.947 198.017 409.888 C 198.152 409.667 198.152 409.389 198.017 409.168 C 197.497 408.228 194.417 408.068 193.797 408.048 C 193.612 408.039 193.488 408.233 193.572 408.398 C 193.582 408.416 193.593 408.433 193.607 408.448 C 194.377 409.298 195.837 410.698 196.987 410.578 C 197.356 410.55 197.693 410.36 197.907 410.058 Z M 194.427 408.568 C 195.767 408.668 197.427 408.958 197.617 409.408 C 197.617 409.458 197.667 409.518 197.617 409.648 C 197.489 409.886 197.255 410.05 196.987 410.088 C 196.377 410.198 195.447 409.588 194.427 408.568 Z" style="fill: rgb(255, 255, 255); transform-box: fill-box; transform-origin: 50% 50%;" transform="matrix(0.994522, -0.104528, 0.104528, 0.994522, -0.000002, -0.000001)"/><path d="M 197.441 407.304 C 197.481 407.247 197.518 407.186 197.551 407.124 C 197.68 406.812 197.571 406.453 197.291 406.264 C 197.045 406.047 196.717 405.945 196.391 405.984 C 195.071 406.104 193.481 408.074 193.391 408.164 C 193.275 408.308 193.359 408.524 193.541 408.552 C 193.548 408.553 193.554 408.554 193.561 408.554 C 194.541 408.654 196.801 408.124 197.441 407.304 Z M 194.141 408.064 C 194.732 407.321 195.528 406.768 196.431 406.474 C 196.626 406.447 196.823 406.505 196.971 406.634 C 197.161 406.794 197.111 406.884 197.101 406.934 C 196.891 407.424 195.241 407.974 194.141 408.064 L 194.141 408.064 Z" style="fill: rgb(255, 255, 255); transform-box: fill-box; transform-origin: 50% 50%;" transform="matrix(0.994522, -0.104528, 0.104528, 0.994522, 0.000002, 0.000001)"/><path d="M 276.964 239.936 C 276.964 239.936 302.194 272.456 311.194 297.106 C 315.564 309.106 279.384 361.196 279.384 361.196 L 274.884 354.566 C 273.634 355.136 285.384 318.516 294.194 304.476 C 278.394 281.526 253.194 254.476 253.194 254.476 L 276.964 239.936 Z" style="fill: rgb(206, 122, 99); transform-box: fill-box; transform-origin: 50% 50%;" transform="matrix(0.994522, -0.104528, 0.104528, 0.994522, -0.000001, -0.000001)"/><path d="M 287.947 359.245 L 281.627 351.775 C 281.396 351.5 281.004 351.425 280.687 351.595 L 273.687 355.285 C 272.946 355.676 272.769 356.66 273.327 357.285 C 275.577 359.845 276.807 360.985 279.587 364.285 C 281.297 366.285 287.097 373.575 289.457 376.355 C 291.817 379.135 294.887 377.175 294.167 375.825 C 290.957 369.755 288.377 363.585 288.467 360.705 C 288.482 360.171 288.296 359.65 287.947 359.245 Z" style="fill: rgb(38, 50, 56); transform-box: fill-box; transform-origin: 50% 50%;" transform="matrix(0.994522, -0.104528, 0.104528, 0.994522, 0.000001, 0)"/><path d="M 290.721 362.617 C 290.779 362.576 290.832 362.529 290.881 362.477 C 291.077 362.31 291.162 362.047 291.101 361.797 C 290.861 360.747 287.931 359.797 287.341 359.577 C 287.248 359.55 287.148 359.577 287.081 359.647 C 287.03 359.73 287.03 359.834 287.081 359.917 C 287.591 360.917 288.631 362.677 289.771 362.867 C 290.109 362.921 290.453 362.83 290.721 362.617 Z M 287.781 360.237 C 289.041 360.707 290.511 361.417 290.631 361.907 C 290.631 361.907 290.631 362.027 290.541 362.127 C 290.358 362.327 290.089 362.425 289.821 362.387 C 289.231 362.287 288.501 361.497 287.781 360.237 L 287.781 360.237 Z" style="fill: rgb(255, 255, 255); transform-box: fill-box; transform-origin: 50% 50%;" transform="matrix(0.994522, -0.104528, 0.104528, 0.994522, 0.000001, 0)"/><path d="M 291.023 359.807 C 291.078 359.765 291.128 359.718 291.173 359.667 C 291.388 359.405 291.388 359.028 291.173 358.767 C 290.994 358.491 290.708 358.302 290.383 358.247 C 289.083 358.017 287.013 359.487 286.923 359.547 C 286.853 359.601 286.815 359.688 286.823 359.777 C 286.836 359.868 286.897 359.944 286.983 359.977 C 287.873 360.327 290.213 360.427 291.023 359.807 Z M 287.643 359.657 C 288.411 359.091 289.331 358.771 290.283 358.737 C 290.475 358.767 290.645 358.876 290.753 359.037 C 290.883 359.237 290.823 359.317 290.753 359.357 C 290.463 359.777 288.723 359.867 287.643 359.657 Z" style="fill: rgb(255, 255, 255); transform-box: fill-box; transform-origin: 50% 50%;" transform="matrix(0.994522, -0.104528, 0.104528, 0.994522, 0.000001, -0.000001)"/><path d="M 273.006 236.91 C 273.006 236.91 285.926 255.13 293.166 271.2 C 288.166 273.1 277.666 281.72 275.496 286.61 C 258.496 269.67 241.496 251.51 241.496 251.51 L 254.316 234.64 L 273.006 236.91 Z" style="fill: rgb(38, 50, 56); transform-box: fill-box; transform-origin: 50% 50%;" transform="matrix(0.994522, -0.104528, 0.104528, 0.994522, 0.000001, 0)"/><path d="M 251.36 251.245 L 250.26 261.755 C 253.69 265.345 257.92 269.755 262.52 274.475 C 259.04 262.065 251.36 251.245 251.36 251.245 Z" style="opacity: 0.2; transform-box: fill-box; transform-origin: 50% 50%;" transform="matrix(0.994522, -0.104528, 0.104528, 0.994522, -0.000001, 0)"/><path d="M 263.059 238.634 C 263.059 238.634 242.199 281.724 238.379 290.574 C 234.379 288.754 220.599 283.804 215.829 283.974 C 215.889 278.794 226.829 234.234 226.829 234.234 L 263.059 238.634 Z" style="fill: rgb(38, 50, 56); transform-box: fill-box; transform-origin: 50% 50%;" transform="matrix(0.994522, -0.104528, 0.104528, 0.994522, -0.000002, -0.000001)"/><path d="M 252.817 128.938 C 252.737 129.638 253.037 130.248 253.487 130.298 C 253.937 130.348 254.387 129.838 254.487 129.138 C 254.587 128.438 254.267 127.828 253.817 127.778 C 253.367 127.728 252.897 128.238 252.817 128.938 Z" style="fill: rgb(38, 50, 56); transform-box: fill-box; transform-origin: 50% 50%;" transform="matrix(0.994522, -0.104528, 0.104528, 0.994522, 0.000001, 0)"/><path d="M 260.753 129.07 C 260.663 129.76 260.973 130.37 261.423 130.43 C 261.873 130.49 262.323 129.96 262.423 129.27 C 262.523 128.58 262.203 127.96 261.753 127.9 C 261.303 127.84 260.833 128.37 260.753 129.07 Z" style="fill: rgb(38, 50, 56); transform-box: fill-box; transform-origin: 50% 50%;" transform="matrix(0.994522, -0.104528, 0.104528, 0.994522, 0.000001, -0.000002)"/><path d="M 258.57 129.35 C 259.145 131.58 260.023 133.72 261.18 135.71 C 259.81 136.71 257.77 135.94 257.77 135.94 L 258.57 129.35 Z" style="fill: rgb(186, 77, 60); transform-box: fill-box; transform-origin: 50% 50%;" transform="matrix(0.994522, -0.104528, 0.104528, 0.994522, 0, 0.000003)"/><path d="M 255.9 138.245 C 256.009 138.245 256.1 138.163 256.11 138.055 C 256.117 137.943 256.04 137.845 255.93 137.825 C 254.167 137.651 252.593 136.649 251.69 135.125 C 251.637 135.024 251.515 134.98 251.41 135.025 C 251.309 135.078 251.269 135.202 251.32 135.305 C 252.271 136.967 253.973 138.06 255.88 138.235 L 255.9 138.245 Z" style="fill: rgb(38, 50, 56); transform-box: fill-box; transform-origin: 50% 50%;" transform="matrix(0.994522, -0.104528, 0.104528, 0.994522, 0.000001, 0)"/><path d="M 250.392 126.263 C 250.504 126.265 250.612 126.222 250.692 126.143 C 251.4 125.366 252.437 124.976 253.482 125.093 C 253.705 125.13 253.917 124.984 253.962 124.763 C 254.005 124.543 253.862 124.329 253.642 124.283 C 252.324 124.104 251.001 124.582 250.102 125.563 C 249.935 125.725 249.935 125.992 250.102 126.153 C 250.182 126.225 250.285 126.264 250.392 126.263 Z" style="fill: rgb(38, 50, 56); transform-box: fill-box; transform-origin: 50% 50%;" transform="matrix(0.994522, -0.104528, 0.104528, 0.994522, 0, 0.000001)"/><path d="M 264.158 126.622 L 264.288 126.622 C 264.505 126.547 264.621 126.311 264.548 126.092 C 264.141 124.829 263.151 123.839 261.888 123.432 C 261.667 123.376 261.442 123.511 261.388 123.732 C 261.324 123.951 261.456 124.179 261.678 124.232 C 262.678 124.563 263.456 125.357 263.768 126.362 C 263.833 126.52 263.987 126.623 264.158 126.622 Z" style="fill: rgb(38, 50, 56); transform-box: fill-box; transform-origin: 50% 50%;" transform="matrix(0.994522, -0.104528, 0.104528, 0.994522, 0, 0)"/><path d="M 233.646 174.241 C 228.396 176.081 222.996 178.011 217.776 180.011 C 215.156 181.011 212.576 182.011 210.066 183.131 C 207.664 184.137 205.327 185.289 203.066 186.581 C 202.816 186.731 202.566 186.871 202.366 187.021 C 202.159 187.147 201.959 187.284 201.766 187.431 L 201.526 187.601 C 201.503 187.596 201.479 187.596 201.456 187.601 C 201.374 187.658 201.3 187.725 201.236 187.801 C 200.699 188.48 200.28 189.244 199.996 190.061 C 199.179 192.438 198.616 194.895 198.316 197.391 C 197.916 200.041 197.676 202.791 197.486 205.581 C 197.406 206.971 197.296 208.371 197.236 209.781 L 197.096 213.971 L 190.846 214.751 C 189.404 208.858 188.642 202.818 188.576 196.751 C 188.522 193.456 188.878 190.168 189.636 186.961 C 190.105 184.979 190.902 183.089 191.996 181.371 C 192.344 180.854 192.724 180.359 193.136 179.891 C 193.336 179.651 193.596 179.401 193.836 179.161 L 194.416 178.641 C 194.796 178.291 195.166 178.001 195.526 177.711 C 195.886 177.421 196.246 177.171 196.606 176.911 C 199.227 175.093 201.985 173.481 204.856 172.091 C 207.576 170.711 210.306 169.501 213.046 168.331 C 218.536 166.021 223.996 164.001 229.706 162.191 L 233.646 174.241 Z" style="fill: rgb(206, 122, 99); transform-box: fill-box; transform-origin: 50% 50%;" transform="matrix(0.994522, -0.104528, 0.104528, 0.994522, 0.000001, -0.000001)"/><path d="M 200.288 212.9 L 201.408 220.67 C 201.802 223.743 199.501 226.504 196.408 226.67 C 192.311 226.905 189.497 222.618 191.341 218.953 C 191.343 218.949 191.345 218.944 191.348 218.94 C 192.247 217.092 193.361 215.357 194.668 213.77 L 200.288 212.9 Z" style="fill: rgb(206, 122, 99); transform-box: fill-box; transform-origin: 50% 50%;" transform="matrix(0.994522, -0.104528, 0.104528, 0.994522, 0, -0.000001)"/><path d="M 241.572 161.467 C 236.352 154.667 210.712 165.297 210.712 165.297 L 215.872 182.297 C 221.48 182.219 227.028 181.135 232.252 179.097 C 242.852 175.197 247.022 168.597 241.572 161.467 Z" style="fill: rgb(38, 50, 56); transform-box: fill-box; transform-origin: 50% 50%;" transform="matrix(0.994522, -0.104528, 0.104528, 0.994522, -0.000001, 0)"/><path d="M 223.495 230.036 L 222.785 233.746 C 222.696 234.261 223.019 234.758 223.525 234.886 C 226.825 235.646 238.595 238.226 251.875 239.886 C 263.815 241.376 269.335 241.146 271.285 240.956 C 271.79 240.895 272.169 240.465 272.165 239.956 L 272.165 236.546 C 272.166 236.017 271.754 235.578 271.225 235.546 C 267.475 235.416 252.425 234.546 224.655 229.236 C 224.115 229.139 223.597 229.496 223.495 230.036 Z" style="fill: rgb(195, 235, 87); transform-box: fill-box; transform-origin: 50% 50%;" transform="matrix(0.994522, -0.104528, 0.104528, 0.994522, -0.000001, 0.000001)"/></g></svg>