<?xml version="1.0" encoding="UTF-8"?>
<svg version="1.1" xmlns="http://www.w3.org/2000/svg" width="210" height="256">
<path d="M0 0 C2.82275936 1.25455972 4.46288541 2.28384722 6.3125 4.75 C8.17589105 10.84837072 6.55836582 16.28383616 4.5625 22.0625 C-2.12793022 41.87142084 -0.22538864 63.27716033 9 82 C12.24716358 88.04921036 15.61011609 93.70716404 20 99 C23.11634933 98.51537087 25.95098121 97.69822244 28.890625 96.58984375 C29.60089844 96.32236328 30.31117187 96.05488281 31.04296875 95.77929688 C32.50200843 95.2227959 33.95784586 94.65781768 35.41015625 94.08398438 C42.03604586 91.6186759 49.01019256 90.54926604 55.6875 93.5 C60.44651765 95.85033797 63.63608282 99.25528053 66 104 C66.65625 107.2578125 66.65625 107.2578125 67 110 C68.31613281 109.95359375 69.63226563 109.9071875 70.98828125 109.859375 C84.96861523 109.50940091 94.56378482 110.53736791 105.61328125 119.8046875 C108.00210269 121.30862024 108.00210269 121.30862024 110.87890625 120.41015625 C114.2040694 118.90779843 117.42004242 117.30758814 120.625 115.5625 C121.73101562 114.96566406 122.83703125 114.36882812 123.9765625 113.75390625 C126.93809944 112.13164078 126.93809944 112.13164078 129.15234375 110.30078125 C132.1834254 108.1668485 135.47780135 108.48182366 139 109 C142.8419534 110.67041452 144.46985162 112.14296027 146 116 C146.23193219 122.02456273 144.38415534 127.647589 142.0625 133.125 C141.75892578 133.85001709 141.45535156 134.57503418 141.14257812 135.32202148 C137.04973331 144.67230042 131.6326646 153.89300148 123.9375 160.6875 C121.47159854 163.80090975 120.59834661 165.97305908 120.3515625 169.92578125 C120.29234619 170.83561768 120.23312988 171.7454541 120.17211914 172.68286133 C120.01229334 176.79027767 119.95361389 180.88983842 120 185 C118.02 185.99 118.02 185.99 116 187 C115.97311849 188.64574566 115.95365877 190.29161413 115.9375 191.9375 C115.92009766 193.31228516 115.92009766 193.31228516 115.90234375 194.71484375 C115.74050951 196.96593327 115.74050951 196.96593327 117 198 C117.5 200.125 117.5 200.125 117 203 C112.77646299 208.56627999 107.04887743 212.96340038 100 214 C97.32721611 214.0722374 94.67499445 214.04458324 92 214 C92.061875 214.969375 92.12375 215.93875 92.1875 216.9375 C92.17142097 224.88053864 88.73633687 232.20655754 83.2109375 237.81640625 C74.87712492 245.52276962 67.58988405 246.53686874 56.55688477 246.50097656 C54.43824858 246.50000034 52.32319643 246.54177425 50.20507812 246.5859375 C38.91099991 246.68599873 38.91099991 246.68599873 35.09765625 243.65625 C32.44764044 240.30055028 31.87400987 237.9547128 31.88647461 233.80395508 C31.88658791 232.54298759 31.88658791 232.54298759 31.88670349 231.25654602 C31.89186478 230.35333115 31.89702606 229.45011627 31.90234375 228.51953125 C31.9037587 227.59154221 31.90517365 226.66355316 31.90663147 225.70744324 C31.91223063 222.74242942 31.92478296 219.77749101 31.9375 216.8125 C31.94251511 214.80273547 31.947078 212.79296975 31.95117188 210.78320312 C31.96219979 205.85543968 31.97946383 200.92773263 32 196 C31.39712662 195.93837173 30.79425323 195.87674347 30.17311096 195.81324768 C29.37420944 195.72864792 28.57530792 195.64404816 27.75219727 195.55688477 C26.96369888 195.4746315 26.1752005 195.39237823 25.36280823 195.30763245 C0.41321074 192.0592496 -22.64457002 176.3334847 -38.27734375 157.21484375 C-40.28840748 154.53213877 -42.16886809 151.80826521 -44 149 C-44.60457031 148.07832031 -45.20914063 147.15664062 -45.83203125 146.20703125 C-52.48050404 135.47387583 -56.70264529 124.0749109 -59 111.6875 C-59.13696289 110.96409424 -59.27392578 110.24068848 -59.41503906 109.49536133 C-60.25261789 104.37892683 -60.25261789 104.37892683 -58 101 C-57.34 101 -56.68 101 -56 101 C-56.28241641 99.53984709 -56.57626614 98.08190207 -56.875 96.625 C-57.03742187 95.81289062 -57.19984375 95.00078125 -57.3671875 94.1640625 C-57.86658932 91.81326077 -57.86658932 91.81326077 -60 90 C-62.84308247 69.33806343 -52.52899585 45.57890862 -40.67724609 29.16845703 C-33.05229637 19.25959959 -24.18150696 10.90969225 -13.8125 3.9375 C-12.95724731 3.34533691 -12.95724731 3.34533691 -12.0847168 2.74121094 C-7.92729193 0.06287569 -4.88970911 -0.4877955 0 0 Z " fill="#030302" transform="translate(61,10)"/>
<path d="M0 0 C0.53367188 0.24363281 1.06734375 0.48726562 1.6171875 0.73828125 C0.76275066 5.5889904 -0.81782943 10.06599493 -2.4453125 14.703125 C-4.75309307 22.1745646 -4.60035643 29.61439493 -4.6328125 37.36328125 C-4.6534375 38.57113281 -4.6740625 39.77898438 -4.6953125 41.0234375 C-4.79020457 63.06212096 4.69370122 83.7201081 19.6171875 99.73828125 C22.40704368 102.40140209 25.25922391 104.99425962 28.18798828 107.50390625 C32.57632246 111.35019126 35.28611985 114.91613366 35.97795105 120.81356812 C35.97128922 121.90166779 35.96462738 122.98976746 35.95776367 124.11083984 C35.95753708 125.35167328 35.95731049 126.59250671 35.95707703 127.87094116 C35.94176085 129.20953744 35.92611292 130.54812996 35.91015625 131.88671875 C35.90455471 133.26819395 35.90028725 134.64967514 35.89729309 136.03115845 C35.88588808 139.65131341 35.85645919 143.27110212 35.82318115 146.89111328 C35.79238591 150.59142097 35.77876765 154.29178835 35.76367188 157.9921875 C35.73158457 165.24105163 35.68044181 172.48961494 35.6171875 179.73828125 C34.02864467 179.5948826 32.44050216 179.44704525 30.85253906 179.29736328 C29.52588226 179.17459518 29.52588226 179.17459518 28.17242432 179.04934692 C12.1552473 177.09947131 -3.19356203 167.70181979 -15.3828125 157.73828125 C-16.17300781 157.11308594 -16.96320312 156.48789063 -17.77734375 155.84375 C-34.00301406 142.34603827 -45.31470561 121.42062437 -48.3828125 100.61328125 C-49.10907065 95.77868042 -50.88224723 94.14672638 -54.3828125 90.73828125 C-54.82137045 87.93785098 -54.62472651 85.59286662 -54.3828125 82.73828125 C-53.74085937 82.57328125 -53.09890625 82.40828125 -52.4375 82.23828125 C-49.97803185 80.80657408 -49.97803185 80.80657408 -49.765625 77.23828125 C-49.66906736 75.73892743 -49.5839275 74.23881174 -49.5078125 72.73828125 C-47.82992876 52.44650231 -39.08894499 33.70501121 -25.3828125 18.73828125 C-24.61195312 17.88621094 -23.84109375 17.03414062 -23.046875 16.15625 C-6.98164128 -0.76683601 -6.98164128 -0.76683601 0 0 Z " fill="#ECBE6A" transform="translate(58.3828125,18.26171875)"/>
<path d="M0 0 C3.29110633 2.10070617 4.8333853 3.75007795 7 7 C7.2784729 8.9172821 7.2784729 8.9172821 7.31884766 11.10424805 C7.33871735 11.92487228 7.35858704 12.74549652 7.37905884 13.59098816 C7.39061005 14.47232925 7.40216125 15.35367035 7.4140625 16.26171875 C7.43342865 17.16751175 7.4527948 18.07330475 7.4727478 19.00654602 C7.53253542 21.90010151 7.57892568 24.7936968 7.625 27.6875 C7.66318054 29.64910591 7.70223231 31.61069506 7.7421875 33.57226562 C7.83823632 38.3813744 7.92227043 43.19056166 8 48 C9.66611905 48.042721 11.33382885 48.04063832 13 48 C14.88631543 46.11368457 14.24265292 42.85799307 14.31640625 40.33984375 C14.33718735 39.67537735 14.35796844 39.01091095 14.37937927 38.3263092 C14.44493658 36.19681457 14.50378785 34.06719332 14.5625 31.9375 C14.60567939 30.49673153 14.64929349 29.05597601 14.69335938 27.61523438 C14.80062393 24.0769596 14.90187371 20.53854131 15 17 C38.3504432 16.1369446 38.3504432 16.1369446 48.8125 24.6875 C55.77669198 31.30717365 59.93254552 39.68151075 60.27124023 49.34301758 C60.29230805 50.9434319 60.30436857 52.54398384 60.30859375 54.14453125 C60.33372154 55.88997776 60.35911995 57.6354204 60.38476562 59.38085938 C60.41364856 62.11091355 60.43769355 64.84090102 60.45629883 67.57104492 C60.47784976 70.220862 60.51723879 72.86996041 60.55859375 75.51953125 C60.55876747 76.75072441 60.55876747 76.75072441 60.5589447 78.00679016 C60.56900109 80.54278488 60.56900109 80.54278488 61 84 C62.485 84.99 62.485 84.99 64 86 C64.328125 87.875 64.328125 87.875 64.25 90 C64.23453125 90.70125 64.2190625 91.4025 64.203125 92.125 C64 94 64 94 63 96 C62.236875 96.103125 61.47375 96.20625 60.6875 96.3125 C57.79789848 96.76210462 57.79789848 96.76210462 56.125 99.375 C53.38218417 102.76318426 51.13812884 103.68959253 47 105 C44.36 105 41.72 105 39 105 C38.67 93.78 38.34 82.56 38 71 C36.35 71 34.7 71 33 71 C32.99857498 71.59166962 32.99714996 72.18333923 32.99568176 72.79293823 C32.97588593 78.99100188 32.92140212 85.18809374 32.84741211 91.38574219 C32.82431722 93.69393932 32.80985653 96.00224056 32.80444336 98.31054688 C32.7950918 101.64258063 32.75396331 104.97299593 32.70703125 108.3046875 C32.71293022 109.834991 32.71293022 109.834991 32.71894836 111.39620972 C32.56180841 119.23806136 30.79534859 126.3404301 24.98127747 131.94650269 C17.5835375 137.93592532 10.46696186 138.31869785 1.25 138.25 C0.19683594 138.25773438 -0.85632813 138.26546875 -1.94140625 138.2734375 C-2.94558594 138.27085937 -3.94976562 138.26828125 -4.984375 138.265625 C-5.89928711 138.26336914 -6.81419922 138.26111328 -7.75683594 138.25878906 C-10 138 -10 138 -12 136 C-12.24774647 134.01707458 -12.24774647 134.01707458 -12.24482727 131.53686523 C-12.24876495 130.5977681 -12.25270264 129.65867096 -12.25675964 128.69111633 C-12.25106461 127.65738388 -12.24536957 126.62365143 -12.23950195 125.55859375 C-12.24151611 124.47221115 -12.24353027 123.38582855 -12.24560547 122.26652527 C-12.24915886 119.90003718 -12.24837422 117.53353962 -12.24382973 115.16705322 C-12.23825088 111.41708407 -12.24737369 107.66742594 -12.2610321 103.91748047 C-12.29820933 93.25273837 -12.31700702 82.58813489 -12.30541992 71.92333984 C-12.29851184 65.40457259 -12.31790555 58.88614706 -12.35130882 52.36746216 C-12.35924692 49.88609022 -12.35800757 47.4046708 -12.34728432 44.92330933 C-12.33289014 41.44058517 -12.34930215 37.95921291 -12.37231445 34.4765625 C-12.36054672 33.4590239 -12.34877899 32.44148529 -12.33665466 31.39311218 C-12.43689801 23.61716827 -14.30083377 16.67448255 -19.96043873 11.05264282 C-21.15753496 10.04907836 -22.38492505 9.08014026 -23.64453125 8.15625 C-24.09183594 7.7746875 -24.53914063 7.393125 -25 7 C-25 6.34 -25 5.68 -25 5 C-7.77124458 -2.29315414 -7.77124458 -2.29315414 0 0 Z " fill="#DAE8FA" transform="translate(113,111)"/>
<path d="M0 0 C2.19365695 2.19365695 3.21144933 4.41906553 4.51147461 7.20483398 C16.46409279 32.68938641 36.92627739 48.71549165 62.62109375 59.0546875 C68.9198112 61.29679977 75.48999357 62.49769082 82 64 C82 48.16 82 32.32 82 16 C82.33 16 82.66 16 83 16 C83 36.46 83 56.92 83 78 C63.52524793 76.05252479 47.14890457 68.38277078 32 56 C31.20980469 55.37480469 30.41960938 54.74960938 29.60546875 54.10546875 C14.76105278 41.75678647 4.66042936 23.59690562 0 5 C-0.125 2.0703125 -0.125 2.0703125 0 0 Z " fill="#E2A12E" transform="translate(11,120)"/>
<path d="M0 0 C10.50144995 2.45320757 16.69142196 6.97333428 23.45703125 15.265625 C29.62812428 26.20173923 28.4613025 38.5729522 28.51123047 50.73583984 C28.52684853 53.36582649 28.55978855 55.99519693 28.59375 58.625 C28.59072876 59.43638428 28.58770752 60.24776855 28.58459473 61.08374023 C28.58384993 63.58703155 28.58384993 63.58703155 29 67 C30.485 67.99 30.485 67.99 32 69 C32.328125 70.875 32.328125 70.875 32.25 73 C32.23453125 73.70125 32.2190625 74.4025 32.203125 75.125 C32 77 32 77 31 79 C30.236875 79.103125 29.47375 79.20625 28.6875 79.3125 C25.79789848 79.76210462 25.79789848 79.76210462 24.125 82.375 C21.38218417 85.76318426 19.13812884 86.68959253 15 88 C12.36 88 9.72 88 7 88 C7 77.11 7 66.22 7 55 C7.33 55 7.66 55 8 55 C8 65.56 8 76.12 8 87 C12.78984984 86.54482175 12.78984984 86.54482175 14.5586853 84.34187317 C18.11307402 77.95457624 18.73510509 72.62680708 18.6640625 65.38671875 C18.66884613 64.29591507 18.67362976 63.20511139 18.67855835 62.08125305 C18.68194484 59.78437856 18.67283064 57.48745504 18.65185547 55.19067383 C18.62515241 51.70738067 18.65160852 48.22733263 18.68359375 44.74414062 C18.70672445 29.84803716 17.86686928 17.28482579 7 6 C4.73876338 4.17642208 2.42901168 2.60314771 0 1 C0 0.67 0 0.34 0 0 Z " fill="#B7D1F3" transform="translate(145,128)"/>
<path d="M0 0 C2.01538086 -0.38818359 2.01538086 -0.38818359 4.46484375 -0.3984375 C5.34720703 -0.40230469 6.22957031 -0.40617187 7.13867188 -0.41015625 C8.5240918 -0.39275391 8.5240918 -0.39275391 9.9375 -0.375 C11.31711914 -0.39240234 11.31711914 -0.39240234 12.72460938 -0.41015625 C13.60826172 -0.40628906 14.49191406 -0.40242188 15.40234375 -0.3984375 C16.21179443 -0.39505371 17.02124512 -0.39166992 17.85522461 -0.38818359 C20 0 20 0 21.78735352 1.21240234 C23.44743977 3.65958405 23.38168291 5.09077094 23 8 C21.99023438 10.12817383 21.99023438 10.12817383 20.59375 12.20703125 C19.84931641 13.33334961 19.84931641 13.33334961 19.08984375 14.48242188 C18.56519531 15.25134766 18.04054687 16.02027344 17.5 16.8125 C16.97535156 17.60076172 16.45070312 18.38902344 15.91015625 19.20117188 C14.61681547 21.14118305 13.31333833 23.07349525 12 25 C12.69867188 25.04898438 13.39734375 25.09796875 14.1171875 25.1484375 C15.02726562 25.22320312 15.93734375 25.29796875 16.875 25.375 C17.77992188 25.44460937 18.68484375 25.51421875 19.6171875 25.5859375 C22 26 22 26 24 28 C24.3125 30.5 24.3125 30.5 24 33 C19.92926875 35.71382083 16.77671888 35.33127641 12 35.3125 C10.77023438 35.33666992 10.77023438 35.33666992 9.515625 35.36132812 C8.72671875 35.36197266 7.9378125 35.36261719 7.125 35.36328125 C6.40570313 35.36626221 5.68640625 35.36924316 4.9453125 35.37231445 C2.432099 34.89130911 1.55408199 33.99823291 0 32 C-1.25416742 25.85826838 2.30192322 21.55176694 5.5 16.625 C6.02464844 15.79355469 6.54929688 14.96210937 7.08984375 14.10546875 C8.38125394 12.06269264 9.68904007 10.03028534 11 8 C7.37 8 3.74 8 0 8 C-0.66 6.35 -1.32 4.7 -2 3 C-1.34 2.01 -0.68 1.02 0 0 Z " fill="#000000" transform="translate(170,25)"/>
<path d="M0 0 C0.92425781 -0.02900391 1.84851563 -0.05800781 2.80078125 -0.08789062 C4.13302734 -0.10045898 4.13302734 -0.10045898 5.4921875 -0.11328125 C6.30800293 -0.12786377 7.12381836 -0.14244629 7.96435547 -0.1574707 C10.125 0.3125 10.125 0.3125 11.94726562 2.16674805 C13.125 4.3125 13.125 4.3125 12.6015625 7.0703125 C10.82792404 10.96480966 8.75299603 14.5545439 6.5 18.1875 C6.07976562 18.87585938 5.65953125 19.56421875 5.2265625 20.2734375 C4.19807528 21.95641658 3.162279 23.63492532 2.125 25.3125 C2.73988281 25.34988281 3.35476562 25.38726562 3.98828125 25.42578125 C4.79652344 25.49152344 5.60476562 25.55726562 6.4375 25.625 C7.23800781 25.68300781 8.03851563 25.74101563 8.86328125 25.80078125 C11.51555212 26.40086326 12.49839725 27.1613576 14.125 29.3125 C14 31.375 14 31.375 13.125 33.3125 C9.40175349 35.79466434 6.4927041 35.60875107 2.1875 35.5625 C1.47142578 35.57023437 0.75535156 35.57796875 0.01757812 35.5859375 C-7.29948694 35.55881214 -7.29948694 35.55881214 -9.875 33.3125 C-10.96484375 30.7734375 -10.96484375 30.7734375 -10.875 27.3125 C-9.39248087 23.96913787 -7.44765787 20.98555075 -5.4375 17.9375 C-4.90833984 17.10605469 -4.37917969 16.27460937 -3.83398438 15.41796875 C-2.52916838 13.37258151 -1.2095197 11.33858109 0.125 9.3125 C-0.57367188 9.26351562 -1.27234375 9.21453125 -1.9921875 9.1640625 C-2.90226563 9.08929688 -3.81234375 9.01453125 -4.75 8.9375 C-5.65492188 8.86789063 -6.55984375 8.79828125 -7.4921875 8.7265625 C-9.875 8.3125 -9.875 8.3125 -11.875 6.3125 C-10.92429564 -1.48327572 -6.83236481 0.07087515 0 0 Z " fill="#000000" transform="translate(135.875,56.6875)"/>
<path d="M0 0 C0.98033203 -0.01224609 1.96066406 -0.02449219 2.97070312 -0.03710938 C3.90720703 -0.03904297 4.84371094 -0.04097656 5.80859375 -0.04296875 C6.67154053 -0.04707764 7.5344873 -0.05118652 8.42358398 -0.05541992 C10.5625 0.1875 10.5625 0.1875 12.5625 2.1875 C13.70860205 8.39555275 10.2929013 12.58593584 7.0625 17.5625 C6.53785156 18.39394531 6.01320313 19.22539062 5.47265625 20.08203125 C4.18105422 22.12511083 2.87761207 24.15950562 1.5625 26.1875 C2.26117188 26.17589844 2.95984375 26.16429688 3.6796875 26.15234375 C4.58976562 26.14332031 5.49984375 26.13429688 6.4375 26.125 C7.79488281 26.10759766 7.79488281 26.10759766 9.1796875 26.08984375 C11.5625 26.1875 11.5625 26.1875 13.5625 27.1875 C13.60504356 29.18704746 13.60330783 31.18791636 13.5625 33.1875 C11.20294489 35.54705511 5.29497174 34.37292405 2.125 34.375 C1.14466797 34.38724609 0.16433594 34.39949219 -0.84570312 34.41210938 C-1.78220703 34.41404297 -2.71871094 34.41597656 -3.68359375 34.41796875 C-4.54654053 34.42207764 -5.4094873 34.42618652 -6.29858398 34.43041992 C-8.4375 34.1875 -8.4375 34.1875 -10.4375 32.1875 C-11.561328 26.02517646 -8.27184741 22.14607487 -4.9375 17.3125 C-4.41285156 16.52875 -3.88820313 15.745 -3.34765625 14.9375 C-2.05630589 13.012214 -0.75291969 11.09638516 0.5625 9.1875 C-0.13617188 9.13851563 -0.83484375 9.08953125 -1.5546875 9.0390625 C-2.46476562 8.96429688 -3.37484375 8.88953125 -4.3125 8.8125 C-5.21742187 8.74289062 -6.12234375 8.67328125 -7.0546875 8.6015625 C-9.4375 8.1875 -9.4375 8.1875 -11.4375 6.1875 C-11.625 3.625 -11.625 3.625 -11.4375 1.1875 C-9.07794489 -1.17205511 -3.16997174 0.00207595 0 0 Z " fill="#000000" transform="translate(114.4375,-0.1875)"/>
<path d="M0 0 C0.5775 0.226875 1.155 0.45375 1.75 0.6875 C-0.4007527 13.40700522 -7.75398153 27.02915979 -16.25 36.6875 C-16.58 36.6875 -16.91 36.6875 -17.25 36.6875 C-17.26417969 35.97207031 -17.27835938 35.25664062 -17.29296875 34.51953125 C-17.69373359 26.14679558 -19.90580756 19.33841997 -23.25 11.6875 C-22.7559668 11.43057373 -22.26193359 11.17364746 -21.75292969 10.90893555 C-19.50001235 9.73463806 -17.24999953 8.5548778 -15 7.375 C-14.22269531 6.97087891 -13.44539062 6.56675781 -12.64453125 6.15039062 C-9.55424354 4.52600862 -6.63717182 2.97913592 -3.84375 0.875 C-2.25 -0.3125 -2.25 -0.3125 0 0 Z " fill="#E19F2C" transform="translate(197.25,127.3125)"/>
<path d="M0 0 C0.33 0 0.66 0 1 0 C1.12754127 6.65262205 1.21465991 13.30492492 1.2746582 19.95849609 C1.29968909 22.21838157 1.33372438 24.47818702 1.37719727 26.73779297 C1.43835233 29.99987619 1.46632502 33.26088245 1.48828125 36.5234375 C1.51408768 37.52176605 1.5398941 38.5200946 1.56648254 39.54867554 C1.56927337 46.64473515 0.05059131 52.10662335 -4 58 C-11.82002108 65.540378 -19.37204677 66.29315073 -29.875 66.125 C-30.94492188 66.11597656 -32.01484375 66.10695313 -33.1171875 66.09765625 C-35.74502439 66.07419342 -38.37239406 66.04136459 -41 66 C-41 65.67 -41 65.34 -41 65 C-40.0553186 65.01740234 -40.0553186 65.01740234 -39.09155273 65.03515625 C-36.20559961 65.06484549 -33.32339124 65.03289806 -30.4375 65 C-28.9515332 65.02900391 -28.9515332 65.02900391 -27.43554688 65.05859375 C-21.70409392 64.95025843 -21.70409392 64.95025843 -16.7890625 62.27319336 C-11.36425853 56.17520267 -8.74826431 50.16696604 -8.40625 42.015625 C-7.87984735 39.40385802 -7.18554587 38.51454494 -5 37 C-3.35 37 -1.7 37 0 37 C0 24.79 0 12.58 0 0 Z " fill="#AFC5E3" transform="translate(144,183)"/>
<path d="M0 0 C-1.43308135 3.95906817 -3.33141949 7.28718181 -5.625 10.8125 C-6.57246094 12.27623047 -6.57246094 12.27623047 -7.5390625 13.76953125 C-8.02117187 14.50558594 -8.50328125 15.24164063 -9 16 C-12 15 -12 15 -13.25 13.1875 C-14.17202449 10.49826191 -14.10427687 9.61232018 -13 7 C-10.56640625 5.078125 -10.56640625 5.078125 -7.5625 3.25 C-6.57378906 2.63640625 -5.58507812 2.0228125 -4.56640625 1.390625 C-2 0 -2 0 0 0 Z " fill="#E8BA65" transform="translate(197,127)"/>
<path d="M0 0 C0.66 0 1.32 0 2 0 C2.53190541 1.43344 3.05015258 2.87195367 3.5625 4.3125 C3.85253906 5.11300781 4.14257812 5.91351563 4.44140625 6.73828125 C5 9 5 9 4 12 C2 10.5 2 10.5 0 8 C-0.35800135 5.24128373 -0.18660165 2.79902476 0 0 Z " fill="#E09F2F" transform="translate(4,101)"/>
</svg>
