<?xml version="1.0" encoding="utf-8"?>
<svg viewBox="0 0 750 500" width="750px" height="500px" xmlns="http://www.w3.org/2000/svg" xmlns:xlink="http://www.w3.org/1999/xlink" xmlns:bx="https://boxy-svg.com"><defs><style bx:fonts="Lora">@import url(https://fonts.googleapis.com/css2?family=Lora%3Aital%2Cwght%400%2C400..700%3B1%2C400..700&amp;display=swap);</style><bx:export><bx:file format="svg" xlink:href="#object-0"/><bx:file format="svg" path="upgrade_pressed.svg" excluded="true"/><bx:file format="svg" path="upgrade_pressed_crop.svg"/><bx:file format="svg" path="Untitled 2.svg" excluded="true" xlink:href="#freepik--background-complete--inject-170"/><bx:file format="svg" path="Untitled 3.svg" xlink:href="#freepik--Character--inject-170"/></bx:export></defs><g id="freepik--background-complete--inject-170" transform="matrix(1.357774, 0, 0, 1.357774, -131.715607, -3.033482)" style=""><rect x="626.39" y="274.33" width="55.65" height="82.56" transform="translate(109.74 796.39) rotate(-67.2)" style="fill:#ebebeb"/><path d="M703,306.68a7,7,0,0,1-1,.38l-2.9,1-10.71,3.42L652.9,322.5l-.29.09-.15-.27-.35-.65-18-33.15c-2.23-4.21-4.06-7.63-5.36-10.09-.59-1.15-1.07-2.06-1.43-2.76a6.36,6.36,0,0,1-.45-1,5.4,5.4,0,0,1,.59.92l1.55,2.69c1.35,2.43,3.24,5.82,5.57,10,4.67,8.52,11.07,20.17,18.14,33l.35.66-.44-.18L688.26,311l10.79-3.2,2.94-.83A5.18,5.18,0,0,1,703,306.68Z" style="fill:#e0e0e0"/><path d="M605.36,326c-.1-.18,8.58-4.81,19.38-10.33s19.63-9.85,19.73-9.66-8.59,4.81-19.39,10.33S605.45,326.17,605.36,326Z" style="fill:#e0e0e0"/><path d="M670,316c.2-.05,2.93,9.3,6.08,20.9s5.55,21,5.35,21.1-2.92-9.3-6.07-20.9S669.84,316,670,316Z" style="fill:#e0e0e0"/><rect x="138.58" y="367.89" width="41.38" height="61.4" transform="translate(-269.9 390.95) rotate(-67.2)" style="fill:#f5f5f5"/><path d="M195.57,392a3.75,3.75,0,0,1-.74.29l-2.15.71-8,2.55-26.41,8.22-.22.07-.11-.2c-.08-.16-.17-.32-.27-.49l-13.34-24.65-4-7.51-1.06-2.05a5.1,5.1,0,0,1-.34-.73,3.67,3.67,0,0,1,.44.68l1.15,2c1,1.8,2.42,4.32,4.14,7.42l13.49,24.57c.09.17.18.34.27.49l-.33-.13,26.46-8.06,8-2.38,2.19-.62A3.75,3.75,0,0,1,195.57,392Z" style="fill:#e0e0e0"/><path d="M122.94,406.31c-.07-.14,6.38-3.58,14.41-7.69S152,391.3,152,391.44s-6.38,3.57-14.41,7.68S123,406.44,122.94,406.31Z" style="fill:#e0e0e0"/><path d="M171,398.87c.14,0,2.17,6.92,4.51,15.54s4.13,15.65,4,15.69-2.18-6.92-4.52-15.54S170.89,398.91,171,398.87Z" style="fill:#e0e0e0"/><rect x="56.13" y="253.26" width="72.21" height="69.87" transform="translate(-99.68 54.25) rotate(-21.62)" style="fill:#f5f5f5"/><polygon points="74.54 326.34 79.87 285.56 103.53 300.9 108.26 285.9 131.27 303.87 74.54 326.34" style="fill:#e0e0e0"/><path d="M99,270.48a5.2,5.2,0,1,1-6.75-2.92A5.19,5.19,0,0,1,99,270.48Z" style="fill:#e0e0e0"/><g style="opacity:0.30000000000000004"><path d="M131.34,304.05a1.74,1.74,0,0,1-.12-.26c-.08-.2-.19-.44-.32-.75l-1.19-2.92c-1-2.56-2.53-6.28-4.44-11-3.79-9.47-9.2-23-15.68-39.16l.38.17-56.7,22.52c-.05.1.36-.84.19-.44v.05l0,.06,0,.11.09.23.18.47.37.92.73,1.85c.49,1.22,1,2.45,1.45,3.66l2.87,7.24,5.54,14,10.11,25.62-.38-.16,41.06-16.11,11.6-4.52,3.08-1.18.8-.3a1.76,1.76,0,0,1,.29-.09l-.24.11-.76.32-3,1.23-11.48,4.63L74.73,326.8l-.28.12-.11-.28c-3.15-7.91-6.57-16.51-10.18-25.6q-2.71-6.82-5.56-14c-.94-2.39-1.9-4.8-2.86-7.23-.49-1.22-1-2.44-1.46-3.67l-.73-1.85-.37-.92-.18-.46-.09-.24,0-.11,0-.06v0h0c-.17.39.23-.56.2-.46l56.73-22.43.28-.11.11.27,15.47,39.45,4.27,11,1.11,2.88c.11.31.2.55.27.73A1.13,1.13,0,0,1,131.34,304.05Z" style="fill:#e0e0e0"/></g><path d="M497.53,420.2l-3.63-2.62a10.55,10.55,0,0,1-4.09-6.16l-2.56-11A14.91,14.91,0,0,0,471.6,389l-1-4.26a2,2,0,0,0-2.41-1.5h0a2,2,0,0,0-1.5,2.41l1,4.18a14.9,14.9,0,0,0-9.47,17.4l2.45,10.56a10.53,10.53,0,0,1-.71,6.86l-2.27,4.87L472.46,426a6.28,6.28,0,0,0,10.41.07,6.22,6.22,0,0,0,1-2.72Z" style="fill:#ebebeb"/><polygon points="506.11 120.09 570.09 161.89 543.13 206.36 477.6 161.98 506.11 120.09" style="fill:#f5f5f5"/><path d="M506.11,120.09l46.32-4.38a4.15,4.15,0,0,1,4.36,2.91l13.3,43.27" style="fill:#C3EA59"/><path d="M506.11,120.09l46.32-4.38a4.15,4.15,0,0,1,4.36,2.91l13.3,43.27" style="fill:#e0e0e0"/><path d="M477.6,162c0-.13,8.76-2.31,19.64-4.87S517,152.57,517,152.7s-8.76,2.3-19.63,4.87S477.63,162.11,477.6,162Z" style="fill:#e0e0e0"/><path d="M543.13,206.36c-.13,0-1.48-8.73-3-19.54s-2.66-19.59-2.53-19.6,1.47,8.72,3,19.54S543.26,206.34,543.13,206.36Z" style="fill:#e0e0e0"/><polygon points="506.11 120.09 521.16 166.21 570.09 161.89 506.11 120.09" style="fill:#e0e0e0"/><polygon points="507.75 124.58 520.85 104.63 577.04 140.98 563.78 162.32 521.38 165.87 507.75 124.58" style="fill:#fafafa"/><path d="M507.75,124.58s.1.26.27.75l.76,2.18c.65,1.94,1.59,4.74,2.8,8.32,2.4,7.19,5.84,17.49,10,30l-.22-.15,42.4-3.6-.2.12,7.88-12.69q2.73-4.38,5.38-8.65l.08.36-56.14-36.43.23,0-9.7,14.62c-1.13,1.69-2,3-2.61,3.9l-.69,1c-.15.23-.24.34-.24.34s.06-.12.2-.35.36-.58.64-1l2.52-3.93,9.6-14.75.09-.14.14.09,56.24,36.27.21.14-.13.22-5.38,8.65L564,162.46l-.07.11h-.13l-42.4,3.51h-.17l-.05-.16-9.84-30.11c-1.16-3.58-2.07-6.39-2.69-8.33l-.69-2.18C507.81,124.83,507.75,124.58,507.75,124.58Z" style="fill:#e0e0e0"/><path d="M561.58,145.14c-.08.12-8.7-5.39-19.26-12.31s-19.06-12.62-19-12.74,8.7,5.39,19.26,12.31S561.66,145,561.58,145.14Z" style="fill:#e0e0e0"/><path d="M557.85,150.76c-.08.12-8.7-5.39-19.26-12.31s-19.06-12.62-19-12.74,8.7,5.39,19.27,12.31S557.93,150.64,557.85,150.76Z" style="fill:#e0e0e0"/><path d="M553.55,157.23c-.07.12-8.7-5.39-19.26-12.3s-19.06-12.63-19-12.75,8.71,5.39,19.27,12.31S553.63,157.11,553.55,157.23Z" style="fill:#e0e0e0"/><path d="M549.26,163.71c-.08.12-8.31-5.13-18.39-11.73s-18.18-12-18.1-12.17,8.31,5.13,18.39,11.73S549.34,163.59,549.26,163.71Z" style="fill:#e0e0e0"/><path d="M538.35,164.66a4.42,4.42,0,0,1-.92-.49L535,162.7l-7.87-5c-3.07-2-5.82-3.79-7.8-5.13-1-.67-1.78-1.23-2.32-1.62a4,4,0,0,1-.81-.65,3.79,3.79,0,0,1,.92.48l2.41,1.48,7.88,5c3.07,2,5.82,3.78,7.79,5.13,1,.67,1.78,1.22,2.32,1.62A4,4,0,0,1,538.35,164.66Z" style="fill:#e0e0e0"/><path d="M527.55,165.36a22.93,22.93,0,0,1-4.2-2.48,22.62,22.62,0,0,1-3.92-2.92,22.93,22.93,0,0,1,4.2,2.48A22.62,22.62,0,0,1,527.55,165.36Z" style="fill:#e0e0e0"/><path d="M282.66,157.52l-9.83,14.64L269,170.58l-28.51,18-5.56-15.09s16.14-4.77,19.64-9.91.36-6.77.36-6.77l8.21-7.34Z" style="fill:#ebebeb"/><path d="M276.12,124.43s-11.34-4-25.84-21.69S230.58,63.16,228.56,63s-10.29-5.25-31.29,29-15.45,43.45-12.12,43.78,26.58-3.25,40.45,0,31.07,12.77,31.07,12.77Z" style="fill:#ebebeb"/><path d="M298.45,148.53l-4.88,7.08-2.18,3.17A9.94,9.94,0,0,1,278,161.61l-23.92-11.69,18.51-31.45L296,134.75A9.93,9.93,0,0,1,298.45,148.53Z" style="fill:#e0e0e0"/><path d="M198.54,92.84c-11.22,18.57-17,35.62-12.93,38.09s16.49-10.59,27.7-29.16,17-35.63,12.93-38.09S209.75,74.27,198.54,92.84Z" style="fill:#e0e0e0"/><path d="M293.08,149.21c-.12.2-3.34-1.51-7.19-3.84s-6.86-4.38-6.74-4.58,3.35,1.51,7.19,3.83S293.21,149,293.08,149.21Z" style="fill:#ebebeb"/><path d="M295.73,144.71c-.13.21-3-1.45-6.48-3.69s-6.14-4.22-6-4.43,3,1.45,6.48,3.7S295.86,144.51,295.73,144.71Z" style="fill:#ebebeb"/><path d="M289.86,153.87c-.05.11-.83-.17-2.06-.72-.62-.28-1.35-.62-2.16-1s-1.61-.94-2.48-1.48c-3.5-2.16-6.13-4.18-6-4.37s3,1.49,6.46,3.63c.87.52,1.67,1.09,2.43,1.52s1.46.81,2,1.15C289.22,153.28,289.91,153.76,289.86,153.87Z" style="fill:#ebebeb"/><path d="M217.14,90.64s-9.38-7.49-16.55,5.52,3.2,16.54,3.2,16.54A92,92,0,0,0,217.14,90.64Z" style="fill:#fafafa"/><path d="M229.85,75.63a14.33,14.33,0,0,1-.71,2.56c-.52,1.63-1.26,4-2.26,6.91-.61,1.41-1.27,3-2,4.62l-1.11,2.57c-.19.44-.38.89-.58,1.34s-.46.89-.69,1.34q-1.44,2.69-3,5.63-.39.72-.78,1.47c-.26.5-.6,1-.9,1.44L216,106.44l-1.89,2.92c-.31.47-.59,1-.94,1.41l-1,1.33-3.88,5.06c-.32.4-.61.81-.93,1.19l-1,1.08-1.89,2.08-3.38,3.72c-2.22,2.11-4.07,3.77-5.33,4.92a15.54,15.54,0,0,1-2.05,1.71,16.56,16.56,0,0,1,1.81-2l5.14-5.12,3.28-3.76,1.83-2.09c.32-.35.64-.72,1-1.09s.6-.78.91-1.18l3.81-5.06,1-1.33c.34-.44.61-.93.93-1.4l1.86-2.91,1.87-2.9c.29-.48.63-.93.89-1.43l.79-1.46c1-1.93,2.05-3.79,3-5.56.23-.45.49-.88.7-1.32s.4-.89.59-1.33l1.14-2.54,2.06-4.55,2.52-6.78A16.73,16.73,0,0,1,229.85,75.63Z" style="fill:#e0e0e0"/><path d="M175.66,102.58c0,.15-7.35-.1-16.41-.54s-16.39-.92-16.38-1.06,7.35.1,16.41.54S175.67,102.44,175.66,102.58Z" style="fill:#ebebeb"/><path d="M182.81,81.15c-.06.13-8.58-4-19-9.3S144.93,62.21,145,62.09s8.58,4,19,9.29S182.88,81,182.81,81.15Z" style="fill:#ebebeb"/><path d="M195.65,67.34c-.14,0-2-6.42-4.12-14.42s-3.75-14.53-3.61-14.57,2,6.43,4.12,14.43S195.79,67.3,195.65,67.34Z" style="fill:#ebebeb"/><path d="M482.86,85.5a12.21,12.21,0,0,0-4.21-6A11.69,11.69,0,0,0,472,76.85a9.6,9.6,0,0,0-7,2.69,9.48,9.48,0,0,0-2.39,3.88,9.43,9.43,0,0,0-10.83-2.69,11.65,11.65,0,0,0-5.37,4.74,12.17,12.17,0,0,0-2,7.06,14.8,14.8,0,0,0,3.38,8.68,20.88,20.88,0,0,0,8.28,5.45c5.14,2,11.88,4.45,11.88,4.45s4.52-4.77,8.69-8.39a21,21,0,0,0,6-7.91A14.89,14.89,0,0,0,482.86,85.5Z" style="fill:#ebebeb"/><path d="M438,59a7.27,7.27,0,0,0-1.21-4.16,6.88,6.88,0,0,0-3.22-2.77,5.67,5.67,0,0,0-4.46.15A5.78,5.78,0,0,0,427,54a5.5,5.5,0,0,0-1.36-2,5.63,5.63,0,0,0-4.18-1.54A6.87,6.87,0,0,0,417.56,52a7.24,7.24,0,0,0-2.45,3.58,8.8,8.8,0,0,0,.22,5.51,12.36,12.36,0,0,0,3.6,4.64c2.49,2.11,5.8,4.78,5.8,4.78s3.44-1.8,6.47-3a12.26,12.26,0,0,0,4.87-3.28A8.83,8.83,0,0,0,438,59Z" style="fill:#ebebeb"/><path d="M252.23,385.85a7.18,7.18,0,0,0-2.88-3.24,7,7,0,0,0-4.1-1.12,5.56,5.56,0,0,0-5.1,4.5,5.55,5.55,0,0,0-2.11-1.26,5.68,5.68,0,0,0-4.44.4,6.94,6.94,0,0,0-2.85,3.16,7.22,7.22,0,0,0-.67,4.28,8.74,8.74,0,0,0,2.57,4.89,12.45,12.45,0,0,0,5.24,2.64c3.16.83,7.29,1.82,7.29,1.82s2.33-3.11,4.55-5.52a12.43,12.43,0,0,0,3-5A8.81,8.81,0,0,0,252.23,385.85Z" style="fill:#ebebeb"/><path d="M645.68,193.73a33.61,33.61,0,0,0-.59-5.25,20.7,20.7,0,0,0-2.18-5.77,21.31,21.31,0,0,0-25.21-10,19.79,19.79,0,0,0-5.48,2.69,25.27,25.27,0,0,0-2.48,1.95,24.62,24.62,0,0,0-2.17,2.38,21.13,21.13,0,0,0-1,25.06,23.63,23.63,0,0,0,2,2.54,24.72,24.72,0,0,0,2.33,2.15,20.22,20.22,0,0,0,5.25,3.1,21.36,21.36,0,0,0,11.12,1.37,21,21,0,0,0,9.11-3.6,21.32,21.32,0,0,0,5.68-5.82,20.36,20.36,0,0,0,2.62-5.58,33.55,33.55,0,0,0,1-5.19s0,.12,0,.35,0,.61-.06,1a10.84,10.84,0,0,1-.2,1.66,15.9,15.9,0,0,1-.5,2.23,20.51,20.51,0,0,1-2.56,5.71,21.8,21.8,0,0,1-15,9.76,21.9,21.9,0,0,1-11.43-1.36,20.84,20.84,0,0,1-5.42-3.17,27.54,27.54,0,0,1-2.4-2.2,26.08,26.08,0,0,1-2-2.61,21.72,21.72,0,0,1,1-25.83,25,25,0,0,1,2.24-2.45,25.38,25.38,0,0,1,2.57-2,20.25,20.25,0,0,1,5.65-2.75,21.73,21.73,0,0,1,11.49-.46,21.75,21.75,0,0,1,14.22,10.89,20.3,20.3,0,0,1,2.11,5.89,15.46,15.46,0,0,1,.32,2.26,9.14,9.14,0,0,1,.07,1.67c0,.42,0,.76,0,1S645.7,193.73,645.68,193.73Z" style="fill:#e0e0e0"/><path d="M624.06,215.19a21.46,21.46,0,0,1-8.33-1.62,21,21,0,0,1-5.54-3.24,18.8,18.8,0,0,1-2-1.8l-.44-.43-.39-.45a20.8,20.8,0,0,1-1.74-2.26,22.24,22.24,0,0,1,1-26.41,21.17,21.17,0,0,1,1.9-2.1l.38-.38.5-.43a20.72,20.72,0,0,1,2.15-1.65,21.06,21.06,0,0,1,5.77-2.8,22.48,22.48,0,0,1,11.75-.47,22.19,22.19,0,0,1,14.55,11.15,20.73,20.73,0,0,1,2.16,6,13.28,13.28,0,0,1,.31,2.08l0,.22a9.78,9.78,0,0,1,.07,1.73l0,1a3.84,3.84,0,0,1,0,.39v.32l-.06,1a12,12,0,0,1-.21,1.73l0,.21a15.65,15.65,0,0,1-.47,2.07,20.89,20.89,0,0,1-2.62,5.82,22.22,22.22,0,0,1-15.37,10A25.34,25.34,0,0,1,624.06,215.19Zm0-43a19.34,19.34,0,0,0-6.23,1,19.1,19.1,0,0,0-5.35,2.62,17.36,17.36,0,0,0-2,1.51l-.85.78A18.62,18.62,0,0,0,608,180a20.64,20.64,0,0,0-1,24.48,19.73,19.73,0,0,0,1.6,2.08l.36.42.41.41A17.48,17.48,0,0,0,611.2,209a19.27,19.27,0,0,0,5.14,3,21,21,0,0,0,10.87,1.35,20.94,20.94,0,0,0,14.43-9.2,20.08,20.08,0,0,0,2.56-5.44,24.34,24.34,0,0,0,.9-4.61c0-.2,0-.35.06-.47s0-.27,0-.47a24.45,24.45,0,0,0-.54-4.66,20.41,20.41,0,0,0-2.13-5.63,21,21,0,0,0-5.09-6.09,20.75,20.75,0,0,0-8.6-4.2A22.84,22.84,0,0,0,624.09,172.16Z" style="fill:#e0e0e0"/><path d="M638.29,209.15c.13-.12,4.65,4.54,10.09,10.42s9.74,10.74,9.6,10.87-4.65-4.54-10.09-10.42S638.16,209.28,638.29,209.15Z" style="fill:#e0e0e0"/><path d="M658.17,230.94H658c-.2,0-.67,0-10.43-10.58s-9.75-11-9.74-11.22v-.21l.15-.14c.42-.4.46-.43,3.76,3,1.9,2,4.4,4.62,7,7.47s5.08,5.54,6.9,7.6c3.13,3.55,3.1,3.58,2.67,4Z" style="fill:#e0e0e0"/><path d="M150.08,165.86l-4.16,1.67-14.18-9-3.33-8.32s-6.6,2.19-1.48,12.78,3.19,8.14,3.19,8.14-13.65,5.53-14.31,7.18c-.48,1.19,4.59,14.93,7.4,22.35,1.41,3.74,5.07,6.28,8.87,5.77a6.18,6.18,0,0,0,1.55-.39c3.41-1.37,19.73-11.12,19.73-11.12l7.2-2.89Z" style="fill:#ebebeb"/><polygon points="161.1 158.8 169.96 188.33 162.82 191.19 151.63 163.26 161.1 158.8" style="fill:#ebebeb"/><path d="M573.79,381.82l-4.91.81L555.7,369.46l-1.61-9.8s-7.67.78-4.66,13.47,1.5,9.58,1.5,9.58-16.11,2.72-17.22,4.35c-.8,1.17,1.4,17.26,2.66,26,.64,4.39,4,8,8.22,8.37a7.53,7.53,0,0,0,1.78,0c4-.66,24-7.32,24-7.32l8.48-1.4Z" style="fill:#f5f5f5"/><polygon points="587.41 376.81 589.93 410.9 581.52 412.29 576.09 379.37 587.41 376.81" style="fill:#f5f5f5"/><path d="M312.69,413.58a12.56,12.56,0,0,0,10.67-8.79c2.14-6.59-1.14-13.57-7.32-15.59s-12.94,1.71-15.08,8.31A12.55,12.55,0,0,0,304.53,411c-18.09-2.92-23.31,16.09-23.31,16.09L322,440.31S329,421.64,312.69,413.58Z" style="fill:#ebebeb"/></g><g id="freepik--Character--inject-170" style="" transform="matrix(1.357774, 0, 0, 1.357774, -148.484528, -12.180162)"><g transform="matrix(1, 0, 0, 1, 8.982037, 10.104791)"><rect style="fill: rgb(195, 234, 89);" x="114.58" y="223.11" width="526.26" height="128.48" rx="25" ry="25"/><text style="font-family: Lora; font-size: 52px; font-weight: 700; stroke-linecap: round; stroke-linejoin: round; stroke-miterlimit: 5.83; white-space: pre;" x="200" y="305.326" id="object-0">Upgrade to Pro</text></g><g style="opacity: 0.3;" transform="matrix(1, 0, 0, 1, 16.841318, 10.104791)"><path d="M497.61,223.11s-2.89.06-4.35,0c-5,0-14,0-14,0L472.8,235c1.49,3.15,3.43,6.66,6.84,7.36a10.06,10.06,0,0,0,5.07-.64,34.68,34.68,0,0,0,11.17-5.83,11.89,11.89,0,0,0,4.42-6C500.93,227.42,499.91,224.19,497.61,223.11Z" style=""/></g><g style="opacity:0.30000000000000004" transform="matrix(1, 0, 0, 1, 16.841318, 10.104791)"><path d="M268.81,235.94c-1.51-3.71-3.92-10.37-7.07-12.83,0,0-20.17.34-20.27,0l9.37,33.56c3,2.39,4.52,5.69,5.49,8.81s1.77,6.47,4,8.82,6.65,3,8.59.41c2.19-2.93-.19-7-.26-10.65s2.24-6.87,3.18-10.4C273.45,247.75,271.11,241.59,268.81,235.94Z"/></g><path d="M 437.381 129.515 C 438.781 125.965 440.191 122.305 440.211 118.515 C 440.231 114.725 438.541 110.585 435.211 108.945 C 432.111 107.435 428.381 108.305 425.111 107.255 C 421.111 105.955 418.421 102.005 416.521 98.095 C 414.621 94.185 413.071 89.945 409.981 86.965 C 405.733 83.029 399.47 82.185 394.331 84.855 C 390.71 82.505 386.507 81.207 382.191 81.105 C 376.801 81.105 370.681 81.725 367.041 85.705 C 364.221 88.785 362.481 92.705 358.971 94.915 C 354.131 98.035 347.781 95.705 342.041 96.095 C 340.871 96.175 339.511 96.515 339.041 97.595 C 338.802 98.592 339.002 99.645 339.591 100.485 L 344.321 109.625 C 341.889 110.8 339.053 110.8 336.621 109.625 C 337.093 115.722 339.686 121.462 343.951 125.845 C 342.951 125.155 341.401 125.945 340.951 127.105 C 340.59 128.311 340.646 129.604 341.111 130.775 C 345.863 146.417 363.351 154.243 378.181 147.365 L 409.931 148.775 C 410.891 151.229 412.99 153.058 415.551 153.675 C 419.011 150.945 419.551 149.455 419.551 149.455 C 421.791 151.005 420.051 150.245 421.791 151.005 C 425.791 152.755 431.511 150.355 432.261 145.955 C 432.441 144.166 433.135 142.467 434.261 141.065 C 435.481 139.745 437.261 139.205 438.811 138.355 C 441.301 136.981 443.274 134.832 444.431 132.235 C 441.804 132.354 439.247 131.368 437.381 129.515 Z" style="fill:#263238"/><path d="M 359.091 117.475 C 359.21 101.581 371.51 88.441 387.361 87.275 L 388.941 87.165 C 406.001 86.915 415.751 101.255 415.531 118.315 L 418.061 196.885 L 379.121 199.665 L 377.641 174.105 C 377.641 174.105 361.131 172.765 359.731 156.455 C 359.051 148.605 358.981 132.265 359.091 117.475 Z" style="fill:#ffbe9d"/><path d="M 367.271 129.825 C 367.352 131.09 368.425 132.061 369.691 132.015 C 370.946 132.015 371.958 130.989 371.941 129.735 C 371.866 128.467 370.79 127.494 369.521 127.545 C 368.262 127.533 367.243 128.566 367.271 129.825 Z" style="fill:#263238"/><path d="M 364.021 123.725 C 364.331 124.015 366.021 122.575 368.511 122.395 C 371.001 122.215 372.951 123.335 373.201 123.015 C 373.331 122.865 372.991 122.335 372.151 121.815 C 371.007 121.144 369.684 120.84 368.361 120.945 C 367.058 121.036 365.818 121.54 364.821 122.385 C 364.091 123.035 363.841 123.605 364.021 123.725 Z" style="fill:#263238"/><path d="M 380.651 144.105 C 380.651 143.955 379.071 143.805 376.521 143.665 C 375.871 143.665 375.261 143.565 375.121 143.135 C 375.016 142.478 375.113 141.804 375.401 141.205 C 375.895 139.605 376.408 137.938 376.941 136.205 C 379.061 129.065 380.551 123.205 380.261 123.135 C 379.971 123.065 378.021 128.765 375.901 135.905 C 375.395 137.665 374.908 139.331 374.441 140.905 C 374.098 141.708 374.045 142.606 374.291 143.445 C 374.516 143.89 374.932 144.207 375.421 144.305 C 375.78 144.38 376.147 144.403 376.511 144.375 C 379.071 144.355 380.651 144.255 380.651 144.105 Z" style="fill:#263238"/><path d="M 363.251 117.685 C 363.821 118.225 365.901 117.495 368.451 117.315 C 371.001 117.135 373.181 117.395 373.631 116.775 C 373.831 116.465 373.461 115.915 372.481 115.435 C 371.134 114.842 369.655 114.612 368.191 114.765 C 366.731 114.87 365.325 115.356 364.111 116.175 C 363.251 116.815 362.991 117.425 363.251 117.685 Z" style="fill:#263238"/><path d="M 413.951 130.585 C 414.221 130.445 424.951 126.445 425.381 137.585 C 425.811 148.725 414.521 146.935 414.481 146.585 C 414.441 146.235 413.951 130.585 413.951 130.585 Z" style="fill:#ffbe9d"/><path d="M 416.741 142.345 C 416.791 142.345 416.951 142.475 417.281 142.615 C 417.751 142.799 418.272 142.799 418.741 142.615 C 419.901 142.135 420.821 140.215 420.791 138.195 C 420.78 137.234 420.555 136.288 420.131 135.425 C 419.889 134.724 419.316 134.189 418.601 133.995 C 418.138 133.899 417.67 134.141 417.481 134.575 C 417.341 134.895 417.421 135.115 417.361 135.135 C 417.301 135.155 417.111 134.955 417.181 134.495 C 417.232 134.215 417.377 133.961 417.591 133.775 C 417.89 133.528 418.275 133.409 418.661 133.445 C 419.606 133.584 420.408 134.211 420.771 135.095 C 421.287 136.044 421.562 137.105 421.571 138.185 C 421.571 140.445 420.571 142.595 418.931 143.135 C 418.329 143.339 417.667 143.258 417.131 142.915 C 416.781 142.615 416.711 142.375 416.741 142.345 Z" style="fill:#eb996e"/><path d="M 417.731 105.025 C 416.873 101.773 415.396 98.717 413.381 96.025 C 407.531 87.895 394.171 84.095 386.581 84.775 C 378.991 85.455 371.121 91.075 364.051 93.895 C 359.421 95.745 355.911 99.995 357.681 103.285 C 354.939 104.351 352.041 104.966 349.101 105.105 C 349.101 105.105 348.831 109.275 351.151 110.385 L 358.451 115.165 C 368.181 116.455 385.261 106.875 388.551 103.865 C 391.606 101.062 394.987 98.638 398.621 96.645 C 395.521 104.775 405.621 102.975 405.341 106.125 C 402.251 117.555 411.581 121.775 411.581 121.775 L 411.811 131.775 C 411.601 134.335 412.701 136.305 415.261 136.135 C 415.261 136.135 418.041 132.315 418.511 129.205 C 419.431 123.205 418.841 111.015 417.731 105.025 Z" style="fill:#263238"/><path d="M 377.511 174.105 C 385.093 173.551 392.357 170.834 398.441 166.275 C 398.441 166.275 394.271 178.415 377.841 178.105 L 377.511 174.105 Z" style="fill:#eb996e"/><path d="M 390.841 128.325 C 390.922 129.59 391.995 130.561 393.261 130.515 C 394.521 130.526 395.54 129.494 395.511 128.235 C 395.431 126.97 394.358 125.999 393.091 126.045 C 391.837 126.045 390.825 127.07 390.841 128.325 Z" style="fill:#263238"/><path d="M 388.101 122.465 C 388.411 122.785 390.381 121.545 393.101 121.645 C 395.821 121.745 397.821 123.085 398.101 122.795 C 398.251 122.655 397.941 122.095 397.101 121.485 C 395.919 120.68 394.531 120.229 393.101 120.185 C 391.699 120.118 390.307 120.465 389.101 121.185 C 388.251 121.785 387.951 122.325 388.101 122.465 Z" style="fill:#263238"/><path d="M 387.841 114.595 C 388.081 115.285 390.591 114.975 393.541 115.355 C 396.491 115.735 398.871 116.555 399.271 115.945 C 399.451 115.655 399.041 115.005 398.081 114.335 C 395.487 112.679 392.274 112.31 389.371 113.335 C 388.291 113.735 387.741 114.275 387.841 114.595 Z" style="fill:#263238"/><path d="M 380.421 148.945 C 382.528 148.238 384.684 147.687 386.871 147.295 L 388.461 146.795 C 389.272 148.241 389.404 149.972 388.821 151.525 C 388.142 152.641 387.017 153.412 385.731 153.645 C 384.83 153.882 383.871 153.726 383.091 153.215 C 383.091 153.215 381.031 152.405 380.421 148.945" style="fill:#eb996e"/><path d="M 384.771 153.655 C 385.631 153.52 386.445 153.177 387.141 152.655 C 387.864 152.082 388.392 151.3 388.651 150.415 C 388.987 149.337 388.987 148.183 388.651 147.105 L 388.591 146.925 L 388.891 147.095 C 386.491 147.625 384.321 148.095 382.751 148.385 C 381.91 148.598 381.049 148.725 380.181 148.765 C 380.988 148.445 381.821 148.197 382.671 148.025 C 384.221 147.635 386.381 147.125 388.781 146.585 L 389.011 146.535 L 389.081 146.745 L 389.141 146.945 C 389.522 148.121 389.522 149.388 389.141 150.565 C 388.831 151.53 388.218 152.368 387.391 152.955 C 386.839 153.346 386.195 153.587 385.521 153.655 C 385.021 153.745 384.761 153.685 384.771 153.655 Z" style="fill:#263238"/><path d="M 435.651 139.185 C 435.42 139.167 435.193 139.11 434.981 139.015 C 434.362 138.74 433.825 138.309 433.421 137.765 C 432.777 136.912 432.379 135.898 432.271 134.835 C 432.163 133.443 432.22 132.043 432.441 130.665 C 432.729 129.042 432.657 127.377 432.231 125.785 C 431.949 124.93 431.424 124.176 430.721 123.615 C 429.954 123.02 429.114 122.526 428.221 122.145 C 427.252 121.733 426.321 121.234 425.441 120.655 C 424.511 120 423.788 119.09 423.361 118.035 C 422.451 115.915 422.541 113.535 422.031 111.305 C 421.821 110.2 421.37 109.156 420.711 108.245 C 420.057 107.391 419.109 106.811 418.051 106.615 C 417.051 106.375 415.911 106.335 414.841 106.125 C 413.754 105.956 412.757 105.424 412.011 104.615 C 411.379 103.803 410.944 102.854 410.741 101.845 C 410.501 100.895 410.361 99.965 410.171 99.095 C 409.988 98.261 409.706 97.452 409.331 96.685 C 408.961 95.992 408.511 95.344 407.991 94.755 C 406.389 92.959 404.217 91.769 401.841 91.385 C 400.961 91.292 400.075 91.272 399.191 91.325 C 400.068 91.109 400.977 91.062 401.871 91.185 C 404.334 91.497 406.605 92.674 408.281 94.505 C 408.835 95.111 409.312 95.782 409.701 96.505 C 410.108 97.297 410.414 98.137 410.611 99.005 C 410.811 99.885 410.961 100.815 411.201 101.725 C 411.396 102.661 411.803 103.54 412.391 104.295 C 413.065 105.028 413.974 105.502 414.961 105.635 C 415.961 105.835 417.071 105.865 418.181 106.115 C 419.369 106.33 420.437 106.974 421.181 107.925 C 421.885 108.896 422.37 110.008 422.601 111.185 C 423.121 113.515 423.041 115.845 423.891 117.835 C 424.278 118.805 424.938 119.642 425.791 120.245 C 426.643 120.818 427.547 121.31 428.491 121.715 C 429.414 122.122 430.283 122.639 431.081 123.255 C 431.834 123.883 432.392 124.712 432.691 125.645 C 433.131 127.296 433.192 129.026 432.871 130.705 C 432.628 132.054 432.544 133.426 432.621 134.795 C 432.697 135.817 433.042 136.8 433.621 137.645 C 434.112 138.366 434.825 138.906 435.651 139.185 Z" style="fill:#455a64"/><path d="M 345.661 99.385 C 345.843 99.466 346.011 99.574 346.161 99.705 L 347.561 100.705 C 349.27 101.885 351.121 102.842 353.071 103.555 C 355.947 104.635 359.105 104.698 362.021 103.735 C 363.713 103.144 365.199 102.078 366.301 100.665 C 367.426 99.089 368.406 97.416 369.231 95.665 C 370.107 93.831 371.334 92.187 372.841 90.825 C 374.258 89.615 375.885 88.676 377.641 88.055 C 380.62 87.03 383.815 86.796 386.911 87.375 C 388.982 87.737 390.999 88.362 392.911 89.235 C 393.591 89.535 394.101 89.795 394.441 89.985 C 394.622 90.069 394.793 90.173 394.951 90.295 C 394.76 90.248 394.575 90.177 394.401 90.085 C 394.041 89.925 393.521 89.695 392.831 89.415 C 390.901 88.629 388.888 88.066 386.831 87.735 C 383.814 87.23 380.719 87.495 377.831 88.505 C 376.137 89.117 374.568 90.031 373.201 91.205 C 371.767 92.508 370.599 94.077 369.761 95.825 C 368.926 97.62 367.922 99.331 366.761 100.935 C 365.581 102.42 363.987 103.523 362.181 104.105 C 359.162 105.088 355.895 104.989 352.941 103.825 C 350.981 103.078 349.131 102.069 347.441 100.825 C 346.841 100.385 346.441 100.025 346.101 99.825 C 345.939 99.694 345.792 99.547 345.661 99.385 Z" style="fill:#455a64"/><path d="M 341.441 114.235 C 341.501 114.165 342.271 114.845 343.651 115.695 C 345.466 116.794 347.444 117.597 349.511 118.075 C 351.581 118.536 353.712 118.661 355.821 118.445 C 357.441 118.275 358.421 117.995 358.451 118.085 C 358.481 118.175 358.221 118.215 357.781 118.365 C 357.158 118.563 356.519 118.71 355.871 118.805 C 353.717 119.141 351.518 119.067 349.391 118.585 C 347.268 118.103 345.253 117.227 343.451 116.005 C 342.909 115.636 342.398 115.225 341.921 114.775 C 341.581 114.455 341.411 114.265 341.441 114.235 Z" style="fill:#455a64"/><path d="M 350.841 123.585 C 350.901 123.445 352.601 124.145 354.841 124.505 C 357.081 124.865 358.841 124.785 358.901 124.935 C 356.16 125.499 353.306 125.018 350.901 123.585 L 350.841 123.585 Z" style="fill:#455a64"/><path d="M 378.191 183.655 L 346.091 192.495 L 311.451 217.495 L 320.691 233.295 L 484.001 233.575 C 484.001 233.575 478.001 211.745 476.091 205.045 C 473.141 194.935 469.141 192.045 465.491 188.385 C 463.791 186.871 461.81 185.706 459.661 184.955 C 453.201 183.545 423.311 176.835 417.491 176.955 C 417.491 176.955 410.781 190.825 396.721 190.685 C 382.661 190.545 378.191 183.655 378.191 183.655 Z" style="fill:#455a64"/><path d="M 444.381 209.285 C 444.481 209.285 444.781 207.965 445.731 205.995 C 447.001 203.438 448.672 201.102 450.681 199.075 C 452.712 197.051 454.881 195.17 457.171 193.445 C 458.147 192.757 459.072 192.002 459.941 191.185 C 458.883 191.733 457.879 192.38 456.941 193.115 C 454.551 194.75 452.321 196.609 450.281 198.665 C 448.22 200.731 446.556 203.158 445.371 205.825 C 445.017 206.63 444.739 207.467 444.541 208.325 C 444.43 208.632 444.375 208.958 444.381 209.285 Z" style="fill:#263238"/><path d="M 346.841 226.625 C 346.985 225.501 347.021 224.366 346.951 223.235 C 346.951 221.135 346.811 218.235 346.571 215.055 C 346.331 211.875 346.001 208.975 345.701 206.905 C 345.604 205.774 345.397 204.655 345.081 203.565 C 345.062 204.699 345.132 205.832 345.291 206.955 C 345.481 209.225 345.721 212.015 345.981 215.095 C 346.241 218.175 346.381 220.975 346.531 223.245 C 346.544 224.378 346.648 225.508 346.841 226.625 Z" style="fill:#263238"/><g style="opacity:0.30000000000000004" transform="matrix(1, 0, 0, 1, 16.841318, 10.104791)"><path d="M320.38,220.68c2.64-.79,5.33-1.79,7.29-3.72s3-5,1.84-7.54A23.69,23.69,0,0,0,351.37,223l-38.74.49A33.12,33.12,0,0,1,320.38,220.68Z"/></g><path d="M 519.921 233.525 C 519.921 233.525 516.001 228.195 514.061 227.185 C 512.121 226.175 509.471 226.185 508.301 227.245 L 507.131 228.295 C 507.131 228.295 501.031 225.565 498.131 227.665 C 498.131 227.665 492.331 224.925 489.561 228.065 C 489.561 228.065 485.091 225.155 483.201 227.695 C 481.311 230.235 481.501 234.515 482.411 236.695 C 483.321 238.875 485.041 246.425 486.411 246.555 C 486.411 246.555 489.971 246.935 490.411 245.005 C 490.851 243.075 491.091 242.155 491.091 242.155 C 491.091 242.155 492.451 248.965 494.091 249.305 C 495.731 249.645 498.861 249.465 498.961 246.475 C 498.961 246.475 500.481 248.725 501.961 248.075 C 503.441 247.425 505.281 246.325 505.121 244.475 C 504.961 242.625 504.931 240.775 504.931 240.775 C 504.931 240.775 505.751 243.475 507.091 242.885 C 508.431 242.295 509.791 242.425 510.551 240.145 C 511.311 237.865 513.181 233.495 513.181 233.495 L 519.921 233.525 Z" style="fill:#ffbe9d"/><path d="M 505.031 240.655 C 504.874 240.004 504.681 239.363 504.451 238.735 C 503.61 235.616 504.228 232.284 506.131 229.675 C 506.851 228.675 507.431 228.155 507.371 228.085 C 507.311 228.015 506.641 228.445 505.801 229.415 C 503.587 232.029 502.921 235.62 504.051 238.855 C 504.225 239.526 504.562 240.144 505.031 240.655 Z" style="fill:#eb996e"/><path d="M 497.721 227.705 C 497.328 228.554 497.065 229.457 496.941 230.385 C 496.09 234.845 496.4 239.449 497.841 243.755 C 498.091 244.656 498.472 245.515 498.971 246.305 C 499.161 246.245 497.451 242.305 497.121 237.085 C 496.791 231.865 497.911 227.735 497.721 227.705 Z" style="fill:#eb996e"/><path d="M 489.391 228.155 C 488.957 230.533 488.927 232.967 489.301 235.355 C 489.484 237.767 490.065 240.133 491.021 242.355 C 491.191 242.355 490.331 239.205 489.891 235.285 C 489.451 231.365 489.561 228.165 489.391 228.155 Z" style="fill:#eb996e"/><path d="M 465.401 229.685 C 465.697 229.057 466.265 228.6 466.941 228.445 C 468.519 228.091 470.17 228.532 471.361 229.625 C 472.635 230.787 473.724 232.135 474.591 233.625 L 465.951 233.565 C 466.031 232.225 464.921 230.915 465.401 229.685 Z" style="fill:#ffbe9d"/><path d="M 246.441 235.855 C 246.977 230.502 249.965 225.699 254.531 222.855 C 258.163 220.718 262.55 220.283 266.531 221.665 L 283.201 227.465 C 284.101 228.465 311.611 217.825 311.611 217.825 L 320.841 233.605 L 268.261 233.525 C 271.152 236.823 274.216 239.964 277.441 242.935 L 281.011 254.795 L 280.661 265.525 C 278.771 266.395 275.951 263.085 275.951 263.085 L 274.301 266.085 L 274.851 268.995 C 274.851 268.995 279.711 280.795 279.541 283.425 C 279.542 284.264 278.85 284.937 278.011 284.915 C 276.584 284.992 275.251 284.203 274.631 282.915 L 267.721 269.485 C 267.721 269.485 262.371 268.185 260.501 266.425 C 258.631 264.665 255.841 261.305 255.841 261.305 L 252.441 260.825 C 252.037 260.883 251.624 260.802 251.271 260.595 C 249.457 259.697 248.179 257.989 247.831 255.995 L 246.101 246.995 C 245.681 244.955 246.011 240.195 246.441 235.855 Z" style="fill:#ffbe9d"/><path d="M 262.101 259.225 C 263.068 263.117 265.024 266.693 267.781 269.605 C 267.911 269.505 266.321 267.375 264.781 264.515 C 263.241 261.655 262.251 259.175 262.101 259.225 Z" style="fill:#eb996e"/><path d="M 254.081 258.245 C 253.901 258.315 254.531 259.705 255.611 261.165 C 256.184 262.11 256.922 262.943 257.791 263.625 C 257.364 262.61 256.78 261.669 256.061 260.835 C 255.473 259.919 254.811 259.053 254.081 258.245 Z" style="fill:#eb996e"/><path d="M 275.951 271.725 C 275.704 270.614 275.39 269.518 275.011 268.445 C 274.401 266.445 273.611 263.635 272.841 260.525 C 272.451 258.965 272.101 257.525 271.841 256.125 C 271.529 254.955 271.408 253.743 271.481 252.535 C 271.601 251.432 272.043 250.388 272.751 249.535 C 272.751 249.535 272.431 249.675 272.051 250.145 C 271.519 250.831 271.174 251.645 271.051 252.505 C 270.914 253.76 270.998 255.029 271.301 256.255 C 271.571 257.625 271.911 259.115 272.301 260.685 C 273.081 263.805 273.931 266.595 274.641 268.585 C 274.974 269.672 275.412 270.724 275.951 271.725 Z" style="fill:#eb996e"/><path d="M 272.341 251.785 C 272.271 251.845 272.841 252.495 273.501 253.685 C 274.359 255.222 274.867 256.929 274.991 258.685 C 274.976 259.691 275.059 260.695 275.241 261.685 C 275.441 262.518 275.878 263.276 276.501 263.865 C 277.012 264.435 277.654 264.871 278.371 265.135 C 278.431 265.055 277.691 264.585 276.791 263.595 C 276.271 263.033 275.908 262.343 275.741 261.595 C 275.596 260.629 275.532 259.652 275.551 258.675 C 275.425 256.832 274.837 255.05 273.841 253.495 C 273.472 252.822 272.96 252.239 272.341 251.785 Z" style="fill:#eb996e"/><path d="M 268.421 233.675 C 268.521 233.545 266.571 231.925 264.601 229.515 C 262.631 227.105 261.371 224.885 261.191 225.035 C 261.358 225.562 261.589 226.066 261.881 226.535 C 262.541 227.716 263.307 228.834 264.171 229.875 C 265.317 231.415 266.763 232.708 268.421 233.675 Z" style="fill:#eb996e"/><g style="opacity:0.30000000000000004" transform="matrix(1, 0, 0, 1, 16.841318, 10.104791)"><polygon points="424.56 223.43 425.21 208.36 414.63 223.41 424.56 223.43"/></g><path d="M 441.391 233.525 C 441.304 230.549 441.384 227.571 441.631 224.605 C 441.711 221.63 441.962 218.661 442.381 215.715 C 442.482 218.69 442.405 221.669 442.151 224.635 C 442.079 227.611 441.825 230.58 441.391 233.525 Z" style="fill:#263238"/><path d="M 438.161 180.915 C 438.317 181.227 438.409 181.567 438.431 181.915 C 438.51 182.897 438.253 183.878 437.701 184.695 C 436.857 186.018 435.547 186.978 434.031 187.385 C 432.07 187.864 430.046 188.036 428.031 187.895 C 426.869 187.872 425.706 187.932 424.551 188.075 C 423.318 188.229 422.133 188.652 421.081 189.315 C 419.992 190.067 419.13 191.105 418.591 192.315 C 418.023 193.623 417.594 194.987 417.311 196.385 C 416.991 197.825 416.701 199.315 416.241 200.825 C 414.794 205.787 410.399 209.315 405.241 209.655 C 401.787 209.833 398.404 208.627 395.841 206.305 C 394.656 205.219 393.662 203.941 392.901 202.525 C 392.257 201.191 391.266 200.054 390.031 199.235 C 388.784 198.585 387.365 198.337 385.971 198.525 C 384.626 198.671 383.29 198.898 381.971 199.205 C 380.721 199.498 379.445 199.672 378.161 199.725 C 376.964 199.753 375.771 199.563 374.641 199.165 C 372.716 198.488 370.995 197.332 369.641 195.805 C 368.606 194.663 367.807 193.327 367.291 191.875 C 367.097 191.352 366.946 190.813 366.841 190.265 C 366.791 189.775 366.711 189.375 366.711 189.045 L 366.711 188.285 C 366.702 188.202 366.702 188.118 366.711 188.035 C 366.758 189.323 367.012 190.596 367.461 191.805 C 367.998 193.215 368.807 194.506 369.841 195.605 C 371.185 197.081 372.887 198.186 374.781 198.815 C 375.872 199.185 377.02 199.358 378.171 199.325 C 379.429 199.262 380.678 199.081 381.901 198.785 C 383.22 198.468 384.555 198.227 385.901 198.065 C 387.387 197.862 388.9 198.124 390.231 198.815 C 391.542 199.669 392.599 200.861 393.291 202.265 C 394.036 203.635 395.002 204.871 396.151 205.925 C 398.611 208.139 401.846 209.292 405.151 209.135 C 408.439 208.888 411.484 207.309 413.581 204.765 C 415.651 202.315 416.141 199.135 416.811 196.275 C 417.101 194.84 417.547 193.442 418.141 192.105 C 418.723 190.823 419.642 189.724 420.801 188.925 C 421.911 188.231 423.161 187.794 424.461 187.645 C 425.633 187.51 426.813 187.464 427.991 187.505 C 430.001 187.664 432.023 187.522 433.991 187.085 C 435.454 186.708 436.728 185.808 437.571 184.555 C 438.123 183.777 438.401 182.838 438.361 181.885 C 438.316 181.557 438.25 181.233 438.161 180.915 Z" style="fill:#fff"/><path d="M 389.531 232.445 C 389.436 232.227 389.366 231.999 389.321 231.765 L 388.771 229.765 C 388.141 227.337 387.128 225.025 385.771 222.915 C 385.31 222.236 384.777 221.609 384.181 221.045 C 383.53 220.445 382.8 219.937 382.011 219.535 C 380.233 218.705 378.266 218.36 376.311 218.535 C 374.127 218.729 371.962 219.107 369.841 219.665 C 367.532 220.281 365.151 220.59 362.761 220.585 C 360.303 220.627 357.92 219.738 356.091 218.095 C 354.529 216.426 353.596 214.266 353.451 211.985 C 353.305 209.985 353.352 207.976 353.591 205.985 C 353.786 204.269 353.83 202.539 353.721 200.815 C 353.597 198.305 352.474 195.95 350.601 194.275 C 349.882 193.712 349.06 193.295 348.181 193.045 L 348.361 193.045 C 348.541 193.063 348.719 193.1 348.891 193.155 C 349.557 193.353 350.181 193.671 350.731 194.095 C 352.712 195.765 353.925 198.17 354.091 200.755 C 354.227 202.5 354.203 204.254 354.021 205.995 C 353.805 207.964 353.775 209.95 353.931 211.925 C 353.994 216.708 358.071 220.451 362.841 220.105 C 365.204 220.116 367.558 219.813 369.841 219.205 C 371.989 218.648 374.18 218.277 376.391 218.095 C 378.43 217.934 380.476 218.313 382.321 219.195 C 383.142 219.625 383.899 220.167 384.571 220.805 C 385.178 221.414 385.721 222.085 386.191 222.805 C 387.527 224.962 388.491 227.328 389.041 229.805 C 389.261 230.665 389.401 231.345 389.491 231.805 C 389.524 232.016 389.538 232.231 389.531 232.445 Z" style="fill:#fff"/><path d="M 442.621 219.675 C 441.228 218.966 439.763 218.406 438.251 218.005 C 436.615 217.615 434.927 217.491 433.251 217.635 C 431.198 217.816 429.205 218.426 427.401 219.425 C 425.594 220.434 424.006 221.794 422.731 223.425 C 421.683 224.744 420.874 226.236 420.341 227.835 C 419.965 228.904 419.888 230.056 420.121 231.165 C 420.239 231.564 420.382 231.955 420.551 232.335 C 420.551 232.335 420.461 232.255 420.331 232.085 C 420.158 231.814 420.02 231.521 419.921 231.215 C 419.605 230.073 419.626 228.865 419.981 227.735 C 420.486 226.07 421.289 224.512 422.351 223.135 C 423.648 221.442 425.278 220.033 427.141 218.995 C 429.01 217.958 431.081 217.338 433.211 217.175 C 434.94 217.048 436.678 217.214 438.351 217.665 C 439.477 217.969 440.562 218.409 441.581 218.975 C 441.941 219.175 442.201 219.355 442.381 219.475 C 442.561 219.595 442.631 219.655 442.621 219.675 Z" style="fill:#fff"/><path d="M 453.401 192.695 C 453.351 192.695 453.041 192.285 452.791 191.455 C 452.483 190.371 452.435 189.23 452.651 188.125 C 452.868 187.015 453.341 185.97 454.031 185.075 C 454.571 184.405 455.031 184.075 455.031 184.155 C 453.089 186.547 452.466 189.749 453.371 192.695 L 453.401 192.695 Z" style="fill:#fff"/><path d="M 477.841 212.515 C 477.824 212.666 477.787 212.814 477.731 212.955 C 477.612 213.367 477.458 213.768 477.271 214.155 C 476.581 215.591 475.604 216.87 474.401 217.915 C 472.61 219.483 470.399 220.495 468.041 220.825 C 465.341 221.225 462.451 220.365 459.551 219.645 C 458.145 219.26 456.699 219.039 455.241 218.985 C 453.883 218.964 452.53 219.174 451.241 219.605 C 449.066 220.344 447.112 221.62 445.561 223.315 C 444.507 224.453 443.664 225.771 443.071 227.205 C 442.651 228.205 442.541 228.835 442.481 228.825 C 442.474 228.672 442.494 228.52 442.541 228.375 C 442.624 227.954 442.738 227.539 442.881 227.135 C 443.416 225.638 444.23 224.257 445.281 223.065 C 446.852 221.284 448.852 219.934 451.091 219.145 C 452.419 218.683 453.816 218.456 455.221 218.475 C 456.715 218.529 458.197 218.75 459.641 219.135 C 462.571 219.865 465.381 220.715 467.951 220.345 C 470.228 220.051 472.373 219.111 474.131 217.635 C 475.326 216.642 476.32 215.43 477.061 214.065 C 477.651 213.105 477.841 212.495 477.841 212.515 Z" style="fill:#fff"/><path d="M 344.141 230.785 C 344.025 230.799 343.908 230.799 343.791 230.785 C 343.459 230.817 343.124 230.817 342.791 230.785 C 341.542 230.704 340.32 230.385 339.191 229.845 C 337.502 229.045 336.053 227.814 334.991 226.275 C 334.373 225.357 333.91 224.343 333.621 223.275 C 333.351 222.139 333.154 220.986 333.031 219.825 C 332.761 217.485 332.381 215.205 331.031 213.675 C 329.813 212.365 328.182 211.511 326.411 211.255 C 325.212 211.044 323.999 210.92 322.781 210.885 C 322.327 210.891 321.872 210.864 321.421 210.805 C 321.868 210.708 322.325 210.668 322.781 210.685 C 324.019 210.637 325.257 210.708 326.481 210.895 C 328.357 211.117 330.095 211.991 331.391 213.365 C 332.106 214.225 332.621 215.232 332.901 216.315 C 333.193 217.444 333.397 218.594 333.511 219.755 C 333.633 220.892 333.823 222.021 334.081 223.135 C 334.345 224.153 334.778 225.12 335.361 225.995 C 336.372 227.488 337.749 228.697 339.361 229.505 C 340.853 230.247 342.478 230.683 344.141 230.785 Z" style="fill:#fff"/></g></svg>