<?xml version="1.0" standalone="no"?>
<!DOCTYPE svg PUBLIC "-//W3C//DTD SVG 20010904//EN"
 "http://www.w3.org/TR/2001/REC-SVG-20010904/DTD/svg10.dtd">
<svg version="1.0" xmlns="http://www.w3.org/2000/svg"
 width="512.000000pt" height="512.000000pt" viewBox="0 0 512.000000 512.000000"
 preserveAspectRatio="xMidYMid meet">

<g transform="translate(0.000000,512.000000) scale(0.100000,-0.100000)"
fill="#ffffff" stroke="none">
<path d="M811 4739 c-178 -35 -358 -143 -471 -282 -28 -34 -71 -102 -95 -152
-84 -174 -79 -95 -83 -1135 -4 -997 -3 -1012 48 -1153 39 -105 90 -187 173
-274 107 -112 220 -180 382 -229 57 -17 150 -19 1750 -22 1162 -2 1712 1 1759
8 167 26 310 96 433 213 131 125 215 283 243 457 8 55 10 324 8 1000 -4 1040
1 961 -83 1135 -96 199 -262 340 -490 417 l-70 23 -1730 1 c-957 1 -1750 -2
-1774 -7z m3474 -324 c146 -39 265 -148 326 -300 l24 -60 3 -899 c2 -586 -1
-918 -8 -954 -32 -175 -175 -328 -349 -374 -61 -16 -189 -17 -1721 -17 -1532
0 -1660 1 -1721 17 -173 45 -316 198 -349 371 -6 34 -10 376 -10 930 0 954 -1
928 57 1047 32 65 117 154 188 194 109 62 2 59 1830 59 1473 1 1678 -1 1730
-14z"/>
<path d="M2175 3947 c-96 -32 -162 -90 -204 -177 l-26 -55 0 -595 0 -595 28
-57 c54 -110 165 -180 285 -180 37 1 85 7 107 15 22 8 247 134 500 279 512
294 556 326 591 428 40 119 12 253 -73 336 -38 38 -892 538 -997 585 -61 26
-157 34 -211 16z m578 -591 c218 -127 397 -232 397 -235 -1 -6 -859 -502 -881
-509 -5 -2 -9 192 -9 512 l0 516 48 -27 c26 -16 227 -131 445 -257z"/>
<path d="M1696 1208 c-57 -33 -76 -77 -76 -170 l0 -78 -287 0 c-270 0 -289 -1
-329 -21 -115 -55 -117 -221 -3 -279 35 -19 59 -20 329 -20 l290 0 0 -83 c0
-71 3 -87 24 -118 47 -69 151 -91 216 -46 53 35 73 79 78 168 l5 79 1069 0
c1043 0 1070 0 1107 20 114 58 111 224 -5 280 -39 20 -63 20 -1106 20 l-1065
0 -5 78 c-3 44 -12 91 -21 109 -40 76 -146 105 -221 61z"/>
</g>
</svg>
