<?xml version="1.0" encoding="UTF-8"?>
<svg version="1.1" xmlns="http://www.w3.org/2000/svg" width="203" height="256">
<path d="M0 0 C4.99770055 1.02142785 6.05710226 3.00811965 8.83349609 7.1184082 C9.74929443 8.55253052 9.74929443 8.55253052 10.68359375 10.015625 C11.34311035 11.00457764 12.00262695 11.99353027 12.68212891 13.01245117 C14.18581336 15.27273312 15.67905525 17.5374089 17.16064453 19.81201172 C20.63190464 25.13436133 24.16810613 30.41336074 27.69706726 35.69754028 C30.42132265 39.77751737 33.14108466 43.86025126 35.84741211 47.95214844 C36.35575089 48.71925644 36.86408966 49.48636444 37.38783264 50.27671814 C38.35008504 51.72923711 39.31056933 53.18292943 40.26902771 54.63795471 C41.96903549 57.2006792 43.56534702 59.58487827 45.74609375 61.765625 C46.40996094 60.74082031 47.07382813 59.71601562 47.7578125 58.66015625 C48.64942546 57.29927331 49.54137021 55.93860771 50.43359375 54.578125 C50.86865234 53.90458984 51.30371094 53.23105469 51.75195312 52.53710938 C54.39414288 48.5248953 56.9805722 44.81955193 60.74609375 41.765625 C63.18690491 41.39402771 63.18690491 41.39402771 65.74609375 41.765625 C67.54905701 43.41590881 67.54905701 43.41590881 69.17358398 45.69946289 C69.77008759 46.52487579 70.36659119 47.3502887 70.98117065 48.20071411 C71.56359528 49.0471347 72.1460199 49.8935553 72.74609375 50.765625 C73.52534714 51.87923904 73.52534714 51.87923904 74.32034302 53.01535034 C75.87393503 55.26917669 77.39408257 57.5424141 78.90625 59.82421875 C79.45921249 60.65341324 80.01217499 61.48260773 80.58189392 62.33692932 C81.740588 64.07613129 82.89759934 65.81645545 84.05297852 67.55786133 C85.80373712 70.1958073 87.56061909 72.82959299 89.31835938 75.46289062 C90.45218857 77.16642335 91.58566392 78.87019166 92.71875 80.57421875 C93.23454117 81.3474498 93.75033234 82.12068085 94.28175354 82.91734314 C104.6920527 98.63252313 110.58000238 111.04545258 107.125 130.2109375 C104.88839319 137.82534112 100.62653033 143.60697884 95.74609375 149.765625 C93.63405792 152.93367875 93.51740701 153.5105699 93.65625 157.08984375 C93.68984619 158.3735083 93.68984619 158.3735083 93.72412109 159.68310547 C93.75199707 160.59721191 93.77987305 161.51131836 93.80859375 162.453125 C94.16646256 189.63721151 83.7446371 212.03683389 65.18359375 231.765625 C54.44592238 242.19229674 41.83677638 248.98011014 27.74609375 253.765625 C26.6890625 254.1265625 25.63203125 254.4875 24.54296875 254.859375 C-0.94338326 261.77526952 -27.97013518 256.16842862 -50.52734375 243.4921875 C-55.47837585 240.35700672 -59.87985679 236.65218498 -64.25390625 232.765625 C-64.96417969 232.13914063 -65.67445312 231.51265625 -66.40625 230.8671875 C-84.14372923 214.21854363 -93.67032182 189.80732753 -94.59057617 165.81518555 C-95.12026585 136.62827218 -81.66086954 114.53837393 -65.37890625 91.54418945 C-59.49566595 83.19864186 -53.84066456 74.70771434 -48.19140625 66.203125 C-39.29284262 52.81637666 -30.37004282 39.44638415 -21.39627075 26.1098938 C-20.09737652 24.17851429 -18.79973968 22.24628854 -17.50338745 20.3132019 C-15.68780842 17.60633276 -13.8679225 14.90241095 -12.046875 12.19921875 C-11.50419983 11.38839844 -10.96152466 10.57757813 -10.40240479 9.7421875 C-9.89860291 8.99638428 -9.39480103 8.25058105 -8.87573242 7.48217773 C-8.22153572 6.50920998 -8.22153572 6.50920998 -7.55412292 5.5165863 C-5.17516115 2.31291257 -3.98558411 0.9377845 0 0 Z " fill="#A1DEF9" transform="translate(94.25390625,-0.765625)"/>
<path d="M0 0 C4.99770055 1.02142785 6.05710226 3.00811965 8.83349609 7.1184082 C9.74929443 8.55253052 9.74929443 8.55253052 10.68359375 10.015625 C11.34311035 11.00457764 12.00262695 11.99353027 12.68212891 13.01245117 C14.18581336 15.27273312 15.67905525 17.5374089 17.16064453 19.81201172 C20.63190464 25.13436133 24.16810613 30.41336074 27.69706726 35.69754028 C30.42132265 39.77751737 33.14108466 43.86025126 35.84741211 47.95214844 C36.35575089 48.71925644 36.86408966 49.48636444 37.38783264 50.27671814 C38.35008504 51.72923711 39.31056933 53.18292943 40.26902771 54.63795471 C41.96903549 57.2006792 43.56534702 59.58487827 45.74609375 61.765625 C46.40996094 60.74082031 47.07382813 59.71601562 47.7578125 58.66015625 C48.64942546 57.29927331 49.54137021 55.93860771 50.43359375 54.578125 C50.86865234 53.90458984 51.30371094 53.23105469 51.75195312 52.53710938 C54.39414288 48.5248953 56.9805722 44.81955193 60.74609375 41.765625 C63.18690491 41.39402771 63.18690491 41.39402771 65.74609375 41.765625 C67.54905701 43.41590881 67.54905701 43.41590881 69.17358398 45.69946289 C69.77008759 46.52487579 70.36659119 47.3502887 70.98117065 48.20071411 C71.56359528 49.0471347 72.1460199 49.8935553 72.74609375 50.765625 C73.52534714 51.87923904 73.52534714 51.87923904 74.32034302 53.01535034 C75.87393503 55.26917669 77.39408257 57.5424141 78.90625 59.82421875 C79.45921249 60.65341324 80.01217499 61.48260773 80.58189392 62.33692932 C81.740588 64.07613129 82.89759934 65.81645545 84.05297852 67.55786133 C85.80373712 70.1958073 87.56061909 72.82959299 89.31835938 75.46289062 C90.45218857 77.16642335 91.58566392 78.87019166 92.71875 80.57421875 C93.23454117 81.3474498 93.75033234 82.12068085 94.28175354 82.91734314 C104.6920527 98.63252313 110.58000238 111.04545258 107.125 130.2109375 C104.88839319 137.82534112 100.62653033 143.60697884 95.74609375 149.765625 C93.63405792 152.93367875 93.51740701 153.5105699 93.65625 157.08984375 C93.68984619 158.3735083 93.68984619 158.3735083 93.72412109 159.68310547 C93.75199707 160.59721191 93.77987305 161.51131836 93.80859375 162.453125 C94.16646256 189.63721151 83.7446371 212.03683389 65.18359375 231.765625 C54.44592238 242.19229674 41.83677638 248.98011014 27.74609375 253.765625 C26.6890625 254.1265625 25.63203125 254.4875 24.54296875 254.859375 C-0.94338326 261.77526952 -27.97013518 256.16842862 -50.52734375 243.4921875 C-55.47837585 240.35700672 -59.87985679 236.65218498 -64.25390625 232.765625 C-64.96417969 232.13914063 -65.67445312 231.51265625 -66.40625 230.8671875 C-84.14372923 214.21854363 -93.67032182 189.80732753 -94.59057617 165.81518555 C-95.12026585 136.62827218 -81.66086954 114.53837393 -65.37890625 91.54418945 C-59.49566595 83.19864186 -53.84066456 74.70771434 -48.19140625 66.203125 C-39.29284262 52.81637666 -30.37004282 39.44638415 -21.39627075 26.1098938 C-20.09737652 24.17851429 -18.79973968 22.24628854 -17.50338745 20.3132019 C-15.68780842 17.60633276 -13.8679225 14.90241095 -12.046875 12.19921875 C-11.50419983 11.38839844 -10.96152466 10.57757813 -10.40240479 9.7421875 C-9.89860291 8.99638428 -9.39480103 8.25058105 -8.87573242 7.48217773 C-8.22153572 6.50920998 -8.22153572 6.50920998 -7.55412292 5.5165863 C-5.17516115 2.31291257 -3.98558411 0.9377845 0 0 Z M-1.25390625 15.765625 C-12.94422442 32.848339 -24.5343586 49.99824145 -36.1138916 67.15614319 C-39.65001405 72.39430805 -43.19210794 77.62838561 -46.73825073 82.85977173 C-49.17589921 86.45639533 -51.6114318 90.05444917 -54.04675293 93.65264893 C-55.21009791 95.37038232 -56.37437739 97.08748325 -57.53967285 98.80389404 C-70.74300714 117.3070599 -70.74300714 117.3070599 -80.25390625 137.765625 C-80.55167969 138.57128906 -80.84945312 139.37695312 -81.15625 140.20703125 C-87.67054369 160.83062465 -83.4445343 184.76069505 -73.80859375 203.58984375 C-61.48957191 225.03032712 -42.72801969 238.64062767 -19.23852539 245.2668457 C1.06747368 250.37019865 23.87106146 246.43955687 41.80078125 235.984375 C48.71986958 231.54770768 54.88715239 226.52231607 60.74609375 220.765625 C61.37128906 220.15332031 61.99648437 219.54101562 62.640625 218.91015625 C71.67535172 209.34517469 76.94502312 197.18450759 80.74609375 184.765625 C80.99230469 184.02441406 81.23851562 183.28320312 81.4921875 182.51953125 C83.73191607 174.59552605 82.90439795 165.91829112 82.74609375 157.765625 C81.94449829 158.08394287 81.94449829 158.08394287 81.12670898 158.40869141 C75.22979525 160.58395488 70.06897775 161.24582638 63.80859375 161.140625 C62.9283252 161.12974854 62.04805664 161.11887207 61.14111328 161.10766602 C47.83854543 160.78083675 38.72863729 156.18707244 29.43359375 146.578125 C20.60684699 136.1790023 18.99804286 123.95032579 19.57128906 110.84228516 C20.4449325 100.46349873 27.16635361 91.79577709 33.01171875 83.58203125 C33.7490625 82.52886719 34.48640625 81.47570312 35.24609375 80.390625 C35.93703125 79.43414062 36.62796875 78.47765625 37.33984375 77.4921875 C39.04217609 74.19155425 38.77431986 73.25454083 37.74609375 69.765625 C36.49730998 67.50330495 36.49730998 67.50330495 34.8515625 65.30078125 C33.92670044 63.99778076 33.92670044 63.99778076 32.9831543 62.66845703 C32.30679932 61.73114746 31.63044434 60.79383789 30.93359375 59.828125 C29.48254815 57.78737742 28.0348032 55.74428016 26.58984375 53.69921875 C26.01486397 52.88602173 26.01486397 52.88602173 25.42826843 52.05639648 C22.31489044 47.62971199 19.31346922 43.13475886 16.33984375 38.61328125 C15.88934158 37.92957962 15.43883942 37.24587799 14.97468567 36.54145813 C13.17998745 33.81526612 11.38688143 31.08821471 9.60848999 28.35134888 C8.36305139 26.43535935 7.10813513 24.52588624 5.8515625 22.6171875 C5.13121826 21.51197754 4.41087402 20.40676758 3.66870117 19.26806641 C1.92395907 16.51400766 1.92395907 16.51400766 -1.25390625 15.765625 Z " fill="#010203" transform="translate(94.25390625,-0.765625)"/>
<path d="M0 0 C2.44556423 2.36020873 4.59149973 4.64062003 6.453125 7.484375 C7.12323608 8.49866577 7.12323608 8.49866577 7.80688477 9.53344727 C8.28311279 10.26490967 8.75934082 10.99637207 9.25 11.75 C10.3052898 13.35853223 11.36132078 14.96657838 12.41796875 16.57421875 C12.98692871 17.44095215 13.55588867 18.30768555 14.14208984 19.20068359 C16.14720501 22.22179405 18.18927581 25.2155295 20.23828125 28.20703125 C21.31384277 29.78822754 21.31384277 29.78822754 22.41113281 31.40136719 C23.81800764 33.46857273 25.23243188 35.53066567 26.65527344 37.58691406 C32.85899081 46.75589169 36.33056401 54.79604622 35 66 C32.90366402 75.74546667 28.53934939 83.68675002 20.625 89.875 C11.68657332 95.53992393 1.35671125 96.51633441 -9 95 C-19.80221899 91.61906131 -26.74315374 84.95461201 -32.0546875 75.2109375 C-34.06785346 70.50245844 -34.2132337 65.82825506 -34.3125 60.75 C-34.34988281 59.50734375 -34.38726562 58.2646875 -34.42578125 56.984375 C-33.79885102 46.77472804 -26.26607027 38.00117384 -20.73828125 29.82617188 C-19.2611002 27.64141722 -17.79374249 25.45033692 -16.328125 23.2578125 C-11.04760526 15.38118215 -5.65892045 7.6111868 0 0 Z " fill="#4493E2" transform="translate(157,56)"/>
<path d="M0 0 C4.75 0.75 4.75 0.75 7 3 C7.52456832 7.1275244 6.53788891 9.23847137 4.25 12.625 C-3.92398676 25.53332897 -6.08664025 40.3229276 -3.61767578 55.32275391 C-0.39844661 69.58577226 7.3523727 82.17684254 19.375 90.6796875 C25.66394914 94.56996694 32.35065141 97.77815068 39 101 C39.125 103.875 39.125 103.875 39 107 C37 109 37 109 34.3515625 109.33203125 C30.23863022 108.92457292 27.00878019 107.53803214 23.375 105.6875 C22.67640869 105.33429688 21.97781738 104.98109375 21.25805664 104.6171875 C14.08648605 100.80240027 8.60350304 95.8100838 3 90 C2.33613281 89.36707031 1.67226563 88.73414063 0.98828125 88.08203125 C-11.59046734 75.27714786 -15.49836932 57.35635598 -15.34985352 40.07373047 C-14.96486047 24.91511536 -10.08110896 11.4668284 0 0 Z " fill="#050707" transform="translate(37,121)"/>
<path d="M0 0 C2.5625 0.1875 2.5625 0.1875 4.5625 2.1875 C4.61468927 5.6879087 4.50854778 9.13381674 4.30859375 12.62695312 C4.13808235 18.34911502 5.26728008 21.48004298 8.5625 26.1875 C9.305 26.703125 10.0475 27.21875 10.8125 27.75 C12.5625 29.1875 12.5625 29.1875 12.9375 32.25 C12.5625 35.1875 12.5625 35.1875 10.5625 37.1875 C6.89192911 37.33144396 4.50953718 36.98541272 1.65234375 34.578125 C-5.65766693 26.56970565 -6.77193272 20.22905647 -6.8359375 9.7109375 C-6.33127534 5.24814071 -4.96847042 0.38219003 0 0 Z " fill="#020407" transform="translate(136.4375,101.8125)"/>
<path d="M0 0 C3.29714793 0.32971479 4.6226839 0.6226839 7 3 C6.625 6.125 6.625 6.125 6 9 C3.69 9.33 1.38 9.66 -1 10 C-3 7 -3 7 -2.75 4.4375 C-2 2 -2 2 0 0 Z " fill="#090C0E" transform="translate(85,224)"/>
<path d="M0 0 C2.5 0.25 2.5 0.25 4.5 2.25 C4.8125 5.25 4.8125 5.25 4.5 8.25 C1.5 10.25 1.5 10.25 -1.125 9.9375 C-3.5 9.25 -3.5 9.25 -4.5 8.25 C-4.6875 5.3125 -4.6875 5.3125 -4.5 2.25 C-2.5 0.25 -2.5 0.25 0 0 Z " fill="#020609" transform="translate(157.5,133.75)"/>
</svg>
